<?xml version="1.0" standalone="no"?>
<!DOCTYPE svg PUBLIC "-//W3C//DTD SVG 1.1//EN" "http://www.w3.org/Graphics/SVG/1.1/DTD/svg11.dtd" >
<!--
2013-8-28: Created.
-->
<svg xmlns="http://www.w3.org/2000/svg">
<metadata>
Created by FontForge 20120731 at Wed Aug 28 11:18:40 2013
 By Damien Antipa
Created by Damien Antipa with FontForge 2.0 (http://fontforge.sf.net)
</metadata>
<defs>
<font id="AdobeIcons" horiz-adv-x="512" >
  <font-face 
    font-family="AdobeIcons"
    font-weight="500"
    font-stretch="normal"
    units-per-em="512"
    panose-1="2 0 6 3 0 0 0 0 0 0"
    ascent="448"
    descent="-64"
    bbox="-0.57551 -64.5667 512.5 448.359"
    underline-thickness="25.6"
    underline-position="-51.2"
    unicode-range="U+F100-F288"
  />
    <missing-glyph />
    <glyph glyph-name="uniF100" unicode="&#xf100;" 
d="M53 245l203 -202l203 202l53 -53l-256 -256l-256 256zM53 448l203 -203l203 203l53 -53l-256 -256l-256 256z" />
    <glyph glyph-name="uniF101" unicode="&#xf101;" 
d="M309 395l-202 -203l202 -203l-53 -53l-256 256l256 256zM512 395l-202 -203l202 -203l-53 -53l-256 256l256 256z" />
    <glyph glyph-name="uniF102" unicode="&#xf102;" 
d="M203 395l53 53l256 -256l-256 -256l-53 53l202 203zM0 395l53 53l256 -256l-256 -256l-53 53l203 203z" />
    <glyph glyph-name="uniF103" unicode="&#xf103;" 
d="M459 139l-203 202l-203 -202l-53 53l256 256l256 -256zM459 -64l-203 203l-203 -203l-53 53l256 256l256 -256z" />
    <glyph glyph-name="uniF104" unicode="&#xf104;" 
d="M363 171l142 -142c10 -10 10 -26 0 -36l-28 -28c-10 -10 -26 -10 -36 0l-142 142zM507 411c0 0 5 -5 5 -16s-5 -16 -5 -16l-38 -38l-64 64l38 38s5 5 16 5s16 -5 16 -5zM437 309l-277 -277l-64 64l277 277zM128 0l-123 -64c-5 0 -5 0 -5 5l64 123zM279 448h84v-43h-64
c-21 0 -64 -10 -64 -42v-64l-64 -64h-43l-44 -44c3 -9 1 -19 -6 -26l-9 -8c-10 -10 -26 -10 -36 0l-26 28c-10 10 -10 24 0 34l9 8c7 7 17 10 26 7l43 43v80s70 91 194 91z" />
    <glyph glyph-name="uniF105" unicode="&#xf105;" 
d="M256 448c141 0 256 -115 256 -256s-115 -256 -256 -256s-256 115 -256 256s115 256 256 256zM427 149v86h-128v128h-86v-128h-128v-86h128v-128h86v128h128z" />
    <glyph glyph-name="uniF106" unicode="&#xf106;" horiz-adv-x="491" 
d="M491 256v-107h-192v-192h-107v192h-192v107h192v192h107v-192h192z" />
    <glyph glyph-name="uniF107" unicode="&#xf107;" 
d="M352 277h145c9 -27 15 -55 15 -85c0 -47 -13 -91 -35 -129zM160 107h-143c-12 34 -17 55 -17 85c0 47 13 91 35 129zM235 320l75 126c75 -16 137 -62 172 -126h-247zM277 64l-75 -126c-75 16 -137 62 -172 126h247zM138 240l-72 124c47 52 115 84 190 84h2zM374 144
l72 -123c-47 -52 -115 -85 -190 -85h-2z" />
    <glyph glyph-name="uniF108" unicode="&#xf108;" 
d="M256 448c141 0 256 -115 256 -256s-115 -256 -256 -256s-256 115 -256 256s115 256 256 256zM106 49v100h-42v-35c0 -1 1 -2 1 -3c10 -23 24 -44 41 -62zM175 1c6 -2 11 -4 17 -6v218h-43v-199c8 -5 17 -9 26 -13zM225 239l4 2l120 87l58 -56l6 -5l6 5l28 22v1
c-4 9 -8 18 -13 26l-20 -16l-57 53l-5 4l-6 -4l-125 -89l-55 22l-6 2l-4 -5l-64 -72l-39 -10h-4c0 -9 1 -19 3 -28l5 2l47 10l3 1l1 2l59 67l53 -20zM277 -14v227h-42v-227c7 -1 14 -1 21 -1s14 0 21 1zM337 1c9 4 18 9 26 14v241h-43v-261c6 2 12 4 17 6zM447 111
c0 1 1 2 1 3v121h-43v-187c18 18 32 40 42 63z" />
    <glyph glyph-name="uniF109" unicode="&#xf109;" 
d="M256 65c11 0 21 -4 29 -12c3 -3 6 -6 9 -8c-9 -12 -22 -20 -38 -20s-29 8 -38 20c3 2 6 5 9 8c8 8 18 12 29 12zM137 120c26 0 47 -21 47 -47v-5c-4 -1 -8 -2 -12 -2c-11 0 -22 4 -30 12s-12 19 -12 30c0 4 1 8 2 12h5zM256 319c-11 0 -21 4 -29 12c-3 3 -6 6 -9 8
c9 12 22 20 38 20s29 -8 38 -20c-3 -2 -6 -5 -9 -8c-8 -8 -18 -12 -29 -12zM137 264h-5c-1 4 -2 8 -2 12c0 11 4 22 12 30s19 12 30 12c4 0 8 -1 12 -2v-5c0 -26 -21 -47 -47 -47zM109 231c2 -3 5 -6 8 -9c8 -8 12 -19 12 -30s-4 -21 -12 -29c-3 -3 -6 -7 -8 -10
c-12 9 -20 23 -20 39s8 30 20 39zM340 318c11 0 22 -4 30 -12s12 -19 12 -30c0 -4 -1 -8 -2 -12h-5c-26 0 -47 21 -47 47v5c4 1 8 2 12 2zM256 448c141 0 256 -115 256 -256s-115 -256 -256 -256s-256 115 -256 256s115 256 256 256zM414 132c20 13 33 35 33 60
s-13 47 -33 60c2 8 4 16 4 24c0 21 -8 40 -23 55s-34 23 -55 23c-8 0 -16 -2 -24 -4c-13 20 -35 33 -60 33s-47 -13 -60 -33c-8 2 -16 4 -24 4c-21 0 -40 -8 -55 -23s-23 -34 -23 -55c0 -8 1 -16 4 -24c-20 -13 -33 -35 -33 -60s13 -47 33 -60c-2 -8 -4 -16 -4 -24
c0 -21 8 -40 23 -55s34 -23 55 -23c8 0 16 2 24 4c13 -20 35 -33 60 -33s47 13 60 33c8 -2 16 -4 24 -4c21 0 40 8 55 23s23 34 23 55c0 8 -2 16 -4 24zM347 192c0 -18 6 -34 17 -48c-31 -5 -55 -29 -60 -60c-14 11 -30 17 -48 17s-34 -6 -48 -17c-5 31 -29 55 -60 60
c11 14 17 30 17 48s-6 34 -17 48c31 5 55 29 60 60c14 -11 30 -17 48 -17s34 6 48 17c5 -31 29 -55 60 -60c-11 -14 -17 -30 -17 -48zM403 231c12 -9 20 -23 20 -39s-8 -30 -20 -39c-2 3 -5 6 -8 9c-8 8 -12 19 -12 30s4 22 12 30c3 3 6 6 8 9zM375 120h5c1 -4 2 -8 2 -12
c0 -11 -4 -22 -12 -30s-19 -12 -30 -12c-4 0 -8 1 -12 2v5c0 26 21 47 47 47z" />
    <glyph glyph-name="uniF10A" unicode="&#xf10a;" 
d="M109 174v0h111l-104 -103c-14 16 -24 34 -32 54c-8 22 -12 44 -12 68c0 23 5 46 14 68c8 20 18 37 32 53l20 -20c-11 -12 -20 -27 -26 -42c-8 -19 -12 -40 -12 -61v-9v-8h9zM377 174c-4 -25 -15 -49 -33 -67s-41 -30 -67 -34v101h100zM150 244c6 12 14 23 24 33
s22 17 34 23c10 5 20 7 31 9v-96h-98c2 10 4 21 9 31zM256 448c141 0 256 -115 256 -256s-115 -256 -256 -256s-256 115 -256 256s115 256 256 256zM409 38c84 83 85 221 2 305l-3 3l-7 7l-6 -7l-118 -117v120h-8h-11v0v0c-21 0 -43 -5 -62 -13c-14 -6 -25 -14 -37 -23
l-35 35l-6 7l-6 -6l-4 -4c-41 -40 -64 -95 -64 -152s22 -111 62 -152l3 -4l7 -6l6 6l117 115v-109v-8h9h11v0v0c38 0 72 13 99 35l35 -35l6 -6l6 6zM432 259c8 -22 13 -45 13 -69c0 -23 -5 -46 -14 -68c-8 -20 -18 -37 -32 -53l-21 21c24 28 38 62 38 102v11v10h-8h-109
l102 99c14 -16 23 -33 31 -53z" />
    <glyph glyph-name="uniF10B" unicode="&#xf10b;" 
d="M134 283v0l92 44c7 -6 15 -10 24 -10l32 -82l-2 -2zM348 304c0 -6 2 -12 5 -17l-35 -43c-3 1 -7 1 -10 1l-32 82l2 2zM284 180c4 -3 8 -6 12 -7l6 -102c-5 -2 -10 -6 -13 -10l-149 46zM271 206v-1l-143 -73c-3 3 -8 4 -12 6l-4 110c5 2 9 5 12 9zM375 270c1 0 2 -1 3 -1
l18 -95l-2 -1l-50 30c0 2 1 3 1 5c0 6 -2 13 -5 18zM379 148c0 -2 -1 -3 -1 -5c0 -5 2 -10 4 -15l-52 -56l-1 1l-5 102c2 1 3 2 5 3zM512 192c0 -141 -115 -256 -256 -256s-256 115 -256 256s115 256 256 256s256 -115 256 -256zM452 143c0 18 -12 33 -29 36l-18 95
c10 7 17 18 17 31c0 20 -17 37 -37 37c-10 0 -20 -4 -27 -12l-71 26c-1 20 -16 35 -36 35s-37 -17 -37 -37v-2l-92 -44c-7 6 -16 10 -25 10c-20 0 -37 -17 -37 -37c0 -16 10 -30 24 -35l4 -109c-13 -6 -22 -18 -22 -33c0 -20 17 -37 37 -37c11 0 22 5 29 13l149 -46
c2 -19 17 -33 36 -33c20 0 37 17 37 37c0 5 -1 10 -3 15l51 56c4 -2 9 -3 13 -3c20 0 37 17 37 37z" />
    <glyph glyph-name="uniF10C" unicode="&#xf10c;" 
d="M258 284c-18 0 -32 14 -32 32s14 33 32 33s32 -15 32 -33s-14 -32 -32 -32zM134 225c18 0 33 -14 33 -32s-15 -33 -33 -33s-32 15 -32 33s14 32 32 32zM256 103c18 0 32 -14 32 -32s-14 -33 -32 -33s-32 15 -32 33s14 32 32 32zM512 192c0 -141 -115 -256 -256 -256
s-256 115 -256 256s115 256 256 256s256 -115 256 -256zM447 193c0 38 -31 69 -69 69s-69 -31 -69 -69c0 -15 4 -29 13 -41l-25 -26c-7 5 -15 9 -23 11v113c31 7 53 34 53 66c0 38 -31 70 -69 70s-69 -32 -69 -70c0 -9 2 -17 6 -26l-34 -34c-9 4 -18 6 -27 6
c-38 0 -69 -31 -69 -69s31 -70 69 -70s69 32 69 70c0 15 -4 28 -13 40l27 28c6 -5 14 -9 21 -11v-113c-13 -4 -25 -11 -34 -21c-11 -12 -17 -28 -17 -45c0 -38 31 -70 69 -70s69 32 69 70c0 9 -1 17 -5 26l31 32c9 -4 18 -6 27 -6c38 0 69 32 69 70zM361 192
c0 12 9 21 21 21s21 -9 21 -21s-9 -21 -21 -21s-21 9 -21 21z" />
    <glyph glyph-name="uniF10D" unicode="&#xf10d;" 
d="M509 -21c5 -11 6 -43 -26 -43h-454s-31 26 -26 37s221 443 221 443s16 32 32 32s32 -32 32 -32s216 -426 221 -437zM219 288v-32c0 -48 15 -135 16 -147c1 -2 1 -2 4 -2h34c4 0 4 1 4 2c3 13 16 99 16 147v34c0 1 -1 4 -4 5c-7 2 -21 4 -34 4c-10 0 -25 -3 -33 -6
c-3 -1 -3 -3 -3 -5zM256 -7c21 0 39 18 39 39s-18 39 -39 39s-39 -18 -39 -39s18 -39 39 -39z" />
    <glyph glyph-name="uniF10E" unicode="&#xf10e;" 
d="M214 49c1 -17 6 -33 12 -49h-198c-31 0 -30 26 -25 37s190 379 190 379s16 32 31 32s31 -32 31 -32s47 -92 94 -185c-11 -2 -21 -6 -31 -10c-20 -9 -39 -20 -55 -36s-27 -35 -36 -55c-1 -3 -2 -4 -3 -7c-20 0 -37 -17 -37 -38c0 -17 11 -32 27 -36zM194 315
c-2 -1 -2 -4 -2 -6v-32c0 -36 7 -92 8 -104c0 -2 2 -2 4 -2h39c3 0 4 1 4 2c2 13 9 68 9 104v34c0 1 0 4 -2 5c-5 2 -20 4 -30 4c-7 0 -24 -2 -30 -5zM384 192c71 0 128 -57 128 -128s-57 -128 -128 -128s-128 57 -128 128s57 128 128 128zM469 43v42h-64v64h-42v-64h-64
v-42h64v-64h42v64h64z" />
    <glyph glyph-name="uniF10F" unicode="&#xf10f;" horiz-adv-x="448" 
d="M228 352l-35 89c-2 5 1 8 6 6l249 -84l-107 -252c-2 -5 -6 -5 -8 0l-43 93c-205 -76 -253 -213 -247 -268c-31 68 -43 124 -43 171c0 128 129 204 228 245z" />
    <glyph glyph-name="uniF110" unicode="&#xf110;" horiz-adv-x="491" 
d="M469 171l22 -150l-48 24c-20 -62 -101 -109 -198 -109s-177 47 -197 109l-48 -24l21 150l150 -64l-64 -32c2 -30 45 -64 106 -73v211h-85v43h85v50c-25 12 -42 37 -42 67c0 41 33 75 74 75s75 -34 75 -75c0 -30 -18 -55 -43 -67v-50h86v-43h-86v-211c61 9 105 43 107 73
l-64 32zM208 373c0 -21 16 -37 37 -37s38 16 38 37s-17 38 -38 38s-37 -17 -37 -38z" />
    <glyph glyph-name="uniF111" unicode="&#xf111;" horiz-adv-x="448" 
d="M64 117c0 -18 -14 -32 -32 -32v0c-18 0 -32 14 -32 32v150c0 18 14 32 32 32v0c18 0 32 -14 32 -32v-150zM448 117c0 -18 -14 -32 -32 -32v0c-18 0 -32 14 -32 32v150c0 18 14 32 32 32v0c18 0 32 -14 32 -32v-150zM85 256h278v-192s-22 -21 -22 -21h-21v-75
c0 -18 -14 -32 -32 -32s-32 14 -32 32v75h-64v-75c0 -18 -14 -32 -32 -32s-32 14 -32 32v75h-21s-22 0 -22 21v192zM85 277c3 34 18 65 41 88l-57 57s-11 10 0 21s21 0 21 0l60 -59c22 14 47 21 74 21s52 -7 74 -21l60 59s10 11 21 0s0 -21 0 -21l-57 -57
c23 -23 38 -54 41 -88h-278zM277 368c-15 0 -26 -12 -26 -27s11 -26 26 -26s27 11 27 26s-12 27 -27 27zM197 341c0 15 -11 27 -26 27s-27 -12 -27 -27s12 -26 27 -26s26 11 26 26z" />
    <glyph glyph-name="uniF112" unicode="&#xf112;" 
d="M181 267l64 -64l-138 -139l-102 -43c-5 0 -5 1 -5 6l43 101zM405 341c0 0 33 -32 38 -37c7 -7 7 -25 0 -32l-123 -123c-32 -32 -64 0 -64 0l139 139l-22 21l-90 -90l-86 85l139 139c7 7 25 7 32 0c5 -5 48 -49 53 -54c7 -7 7 -25 0 -32zM469 107c18 24 43 -1 43 -22
s-64 -149 -277 -149c-128 0 -214 64 -214 64s86 -21 214 -21s218 107 234 128z" />
    <glyph glyph-name="uniF113" unicode="&#xf113;" 
d="M448 405c35 0 64 -29 64 -64v-256c0 -35 -29 -64 -64 -64h-107l-85 -85l-85 85h-107c-35 0 -64 29 -64 64v256c0 35 29 64 64 64h384zM256 57c21 0 39 18 39 39s-18 39 -39 39s-39 -18 -39 -39s18 -39 39 -39zM293 309v45c0 1 -1 4 -4 5c-7 2 -21 4 -34 4
c-10 0 -25 -3 -33 -6c-3 -1 -3 -3 -3 -5v-43c0 -48 15 -124 16 -136c1 -2 1 -2 4 -2h34c4 0 4 1 4 2c3 13 16 88 16 136z" />
    <glyph glyph-name="uniF114" unicode="&#xf114;" 
d="M384 192l32 -85h96l-75 -64l32 -107l-85 60l-85 -60l32 107l-75 64h96zM448 448c35 0 64 -29 64 -64v-235h-66l-19 50v0l-24 65c-10 27 -28 27 -38 0l-21 -57v0l-22 -58h-29c-5 16 -19 28 -37 28s-32 -12 -37 -28h-25c-29 0 -35 -15 -13 -34l60 -52v0l41 -35l-10 -34
l-16 -15l-85 85h-107c-35 0 -64 29 -64 64v256c0 35 29 64 64 64h384zM293 352v45c0 1 -1 3 -4 4c-7 2 -21 4 -34 4c-10 0 -25 -2 -33 -5c-3 -1 -3 -3 -3 -5v-43c0 -48 15 -124 16 -136c1 -2 1 -3 4 -3h34c4 0 4 2 4 3c3 13 16 88 16 136z" />
    <glyph glyph-name="uniF115" unicode="&#xf115;" horiz-adv-x="417" 
d="M230 403c34 44 81 45 81 45s6 -42 -27 -82c-36 -43 -76 -36 -76 -36s-8 34 22 73zM213 299c17 0 49 21 91 21c72 0 100 -49 100 -49s-56 -25 -56 -94c0 -77 69 -105 69 -105s-48 -135 -113 -135c-30 0 -53 20 -85 20s-63 -21 -84 -21c-59 0 -135 129 -135 232
c0 102 63 152 123 152c39 0 70 -21 90 -21z" />
    <glyph glyph-name="uniF116" unicode="&#xf116;" 
d="M0 320v85h512v-85h-512zM43 277h426v-298h-426v298zM320 149v64h-128v-64h128z" />
    <glyph glyph-name="uniF117" unicode="&#xf117;" horiz-adv-x="427" 
d="M424 142l-211 -206l-211 206c-4 4 -2 7 4 7h122v299h171v-299h122c6 0 7 -3 3 -7z" />
    <glyph glyph-name="uniF118" unicode="&#xf118;" 
d="M206 -19l-206 211l206 211c4 4 7 3 7 -3v-123h299v-170h-299v-123c0 -6 -3 -7 -7 -3z" />
    <glyph glyph-name="uniF119" unicode="&#xf119;" 
d="M306 -19c-4 -4 -7 -3 -7 3v123h-299v170h299v123c0 6 3 7 7 3l206 -211z" />
    <glyph glyph-name="uniF11A" unicode="&#xf11a;" horiz-adv-x="427" 
d="M424 242c4 -4 3 -7 -3 -7h-122v-299h-171v299h-122c-6 0 -8 3 -4 7l211 206z" />
    <glyph glyph-name="uniF11B" unicode="&#xf11b;" 
d="M171 448c94 0 170 -77 170 -171s-76 -170 -170 -170s-171 76 -171 170s77 171 171 171zM128 171l128 106l-128 107v-213zM383 256h129v-320h-363v129c7 -1 15 -1 22 -1s14 0 21 1v-86h277v234h-95c4 14 8 28 9 43zM384 160l43 -32v-107h-192v43l8 13c20 7 38 17 55 30
l43 -43z" />
    <glyph glyph-name="uniF11C" unicode="&#xf11c;" 
d="M334 227c-54 -17 -96 -59 -113 -113c-16 -5 -33 -7 -50 -7c-94 0 -171 76 -171 170s77 171 171 171s170 -77 170 -171c0 -17 -2 -34 -7 -50zM128 384v-213l128 106zM384 192c71 0 128 -57 128 -128s-57 -128 -128 -128s-128 57 -128 128s57 128 128 128zM352 -16l123 123
l-27 26l-96 -96l-32 32l-27 -26zM384 277h107v-80c-13 10 -28 19 -43 25v13h-68c3 14 4 27 4 42zM171 0h55c6 -15 15 -30 25 -43h-123v111c14 -3 28 -4 43 -4v-64z" />
    <glyph glyph-name="uniF11D" unicode="&#xf11d;" horiz-adv-x="459" 
d="M320 288l-139 -139s-5 -5 -5 -10s5 -11 5 -11l11 -11s6 -5 11 -5s10 5 10 5l192 192s11 11 11 22s-11 21 -11 21l-42 43s-11 10 -22 10s-21 -10 -21 -10c-64 -64 -261 -262 -261 -262s-16 -16 -16 -37s16 -37 16 -37l64 -64s16 -16 37 -16s37 16 37 16l208 208l32 -32
l-208 -208s-26 -27 -69 -27s-69 27 -69 27l-64 64s-27 26 -27 69s27 69 27 69l261 262s21 21 53 21s54 -21 54 -21l42 -43s22 -21 22 -53s-22 -54 -22 -54l-192 -192s-21 -21 -42 -21s-43 21 -43 21l-11 11s-21 22 -21 43s21 42 21 42l139 139z" />
    <glyph glyph-name="uniF11E" unicode="&#xf11e;" 
d="M213 117l14 14c-9 -20 -14 -42 -14 -65c-4 -1 -6 -2 -10 -2c-21 0 -43 21 -43 21l-11 11s-21 22 -21 43s21 42 21 42l139 139l32 -32l-139 -139s-5 -5 -5 -10s5 -11 5 -11l11 -11s6 -5 11 -5s10 5 10 5zM220 17c4 -16 11 -30 20 -44l-11 -10s-26 -27 -69 -27
s-69 27 -69 27l-64 64s-27 26 -27 69s27 69 27 69l261 262s21 21 53 21s54 -21 54 -21l42 -43s22 -21 22 -53s-22 -54 -22 -54l-43 -43c-3 0 -7 1 -10 1c-24 0 -46 -5 -67 -14l88 88s11 11 11 22s-11 21 -11 21l-42 43s-11 10 -22 10s-21 -10 -21 -10
c-64 -64 -261 -262 -261 -262s-16 -16 -16 -37s16 -37 16 -37l64 -64s16 -16 37 -16s37 16 37 16zM384 192c71 0 128 -57 128 -128s-57 -128 -128 -128s-128 57 -128 128s57 128 128 128zM384 155c-50 0 -91 -41 -91 -91c0 -18 6 -36 15 -50l126 126c-14 9 -32 15 -50 15z
M384 -27c50 0 91 41 91 91c0 18 -6 36 -15 50l-126 -126c14 -9 32 -15 50 -15z" />
    <glyph glyph-name="uniF11F" unicode="&#xf11f;" 
d="M325 190l-46 12c-9 -13 -20 -24 -33 -33l12 -46l-40 -16l-24 41c-15 -3 -31 -3 -47 0l-23 -41l-41 16l13 46c-13 9 -25 20 -34 33l-45 -12l-17 40l41 24c-3 15 -3 31 0 47l-41 23l17 41l45 -13c9 13 21 25 34 34l-13 45l41 17l23 -41c15 3 31 3 47 0l24 41l40 -17
l-12 -45c13 -9 24 -21 33 -34l46 13l16 -41l-41 -23c3 -15 3 -31 0 -47l41 -24zM256 277c0 47 -38 86 -85 86s-86 -39 -86 -86s39 -85 86 -85s85 38 85 85zM512 48l-34 -4c-2 -11 -7 -22 -13 -32l21 -27l-23 -23l-27 21c-10 -6 -21 -11 -32 -13l-4 -34h-32l-4 34
c-11 2 -22 7 -32 13l-27 -21l-23 23l21 27c-6 10 -11 21 -13 32l-34 4v32l34 4c2 11 7 22 13 32l-21 27l23 23l27 -21c10 6 21 11 32 13l4 34h32l4 -34c11 -2 22 -7 32 -13l27 21l23 -23l-21 -27c6 -10 11 -21 13 -32l34 -4v-32zM384 21c24 0 43 19 43 43s-19 43 -43 43
s-43 -19 -43 -43s19 -43 43 -43z" />
    <glyph glyph-name="uniF120" unicode="&#xf120;" 
d="M159 402c6 6 12 4 12 -5v-98h213s128 -128 128 -128v-171h-128v171h-213v-98c0 -9 -6 -12 -12 -5l-159 166z" />
    <glyph glyph-name="uniF121" unicode="&#xf121;" horiz-adv-x="384" 
d="M320 213c0 -64 43 -128 64 -128v-42h-384v42c21 0 64 43 64 128v22c0 60 14 110 64 134v15c0 35 29 64 64 64s64 -29 64 -64v-15c50 -24 64 -74 64 -134v-22zM192 357c15 0 27 12 27 27s-12 27 -27 27s-27 -12 -27 -27s12 -27 27 -27zM192 -64c-35 0 -64 29 -64 64h128
c0 -35 -29 -64 -64 -64z" />
    <glyph glyph-name="uniF122" unicode="&#xf122;" 
d="M469 -21h32s11 -11 11 -11v-32h-256v32s0 11 11 11h32v32s-1 10 10 10h150s10 -10 10 -10v-32zM469 256l43 -43l-128 -128l-43 43zM277 448l43 -43l-128 -128l-43 43zM230 201l35 -35l-185 -214v0c-8 -10 -21 -16 -35 -16c-25 0 -45 20 -45 45c0 14 6 27 16 35v0z
M341 363l86 -86l-107 -106l-85 85z" />
    <glyph glyph-name="uniF123" unicode="&#xf123;" 
d="M256 448l43 -43l-128 -128l-43 43zM208 201l35 -35l-163 -193v0c-8 -10 -21 -16 -35 -16c-25 0 -45 21 -45 46c0 14 6 26 16 34v0zM361 233c-33 -4 -62 -18 -86 -38l-62 61l107 107l85 -86zM481 204c-18 12 -37 21 -59 26l26 26l43 -43zM384 192c71 0 128 -57 128 -128
s-57 -128 -128 -128s-128 57 -128 128s57 128 128 128zM469 43v42h-64v64h-42v-64h-64v-42h64v-64h42v64h64z" />
    <glyph glyph-name="uniF124" unicode="&#xf124;" 
d="M165 347c0 16 -10 37 -54 37h-67l-20 -85h71c55 0 70 25 70 48zM346 347c0 16 -10 37 -54 37h-67l-19 -85h70c55 0 70 25 70 48zM140 208c0 16 -10 37 -54 37h-67l-19 -85h70c55 0 70 25 70 48zM322 208c0 16 -10 37 -54 37h-68l-19 -85h70c55 0 71 25 71 48zM512 262
c0 16 -10 37 -54 37h-67l-19 -86h70c55 0 70 26 70 49zM486 123c0 16 -10 37 -54 37h-67l-20 -85h70c55 0 71 25 71 48zM296 69c0 16 -10 38 -54 38h-67l-19 -86h70c55 0 70 25 70 48z" />
    <glyph glyph-name="uniF125" unicode="&#xf125;" horiz-adv-x="491" 
d="M448 427c23 0 43 -20 43 -43v-405c0 -23 -20 -43 -43 -43h-405c-23 0 -43 20 -43 43v405c0 23 20 43 43 43h405zM235 43v64c0 35 -29 64 -64 64h-22v-64h22v-64h-64v234h-64v-234c0 -35 29 -64 64 -64h64c35 0 64 29 64 64zM341 85v107c0 47 -38 85 -85 85h-107v-64h86
c21 0 42 -21 42 -42v-86h64zM448 85v150c0 85 -64 149 -149 149h-150v-64h128c53 0 107 -43 107 -107v-128h64z" />
    <glyph glyph-name="uniF126" unicode="&#xf126;" horiz-adv-x="299" 
d="M155 443c0 -64 144 -230 144 -358c0 -82 -68 -149 -150 -149s-149 67 -149 149c0 128 144 294 144 358c0 0 0 5 5 5s6 -5 6 -5z" />
    <glyph glyph-name="uniF127" unicode="&#xf127;" 
d="M497 213c21 0 13 -14 13 -14l-141 -220h-252c-64 0 -117 56 -117 117v1v2c0 51 16 72 16 72l171 234h273s13 -14 13 -14l-158 -242h-198c-29 0 -53 -24 -53 -53c0 -26 21 -53 53 -53h224l107 170h49z" />
    <glyph glyph-name="uniF128" unicode="&#xf128;" 
d="M171 149c21 0 149 0 128 0s-22 -21 -22 -21v-192l-64 53l-64 -53v192s1 21 22 21zM497 256c21 0 13 -14 13 -14l-141 -221h-49v64h21l107 171h49zM460 448c21 0 13 -14 13 -14l-158 -242h-198c-29 0 -53 -24 -53 -53c0 -26 19 -48 43 -53v-64c-60 5 -107 56 -107 117v1v1
c0 51 16 72 16 72l171 235h273z" />
    <glyph glyph-name="uniF129" unicode="&#xf129;" 
d="M491 405c21 0 21 -21 21 -21v-405h-512v405s0 21 21 21h470zM427 352v-21c0 -6 4 -11 10 -11h22c6 0 10 5 10 11v21c0 6 -4 11 -10 11h-22c-6 0 -10 -5 -10 -11zM363 352v-21c0 -6 4 -11 10 -11h22c6 0 10 5 10 11v21c0 6 -4 11 -10 11h-22c-6 0 -10 -5 -10 -11zM299 352
v-21c0 -6 4 -11 10 -11h22c6 0 10 5 10 11v21c0 6 -4 11 -10 11h-22c-6 0 -10 -5 -10 -11zM469 21v278h-426v-278h426zM149 213h214l-107 -106z" />
    <glyph glyph-name="uniF12A" unicode="&#xf12a;" 
d="M501 363h-330v-86h330c6 0 11 -4 11 -10v-64c0 -6 -5 -11 -11 -11h-330v-43h330c6 0 11 -4 11 -10v-64c0 -6 -5 -11 -11 -11h-330v-43h330c6 0 11 -4 11 -10v-64c0 -6 -5 -11 -11 -11h-368h-48v427h-74c-6 0 -11 4 -11 10v64c0 6 5 11 11 11h490c6 0 11 -5 11 -11v-64
c0 -6 -5 -10 -11 -10z" />
    <glyph glyph-name="uniF12B" unicode="&#xf12b;" 
d="M227 -2c3 -7 5 -13 9 -19h-103h-48v384h-74c-6 0 -11 4 -11 10v64c0 6 5 11 11 11h448c6 0 10 -5 10 -11v-64c0 -6 -4 -10 -10 -10h-288v-43h288c6 0 10 -5 10 -11v-64c0 -6 -4 -10 -10 -10h-288v-43h100c-3 -2 -5 -4 -8 -7c-16 -16 -27 -35 -36 -55c-3 -8 -6 -15 -8 -23
h-48v-43h42c0 -23 5 -45 14 -66zM384 192c71 0 128 -57 128 -128s-57 -128 -128 -128s-128 57 -128 128s57 128 128 128zM469 43v42h-64v64h-42v-64h-64v-42h64v-64h42v64h64z" />
    <glyph glyph-name="uniF12C" unicode="&#xf12c;" horiz-adv-x="469" 
d="M277 171h192v-150c0 -23 -19 -42 -42 -42h-384c-23 0 -43 19 -43 42v150h192v-64h85v64zM427 341c23 0 42 -19 42 -42v-86h-192v22h-85v-22h-192v86c0 23 20 42 43 42h85v43c0 23 20 43 43 43h128c23 0 42 -20 42 -43v-43h86zM299 341v43h-128v-43h128z" />
    <glyph glyph-name="uniF12D" unicode="&#xf12d;" 
d="M508 149c3 -10 4 -21 4 -32c0 -65 -52 -117 -117 -117s-118 52 -118 117c0 4 1 7 1 11h-44c0 -4 1 -7 1 -11c0 -65 -53 -117 -118 -117s-117 52 -117 117c0 11 1 22 4 32v0l1 2c2 8 6 16 10 24l57 135c6 18 19 33 35 42c0 29 24 53 53 53s53 -24 53 -53
c0 -8 -2 -15 -5 -22c6 -9 11 -20 13 -31h70c2 11 7 22 13 31c-3 7 -5 14 -5 22c0 29 24 53 53 53s53 -24 53 -53c16 -9 29 -24 35 -42l57 -135c4 -8 7 -16 10 -24l1 -2v0zM117 43c41 0 75 33 75 74s-34 75 -75 75s-74 -34 -74 -75s33 -74 74 -74zM395 43c41 0 74 33 74 74
s-33 75 -74 75s-75 -34 -75 -75s34 -74 75 -74z" />
    <glyph glyph-name="uniF12E" unicode="&#xf12e;" 
d="M277 341c11 -11 22 -21 22 -21l-171 -171s-10 11 -21 22s-107 85 -107 85l43 21v43h42v43h43v42h43l21 43s74 -96 85 -107zM363 149l133 -112c11 -11 16 -21 16 -37s-10 -32 -21 -43s-27 -21 -43 -21s-26 5 -37 16l-112 133h-102s-10 6 -10 6l-27 26l171 171l26 -27
s6 -5 6 -10v-102zM448 -27c15 0 27 12 27 27s-12 27 -27 27s-27 -12 -27 -27s12 -27 27 -27z" />
    <glyph glyph-name="uniF12F" unicode="&#xf12f;" horiz-adv-x="299" 
d="M0 448h299v-512h-86v128h-128v-128h-85v512zM128 107v42h-85v-42h85zM128 192v43h-85v-43h85zM128 277v43h-85v-43h85zM128 363v42h-85v-42h85zM256 107v42h-85v-42h85zM256 192v43h-85v-43h85zM256 277v43h-85v-43h85zM256 363v42h-85v-42h85z" />
    <glyph glyph-name="uniF130" unicode="&#xf130;" 
d="M491 405c21 0 21 -21 21 -21v-427s0 -21 -21 -21h-470s-21 21 -21 21v427s0 21 21 21h43v-64h107v64h170v-64h107v64h43zM128 0v64h-64v-64h64zM128 107v64h-64v-64h64zM128 213v64h-64v-64h64zM235 0v64h-64v-64h64zM235 107v64h-64v-64h64zM235 213v64h-64v-64h64z
M341 0v64h-64v-64h64zM341 107v64h-64v-64h64zM341 213v64h-64v-64h64zM448 0v64h-64v-64h64zM448 107v64h-64v-64h64zM448 213v64h-64v-64h64zM85 363v85h64v-85h-64zM363 363v85h64v-85h-64z" />
    <glyph glyph-name="uniF131" unicode="&#xf131;" 
d="M85 363v85h64v-85h-64zM363 363v85h64v-85h-64zM219 21c6 -24 17 -45 32 -64h-230c-21 0 -21 22 -21 22v405s0 21 21 21h43v-64h107v64h170v-64h107v64h43s21 -21 21 -21v-207c-31 36 -77 58 -128 58h64v64h-64v-64c-64 0 -120 -36 -149 -89v46h-64v-64h55
c-5 -13 -9 -28 -11 -43h-44v-64h48zM277 299v-64h64v64h-64zM171 299v-64h64v64h-64zM128 21v64h-64v-64h64zM128 128v64h-64v-64h64zM128 235v64h-64v-64h64zM384 192c71 0 128 -57 128 -128s-57 -128 -128 -128s-128 57 -128 128s57 128 128 128zM469 43v42h-64v64h-42
v-64h-64v-42h64v-64h42v64h64z" />
    <glyph glyph-name="uniF132" unicode="&#xf132;" 
d="M64 363v85h64v-85h-64zM341 363v85h64v-85h-64zM235 75v-118h-214c-21 0 -21 22 -21 22v405s0 21 21 21h22v-64h106v64h171v-64h107v64h21s21 -21 21 -21v-155c-13 10 -26 19 -42 23v47h-64v-47c-19 -5 -37 -16 -51 -30c-9 -9 -16 -19 -22 -30h-34v-64h21v-1
c-24 -5 -42 -26 -42 -52zM256 299v-64h64v64h-64zM107 21v64h-64v-64h64zM107 128v64h-64v-64h64zM107 235v64h-64v-64h64zM213 21v64h-64v-64h64zM213 128v64h-64v-64h64zM213 235v64h-64v-64h64zM501 85c6 0 11 -4 11 -10v-128c0 -6 -5 -11 -11 -11h-213
c-6 0 -11 5 -11 11v128c0 6 5 10 11 10h32v54c0 41 34 74 75 74s74 -33 74 -74v-54h32zM427 85v54c0 18 -14 32 -32 32s-32 -14 -32 -32v-54h64z" />
    <glyph glyph-name="uniF133" unicode="&#xf133;" 
d="M64 363v85h64v-85h-64zM341 363v85h64v-85h-64zM235 64v-107h-214c-21 0 -21 22 -21 22v405s0 21 21 21h22v-64h106v64h171v-64h107v64h21s21 -21 21 -21v-256h-42v64h-26c-4 16 -12 30 -22 43h48v64h-64v-48c-13 10 -27 18 -43 22v26h-64v-26c-16 -4 -30 -12 -43 -22v48
h-64v-64h48c-10 -13 -18 -27 -22 -43h-26v-64h22v-43h-22v-64h64v43h22zM107 21v64h-64v-64h64zM107 128v64h-64v-64h64zM107 235v64h-64v-64h64zM501 85c6 0 11 -4 11 -10v-128c0 -6 -5 -11 -11 -11h-213c-6 0 -11 5 -11 11v128c0 6 5 10 11 10h32v75c0 18 -14 32 -32 32
s-32 -14 -32 -32v-53h-43v53c0 41 34 75 75 75s75 -34 75 -75v-75h138z" />
    <glyph glyph-name="uniF134" unicode="&#xf134;" 
d="M491 341c21 0 21 -21 21 -21v-299s0 -21 -21 -21h-470s-21 21 -21 21v299s0 21 21 21h86l53 64h192l53 -64h86zM256 64c71 0 128 57 128 128s-57 128 -128 128s-128 -57 -128 -128s57 -128 128 -128zM192 192c0 43 21 64 64 64s64 -21 64 -64s-21 -64 -64 -64
s-64 21 -64 64z" />
    <glyph glyph-name="uniF135" unicode="&#xf135;" horiz-adv-x="510" 
d="M129 213h-129c10 124 110 224 234 234v-129c-54 -9 -96 -51 -105 -105zM276 318v129c124 -10 224 -110 234 -234h-129c-9 54 -51 96 -105 105zM381 171h129c-10 -124 -110 -224 -234 -234v129c54 9 96 51 105 105zM234 66v-129c-124 10 -224 110 -234 234h129
c9 -54 51 -96 105 -105z" />
    <glyph glyph-name="uniF136" unicode="&#xf136;" 
d="M384 192c71 0 128 -57 128 -128s-57 -128 -128 -128s-128 57 -128 128s57 128 128 128zM469 43v42h-64v64h-42v-64h-64v-42h64v-64h42v64h64zM109 235h-109c10 113 100 203 213 213v-109c-54 -9 -95 -50 -104 -104zM256 339v109c113 -10 203 -100 213 -213h-108
c-9 54 -51 95 -105 104zM213 87v-108c-113 10 -203 100 -213 213h109c9 -54 50 -96 104 -105z" />
    <glyph glyph-name="uniF137" unicode="&#xf137;" 
d="M384 192c71 0 128 -57 128 -128s-57 -128 -128 -128s-128 57 -128 128s57 128 128 128zM459 16l-48 48l48 48l-27 27l-48 -48l-48 48l-27 -27l48 -48l-48 -48l27 -27l48 48l48 -48zM109 235h-109c10 113 100 203 213 213v-109c-54 -9 -95 -50 -104 -104zM256 339v109
c113 -10 203 -100 213 -213h-108c-9 54 -51 95 -105 104zM213 87v-108c-113 10 -203 100 -213 213h109c9 -54 50 -96 104 -105z" />
    <glyph glyph-name="uniF138" unicode="&#xf138;" horiz-adv-x="491" 
d="M277 107h192v-171h-192v171zM341 -19v102s1 2 -2 2h-16s-3 -2 -3 -2v-102s0 -2 3 -2h16s2 2 2 2zM384 -19v102s0 2 -3 2h-16s-2 -2 -2 -2v-102s-1 -2 2 -2h16s3 2 3 2zM427 -19v102s0 2 -3 2h-16s-3 -2 -3 -2v-102s0 -2 3 -2h16s3 2 3 2zM475 171c16 0 16 -16 16 -16v-27
h-235v27s0 16 16 16h48v29s0 13 13 13h80c13 0 14 -13 14 -13v-29h48zM395 171v18s0 3 -3 3h-37c-3 0 -3 -3 -3 -3v-18h43zM109 235h-109c10 113 100 203 213 213v-109c-54 -9 -95 -50 -104 -104zM213 87v-108c-113 10 -203 100 -213 213h109c9 -54 50 -96 104 -105z
M355 256c-15 43 -53 75 -99 83v109c113 -10 203 -100 213 -213h-12c-10 12 -25 21 -44 21h-58z" />
    <glyph glyph-name="uniF139" unicode="&#xf139;" 
d="M509 163c0 0 3 -3 3 -8s-3 -8 -3 -8l-18 -19l-43 43l19 18s3 3 8 3s8 -3 8 -3zM427 149l42 -42l-117 -118l-43 43zM331 -32l-72 -32c-3 0 -3 0 -3 3l32 72zM109 235h-109c10 113 100 203 213 213v-109c-54 -9 -95 -50 -104 -104zM256 339v109c113 -10 203 -100 213 -213
h-108c-9 54 -51 95 -105 104zM213 87v-108c-113 10 -203 100 -213 213h109c9 -54 50 -96 104 -105zM409 192l-153 -153v48c54 9 96 51 105 105h48z" />
    <glyph glyph-name="uniF13A" unicode="&#xf13a;" horiz-adv-x="511" 
d="M129 213h-129c10 124 110 224 234 234v-129c-54 -9 -96 -51 -105 -105zM376 235c-15 43 -54 75 -100 83v129c124 -10 224 -110 234 -234h-44c-5 3 -10 6 -16 8c-21 9 -44 14 -67 14h-7zM226 -2c2 -6 5 -12 8 -17v-44c-124 10 -224 110 -234 234h129c8 -46 41 -85 84 -100
c0 -2 -1 -5 -1 -7c0 -23 5 -45 14 -66zM383 192c71 0 128 -57 128 -128s-57 -128 -128 -128s-128 57 -128 128s57 128 128 128zM458 16l-48 48l48 48l-27 27l-48 -48l-48 48l-27 -27l48 -48l-48 -48l27 -27l48 48l48 -48z" />
    <glyph glyph-name="uniF13B" unicode="&#xf13b;" horiz-adv-x="427" 
d="M0 448h427v-512h-427v512zM107 0v43h-43v-43h43zM192 0v43h-43v-43h43zM363 0v43h-128v-43h128zM363 85v299h-299v-299h299z" />
    <glyph glyph-name="uniF13C" unicode="&#xf13c;" 
d="M256 448c141 0 256 -115 256 -256s-115 -256 -256 -256s-256 115 -256 256s115 256 256 256zM203 32l234 235l-53 53l-181 -181l-64 64l-54 -54z" />
    <glyph glyph-name="uniF13D" unicode="&#xf13d;" 
d="M427 384l85 -85l-320 -320l-192 192l85 85l107 -107z" />
    <glyph glyph-name="uniF13E" unicode="&#xf13e;" 
d="M448 341l64 -64l-256 -256l-256 256l64 64l192 -192z" />
    <glyph glyph-name="uniF13F" unicode="&#xf13f;" horiz-adv-x="320" 
d="M128 192l192 -192l-64 -64l-256 256l256 256l64 -64z" />
    <glyph glyph-name="uniF140" unicode="&#xf140;" horiz-adv-x="320" 
d="M0 384l64 64l256 -256l-256 -256l-64 64l192 192z" />
    <glyph glyph-name="uniF141" unicode="&#xf141;" 
d="M256 235l-192 -192l-64 64l256 256l256 -256l-64 -64z" />
    <glyph glyph-name="uniF142" unicode="&#xf142;" 
d="M256 448c141 0 256 -115 256 -256s-115 -256 -256 -256s-256 115 -256 256s115 256 256 256zM256 0c106 0 192 86 192 192s-86 192 -192 192s-192 -86 -192 -192s86 -192 192 -192zM277 229c13 -7 22 -21 22 -37c0 -24 -19 -43 -43 -43c-4 0 -7 1 -11 2l-61 -62
c-2 -2 -6 -2 -8 0l-23 23c-2 2 -2 6 0 8l62 61c-1 4 -2 7 -2 11c0 16 9 30 22 37v0v128c0 3 2 6 5 6h32c3 0 5 -3 5 -6v-128v0z" />
    <glyph glyph-name="uniF143" unicode="&#xf143;" 
d="M256 448c141 0 256 -115 256 -256s-115 -256 -256 -256s-256 115 -256 256s115 256 256 256zM405 96l-96 96l96 96l-53 53l-96 -96l-96 96l-53 -53l96 -96l-96 -96l53 -53l96 96l96 -96z" />
    <glyph glyph-name="uniF144" unicode="&#xf144;" horiz-adv-x="469" 
d="M0 32l160 160l-160 160l75 75l160 -160l160 160l74 -75l-160 -160l160 -160l-74 -75l-160 160l-160 -160z" />
    <glyph glyph-name="uniF145" unicode="&#xf145;" 
d="M427 213c48 0 85 -43 85 -96s-37 -96 -85 -96h-299c-76 1 -128 63 -128 139c0 77 62 139 139 139c10 0 20 -1 29 -3c26 40 62 67 120 67c82 0 139 -45 139 -150zM439 92c5 6 9 15 9 25s-4 20 -9 26c-1 2 -5 6 -12 6h-64v64c0 23 -4 53 -20 69c-11 11 -30 17 -55 17
c-16 0 -28 -4 -39 -10c-10 -6 -19 -15 -27 -28l-24 -37l-44 9c-5 1 -10 2 -15 2c-41 0 -75 -34 -75 -75c0 -32 16 -75 64 -75h299c2 0 6 1 12 7z" />
    <glyph glyph-name="uniF146" unicode="&#xf146;" 
d="M85 192l86 -85l-43 -43l-128 128l128 128l43 -43zM427 192l-86 85l43 43l128 -128l-128 -128l-43 43zM266 21l-63 9l43 333l63 -9z" />
    <glyph glyph-name="uniF147" unicode="&#xf147;" horiz-adv-x="469" 
d="M0 405h469v-426h-469v426zM149 43v128h-85v-128h85zM149 213v128h-85v-128h85zM277 43v128h-85v-128h85zM277 213v128h-85v-128h85zM405 43v128h-85v-128h85zM405 213v128h-85v-128h85z" />
    <glyph glyph-name="uniF148" unicode="&#xf148;" 
d="M215 43c3 -23 10 -45 21 -64h-236v426h469v-193c-19 11 -41 18 -64 21v108h-85v-119c-27 -11 -51 -28 -69 -51h-59v-128h23zM192 341v-128h85v128h-85zM149 43v128h-85v-128h85zM149 213v128h-85v-128h85zM384 192c71 0 128 -57 128 -128s-57 -128 -128 -128
s-128 57 -128 128s57 128 128 128zM469 43v42h-64v64h-42v-64h-64v-42h64v-64h42v64h64z" />
    <glyph glyph-name="uniF149" unicode="&#xf149;" 
d="M174 85l64 -64h-238v427h469v-302c-20 12 -42 18 -64 21v46h-33c-8 10 -20 16 -34 16c-13 0 -24 -5 -34 -15l-27 -26v25h-85v-111zM320 384v-128h85v128h-85zM192 384v-128h85v128h-85zM149 85v128h-85v-128h85zM149 256v128h-85v-128h85zM341 128c78 0 171 0 171 -192
c-15 49 -54 107 -171 107v-54c0 -6 -3 -7 -7 -3l-99 99l99 99c4 4 7 3 7 -3v-53z" />
    <glyph glyph-name="uniF14A" unicode="&#xf14a;" 
d="M269 405c54 0 243 -46 243 -208c0 -176 -224 -176 -256 -176s-256 1 -256 169c0 0 4 87 85 87c59 0 68 -21 107 -21c37 0 43 16 43 37s-43 38 -43 70c0 21 23 42 77 42zM85 123c27 0 48 21 48 48s-21 48 -48 48s-48 -21 -48 -48s21 -48 48 -48zM192 64c24 0 43 19 43 43
s-19 42 -43 42s-43 -18 -43 -42s19 -43 43 -43zM427 288c-18 0 -32 -14 -32 -32s14 -32 32 -32s32 14 32 32s-14 32 -32 32zM320 64c24 0 43 19 43 43s-19 42 -43 42s-43 -18 -43 -42s19 -43 43 -43zM427 112c21 0 37 16 37 37s-16 38 -37 38s-38 -17 -38 -38s17 -37 38 -37
z" />
    <glyph glyph-name="uniF14B" unicode="&#xf14b;" 
d="M91 -64c-5 0 -6 5 -6 5v80h-53c-21 0 -32 11 -32 32v192c0 21 11 32 32 32h96v139c0 21 11 32 32 32h320c21 0 32 -11 32 -32v-235c0 -21 -11 -32 -32 -32h-53v-118s-1 -21 -22 0s-106 108 -106 108v-86c0 -21 -11 -32 -32 -32h-86l-74 -74c-11 -11 -13 -11 -16 -11z
M469 197v203s0 5 -5 5h-288s-5 -5 -5 -5v-203s0 -5 5 -5h133l75 -75v75h80s5 5 5 5z" />
    <glyph glyph-name="uniF14C" unicode="&#xf14c;" 
d="M213 64c0 -15 2 -29 6 -43h-38l-74 -74c-11 -11 -13 -11 -16 -11c-5 0 -6 5 -6 5v80h-53c-21 0 -32 11 -32 32v192c0 21 11 32 32 32h96v139c0 21 11 32 32 32h320c21 0 32 -11 32 -32v-235v-4c-2 3 -5 6 -7 8c-11 11 -23 20 -36 27v188s0 5 -5 5h-288s-5 -5 -5 -5v-203
s0 -5 5 -5h95c-3 -2 -5 -4 -8 -7c-16 -16 -27 -35 -36 -55c-9 -21 -14 -43 -14 -66zM384 192c71 0 128 -57 128 -128s-57 -128 -128 -128s-128 57 -128 128s57 128 128 128zM469 43v42h-64v64h-42v-64h-64v-42h64v-64h42v64h64z" />
    <glyph glyph-name="uniF14D" unicode="&#xf14d;" 
d="M290 47l65 -44c-21 -11 -44 -19 -69 -22l-30 -45l-30 45c-94 13 -168 87 -181 181l-45 30l45 30c3 25 11 48 22 69l44 -65c-3 -11 -4 -22 -4 -34c0 -82 67 -149 149 -149c12 0 23 1 34 4zM222 337l-65 44c21 11 44 19 69 22l30 45l30 -45c94 -13 168 -87 181 -181l45 -30
l-45 -30c-3 -25 -11 -48 -22 -69l-44 65c3 11 4 22 4 34c0 82 -67 149 -149 149c-12 0 -23 -1 -34 -4zM299 235l170 -256l-256 170l-170 256zM256 165c15 0 27 12 27 27s-12 27 -27 27s-27 -12 -27 -27s12 -27 27 -27z" />
    <glyph glyph-name="uniF14E" unicode="&#xf14e;" horiz-adv-x="469" 
d="M0 -43v171h85v-171h-85zM128 171h85v-214h-85v214zM256 256h85v-299h-85v299zM384 384h85v-427h-85v427z" />
    <glyph glyph-name="uniF14F" unicode="&#xf14f;" horiz-adv-x="469" 
d="M0 -43v171h85v-171h-85zM128 0h85v-43h-85v43zM256 0h85v-43h-85v43zM384 0h85v-43h-85v43z" />
    <glyph glyph-name="uniF150" unicode="&#xf150;" horiz-adv-x="469" 
d="M0 -43v171h85v-171h-85zM128 171h85v-214h-85v214zM256 256h85v-299h-85v299zM384 0h85v-43h-85v43z" />
    <glyph glyph-name="uniF151" unicode="&#xf151;" horiz-adv-x="469" 
d="M0 -43v171h85v-171h-85zM128 171h85v-214h-85v214zM256 0h85v-43h-85v43zM384 0h85v-43h-85v43z" />
    <glyph glyph-name="uniF152" unicode="&#xf152;" horiz-adv-x="294" 
d="M78 221c-9 -4 -17 -8 -25 -13l-53 238l294 2l-57 -240c-8 5 -17 9 -26 13c-21 9 -44 14 -67 14s-45 -5 -66 -14zM144 192c71 0 128 -57 128 -128s-57 -128 -128 -128s-128 57 -128 128s57 128 128 128zM123 -5l112 112l-27 26l-85 -85l-48 48l-27 -27z" />
    <glyph glyph-name="uniF153" unicode="&#xf153;" horiz-adv-x="448" 
d="M293 85c3 0 6 -2 7 -5l8 -32c1 -3 -1 -5 -4 -5h-139c-3 0 -5 2 -4 5l8 32c1 3 4 5 7 5h117zM171 448l106 -107h-96s-10 11 -10 11v96zM341 149h107v-192s-21 -21 -21 -21h-235s-21 0 -21 21v320s21 22 21 22h107v-107s-1 -43 42 -43zM341 299l107 -107h-96s-11 11 -11 11
v96zM128 341v-256h-107s-21 1 -21 22v320s21 21 21 21h107v-107z" />
    <glyph glyph-name="uniF154" unicode="&#xf154;" horiz-adv-x="469" 
d="M2 252c11 5 23 -22 39 -22s71 6 71 28s-38 27 -49 43s-9 18 -20 40s-30 36 -19 52s45 -28 50 -44s11 -37 22 -37s27 22 27 60s-16 55 -16 76h21c5 0 21 0 21 -21c0 -20 -4 -7 -4 -77s0 -90 22 -106c25 -18 -5 -23 6 -39s44 -49 55 -76s0 -71 22 -71s22 43 22 65
c0 65 -55 129 -55 199c0 54 11 87 27 82s0 -17 0 -71s17 -86 39 -86s44 5 49 140c0 0 30 8 30 -24s-2 -30 -2 -46s5 -11 0 -27s-27 -33 -22 -38c14 -12 35 36 46 25s-22 -37 -22 -53s3 -21 20 -21c16 0 16 11 27 11s11 -16 22 -11s16 65 33 60c16 -5 -10 -92 -38 -92
c0 0 -12 0 -17 -5s16 -17 11 -22s-33 10 -38 5s-42 -35 -72 -108c-11 -27 11 -97 11 -97s-16 -5 -38 0c0 0 -21 -8 -49 -8s-67 8 -56 19s24 8 35 24s15 19 9 35c-5 16 -28 32 -33 54s-6 33 -11 49c-6 16 -29 54 -50 75s-82 22 -87 17s-6 -16 -17 -16c0 33 -33 54 -22 59z
M299 203c-6 -22 -5 -48 11 -48c17 0 33 21 33 43s-5 38 -16 38s-23 -11 -28 -33z" />
    <glyph glyph-name="uniF155" unicode="&#xf155;" 
d="M432 99c60 58 60 154 0 212c-30 29 -69 46 -108 46c-35 0 -71 -14 -99 -37c11 -5 23 -11 33 -19c20 13 43 20 66 20c30 0 61 -12 84 -34c46 -45 46 -119 0 -164c-11 -11 -24 -19 -38 -25c-6 -2 -11 -4 -17 -5c-9 -2 -19 -4 -29 -4c-22 0 -44 6 -62 17c-8 5 -15 10 -22 17
v0l-72 70c-3 3 -8 6 -12 6s-10 -3 -13 -6c-7 -7 -7 -17 0 -24l47 -46l18 -17l7 -7c3 -4 7 -7 11 -10c27 -22 62 -36 98 -36h3c10 0 20 4 30 6c7 2 14 3 20 5c20 7 39 19 55 35zM160 56v0h54c-8 6 -16 13 -24 20l-14 14h-16c-24 0 -47 9 -64 26c-35 34 -35 90 0 124
c16 16 38 25 61 26h3c6 0 11 -1 17 -2c16 -3 30 -10 42 -20l4 -4l9 -8l42 -41c3 -3 7 -5 12 -5c4 0 10 2 13 5c7 7 7 17 0 24l-42 40l-9 9l-3 4c-4 4 -9 7 -14 10c-10 7 -21 12 -33 16c-6 2 -14 3 -20 4s-12 2 -18 2h-1c-33 0 -64 -13 -87 -36c-49 -48 -49 -125 0 -173
c23 -23 55 -35 88 -35zM457 336c73 -72 73 -189 0 -261c-35 -34 -81 -53 -130 -54h-2h-1h-164c-43 0 -83 16 -113 46c-62 61 -62 160 0 221c30 30 70 46 113 46c9 0 18 0 27 -2l3 4c36 35 84 53 134 53s97 -18 133 -53z" />
    <glyph glyph-name="uniF156" unicode="&#xf156;" 
d="M405 128h107v-85h-405v170h85v-85h128v128h-320v85h107v107h85v-107h213v-213zM320 -64v64h85v-64h-85z" />
    <glyph glyph-name="uniF157" unicode="&#xf157;" 
d="M427 171c47 0 85 -39 85 -86s-38 -85 -85 -85s-86 38 -86 85c0 6 1 13 2 19l-66 45c-121 -85 -229 -112 -229 -112l-48 48c59 0 224 97 240 118c-16 21 -181 117 -240 117l48 48s108 -27 229 -112l66 46c-1 6 -2 12 -2 18c0 47 39 85 86 85s85 -38 85 -85
s-38 -85 -85 -85c-21 0 -40 7 -55 20l-73 -47v-11l73 -47c15 13 34 21 55 21zM427 363c-24 0 -43 -19 -43 -43s19 -43 43 -43s42 19 42 43s-18 43 -42 43zM427 43c24 0 42 18 42 42s-18 43 -42 43s-43 -19 -43 -43s19 -42 43 -42z" />
    <glyph glyph-name="uniF158" unicode="&#xf158;" 
d="M352 288l21 -21l-74 -96c0 -24 -19 -43 -43 -43s-43 19 -43 43s19 42 43 42zM120 35l-45 -45c-46 46 -75 110 -75 181c0 141 115 256 256 256s256 -115 256 -256c0 -71 -29 -135 -75 -181l-45 45c36 36 56 85 56 136s-20 99 -56 135s-85 57 -136 57s-100 -21 -136 -57
s-56 -84 -56 -135s20 -100 56 -136z" />
    <glyph glyph-name="uniF159" unicode="&#xf159;" horiz-adv-x="384" 
d="M0 373c0 50 64 75 192 75s192 -25 192 -75s-64 -74 -192 -74s-192 24 -192 74zM382 315h2v-75c0 -17 -20 -32 -58 -47s-83 -22 -134 -22s-96 7 -134 22s-58 30 -58 47v75h2c8 -12 21 -23 39 -32s38 -15 64 -20s55 -7 87 -7c48 0 89 5 122 15s56 25 68 44zM382 187h2v-182
c0 -17 -20 -32 -58 -47s-83 -22 -134 -22s-96 7 -134 22s-58 30 -58 47v182h2c12 -19 35 -34 68 -44s74 -15 122 -15s89 5 122 15s56 25 68 44z" />
    <glyph glyph-name="uniF15A" unicode="&#xf15a;" horiz-adv-x="469" 
d="M0 373c0 50 64 75 192 75s192 -25 192 -75s-64 -74 -192 -74s-192 24 -192 74zM208 171h-16c-51 0 -96 7 -134 22s-58 30 -58 47v75h2c12 -19 35 -34 68 -44s74 -15 122 -15s89 5 122 15s56 25 68 44h2v-75c0 -3 -1 -7 -3 -10c-13 3 -26 5 -40 5c-23 0 -45 -5 -66 -14
c-20 -9 -38 -20 -54 -36c-4 -4 -9 -9 -13 -14zM184 -2c3 -6 5 -13 9 -19h-1c-51 0 -96 7 -134 22s-58 30 -58 47v139h2c12 -18 34 -33 65 -43s70 -15 116 -16c-8 -20 -12 -42 -12 -64c0 -23 4 -45 13 -66zM341 192c35 0 66 -13 91 -38s37 -55 37 -90s-12 -65 -37 -90
s-56 -38 -91 -38s-65 13 -90 38s-38 55 -38 90s13 65 38 90s55 38 90 38zM427 43v42h-64v64h-43v-64h-64v-42h64v-64h43v64h64z" />
    <glyph glyph-name="uniF15B" unicode="&#xf15b;" horiz-adv-x="469" 
d="M384 149h85v-213zM341 149l-85 -213v213h85zM363 69l58 -133h-42l-16 43h-38zM0 373c0 50 64 75 192 75s192 -25 192 -75s-64 -74 -192 -74s-192 24 -192 74zM213 128v-149h-26h-3c-50 1 -92 8 -129 23s-55 30 -55 46v139h2c12 -19 35 -34 68 -44s74 -15 122 -15h21z
M213 192v-21h-21c-51 0 -96 7 -134 22s-58 30 -58 47v75h2c12 -19 35 -34 68 -44s74 -15 122 -15s89 5 122 15s56 25 68 44h2v-75c0 -17 -20 -33 -60 -48h-111z" />
    <glyph glyph-name="uniF15C" unicode="&#xf15c;" horiz-adv-x="469" 
d="M0 373c0 50 64 75 192 75s192 -25 192 -75s-64 -74 -192 -74s-192 24 -192 74zM208 171h-16c-51 0 -96 7 -134 22s-58 30 -58 47v75h2c12 -19 35 -34 68 -44s74 -15 122 -15s89 5 122 15s56 25 68 44h2v-75c0 -3 -1 -7 -3 -10c-13 3 -26 5 -40 5c-23 0 -45 -5 -66 -14
c-20 -9 -38 -20 -54 -36c-4 -4 -9 -9 -13 -14zM184 -2c3 -6 5 -13 9 -19h-1c-51 0 -96 7 -134 22s-58 30 -58 47v139h2c12 -18 34 -33 65 -43s70 -15 116 -16c-8 -20 -12 -42 -12 -64c0 -23 4 -45 13 -66zM341 192c35 0 66 -13 91 -38s37 -55 37 -90s-12 -65 -37 -90
s-56 -38 -91 -38s-65 13 -90 38s-38 55 -38 90s13 65 38 90s55 38 90 38zM309 -16l123 123l-27 26l-96 -96l-32 32l-26 -26z" />
    <glyph glyph-name="uniF15D" unicode="&#xf15d;" 
d="M376 312c79 -24 136 -97 136 -184c0 -106 -86 -192 -192 -192c-87 0 -160 57 -184 136c-79 24 -136 97 -136 184c0 106 86 192 192 192c87 0 160 -57 184 -136zM128 121c14 -7 29 -11 44 -13c-1 7 -1 13 -1 20c0 40 15 78 43 106s66 43 106 43c7 0 13 0 20 -1
c-2 15 -6 30 -13 44h-7c-106 0 -192 -86 -192 -192v-7zM426 22c28 28 43 66 43 106s-15 78 -43 106c-12 12 -27 22 -42 29v-7c0 -106 -86 -192 -192 -192h-7c7 -15 17 -30 29 -42c28 -28 66 -43 106 -43s78 15 106 43z" />
    <glyph glyph-name="uniF15E" unicode="&#xf15e;" horiz-adv-x="469" 
d="M192 448c106 0 192 -34 192 -75s-86 -74 -192 -74s-192 33 -192 74s86 75 192 75zM382 315h2v-75c0 -32 -86 -69 -192 -69s-192 37 -192 69v75h2c25 -37 93 -59 190 -59s165 22 190 59zM210 35l-26 -56c-103 2 -184 38 -184 69v139h2c25 -37 93 -59 190 -59
c51 0 94 6 127 17zM467 163c0 0 2 -3 2 -8s-2 -8 -2 -8l-19 -19l-43 43l19 18s3 3 8 3s8 -3 8 -3zM427 107l-118 -118l-42 43l117 117zM288 -32l-72 -32c-3 0 -3 0 -3 3l32 72z" />
    <glyph glyph-name="uniF15F" unicode="&#xf15f;" horiz-adv-x="469" 
d="M0 373c0 50 64 75 192 75s192 -25 192 -75s-64 -74 -192 -74s-192 24 -192 74zM208 171h-16c-51 0 -96 7 -134 22s-58 30 -58 47v75h2c12 -19 35 -34 68 -44s74 -15 122 -15s89 5 122 15s56 25 68 44h2v-75c0 -3 -1 -7 -3 -10c-13 3 -26 5 -40 5c-23 0 -45 -5 -66 -14
c-20 -9 -38 -20 -54 -36c-4 -4 -9 -9 -13 -14zM184 -2c3 -6 5 -13 9 -19h-1c-51 0 -96 7 -134 22s-58 30 -58 47v139h2c12 -18 34 -33 65 -43s70 -15 116 -16c-8 -20 -12 -42 -12 -64c0 -23 4 -45 13 -66zM341 192c35 0 66 -13 91 -38s37 -55 37 -90s-12 -65 -37 -90
s-56 -38 -91 -38s-65 13 -90 38s-38 55 -38 90s13 65 38 90s55 38 90 38zM341 155c-25 0 -46 -9 -64 -27s-26 -39 -26 -64c0 -18 4 -35 14 -50l126 126c-15 10 -32 15 -50 15zM341 -27c25 0 46 9 64 27s27 39 27 64c0 18 -5 35 -15 50l-125 -126c15 -10 31 -15 49 -15z" />
    <glyph glyph-name="uniF160" unicode="&#xf160;" 
d="M94 93c-3 -2 -5 -5 -8 -8c-86 1 -86 21 -86 21v42c0 38 44 35 67 62c5 6 13 30 9 42c0 0 -22 45 -22 58h-6c-13 0 -19 25 -19 38c0 12 13 13 13 13v11c1 42 34 76 75 76c30 0 56 -17 68 -42c-8 -5 -14 -11 -21 -18c-22 -22 -36 -51 -39 -82c-10 -10 -15 -25 -15 -40
c0 -14 3 -30 8 -43c4 -10 10 -18 16 -25c4 -4 8 -8 13 -11c2 -6 5 -13 8 -21c4 -10 8 -19 11 -25c0 -3 -2 -8 -3 -11c-5 -5 -17 -10 -27 -14c-14 -6 -29 -12 -42 -23zM217 43l85 -85c-5 0 -10 -1 -16 -1h-60c-120 0 -119 25 -119 25v49c0 44 63 39 90 71c6 7 14 31 10 46
l-25 65h-7c-15 0 -21 34 -21 49s17 20 17 20v13c0 50 36 89 85 89s85 -39 85 -89v-13s17 -5 17 -20s-5 -49 -20 -49h-8l-25 -65c-2 -6 -2 -9 0 -17zM387 306c-3 31 -17 60 -39 82c-7 7 -13 13 -21 18c12 25 37 42 67 42c41 0 75 -34 75 -76v-11s13 4 13 -8
c0 -13 -5 -33 -18 -33h-6c0 -21 -22 -64 -22 -64c-4 -12 4 -40 9 -46c23 -27 67 -24 67 -62v-20h-85v11c0 27 -20 48 -46 48c-6 0 -12 -2 -17 -4c0 1 1 3 1 4c5 3 10 7 14 11c6 7 11 15 15 25c5 13 8 29 8 43c0 15 -5 30 -15 40zM376 142c4 4 8 3 8 -3v-54h128v-85h-128v-53
c0 -6 -4 -8 -8 -4l-99 100z" />
    <glyph glyph-name="uniF161" unicode="&#xf161;" horiz-adv-x="427" 
d="M43 256h341v-320h-341v320zM149 5v203s0 5 -5 5h-32s-5 -5 -5 -5v-203s0 -5 5 -5h32s5 5 5 5zM235 5v203s-1 5 -6 5h-32s-5 -5 -5 -5v-203s0 -5 5 -5h32s6 5 6 5zM320 5v203s0 5 -5 5h-32s-6 -5 -6 -5v-203s1 -5 6 -5h32s5 5 5 5zM395 363c32 0 32 -32 32 -32v-32h-427
v32s0 32 32 32h96v58s0 27 27 27h117c27 0 27 -27 27 -27v-58h96zM256 363v37s0 5 -5 5h-75c-5 0 -5 -5 -5 -5v-37h85z" />
    <glyph glyph-name="uniF162" unicode="&#xf162;" 
d="M156 -64c-156 0 -156 35 -156 35v53c0 53 89 50 121 89c7 9 17 40 12 58c0 0 -30 65 -30 83h-9c-18 0 -26 35 -26 53s17 18 17 18v16c2 59 49 107 107 107s105 -48 107 -107v-16s18 0 18 -18s-9 -53 -27 -53h-9c0 -18 -30 -83 -30 -83c-5 -18 5 -49 12 -58
c32 -39 121 -36 121 -89v-53s0 -35 -156 -35h-72zM443 104c27 -32 69 -18 69 -61v-19c0 0 0 -22 -85 -24v24c0 60 -54 81 -90 95c-1 1 -3 1 -5 2c3 9 5 20 4 28h-43c-1 3 -1 6 -1 8c11 24 19 44 24 60c31 16 43 60 43 90c0 19 -7 34 -18 44c-1 8 -2 15 -4 22
c14 7 30 11 47 11v0v0c6 0 12 -1 18 -2c50 -9 89 -52 89 -105c0 0 0 1 0 -42c0 -64 21 -86 21 -86h-80c-2 -15 5 -38 11 -45z" />
    <glyph glyph-name="uniF163" unicode="&#xf163;" 
d="M192 43h128l43 -86v-16s-1 -5 -6 -5h-202s-6 5 -6 5v16zM491 427c21 0 21 -22 21 -22v-298s0 -22 -21 -22h-470s-21 22 -21 22v298s0 22 21 22h470zM448 149v214h-384v-214h384z" />
    <glyph glyph-name="uniF164" unicode="&#xf164;" 
d="M315 85c3 0 5 -2 6 -5l8 -32c1 -3 -1 -5 -4 -5h-138c-3 0 -5 2 -4 5l8 32c1 3 3 5 6 5h118zM448 160l64 -139v-21s0 -21 -21 -21h-470c-21 0 -21 21 -21 21v21l64 139v245s0 22 21 22h342s21 -22 21 -22v-245zM325 43c3 0 5 2 4 5l-8 32c-1 3 -3 5 -6 5h-118
c-3 0 -5 -2 -6 -5l-8 -32c-1 -3 1 -5 4 -5h138zM128 171h256v192h-256v-192z" />
    <glyph glyph-name="uniF165" unicode="&#xf165;" horiz-adv-x="341" 
d="M341 -43c0 -21 -21 -21 -21 -21h-299s-21 0 -21 21v470c0 21 21 21 21 21h299s21 0 21 -21v-470zM64 43h213v320h-213v-320zM144 0c0 -15 12 -27 27 -27s26 12 26 27s-11 27 -26 27s-27 -12 -27 -27z" />
    <glyph glyph-name="uniF166" unicode="&#xf166;" 
d="M491 405c21 0 21 -21 21 -21v-384s0 -21 -21 -21h-470s-21 21 -21 21v384s0 21 21 21h470zM427 43v298h-363v-298h363zM469 165c15 0 27 12 27 27s-12 27 -27 27s-26 -12 -26 -27s11 -27 26 -27z" />
    <glyph glyph-name="uniF167" unicode="&#xf167;" horiz-adv-x="469" 
d="M224 256c41 0 68 -23 68 -64v0c0 -41 -27 -64 -68 -64h-32v128h32zM448 427c12 0 21 -10 21 -22v-426c0 -12 -9 -22 -21 -22h-427c-12 0 -21 10 -21 22v426c0 12 9 22 21 22h427zM362 192v0c0 74 -50 128 -138 128h-96v-256h96c89 0 138 54 138 128z" />
    <glyph glyph-name="uniF168" unicode="&#xf168;" 
d="M398 206l-142 -142l-142 142c-4 4 -3 7 3 7h75v235h128v-235h75c6 0 7 -3 3 -7zM491 107c21 0 21 -22 21 -22v-128s0 -21 -21 -21h-470s-21 21 -21 21v128s0 22 21 22h128l107 -107l107 107h128zM64 16c15 0 27 12 27 27s-12 26 -27 26s-27 -11 -27 -26s12 -27 27 -27z
" />
    <glyph glyph-name="uniF169" unicode="&#xf169;" horiz-adv-x="384" 
d="M0 320l128 128v-117s0 -11 -11 -11h-117zM363 448c0 0 21 0 21 -21v-470s-21 -21 -21 -21h-342s-21 0 -21 21v320h128c43 0 43 43 43 43v128h192zM67 21l77 27l-53 53l-27 -77c0 -3 0 -3 3 -3zM165 69l118 118l-54 53l-117 -117zM321 228c0 0 3 3 3 8s-3 8 -3 8l-37 37
s-3 3 -8 3s-8 -3 -8 -3l-19 -18l54 -54z" />
    <glyph glyph-name="uniF16A" unicode="&#xf16a;" 
d="M181 267l64 -64l-138 -139l-102 -43c-5 0 -5 1 -5 6l43 101zM405 341c0 0 33 -32 38 -37c7 -7 7 -25 0 -32l-123 -123c-32 -32 -64 0 -64 0l139 139l-22 21l-90 -90l-86 85l139 139c7 7 25 7 32 0c5 -5 48 -49 53 -54c7 -7 7 -25 0 -32zM469 107c18 24 43 -1 43 -22
s-64 -149 -277 -149c-128 0 -214 64 -214 64s86 -21 214 -21s218 107 234 128z" />
    <glyph glyph-name="uniF16B" unicode="&#xf16b;" 
d="M469 448c23 0 43 -20 43 -43v-426c0 -23 -20 -43 -43 -43h-426c-23 0 -43 20 -43 43v426c0 23 20 43 43 43h426zM256 107l149 170h-298z" />
    <glyph glyph-name="uniF16C" unicode="&#xf16c;" 
d="M213 363l299 -299h-171l-128 -128v171h43v-68l68 68h85l-153 153l-43 42v61zM299 149h-171l-128 -128v427l91 -91z" />
    <glyph glyph-name="uniF16D" unicode="&#xf16d;" 
d="M256 448c141 0 256 -115 256 -256s-115 -256 -256 -256s-256 115 -256 256s115 256 256 256zM117 43l86 32l-64 64l-32 -86c0 -11 -1 -10 10 -10zM224 96l128 128l-64 64l-128 -128zM400 272c0 0 5 5 5 16s-5 16 -5 16l-32 32s-5 5 -16 5s-16 -5 -16 -5l-27 -27l64 -64z
" />
    <glyph glyph-name="uniF16E" unicode="&#xf16e;" 
d="M507 389c0 0 5 -5 5 -16s-5 -16 -5 -16l-38 -37l-85 85l37 38s5 5 16 5s16 -5 16 -5zM437 288l-256 -256l-85 85l256 256zM149 0l-144 -64c-5 0 -5 0 -5 5l64 144z" />
    <glyph glyph-name="uniF16F" unicode="&#xf16f;" 
d="M256 102l171 85v-80s-171 -128 -171 -128s-171 85 -171 128v80zM256 405l256 -128l-256 -128l-256 128z" />
    <glyph glyph-name="uniF170" unicode="&#xf170;" horiz-adv-x="466" 
d="M38 277c-2 0 -4 2 -3 4l10 34c1 2 1 5 3 5h34l2 11c18 82 60 117 118 117c14 0 27 -2 33 -5c2 -1 3 -3 2 -5l-10 -45c-1 -2 -2 -4 -4 -3c-5 2 -12 3 -20 3c-20 0 -41 -7 -52 -57l-4 -16h48c2 0 3 -1 2 -4l-7 -35c-1 -2 -1 -3 -3 -4h-50c-22 -109 -59 -293 -71 -330
c-1 -3 -2 -6 -5 -6c-18 -2 -53 -4 -58 -5c-2 0 -4 2 -3 5c13 42 65 295 73 336h-35zM218 316c-1 2 1 4 3 4h62c3 0 3 -1 4 -3l37 -99v0l72 99c2 2 3 3 6 3h62c3 0 3 -3 1 -5c-24 -30 -79 -100 -108 -133c16 -37 48 -107 60 -135c1 -3 0 -4 -3 -4h-62c-3 0 -5 1 -6 4l-37 98
h-1c-19 -28 -50 -69 -74 -99c-1 -2 -2 -2 -6 -3h-67c-2 0 -3 2 -1 4c33 40 83 100 114 137z" />
    <glyph glyph-name="uniF171" unicode="&#xf171;" horiz-adv-x="299" 
d="M256 384c40 0 43 -14 43 -21s0 -22 -43 -22c-72 0 -187 -37 -224 -42c-21 -3 -32 5 -32 16c0 16 11 22 32 26c39 7 161 43 224 43zM256 308c40 0 43 -14 43 -21s0 -21 -43 -21c-72 0 -187 -38 -224 -43c-21 -3 -32 5 -32 16c0 16 11 23 32 27c39 7 161 42 224 42z
M181 448c32 0 32 -14 32 -21c0 -4 1 -11 -7 -16c-11 -1 -23 -3 -33 -6c-42 -10 -130 -37 -157 -37c-16 0 -16 14 -16 14c0 9 5 23 31 29c25 4 107 28 142 36c2 0 6 1 8 1zM235 107c21 0 21 -22 21 -22v-32c0 -21 -43 -32 -43 -53v0v-32l-32 -32h-64l-32 32v32v0
c0 21 -42 32 -42 53v32v0s0 22 21 22h171zM287 233c11 -3 12 -16 12 -20c0 -5 -6 -21 -43 -21c-43 0 -43 -32 -43 -32v-32h-42v32c0 4 -1 53 26 64c7 2 11 3 16 4c8 1 38 2 46 2c11 0 20 1 28 3zM112 209c1 1 3 1 4 2c12 -19 12 -48 12 -51v-32h-43v32s3 32 -21 32h-2
c16 3 32 10 50 17z" />
    <glyph glyph-name="uniF172" unicode="&#xf172;" 
d="M512 117l-112 87l112 84v-171zM0 363h512v-22l-256 -192l-256 192v22zM0 117v171l112 -84zM363 176l149 -117v-38h-512v38l149 117l107 -80z" />
    <glyph glyph-name="uniF173" unicode="&#xf173;" 
d="M0 405h512v-21l-256 -192l-256 192v21zM0 160v171l112 -84zM238 152c-4 -7 -8 -14 -11 -22c-9 -21 -14 -43 -14 -66h-213v37l149 118zM450 221c-10 4 -19 8 -29 10l-21 16l112 84v-154c-2 3 -4 5 -7 8c-16 16 -35 27 -55 36zM384 192c71 0 128 -57 128 -128
s-57 -128 -128 -128s-128 57 -128 128s57 128 128 128zM459 16l-48 48l48 48l-27 27l-48 -48l-48 48l-27 -27l48 -48l-48 -48l27 -27l48 48l48 -48z" />
    <glyph glyph-name="uniF174" unicode="&#xf174;" 
d="M0 405h512v-21l-256 -192l-256 192v21zM0 160v171l112 -84zM395 192c65 0 117 -52 117 -117s-52 -118 -117 -118s-118 53 -118 118s53 117 118 117zM395 -11c47 0 85 39 85 86s-38 85 -85 85s-86 -38 -86 -85s39 -86 86 -86zM400 139c3 0 5 -3 5 -6v-63l-37 -37
c-2 -2 -5 -2 -7 0l-8 8c-2 2 -2 5 0 7l31 31v54c0 3 2 6 5 6h11zM235 75v-11h-235v37l149 118l101 -76c-10 -21 -15 -44 -15 -68zM512 183c-24 26 -57 45 -94 50l-18 14l112 84v-148z" />
    <glyph glyph-name="uniF175" unicode="&#xf175;" horiz-adv-x="419" 
d="M89 -64c-31 57 -76 138 -81 149s-16 27 0 43s34 12 43 0c21 -27 85 -107 85 -107v128l11 171c0 24 11 43 32 43s32 -19 32 -43l11 -139s141 -39 170 -53c43 -21 22 -85 22 -85l-24 -107h-301zM179 448c71 0 128 -57 128 -128c0 -38 -17 -72 -43 -95v95
c0 47 -38 85 -85 85s-85 -38 -85 -85v-95c-26 23 -43 57 -43 95c0 71 57 128 128 128z" />
    <glyph glyph-name="uniF176" unicode="&#xf176;" horiz-adv-x="405" 
d="M149 363l256 -256h-120l62 -150l-48 -21l-70 155l-80 -80v352zM107 192v-64h-107v320h320v-196l-64 64v68h-192v-192h43z" />
    <glyph glyph-name="uniF177" unicode="&#xf177;" 
d="M107 192v-64h-107v320h320v-196l-64 64v68h-192v-192h43zM227 130c-7 -18 -12 -36 -13 -55l-65 -64v352l151 -151c-13 -8 -26 -16 -37 -27c-16 -16 -27 -35 -36 -55zM384 192c71 0 128 -57 128 -128s-57 -128 -128 -128s-128 57 -128 128s57 128 128 128zM384 149
c-47 0 -85 -38 -85 -85c0 -15 4 -30 11 -42l116 116c-12 7 -27 11 -42 11zM384 -21c47 0 85 38 85 85c0 15 -4 30 -11 42l-116 -116c12 -7 27 -11 42 -11z" />
    <glyph glyph-name="uniF178" unicode="&#xf178;" 
d="M405 128v58c0 6 4 8 8 4l99 -105l-99 -104c-4 -4 -8 -3 -8 3v59c-117 0 -155 -58 -170 -107c0 192 92 192 170 192zM107 192v-64h-107v320h320v-183l-64 64v55h-192v-192h43zM231 102l-15 34l-67 -67v294l196 -196c-20 -3 -41 -8 -60 -18h-22l4 -10
c-13 -9 -25 -21 -36 -37z" />
    <glyph glyph-name="uniF179" unicode="&#xf179;" 
d="M256 448c141 0 256 -115 256 -256s-115 -256 -256 -256s-256 115 -256 256s115 256 256 256zM256 384c-106 0 -192 -86 -192 -192c0 -41 12 -79 34 -110l268 268c-31 22 -69 34 -110 34zM256 0c106 0 192 86 192 192c0 41 -12 79 -34 110l-268 -268
c31 -22 69 -34 110 -34z" />
    <glyph glyph-name="uniF17A" unicode="&#xf17a;" horiz-adv-x="448" 
d="M427 405c12 0 21 -9 21 -21v-384c0 -12 -9 -21 -21 -21h-406c-12 0 -21 9 -21 21v384c0 12 9 21 21 21h406zM149 43v128h-85v-128h85zM384 43v42h-192v-42h192zM384 128v43h-192v-43h192zM384 213v128h-320v-128h320z" />
    <glyph glyph-name="uniF17B" unicode="&#xf17b;" 
d="M384 192c71 0 128 -57 128 -128s-57 -128 -128 -128s-128 57 -128 128s57 128 128 128zM469 43v42h-64v64h-42v-64h-64v-42h64v-64h42v64h64zM213 64c0 -7 1 -14 2 -21h-194c-12 0 -21 9 -21 21v363c0 12 9 21 21 21h406c12 0 21 -9 21 -21v-205c-20 8 -41 13 -64 13
h-192v-43h79c-14 -12 -26 -27 -35 -43h-44v-42h27c-4 -14 -6 -28 -6 -43zM64 384v-107h320v107h-320zM149 107v128h-85v-128h85z" />
    <glyph glyph-name="uniF17C" unicode="&#xf17c;" 
d="M341 128c78 0 171 0 171 -192c-15 49 -54 107 -171 107v-54c0 -6 -3 -7 -7 -3l-99 99l99 99c4 4 7 3 7 -3v-53zM427 448c12 0 21 -9 21 -21v-271c-21 8 -43 13 -64 14v65h-192v-43h89l-43 -43h-46v-46l-18 -18l43 -42h-196c-12 0 -21 9 -21 21v363c0 12 9 21 21 21h406z
M149 107v128h-85v-128h85zM384 277v107h-320v-107h320z" />
    <glyph glyph-name="uniF17D" unicode="&#xf17d;" horiz-adv-x="491" 
d="M491 405v-405c0 -24 -19 -43 -43 -43h-405c-24 0 -43 19 -43 43v405c0 24 19 43 43 43h405c24 0 43 -19 43 -43zM384 320v64h-32c-64 0 -96 -33 -96 -85v-64h-64v-64h64v-171h64v171h75l10 64h-85v53s0 32 32 32h32z" />
    <glyph glyph-name="uniF17E" unicode="&#xf17e;" 
d="M0 427h512v-342h-171v64h107v214h-384v-278h-64v342zM107 192h192v-213h-192v213zM256 32v19c0 13 -25 14 -34 25c-2 2 -5 11 -3 16c0 0 8 18 8 23h3c5 0 7 9 7 14s-5 5 -5 5v5v0c0 16 -8 32 -29 32s-30 -16 -30 -32v0v-5s-5 0 -5 -5s3 -14 8 -14h2c0 -5 8 -23 8 -23
c2 -5 -1 -14 -3 -16c-9 -11 -34 -12 -34 -25v-19s0 -11 43 -11h21c43 0 43 11 43 11z" />
    <glyph glyph-name="uniF17F" unicode="&#xf17f;" 
d="M416 320c0 0 96 -70 96 -75s-11 -21 -32 -42c0 0 -10 -11 -53 -11c0 0 -43 -64 -128 -149c0 0 32 -1 32 -22s-21 -21 -32 -21h-27s-27 -43 -59 -43c-21 0 6 48 6 48s-70 17 -91 22c-15 4 -21 80 -64 101s-43 107 -43 107s-21 10 -21 42c0 43 43 43 43 43s42 0 42 -43
c0 0 43 22 86 22c64 0 85 -43 128 -43s53 43 64 43c0 0 -85 43 -128 128c0 0 85 0 181 -107zM256 48l43 59h-107s-42 -38 -21 -43z" />
    <glyph glyph-name="uniF180" unicode="&#xf180;" 
d="M256 448c141 0 256 -115 256 -256s-115 -256 -256 -256s-256 115 -256 256s115 256 256 256zM213 128v128l-64 64v-256zM256 64l128 128l-128 128v-256z" />
    <glyph glyph-name="uniF181" unicode="&#xf181;" horiz-adv-x="469" 
d="M0 427h469v-470h-469v470zM405 21v64h-341v-64h341zM405 128v64h-341v-64h341zM405 235v64h-341v-64h341z" />
    <glyph glyph-name="uniF182" unicode="&#xf182;" 
d="M215 43c3 -23 10 -45 21 -64h-236v469h469v-236c-25 15 -54 23 -85 23c-30 0 -59 -8 -83 -22h-237v-64h172c-8 -13 -13 -27 -17 -42h-155v-64h151zM64 320v-64h341v64h-341zM384 192c71 0 128 -57 128 -128s-57 -128 -128 -128s-128 57 -128 128s57 128 128 128zM469 43
v42h-64v64h-42v-64h-64v-42h64v-64h42v64h64z" />
    <glyph glyph-name="uniF183" unicode="&#xf183;" 
d="M512 43h-23c-3 -14 -9 -27 -16 -38l17 -16l-31 -31l-16 17c-11 -7 -24 -13 -38 -16v-23h-42v23c-14 3 -27 9 -38 16l-16 -17l-31 31l17 16c-7 11 -13 24 -16 38h-23v42h23c3 14 9 27 16 38l-17 16l31 31l16 -17c11 7 24 13 38 16v23h42v-23c14 -3 27 -9 38 -16l16 17
l31 -31l-17 -16c7 -11 13 -24 16 -38h23v-42zM384 0c35 0 64 29 64 64s-29 64 -64 64s-64 -29 -64 -64s29 -64 64 -64zM215 43c3 -23 10 -45 21 -64h-236v469h469v-236c-25 15 -54 23 -85 23c-30 0 -59 -8 -83 -22h-237v-64h172c-8 -13 -13 -27 -17 -42h-155v-64h151z
M64 320v-64h341v64h-341z" />
    <glyph glyph-name="uniF184" unicode="&#xf184;" horiz-adv-x="384" 
d="M256 277h128v-320s-21 -21 -21 -21h-342s-21 0 -21 21v470s21 21 21 21h192v-128s0 -43 43 -43zM256 448l128 -128h-117s-11 11 -11 11v117z" />
    <glyph glyph-name="uniF185" unicode="&#xf185;" horiz-adv-x="363" 
d="M235 448l128 -128h-118s-10 11 -10 11v117zM235 277h128v-320s-22 -21 -22 -21h-320s-21 0 -21 21v470s21 21 21 21h171v-128s0 -43 43 -43zM107 0v64h-43v-64h43zM171 0v85h-43v-85h43zM235 0v128h-43v-128h43zM299 0v213h-43v-213h43z" />
    <glyph glyph-name="uniF186" unicode="&#xf186;" horiz-adv-x="384" 
d="M256 448l128 -128h-117s-11 11 -11 11v117zM256 277h128v-320c0 -21 -21 -21 -21 -21h-342s-21 0 -21 21v470c0 21 21 21 21 21h192v-128s0 -43 43 -43zM133 64l-42 43l42 42l-26 27l-70 -69l70 -70zM191 16l43 171l-41 10l-43 -171zM277 37l70 70l-70 69l-26 -27l42 -42
l-42 -43z" />
    <glyph glyph-name="uniF187" unicode="&#xf187;" horiz-adv-x="384" 
d="M256 448l128 -128h-117s-11 11 -11 11v117zM256 277h128v-320s-21 -21 -21 -21h-342s-21 0 -21 21v470s21 21 21 21h192v-128s0 -43 43 -43zM213 155v5c0 40 -34 75 -74 75c-41 0 -75 -35 -75 -75c0 -36 25 -64 59 -71v-1c0 -59 -59 -59 -59 -59v-29
c117 0 149 112 149 155z" />
    <glyph glyph-name="uniF188" unicode="&#xf188;" horiz-adv-x="384" 
d="M256 277h128v-320s-21 -21 -21 -21h-342s-21 0 -21 21v470s21 21 21 21h192v-128s0 -43 43 -43zM277 0h86l-64 64l42 43h-85l-32 32l96 96h-85l-54 -54l-53 54h-85l96 -96l-96 -96h21h171zM256 448l128 -128h-117s-11 11 -11 11v117z" />
    <glyph glyph-name="uniF189" unicode="&#xf189;" horiz-adv-x="384" 
d="M256 448l128 -128h-117s-11 11 -11 11v117zM256 277h128v-320s-21 -21 -21 -21h-342s-21 0 -21 21v75l60 -33c4 -2 4 -3 6 -4c3 -1 6 -1 8 -1c6 0 10 1 13 5s6 8 6 14c0 5 -2 9 -5 13c-3 3 -5 7 -11 10l-77 41v39l77 41c6 3 7 6 10 9c3 4 5 9 5 14s-2 10 -5 13
c-2 2 -6 5 -13 5c-2 0 -4 0 -7 -1s-3 -2 -7 -4l-60 -32v266c0 21 21 21 21 21h192v-128s0 -43 43 -43zM315 4c3 3 5 8 5 14s-2 10 -5 13s-8 4 -14 4h-2v121h2c6 0 11 2 14 5s5 7 5 13s-2 11 -5 14s-8 4 -16 4h-44c-8 0 -14 -1 -17 -4s-3 -6 -3 -12s0 -12 3 -15s8 -5 14 -5h4
v-37h-64v37h4c6 0 11 2 14 5s3 9 3 15s0 9 -3 12s-9 4 -17 4h-44c-8 0 -13 -1 -16 -4s-5 -8 -5 -14s2 -10 5 -13s8 -5 14 -5h2v-121h-2c-6 0 -11 -1 -14 -4s-5 -7 -5 -13s2 -11 5 -14s8 -4 16 -4h44c8 0 14 1 17 4s3 6 3 12s0 12 -3 15s-8 4 -14 4h-4v50h64v-50h-4
c-6 0 -11 -1 -14 -4s-3 -9 -3 -15s0 -9 3 -12s9 -4 17 -4h44c8 0 13 1 16 4z" />
    <glyph glyph-name="uniF18A" unicode="&#xf18a;" horiz-adv-x="384" 
d="M256 448l128 -128h-117s-11 11 -11 11v117zM256 277h128v-320s-21 -21 -21 -21h-342s-21 0 -21 21v470s21 21 21 21h192v-128s0 -43 43 -43zM213 21v214s0 21 -21 21h-107s-21 -21 -21 -21v-214s0 -21 21 -21h107s21 21 21 21zM85 64v149h107v-149h-107zM128 32
c0 7 4 11 11 11s10 -4 10 -11s-3 -11 -10 -11s-11 4 -11 11z" />
    <glyph glyph-name="uniF18B" unicode="&#xf18b;" horiz-adv-x="384" 
d="M256 448l128 -128h-117s-11 11 -11 11v117zM325 75c-4 0 -9 2 -14 3c6 -1 11 -2 14 -3zM178 258c0 -1 1 -2 1 -4c0 0 -2 -7 -2 -9c0 5 0 9 1 13zM179 145c10 -20 22 -35 35 -47c1 -1 2 -3 4 -4c-20 -4 -46 -10 -73 -20c3 6 8 12 11 19c10 19 17 35 23 52zM256 277h128
v-320s-21 -21 -21 -21h-342s-21 0 -21 21v470s21 21 21 21h192v-128s0 -43 43 -43zM343 73l4 4l-1 -1c0 4 -1 7 -3 10c-7 10 -24 16 -54 16c-10 0 -22 -1 -34 -2c-9 5 -17 10 -24 16c-17 14 -33 37 -43 67c4 21 5 40 5 58v9l1 4c2 10 1 17 -3 22c-2 2 -6 6 -13 6l-6 -1
c-7 0 -13 -5 -15 -13c-5 -20 -3 -54 7 -86c-6 -21 -14 -46 -29 -76c-11 -22 -21 -40 -31 -55l-1 1l-4 2l-3 -2c-38 -20 -54 -43 -57 -57v-7l4 -4l8 -7c3 -1 6 -3 9 -3c19 0 42 25 73 78c31 11 74 20 114 24c25 -13 53 -21 72 -21c16 0 22 6 22 11v1h1l-1 1v0v4z" />
    <glyph glyph-name="uniF18C" unicode="&#xf18c;" horiz-adv-x="384" 
d="M256 448l128 -128h-117s-11 11 -11 11v117zM256 277h128v-320s-21 -21 -21 -21h-342s-21 0 -21 21v470c0 21 21 21 21 21h192v-128s0 -43 43 -43zM320 0v192s0 21 -21 21h-214s-21 -21 -21 -21v-192h256zM85 21v128h214v-128h-214zM277 181c0 7 4 11 11 11s11 -4 11 -11
s-4 -10 -11 -10s-11 3 -11 10zM235 181c0 7 3 11 10 11s11 -4 11 -11s-4 -10 -11 -10s-10 3 -10 10zM192 181c0 7 4 11 11 11s10 -4 10 -11s-3 -10 -10 -10s-11 3 -11 10z" />
    <glyph glyph-name="uniF18D" unicode="&#xf18d;" horiz-adv-x="384" 
d="M256 448l128 -128h-117s-11 11 -11 11v117zM256 277h128v-320s-21 -21 -21 -21h-342s-21 0 -21 21v470s21 21 21 21h192v-128s0 -43 43 -43zM64 320v-43h107v43h-107zM320 21v43h-256v-43h256zM320 107v42h-256v-42h256zM320 192v43h-256v-43h256z" />
    <glyph glyph-name="uniF18E" unicode="&#xf18e;" horiz-adv-x="384" 
d="M256 448l128 -128h-117s-11 11 -11 11v117zM256 277h128v-320s-21 -21 -21 -21h-342s-21 0 -21 21v470s21 21 21 21h192v-128s0 -43 43 -43zM341 192v21h-85v-21h21l-42 -85v106h-64l-64 -128v107h21v21h-85v-21h21v-192h64l43 85v-85h64l85 192h21z" />
    <glyph glyph-name="uniF18F" unicode="&#xf18f;" horiz-adv-x="384" 
d="M256 448l128 -128h-117s-11 11 -11 11v117zM256 277h128v-320s-21 -21 -21 -21h-342s-21 0 -21 21v75l60 -33c4 -2 4 -3 6 -4c3 -1 6 -1 8 -1c6 0 10 1 13 5s6 8 6 14c0 5 -2 9 -5 13c-3 3 -5 7 -11 10l-77 41v39l77 41c6 3 7 6 10 9c3 4 5 9 5 14s-2 10 -5 13
c-2 2 -6 5 -13 5c-2 0 -4 0 -7 -1s-3 -2 -7 -4l-60 -32v266c0 21 21 21 21 21h192v-128s0 -43 43 -43zM341 1c4 3 7 5 7 11s-2 10 -7 13c-3 2 -8 3 -14 4l-65 70l59 63c6 0 11 1 14 3s7 6 7 14c0 7 -3 10 -6 12c-4 3 -8 1 -14 1h-51c-6 0 -11 2 -15 -1c-6 -5 -6 -9 -6 -11
c0 -6 3 -11 8 -14c3 -2 6 -2 10 -3l-33 -37l-33 36c4 1 7 2 10 4c5 3 8 7 8 13s-2 9 -6 12s-10 1 -16 1h-51c-6 0 -10 2 -14 -1c-3 -2 -6 -4 -6 -11c0 -8 3 -11 6 -13s8 -4 14 -4l58 -65l-62 -68c-6 0 -11 -2 -14 -4c-5 -3 -7 -7 -7 -13s2 -9 6 -12s9 -1 15 -1h54
c8 0 14 -3 18 0c3 2 6 4 6 12c0 7 -3 11 -8 14c-4 2 -9 3 -17 3l37 42l37 -42c-7 0 -11 0 -14 -2s-8 -5 -8 -14c0 -8 3 -10 6 -12c4 -3 9 -1 18 -1h54c6 0 11 -2 15 1z" />
    <glyph glyph-name="uniF190" unicode="&#xf190;" horiz-adv-x="469" 
d="M0 427h469v-470h-469v470zM107 0v43h-43v-43h43zM107 85v43h-43v-43h43zM107 171v42h-43v-42h43zM107 256v43h-43v-43h43zM107 341v43h-43v-43h43zM320 0v171h-171v-171h171zM320 213v171h-171v-171h171zM405 0v43h-42v-43h42zM405 85v43h-42v-43h42zM405 171v42h-42v-42
h42zM405 256v43h-42v-43h42zM405 341v43h-42v-43h42z" />
    <glyph glyph-name="uniF191" unicode="&#xf191;" horiz-adv-x="427" 
d="M192 -64c0 0 -21 0 -21 21v128c0 171 -171 320 -171 320v43h427v-43s-171 -149 -171 -320v-128s-21 -21 -21 -21h-43z" />
    <glyph glyph-name="uniF192" unicode="&#xf192;" horiz-adv-x="491" 
d="M363 192c71 0 128 -57 128 -128s-57 -128 -128 -128s-128 57 -128 128s57 128 128 128zM448 43v42h-64v64h-43v-64h-64v-42h64v-64h43v64h64zM205 -2c3 -6 7 -13 10 -19h-2h-42s-22 0 -22 21v107c0 171 -149 298 -149 298v43h384v-43s-103 -89 -138 -217
c-1 -1 -3 -2 -4 -3c-16 -16 -28 -35 -37 -55c-9 -21 -13 -43 -13 -66s4 -45 13 -66z" />
    <glyph glyph-name="uniF193" unicode="&#xf193;" horiz-adv-x="491" 
d="M205 -2c3 -6 7 -13 10 -19h-2h-42s-22 0 -22 21v107c0 171 -149 298 -149 298v43h384v-43s-103 -89 -138 -217c-1 -1 -3 -2 -4 -3c-16 -16 -28 -35 -37 -55c-9 -21 -13 -43 -13 -66s4 -45 13 -66zM363 192c71 0 128 -57 128 -128s-57 -128 -128 -128s-128 57 -128 128
s57 128 128 128zM331 -16l122 123l-26 26l-96 -96l-32 32l-27 -26z" />
    <glyph glyph-name="uniF194" unicode="&#xf194;" horiz-adv-x="491" 
d="M277 107h192v-171h-192v171zM341 -19v102s1 2 -2 2h-16s-3 -2 -3 -2v-102s0 -2 3 -2h16s2 2 2 2zM384 -19v102s0 2 -3 2h-16s-2 -2 -2 -2v-102s-1 -2 2 -2h16s3 2 3 2zM427 -19v102s0 2 -3 2h-16s-3 -2 -3 -2v-102s0 -2 3 -2h16s3 2 3 2zM213 85h22v-85
c0 -21 -22 -21 -22 -21h-42s-22 0 -22 21v107c0 171 -149 298 -149 298v43h384v-43s-90 -77 -130 -192c-40 -2 -41 -42 -41 -42v-86zM475 171c16 0 16 -16 16 -16v-27h-235v27s0 16 16 16h48v29s0 13 13 13h80c13 0 14 -13 14 -13v-29h48zM395 171v18s0 3 -3 3h-37
c-3 0 -3 -3 -3 -3v-18h43z" />
    <glyph glyph-name="uniF195" unicode="&#xf195;" horiz-adv-x="491" 
d="M0 448h384v-43s-149 -127 -149 -298v-68l-4 -4l-25 -56v0h-35s-22 0 -22 21v107c0 171 -149 298 -149 298v43zM488 163c0 0 3 -3 3 -8s-3 -8 -3 -8l-19 -19l-42 43l18 18s3 3 8 3s8 -3 8 -3zM448 107l-117 -118l-43 43l117 117zM309 -32l-72 -32c-3 0 -2 0 -2 3l32 72z
" />
    <glyph glyph-name="uniF196" unicode="&#xf196;" horiz-adv-x="469" 
d="M192 107c0 -31 17 -61 43 -94v-13c0 -21 -22 -21 -22 -21h-42s-22 0 -22 21v107c0 171 -149 298 -149 298v43h384v-43s-94 -80 -133 -199c-30 -13 -59 -44 -59 -99zM417 171c0 0 52 -1 52 -64c0 -55 -117 -150 -117 -171c0 21 -117 116 -117 171c0 63 52 64 52 64
c42 0 65 -59 65 -59s23 59 65 59z" />
    <glyph glyph-name="uniF197" unicode="&#xf197;" horiz-adv-x="491" 
d="M205 -2c3 -6 7 -13 10 -19h-2h-42s-22 0 -22 21v107c0 171 -149 298 -149 298v43h384v-43s-103 -89 -138 -217c-1 -1 -3 -2 -4 -3c-16 -16 -28 -35 -37 -55c-9 -21 -13 -43 -13 -66s4 -45 13 -66zM363 192c71 0 128 -57 128 -128s-57 -128 -128 -128s-128 57 -128 128
s57 128 128 128zM437 16l-48 48l48 48l-26 27l-48 -48l-48 48l-27 -27l48 -48l-48 -48l27 -27l48 48l48 -48z" />
    <glyph glyph-name="uniF198" unicode="&#xf198;" horiz-adv-x="491" 
d="M363 192l32 -85h96l-75 -59l32 -112l-85 64l-86 -64l32 112l-74 59h96zM210 70l25 -19v-51c0 -21 -22 -21 -22 -21h-42s-22 0 -22 21v107c0 171 -149 298 -149 298v43h384v-43s-125 -107 -146 -256h-1c-20 0 -37 -11 -43 -29s0 -38 16 -50z" />
    <glyph glyph-name="uniF199" unicode="&#xf199;" 
d="M507 411c0 0 5 -5 5 -16s-5 -16 -5 -16l-38 -38l-64 64l38 38s5 5 16 5s16 -5 16 -5zM128 0l-123 -64c-5 0 -5 0 -5 5l64 123zM90 150l-46 -45c-28 36 -44 81 -44 130c0 118 95 213 213 213c49 0 94 -16 130 -44l-45 -46c-24 16 -54 26 -85 26c-82 0 -149 -67 -149 -149
c0 -31 10 -61 26 -85zM496 16c8 -8 16 -16 16 -32s-8 -24 -16 -32s-16 -16 -32 -16s-24 8 -32 16l-103 103v0c-33 -21 -73 -34 -116 -34h-3l217 217v-3c0 -43 -13 -83 -34 -116v0zM96 96l277 277l64 -64l-277 -277z" />
    <glyph glyph-name="uniF19A" unicode="&#xf19a;" 
d="M53 448c11 0 11 -11 11 -11v-490s0 -11 -11 -11h-42s-11 11 -11 11v490s0 11 11 11h42zM107 405c0 0 42 22 106 22s128 -43 192 -43s107 21 107 21v-298s-43 -22 -107 -22s-128 43 -192 43s-106 -21 -106 -21v64s43 21 64 21v171c-21 0 -64 -22 -64 -22v64z" />
    <glyph glyph-name="uniF19B" unicode="&#xf19b;" 
d="M53 224l-53 53l171 171l53 -53zM299 256c0 0 181 -182 202 -203c14 -14 15 -27 0 -42l-64 -64c-14 -14 -28 -14 -42 0c-21 21 -203 202 -203 202h-59s-10 6 -10 6l-38 37l171 171l37 -38s6 -5 6 -10v-59zM363 64l21 21c7 7 7 15 0 22c-5 5 -38 37 -43 42
c-7 7 -14 7 -21 0l-21 -21c-7 -7 -7 -14 0 -21c5 -5 37 -38 42 -43c7 -7 15 -7 22 0z" />
    <glyph glyph-name="uniF19C" unicode="&#xf19c;" 
d="M395 320c65 0 117 -52 117 -117s-52 -118 -117 -118s-118 53 -118 118s53 117 118 117zM117 320c65 0 118 -52 118 -117s-53 -118 -118 -118s-117 53 -117 118s52 117 117 117z" />
    <glyph glyph-name="uniF19D" unicode="&#xf19d;" 
d="M277 363h-277v42s0 22 21 22h235s21 -22 21 -22v-42zM512 0c0 0 0 -21 -21 -21h-470s-21 21 -21 21v320h491s21 -21 21 -21v-299z" />
    <glyph glyph-name="uniF19E" unicode="&#xf19e;" 
d="M277 363h-277v42s0 22 21 22h235s21 -22 21 -22v-42zM384 192c71 0 128 -57 128 -128s-57 -128 -128 -128s-128 57 -128 128s57 128 128 128zM469 43v42h-64v64h-42v-64h-64v-42h64v-64h42v64h64zM213 64c0 -23 5 -44 13 -64h-205c-21 0 -21 21 -21 21v299h448
s21 -21 21 -21v-87c-25 15 -54 23 -85 23c-94 0 -171 -77 -171 -171z" />
    <glyph glyph-name="uniF19F" unicode="&#xf19f;" 
d="M277 384h-277v43s0 21 21 21h235s21 -21 21 -21v-43zM427 149h85v-213zM384 149l-85 -213v213h85zM405 69l59 -133h-43l-16 43h-37zM256 192v-171h-235c-21 0 -21 22 -21 22v298h448s21 -21 21 -21v-128h-213z" />
    <glyph glyph-name="uniF1A0" unicode="&#xf1a0;" 
d="M277 384h-277v43s0 21 21 21h235s21 -21 21 -21v-43zM427 149h85v-213zM384 149l-85 -213v213h85zM405 69l59 -133h-43l-16 43h-37zM256 192v-171h-235c-21 0 -21 22 -21 22v298h448s21 -21 21 -21v-128h-213z" />
    <glyph glyph-name="uniF1A1" unicode="&#xf1a1;" 
d="M277 363h-277v42s0 22 21 22h235s21 -22 21 -22v-42zM299 107h192v-171h-192v171zM363 -19v102s0 2 -3 2h-16s-3 -2 -3 -2v-102s0 -2 3 -2h16s3 2 3 2zM405 -19v102s1 2 -2 2h-16s-3 -2 -3 -2v-102s0 -2 3 -2h16s2 2 2 2zM448 -19v102s0 2 -3 2h-16s-2 -2 -2 -2v-102
s-1 -2 2 -2h16s3 2 3 2zM256 85v-85h-235c-21 0 -21 21 -21 21v299h448s21 -21 21 -21v-43h-133c-37 0 -37 -43 -37 -43h-22c-43 0 -42 -42 -42 -42v-86h21zM496 171c16 0 16 -16 16 -16v-27h-235v27s0 16 16 16h48v29s1 13 14 13h80c13 0 13 -13 13 -13v-29h48zM416 171v18
s0 3 -3 3h-37c-3 0 -3 -3 -3 -3v-18h43z" />
    <glyph glyph-name="uniF1A2" unicode="&#xf1a2;" 
d="M277 363h-277v42s0 22 21 22h235s21 -22 21 -22v-42zM128 213c12 0 21 -9 21 -21v-43h-42v43c0 12 9 21 21 21zM491 320c21 0 21 -21 21 -21v-299s0 -21 -21 -21h-470s-21 21 -21 21v320h491zM213 32v107c0 6 -4 10 -10 10h-11v43c0 35 -29 64 -64 64s-64 -29 -64 -64
v-43h-11c-6 0 -10 -4 -10 -10v-107c0 -6 4 -11 10 -11h150c6 0 10 5 10 11z" />
    <glyph glyph-name="uniF1A3" unicode="&#xf1a3;" 
d="M277 384h-277v43s0 21 21 21h235s21 -21 21 -21v-43zM128 256c12 0 21 -9 21 -21v-43h-42v43c0 12 9 21 21 21zM427 149h85v-213zM384 149l-85 -213v213h85zM405 69l59 -133h-43l-16 43h-37zM256 192v-171h-235c-21 0 -21 22 -21 22v298h448s21 -21 21 -21v-128h-213z
M203 64c6 0 10 5 10 11v106c0 6 -4 11 -10 11h-11v43c0 35 -29 64 -64 64s-64 -29 -64 -64v-43h-11c-6 0 -10 -5 -10 -11v-106c0 -6 4 -11 10 -11h150z" />
    <glyph glyph-name="uniF1A4" unicode="&#xf1a4;" 
d="M277 384h-277v43s0 21 21 21h235s21 -21 21 -21v-43zM128 256c12 0 21 -9 21 -21v-43h-42v43c0 12 9 21 21 21zM427 149h85v-213zM384 149l-85 -213v213h85zM405 69l59 -133h-43l-16 43h-37zM256 192v-171h-235c-21 0 -21 22 -21 22v298h448s21 -21 21 -21v-128h-213z
M203 64c6 0 10 5 10 11v106c0 6 -4 11 -10 11h-11v43c0 35 -29 64 -64 64s-64 -29 -64 -64v-43h-11c-6 0 -10 -5 -10 -11v-106c0 -6 4 -11 10 -11h150z" />
    <glyph glyph-name="uniF1A5" unicode="&#xf1a5;" 
d="M405 192c59 0 107 -48 107 -107s-48 -106 -107 -106c-21 0 -40 6 -57 17l-52 -52c-4 -4 -8 -8 -16 -8s-12 4 -16 8s-8 8 -8 16s4 12 8 16l52 52c-11 17 -17 36 -17 57c0 59 47 107 106 107zM405 21c35 0 64 29 64 64s-29 64 -64 64s-64 -29 -64 -64s29 -64 64 -64z
M277 363h-277v42s0 22 21 22h235s21 -22 21 -22v-42zM234 6c-2 -2 -4 -3 -6 -6h-207c-21 0 -21 21 -21 21v299h448s21 -21 21 -21v-79c-19 9 -41 15 -64 15c-82 0 -149 -68 -149 -150c0 -17 3 -33 8 -49z" />
    <glyph glyph-name="uniF1A6" unicode="&#xf1a6;" 
d="M411 224c-17 -28 -49 -32 -70 -32c-32 0 -47 21 -67 38c-16 13 -54 29 -79 -16s-1 -173 -31 -227s-81 -60 -117 -41s-61 56 -38 101c28 54 76 103 97 140s19 87 51 129c35 47 113 101 213 47s41 -139 41 -139zM440 385c14 25 40 37 57 28s21 -37 7 -62s-40 -37 -57 -28
s-21 37 -7 62zM388 417c10 17 28 27 40 20s16 -27 6 -44s-28 -26 -40 -19s-16 26 -6 43zM336 428c7 14 20 23 30 19s13 -19 6 -33s-20 -23 -30 -19s-13 19 -6 33zM285 433c5 11 15 18 23 14s12 -16 7 -27s-16 -18 -24 -14s-11 16 -6 27zM234 425c5 10 17 14 24 10
s8 -15 3 -25s-16 -14 -23 -10s-9 15 -4 25z" />
    <glyph glyph-name="uniF1A7" unicode="&#xf1a7;" 
d="M440 385c14 25 40 37 57 28s21 -37 7 -62s-40 -37 -57 -28s-21 37 -7 62zM388 417c10 17 28 27 40 20s16 -27 6 -44s-28 -26 -40 -19s-16 26 -6 43zM336 428c7 14 20 23 30 19s13 -19 6 -33s-20 -23 -30 -19s-13 19 -6 33zM285 433c5 11 15 18 23 14s12 -16 7 -27
s-16 -18 -24 -14s-11 16 -6 27zM234 425c5 10 17 14 24 10s8 -15 3 -25s-16 -14 -23 -10s-9 15 -4 25zM274 230c-16 13 -54 29 -79 -16s-1 -173 -31 -227s-81 -60 -117 -41s-61 56 -38 101c28 54 76 103 97 140s19 87 51 129c35 47 113 101 213 47c81 -44 57 -109 45 -131
c-10 2 -20 3 -31 3c-23 0 -45 -5 -66 -14c-8 -3 -15 -7 -22 -11c-8 6 -14 14 -22 20zM384 192c71 0 128 -57 128 -128s-57 -128 -128 -128s-128 57 -128 128s57 128 128 128zM384 155c-50 0 -91 -41 -91 -91c0 -18 6 -36 15 -50l126 126c-14 9 -32 15 -50 15zM384 -27
c50 0 91 41 91 91c0 18 -6 36 -15 50l-126 -126c14 -9 32 -15 50 -15z" />
    <glyph glyph-name="uniF1A8" unicode="&#xf1a8;" horiz-adv-x="469" 
d="M469 -64h-469v32l43 53h384l42 -53v-32zM43 64v43h384v-43h-384zM235 448c118 0 213 -95 213 -213c0 -30 -7 -60 -18 -86h-48c15 25 23 55 23 86c0 94 -76 170 -170 170s-171 -76 -171 -170c0 -31 8 -61 23 -86h-48c-11 26 -18 56 -18 86c0 118 96 213 214 213z" />
    <glyph glyph-name="uniF1A9" unicode="&#xf1a9;" 
d="M237 229c13 0 24 -5 24 -19c0 -18 -11 -23 -27 -23h-7v42h10zM368 226c15 0 23 -19 23 -44c0 -27 -9 -45 -23 -45s-23 15 -23 44c0 28 9 45 23 45zM256 448c141 0 256 -115 256 -256s-115 -256 -256 -256s-256 115 -256 256s115 256 256 256zM171 229v27h-86v-149h36v64
h44v26h-44v32h50zM278 177c8 8 14 20 14 35c0 13 -6 26 -15 33c-10 8 -25 11 -44 11c-18 0 -31 -1 -41 -3v-146h35v56h8c16 0 32 4 43 14zM367 107c37 0 60 27 60 76c0 35 -18 73 -58 73c-38 0 -60 -35 -60 -75c0 -39 19 -74 58 -74z" />
    <glyph glyph-name="uniF1AA" unicode="&#xf1aa;" 
d="M353 402l159 -167l-159 -167c-6 -7 -12 -4 -12 5v98h-213v-171h-128v171s0 128 128 128h213v98c0 9 6 11 12 5z" />
    <glyph glyph-name="uniF1AB" unicode="&#xf1ab;" horiz-adv-x="469" 
d="M0 405h107v-42h-64v-64h-43v106zM469 405v-106h-42v64h-64v42h106zM0 0v107h43v-64h64v-43h-107zM469 0h-106v43h64v64h42v-107zM85 85v235h299v-235h-299z" />
    <glyph glyph-name="uniF1AC" unicode="&#xf1ac;" 
d="M107 320h-107v43h64v64h43v-107zM405 320v107h43v-64h64v-43h-107zM107 85v-106h-43v64h-64v42h107zM405 85h107v-42h-64v-64h-43v106zM128 85v235h256v-235h-256z" />
    <glyph glyph-name="uniF1AD" unicode="&#xf1ad;" 
d="M512 160l-68 -9c-5 -23 -15 -44 -27 -63l43 -54l-46 -46l-54 43c-19 -12 -40 -22 -63 -27l-9 -68h-64l-9 68c-23 5 -44 15 -63 27l-54 -43l-46 46l43 54c-12 19 -22 40 -27 63l-68 9v64l68 9c5 23 15 44 27 63l-43 54l46 46l54 -43c19 12 40 22 63 27l9 68h64l9 -68
c23 -5 44 -15 63 -27l54 43l46 -46l-43 -54c12 -19 22 -40 27 -63l68 -9v-64zM256 85c59 0 107 48 107 107s-48 107 -107 107s-107 -48 -107 -107s48 -107 107 -107z" />
    <glyph glyph-name="uniF1AE" unicode="&#xf1ae;" horiz-adv-x="256" 
d="M128 320c-35 0 -64 29 -64 64s29 64 64 64s64 -29 64 -64s-29 -64 -64 -64zM85 -64v43h86v-43h-86zM256 0h-256l67 153c-15 7 -24 22 -24 39v64c0 23 19 43 42 43h86c23 0 42 -20 42 -43v-64c0 -17 -9 -32 -24 -39z" />
    <glyph glyph-name="uniF1AF" unicode="&#xf1af;" horiz-adv-x="213" 
d="M107 320c-35 0 -64 29 -64 64s29 64 64 64s64 -29 64 -64s-29 -64 -64 -64zM171 299c23 0 42 -20 42 -43v-85c0 -23 -19 -43 -42 -43v-192h-128v192c-23 0 -43 20 -43 43v85c0 23 20 43 43 43h128z" />
    <glyph glyph-name="uniF1B0" unicode="&#xf1b0;" horiz-adv-x="384" 
d="M43 107v85h-43v85h171v-170h-128zM43 -64v128h128v-128h-128zM213 277h171v-85h-43v-85h-128v170zM213 -64v128h128v-128h-128zM341 320h-298l73 32l-31 58l75 -26l32 64l32 -64l75 26l-31 -58z" />
    <glyph glyph-name="uniF1B1" unicode="&#xf1b1;" 
d="M444 150c0 0 -1 1 -1 3s1 3 1 3s1 1 2 1l1 -1s0 -1 -1 -3s-2 -3 -2 -3zM256 -64c-73 0 -145 32 -193 87c-49 56 -70 132 -60 205c10 71 51 137 111 177c62 42 142 54 214 33c68 -20 127 -69 158 -133c33 -68 34 -149 3 -218c-41 -91 -133 -151 -233 -151zM127 390
c-4 -3 -9 -7 -13 -10c1 -1 2 -1 3 -2c-1 0 -2 -1 -3 -2c0 1 -1 2 -2 3c-36 -28 -64 -66 -79 -109c-1 -4 -3 -6 2 -6c3 0 4 -4 5 -6c1 -3 2 -9 5 -10c5 -2 -2 -5 1 -8c2 -1 4 1 5 -1c1 -1 3 -3 3 -4c0 -2 1 -3 3 -4s1 -2 3 -3s4 -1 5 1s-2 5 -3 6c-2 2 -2 2 -3 5s-3 4 -4 6
c2 -2 4 -3 5 -5c2 -2 3 -8 6 -9c7 -3 2 -11 8 -15c2 -2 6 -1 8 -3c1 -1 1 -4 2 -6c1 -3 2 -3 5 -3c1 0 3 1 4 1s2 -3 4 -3s3 3 5 3c3 0 5 -6 8 -7s7 -1 10 -3s2 -5 3 -7c2 -2 5 -4 7 -6c3 -3 11 -9 12 -1c3 0 5 -8 5 -10s0 -6 -2 -7s-4 -3 -5 -4c-4 -4 -2 -7 -2 -12
s-4 -9 1 -13c4 -3 6 -10 7 -15c1 -3 3 -6 3 -9c0 -2 1 -4 3 -5c7 -5 15 -6 15 -16c0 -4 0 -8 -1 -12v-8c1 -4 -2 -4 -3 -7c0 -3 1 0 -1 -3c-1 -1 0 -5 0 -6c1 -5 -5 -10 -4 -15c0 -1 -2 -1 -2 -3s2 -2 2 -4c0 -3 -1 -5 -1 -8c0 -1 1 -4 0 -5c-1 -3 -6 -8 -4 -12
c1 -3 0 -3 -1 -6c-1 -2 1 -3 3 -4c-2 -2 -3 -3 0 -5c2 -1 1 -4 2 -6s6 -7 8 -7c0 0 -1 0 0 0c3 -1 4 -2 7 -2c2 0 5 2 7 2c1 0 6 1 5 4c-1 2 -5 1 -7 2c-5 4 -7 7 -2 11c2 2 5 4 6 7c1 4 -1 4 -4 5c0 2 3 4 4 5c1 2 3 2 4 4c1 1 3 5 1 6s-2 -1 -3 2c2 -1 7 -4 7 0
c0 2 -1 3 0 5c2 -1 3 0 5 0c3 0 5 0 7 3c2 2 6 8 3 10c4 -1 6 0 9 3c2 2 3 4 4 6s0 5 2 6s4 5 5 5c6 1 1 7 2 10c1 2 6 5 8 6c3 2 6 1 9 2c4 1 4 7 6 10c2 4 2 6 3 10c1 3 -1 8 0 11c2 4 6 6 8 10c3 6 7 15 -1 19c-2 1 -3 1 -5 2s-2 3 -4 4c-3 2 -8 -1 -10 1
c-3 2 -7 5 -11 6c-1 0 -2 1 -3 0c0 2 -1 3 -3 3c4 4 -3 6 -4 8c-2 5 -4 9 -9 12c-2 1 -3 1 -5 0c-3 -1 -3 -1 -5 2c-2 2 -3 4 -6 4l-2 1c2 4 2 12 -2 5c-2 3 -9 4 -10 0c-1 3 -5 3 -7 1c-1 1 -2 4 -4 4c-3 0 -4 -2 -5 -4c0 2 3 5 0 6c-2 1 -7 -3 -9 -4s-5 -8 -7 -8
c-1 0 -5 7 -7 3s-6 -2 -8 1s-1 9 0 12s-3 9 -6 8c-1 0 -3 -2 -4 -2s-2 1 -3 1c1 2 0 5 1 7c1 3 2 4 2 7c-1 6 -5 4 -9 4c-3 0 -5 -3 -4 -6s-4 -1 -6 -3c-3 -3 -9 6 -9 9s-1 4 -1 7s2 7 0 9c2 2 4 3 6 5s3 2 6 2s4 -1 6 -2c4 -1 2 3 5 3s5 0 8 1c1 -2 3 -4 5 -2
c1 -5 3 -9 6 -13c2 -3 4 0 5 2c1 3 1 5 0 8c0 2 -3 7 -3 8c1 3 5 5 7 7c2 3 4 4 7 6c4 2 1 5 0 8c4 -2 4 4 4 6c4 -1 2 4 4 4s7 -2 9 1s-5 5 -1 8c2 2 5 1 7 3c0 -2 0 -5 3 -5c2 0 4 2 6 3s4 0 6 1c5 2 8 3 5 9c-2 5 -4 -1 -6 -1c-1 3 -1 5 -5 2c-1 1 1 3 0 5c1 -1 3 -1 4 0
c2 1 2 4 3 4c3 2 3 1 6 1c2 0 2 3 3 3c-2 0 -7 -12 -4 -13c1 -1 4 0 6 0s4 -2 6 -1c3 2 1 0 4 0s2 5 1 6c-1 2 -2 5 -5 5c-1 0 -4 0 -3 2s4 6 3 8s-5 2 -6 4s-3 4 -5 5c-4 2 -5 -3 -6 2c-1 3 -6 13 -10 13c-3 0 -4 -5 -6 -6c-1 -1 -5 1 -6 2c1 1 3 2 2 4s-3 2 -5 2
c-5 1 -8 4 -13 4c-6 0 -9 -1 -8 -8c0 -3 -3 -1 -3 -4c0 -2 3 -3 4 -4c1 -2 3 -3 1 -5c-3 -3 -1 0 -5 0c-5 0 0 -6 0 -8c0 -1 2 -3 1 -4s-4 -1 -4 0c2 2 1 7 0 9c-1 -1 -1 -2 -2 -3c-1 2 -1 4 -3 6c-3 2 -6 1 -9 1c-6 1 -12 6 -17 4c0 1 -3 4 -3 4c0 5 -1 5 3 8c2 2 4 6 7 6
c5 1 6 -4 7 3l1 -1c-3 -3 1 -5 4 -4s5 5 7 1c2 -3 7 -2 7 1c0 4 -7 6 -9 8c2 1 6 1 7 3s-1 5 -3 6c2 1 6 -1 8 1c0 -1 9 -1 4 -4c-6 -3 1 -4 4 -4c2 0 3 2 4 4c1 0 1 -1 2 -1c-3 -1 -3 -3 -5 -4c-1 -2 -6 1 -8 -1s-2 -5 -1 -7s5 0 7 0s6 0 8 -1c1 -1 5 -4 7 -4c1 0 1 2 2 1
c0 0 2 -2 3 -2c2 -1 4 -1 6 -1c0 6 6 -3 7 2c0 2 0 4 -1 5c-1 2 -5 3 -6 5c3 0 7 -5 10 -3s5 5 7 8c-3 0 -5 1 -8 2c-2 1 -4 4 -7 4s-3 -1 -4 3s-2 4 -6 5c-6 1 -11 3 -16 6c-3 2 -6 3 -9 3s-6 -2 -9 -1c4 0 10 4 3 6c-2 1 -7 -5 -9 -6h4c-2 0 -5 0 -7 -1v0zM380 171
c2 -1 4 -3 2 -5c-3 -3 -1 -8 -2 -11s-1 -5 2 -6s4 -4 5 -7c1 -2 3 -6 3 -8c0 -3 0 -6 1 -9c1 -2 2 -4 0 -6s-4 -6 -4 -9c-1 -6 0 -11 3 -17s9 -10 7 -17c-3 -7 5 -11 6 -18c1 -5 0 -12 7 -14c3 -1 5 3 7 4s5 1 7 1c9 -1 12 6 17 12c2 3 5 5 6 8c1 2 -4 6 -1 7c2 1 8 1 8 4
c0 2 0 6 -1 8c-1 5 1 8 5 11c6 5 10 10 9 18c0 3 1 5 0 8c-2 3 -3 5 -4 8s-1 5 0 8s3 5 5 7c3 4 5 9 9 12c3 3 7 4 9 9c1 4 5 6 6 10v17c-4 -1 -7 -2 -10 -4c-2 -1 -5 -2 -7 -2s-1 5 -2 6c5 -2 12 3 16 5s2 3 2 7c0 5 0 10 -1 15c-3 20 -8 40 -16 59c-7 18 -17 35 -28 50
c-3 3 -5 7 -8 10s-3 4 -6 4c-4 0 -8 -1 -12 -1c-5 -1 -3 -3 0 -5c-3 0 -5 2 -8 -1c-2 -3 -2 -5 -2 -8c-2 1 -6 1 -8 0s-8 -2 -10 -2s-4 0 -5 2c-2 3 1 9 -5 8c1 1 2 3 3 4c1 -3 2 -13 5 -12s7 2 10 3c4 2 3 6 6 9c1 1 4 4 3 6s-3 2 -5 3c2 3 6 2 9 4c-2 -4 2 -12 7 -10
s8 2 13 2c-3 3 -6 7 -9 10c-4 4 -4 4 -9 1c5 7 -5 12 -10 16c-4 3 -3 4 -7 1c-2 -2 -4 -5 -6 -7c-4 -3 -8 -4 -13 -6c-3 -1 -6 -5 -8 -8c-2 -4 0 -5 0 -9c-2 -5 5 -8 9 -8c-3 -2 -4 -7 -2 -10c-4 1 -6 0 -9 -3l-3 -3c-2 0 -4 0 -5 -1c-3 -2 0 -4 -4 -5s-7 -4 -11 -4
c-2 0 -5 -1 -4 -3s6 -3 8 -4c3 -2 2 -6 1 -9c-2 -1 -7 1 -9 1c-6 0 -12 1 -12 -7c0 -2 1 -5 0 -7c-3 -4 -1 -6 2 -10c2 -2 5 0 6 -1c3 -4 1 -3 -2 -6c-2 -2 -4 -3 -5 -5c-2 -4 -1 -8 -3 -11c-1 -2 -6 -3 -8 -4c-3 -2 -4 -5 -5 -9c-1 -3 -4 -7 -4 -11c0 -3 2 -8 2 -11
c1 -6 -7 -9 -4 -14c1 -3 -1 -5 1 -8s7 -4 10 -6c1 -1 13 -27 18 -19c3 5 8 3 13 3c6 1 9 10 16 5c3 -2 2 -7 5 -8s6 1 8 3v0zM227 349c1 -3 4 -5 7 -3s3 5 3 9c6 -1 2 7 4 7s4 2 6 2s8 -1 9 1s1 5 3 6c3 0 7 -1 10 0s5 3 8 3c1 0 6 0 5 3c10 -1 0 13 3 13s7 -3 9 -1s0 7 1 9
s4 5 -1 5c-3 0 1 5 2 6c2 2 4 5 7 7s5 3 7 6c-4 1 -7 1 -11 2s-3 -1 -6 -3s-5 2 -6 4c-2 2 -5 2 -8 2c-22 2 -44 1 -65 -3c-11 -2 -21 -5 -31 -8c-3 -1 -4 0 -5 -3c0 -2 -5 -1 -7 -3s-2 -4 -6 -4c-2 0 -9 -1 -5 -4c2 -2 5 0 7 -3s7 -6 9 -1c2 -3 7 0 10 -1c4 -1 9 -3 13 -5
c3 -2 2 -9 3 -12c1 -2 2 1 2 -2s1 -4 4 -4c-2 -3 -2 -5 0 -9c1 -1 1 -2 2 -3c2 -1 1 -2 2 -4c2 -3 4 -5 7 -7s4 -4 8 -2zM471 200c-2 3 -4 4 -6 7c-1 2 -2 5 -4 7c-2 1 -5 2 -5 4c-1 4 1 9 -1 13s-3 8 -5 12c2 0 1 2 2 0c1 -3 3 -7 4 -9s2 -2 2 -4s1 -5 2 -7c1 -3 5 -5 7 -8
c3 -4 3 -10 4 -15c-1 1 0 1 0 0zM409 253c-4 0 -8 4 -12 6c-3 1 -11 4 -12 7c2 1 6 0 5 4c0 3 -2 6 -5 7s-8 -1 -12 -1c-6 0 -10 0 -15 -2l-6 -3c-3 -2 -5 -1 -9 -1c2 3 7 1 10 4c1 1 4 3 5 4c2 2 -2 3 -1 4s3 4 4 4c2 1 4 0 5 2s1 6 3 5c3 -1 4 -3 7 -1s5 5 7 0
c2 -4 6 -5 10 -7c5 -2 4 -5 7 -9c1 -1 5 -3 5 0c0 2 -2 5 -2 7c4 0 4 2 7 -3c1 -3 0 -8 2 -11s7 2 8 3c3 3 6 6 1 10c2 1 2 2 4 3c1 -3 0 -6 1 -9c1 -2 6 -5 8 -6c3 -1 6 1 9 0s5 0 8 1c0 -3 0 -6 -1 -9c0 -1 -4 -6 -4 -6c-4 0 -6 3 -11 1c0 4 -12 2 -14 3s-4 2 -6 1
s-4 -8 -6 -8zM407 286l-9 6c-1 1 -7 7 -7 8c3 0 7 -5 9 -7s6 -4 7 -7c-1 1 0 0 0 0zM170 310c2 5 7 2 10 5c2 2 4 -3 4 -3c-3 4 -10 -1 -14 -2zM122 373c0 2 -2 3 -3 4h7c0 -3 -3 -2 -4 -4zM433 288c0 2 0 3 -1 4c0 1 1 2 2 3s3 3 5 7c0 1 1 2 2 2v0c1 -1 3 -4 4 -6
c0 -1 1 -2 2 -2v0c1 0 2 1 3 2h1c1 1 2 2 3 4v0c0 -1 0 -3 3 -4c1 -1 3 -2 5 -3l3 -3s2 -2 2 -3v0c-1 0 -4 -1 -7 -1h-2c-1 0 -1 0 -2 1s-3 2 -5 2h-3c-3 0 -5 0 -6 -2c0 0 -1 -1 -3 -1h-2h-1h-3z" />
    <glyph glyph-name="uniF1B2" unicode="&#xf1b2;" 
d="M213 64v0c0 -30 8 -59 23 -85c-37 0 -73 8 -106 24c-49 24 -88 66 -110 116c-23 52 -27 113 -9 167c17 52 53 97 99 126c48 30 107 42 163 33c55 -9 104 -38 140 -80c36 -43 56 -97 56 -153c-7 4 -14 7 -21 10c2 1 -2 17 -2 19c-1 7 -2 13 -4 20c-3 13 -7 27 -12 39
s-12 23 -20 34c-4 5 -8 11 -12 16c-3 3 -3 3 -7 3c-1 0 -8 0 -8 -1s7 -4 2 -4c-2 0 -3 1 -5 0s-2 -2 -3 -4c-2 -5 1 -5 -5 -4c-3 0 -7 0 -9 -1c-6 -3 -11 -1 -10 6c0 4 -5 2 -6 -1c0 -1 1 -8 2 -7c-2 -1 -5 1 -8 -1c-2 -1 -3 -2 -4 -4c-1 -1 -3 -1 -4 -1c-3 -1 -1 -2 -2 -4
s-5 -2 -7 -2c-2 -1 -5 -3 -7 -3c-5 0 -1 -1 1 -2s6 -3 6 -5c2 -16 -19 0 -20 -10v-7s-3 -4 -1 -6s2 -4 5 -4c2 0 3 -1 4 -3s2 1 3 2s4 1 5 1c3 1 3 2 6 4c2 1 -1 3 1 5s3 4 6 4c2 0 1 3 2 5s4 0 6 0c2 -1 4 1 6 2c4 3 6 -4 8 -6c3 -2 8 -2 10 -5c1 -2 1 -4 3 -6s1 -1 1 1
c0 1 -1 4 0 5c0 0 2 1 3 1c-2 2 -4 4 -6 5c-3 2 -5 5 -8 7c-1 1 -2 3 0 3s4 -2 5 -3c2 -2 4 -4 7 -6c6 -5 7 -11 8 -18c1 -4 10 5 9 7l-3 3s3 2 3 2c3 3 4 2 4 -2c0 -2 0 -5 2 -6s4 -4 7 -4c2 0 15 1 15 1c1 -3 -1 -8 -2 -11c0 0 -5 -8 -6 -4c0 -2 2 -13 7 -10
c3 2 3 -9 5 -10c4 -2 2 -9 5 -12c4 -3 6 -7 7 -12c-5 1 -12 3 -14 9c-1 2 -1 5 -1 7c0 3 -1 5 -2 8c-2 6 -4 14 -8 19c-2 2 -5 1 -7 0c-3 -1 -4 -4 -6 -5c-2 0 6 6 4 7s-6 1 -8 1s-6 3 -8 2c-3 -1 -3 -7 -6 -8c-2 -1 -4 2 -6 2s-3 3 -5 4s-4 1 -6 2s-5 3 -6 4c-2 2 2 2 3 2
c2 1 0 6 -1 7c-2 2 -4 1 -6 1c-4 -1 -9 -1 -13 -1s-8 -3 -12 -5c-3 -1 -5 -1 -8 -1s-6 -2 -8 -4c-2 -1 -2 -2 -3 -4c-1 -3 0 -7 -2 -9s-7 -3 -9 -5s-2 -5 -3 -7c-1 -3 -3 -6 -4 -9s1 -6 2 -9c1 -4 -1 -6 -3 -10c-1 -2 -1 -2 0 -4s-1 -6 1 -8c2 -3 6 -2 9 -4
c-22 -13 -40 -32 -54 -53c1 3 0 7 -3 9c-2 1 -3 2 -5 3c-2 2 -3 3 -6 4s-5 -1 -8 1c-2 1 -7 7 -10 5c-2 -1 -2 -3 -3 -5c0 -1 -3 0 -3 0c1 2 3 2 4 5c0 2 -1 3 -3 2c-1 0 -6 -6 -7 -2c-1 2 7 2 7 5c0 1 0 4 -2 4s-1 2 -2 3c-2 3 -7 10 -11 8s-6 2 -8 5c-1 1 -4 1 -5 2
c0 0 2 7 1 7c-2 -1 -1 -5 -4 -2c-4 4 -5 1 -7 -2c-1 2 -4 5 -7 2c-1 -1 -2 2 -2 3c-2 5 -8 -8 -7 -8c-2 1 0 7 1 8c3 5 -5 0 -6 0c-4 -1 -5 -8 -9 -8c-1 0 -4 5 -5 3c-3 -4 -7 -3 -9 0s-1 9 0 12c1 2 -2 8 -5 7s-5 -3 -8 -1c0 0 1 9 2 10c2 2 3 6 -1 6c-2 0 -5 1 -6 0
c-2 -1 -1 -3 -1 -5c0 -1 -2 -3 -3 -2c-2 1 -2 -1 -4 -2c-3 -1 -7 5 -8 7c-2 3 -3 8 -2 11c0 2 2 6 0 7s4 4 4 4c4 2 3 4 8 4c2 0 6 -3 7 -2c2 2 1 3 5 3c2 0 6 2 7 0c2 -4 4 1 4 -2c0 -2 1 -7 4 -8c1 -1 1 -5 3 -4s2 4 1 6c-1 3 -1 6 -3 8s3 5 4 6c2 2 3 5 5 7c1 2 4 2 6 3
c1 0 -3 8 -1 7c1 -1 4 -1 3 2c-2 4 4 2 2 5s6 2 7 2c5 0 2 1 1 4s3 5 5 5c1 0 5 3 5 2c0 -2 0 -5 3 -4s5 2 8 3c2 0 3 0 5 1s-1 6 -2 6s-4 -5 -4 -1c0 5 -3 -2 -5 1c-2 2 2 3 0 5c-2 3 -11 -1 -14 -2c1 6 4 5 9 7c2 1 3 1 5 0c1 0 1 1 2 1s-1 -6 2 -5s1 2 2 3s3 2 4 2
s3 -1 4 0c1 0 4 6 4 2c0 -1 -3 -6 -4 -8c-2 -3 1 -3 4 -3c1 0 2 1 3 0s1 -2 2 -1s5 0 5 0c2 1 -2 8 -4 8c-1 0 -6 1 -6 1c1 2 3 5 4 7c2 3 -2 2 -4 3c-3 2 -3 7 -7 6c-5 -1 -4 5 -7 8c-1 1 -4 8 -6 6s-3 -6 -6 -6c-2 0 -4 1 -5 2c-1 2 1 3 2 4c1 2 -4 2 -5 2c-3 0 -5 4 -8 4
s-5 -1 -8 -1c-2 0 -1 -5 -1 -6s0 -2 -1 -2s-2 0 -2 -1c1 -3 7 -4 5 -8c-2 -3 -3 -3 -5 -2s-2 -1 -1 -2c2 -2 4 -10 -1 -9c-4 1 -2 3 -3 6c0 0 -1 -2 -2 -2c-1 1 -1 6 -2 7c-2 2 -7 0 -10 1s-7 4 -10 4c-2 0 -3 -2 -4 1s-3 2 -3 5s-2 4 1 6c2 2 5 6 8 7c2 1 4 -2 6 -2l2 7
c1 -2 1 -3 2 -4s-2 -3 0 -3c3 -1 5 3 8 2c2 -1 1 -4 4 -3c2 1 3 3 1 4c-2 2 -6 5 -9 4c-1 0 -5 0 -5 1c-1 2 5 1 6 1c2 0 5 1 7 2c4 3 -6 4 0 7c1 1 3 0 4 0c2 0 1 1 2 2s1 -2 1 -2c1 -1 4 0 5 -1c2 -2 -3 -6 -3 -6c3 -3 6 1 7 3s5 -2 5 -2c-1 -1 -4 -1 -5 -3
c0 -1 -1 -2 -2 -2c-2 -1 -7 2 -7 -2c-1 -5 2 -2 5 -2c2 0 6 0 8 -1s4 -3 6 -4c1 -1 2 3 4 -1c0 -1 5 -1 5 0c1 4 5 -2 6 -1c3 2 -3 7 -4 8c-2 1 -4 4 0 3s5 -4 9 -2c2 1 3 3 4 5c-3 0 -6 1 -8 3c-1 1 -3 2 -4 2s-2 -1 -3 0c-2 1 -1 5 -3 6c-1 0 -2 1 -3 1c-3 1 -5 1 -8 2
c-4 2 -8 5 -12 6c-3 1 -7 0 -10 0c-2 0 -3 0 -5 -1c-1 -1 -2 -1 -3 -2v-2c0 0 -4 -2 -4 -1c-2 -1 -4 -2 -6 -4c1 -1 9 1 9 -1c0 -3 -3 -4 -5 -6c-3 -3 -2 3 -3 4c-2 2 -5 -2 -6 0c-33 -26 -58 -62 -71 -102c5 -1 6 -7 8 -11c1 -3 6 -5 4 -8s0 -2 2 -2s3 -3 4 -4
c2 -2 0 -4 3 -5c1 0 2 -2 3 -3c2 -1 3 2 2 3s-3 3 -4 5c-1 4 -4 9 -7 12c-1 1 -5 6 -1 6c1 0 2 -4 2 -5c1 -4 6 -6 8 -9s3 -6 6 -8c2 -1 5 -4 5 -7c0 -4 0 -7 4 -8s6 -2 7 -6c2 -5 6 -1 9 -4s5 5 9 1c3 -3 4 -5 8 -7c3 -1 6 0 8 -4c1 -3 0 -5 4 -7c3 -1 4 -4 7 -5
c2 -1 4 -4 6 -1c1 1 0 5 3 2c4 -4 5 -12 3 -17c-1 -4 -9 -5 -8 -10c1 -4 0 -6 -1 -9s0 -5 3 -7c4 -3 4 -11 6 -15c2 -6 3 -11 10 -13c2 0 6 -3 7 -5c2 -2 2 -5 2 -8c0 -7 -2 -13 -1 -20c0 -2 -3 -5 -2 -6s-2 -3 -1 -5c1 -4 -1 -6 -2 -9c0 -1 0 -2 -1 -3s0 -4 -1 -5
c-1 -3 -1 -2 0 -5s-2 -5 -1 -8c1 -4 1 -5 -2 -9c-1 -1 -2 -3 -2 -5c0 -1 1 -2 1 -3c0 -2 -3 -5 0 -6s-2 -3 0 -5c1 -1 2 -1 2 -2s0 -3 1 -4s4 -4 5 -4c2 0 2 5 4 4c3 -1 -3 -4 -3 -5c-1 -2 8 -2 9 -2c2 0 7 2 8 3c0 0 -5 1 -6 1c-2 1 -4 3 -5 5c-3 5 4 8 7 11c6 5 -4 4 -3 7
c0 1 10 11 9 12s-2 -1 -3 0s-1 3 -1 4s6 -1 7 -1c1 1 -2 5 0 6c1 1 6 0 7 0c2 0 3 0 4 2c1 1 5 6 3 7c-1 1 -5 3 -5 5c0 1 2 6 2 6c1 -1 0 -4 1 -6s3 -3 5 -3c3 0 8 5 9 8s0 5 3 7c2 1 2 3 3 4s1 0 2 1c3 2 -1 5 0 8s11 7 14 7c-5 -16 -8 -32 -8 -49zM383 367c-1 0 3 -3 0 0
c-5 -3 -4 -5 -2 -10c1 -3 3 -2 5 -1s4 1 6 1c-3 3 -6 7 -9 10zM348 369c-4 -1 4 1 0 0c-3 -1 -5 -4 -7 -6c-2 -3 -1 -4 0 -7s0 -4 2 -6c2 -1 5 -2 7 -1c0 0 4 6 4 3s2 -5 2 -8s9 0 11 1s2 5 4 7c1 1 3 3 2 5s-7 1 -3 5c2 2 4 1 6 2s3 3 4 5c-2 1 -2 3 -4 4c-3 3 -7 6 -10 9
c-3 -2 -4 -6 -7 -8s-7 -4 -11 -5zM152 408c-1 0 -4 1 -5 0s6 -3 6 -3c2 -1 3 -6 6 -4c2 1 2 3 2 5c0 -6 5 -2 9 -3s7 -2 11 -4c5 -2 4 -7 5 -11c0 -2 2 -1 3 0c1 2 2 3 4 1c-3 0 -5 -1 -5 -4s5 -4 4 -5c-2 -3 -1 -5 0 -8c1 -1 2 -5 4 -4c-4 -2 3 -7 5 -8c1 -1 3 -4 5 -3
c0 0 3 2 3 1c1 -2 0 -4 3 -3c2 0 4 2 4 4c0 1 -1 6 1 5s3 1 3 3c-1 3 4 6 7 6c4 0 6 -2 8 2c3 5 6 3 11 4c3 1 5 1 7 2c1 0 3 0 4 1s-3 4 -4 4c-2 0 -2 3 -2 4c0 2 5 -1 5 -3c0 -5 7 -4 6 0c-1 2 -4 7 -2 9c2 1 8 -2 8 0c0 3 0 6 2 8c1 2 0 2 -1 2c-8 1 10 15 11 16
c-3 1 -6 1 -9 2c-2 -2 -4 -3 -6 -1c-1 1 -2 1 -2 2h-5c-3 0 -6 1 -9 1c-13 1 -27 1 -40 -1s-25 -4 -37 -8c-5 -1 -9 -3 -14 -5c-1 -2 -3 -4 -6 -4zM384 192c71 0 128 -57 128 -128s-57 -128 -128 -128s-128 57 -128 128s57 128 128 128zM352 -16l123 123l-27 26l-96 -96
l-32 32l-27 -26z" />
    <glyph glyph-name="uniF1B3" unicode="&#xf1b3;" 
d="M122 373c0 2 -2 3 -3 4h7c0 -3 -3 -2 -4 -4zM174 311c0 0 1 0 0 0s-3 -1 -4 -1c2 5 7 2 10 5c2 2 4 -3 4 -3c-3 4 -6 0 -10 -1zM468 203c-1 0 1 0 0 0c-4 2 -4 7 -7 10c-5 4 -5 5 -5 11s-7 12 -3 17c0 0 3 -6 3 -7c1 -1 2 -1 2 -2c0 -3 1 -8 3 -11s6 -5 7 -8
c2 -4 2 -9 3 -13c-1 1 -2 3 -3 3zM395 294c-1 1 1 -2 0 0s-4 4 -4 6c3 0 7 -5 9 -7s5 -4 6 -7c-3 3 -9 4 -11 8zM414 349c1 -2 0 1 0 0c1 -2 3 -3 4 -5c-2 -2 0 -3 2 -3c-7 0 -10 -3 -10 -10c-2 0 -4 1 -7 0l-6 -3c-3 -1 -2 -8 -6 -8c-8 0 0 20 -9 19c1 1 2 3 3 4
c0 -1 2 -10 3 -10c2 0 1 2 3 3c3 2 6 3 9 5v-3c3 1 3 -1 4 2c1 2 3 3 4 5c3 5 -1 5 -4 7c2 3 6 2 9 4c-1 -3 0 -5 1 -7zM473 192v0v0zM492 292c13 -32 -13 30 0 0c13 -31 20 -65 20 -98c0 -17 -2 -33 -5 -50c0 -2 -2 -16 -4 -16h-9h-25c-2 0 -4 -1 -5 1c-1 4 -3 11 0 14
c5 4 8 10 12 15c3 4 8 5 10 9c2 3 4 9 5 12v17l-12 -6c-1 0 -5 -2 -5 0c0 0 1 2 0 2c5 2 8 5 13 8c2 1 4 1 5 3c0 5 -1 9 -1 14c-2 18 -6 36 -12 53c-6 16 -13 31 -22 46l-15 21c-2 3 -5 6 -7 9c-1 1 -6 0 -7 0c1 2 3 2 5 2c-4 4 -7 8 -11 12c-3 3 -3 1 -7 -1
c6 8 -7 13 -12 17c-3 2 -3 2 -6 0s-4 -6 -7 -8c-7 -5 -15 -5 -20 -14c-2 -3 0 -6 0 -9c0 -5 5 -7 10 -7c-3 -2 -4 -7 -2 -10c-4 1 -6 0 -9 -3c-2 -2 -3 -3 -6 -4c-4 -1 -1 -3 -3 -5c-1 -1 -7 -2 -9 -2s-12 -3 -9 -6c2 -2 6 -1 8 -3s2 -5 1 -7c-1 -4 -12 -1 -15 -1
c-5 0 -6 -3 -6 -8c0 -2 1 -5 0 -6c-1 -2 -2 -5 0 -7s2 -4 5 -4s3 -1 5 -3c-5 -3 -10 -7 -11 -13c0 -3 1 -6 -2 -7s-8 -2 -10 -5c-3 -3 -2 -9 -4 -13s-2 -6 -1 -10c2 -6 0 -11 -4 -16c-1 -1 0 -3 1 -4s1 -2 1 -4c0 -3 1 -6 4 -7c2 -1 7 -1 8 -4s2 -5 3 -8c2 -4 5 -7 8 -10
c2 -2 4 -1 5 2c0 2 6 1 7 1c-1 -1 -1 -2 -2 -3c-42 -42 -84 -83 -126 -125c33 -33 66 -67 99 -100c-97 -24 -200 13 -262 92c-46 59 -64 136 -49 209c15 70 59 133 121 169c65 38 146 46 217 20c67 -24 121 -76 149 -141zM263 126c1 3 0 -1 0 0c2 5 3 13 -3 16
c-3 1 -5 2 -7 4s-4 3 -6 3c-3 0 -4 -1 -7 1c-2 1 -5 4 -7 5s-3 1 -5 1s-1 2 -4 2c4 4 -3 7 -4 9c-2 4 -6 10 -11 11c-3 1 -4 -1 -6 -1c-1 1 -2 3 -3 4c-2 2 -2 3 -5 3l-2 1c2 4 2 12 -2 5c-2 3 -9 4 -10 0c0 3 -7 2 -8 1c-1 2 -1 5 -4 4c-2 -1 -4 -2 -5 -4c5 9 -3 5 -8 2
c-2 -1 -4 -4 -6 -4s0 3 -1 3l-1 -2c-3 5 -10 -8 -13 -2c-2 6 0 9 0 15c0 3 -5 13 -10 10c-2 -1 -1 2 -2 -2c0 -1 -1 -3 -2 -3c1 2 0 4 0 6s1 3 2 4c1 2 2 7 -1 8h-7c-6 0 -3 -6 -5 -8c-3 2 -6 -4 -8 -2s-5 5 -6 8s-1 8 0 11c1 2 1 6 -1 8l6 6c1 2 2 5 3 7c2 3 2 -3 3 -3
c3 0 3 -6 6 -6c4 0 5 11 8 9c0 0 6 -5 5 -5c1 -2 2 -4 5 -2c0 -3 1 -7 3 -9c2 -1 1 -4 3 -5c3 -2 5 2 5 4c1 3 0 6 -1 9s-3 5 -1 7c2 3 5 5 7 8s6 3 8 5s-1 5 -2 7c4 -2 4 4 4 6c2 0 3 1 3 3s1 1 3 1c4 -1 10 0 6 5c-1 1 -2 2 -1 4c1 1 3 2 3 3c1 3 2 0 3 -1c4 -5 12 0 17 1
c6 1 8 4 4 9c-2 3 -3 -2 -5 -2c-1 3 -2 5 -5 2c-1 1 1 3 0 5c3 -3 6 4 8 5c1 1 4 -1 6 0c1 0 1 3 2 3l-2 -4c-1 -1 -1 -4 -2 -5c-3 -3 2 -5 3 -7c1 -1 1 -7 3 -3c0 0 3 6 2 6c1 0 1 -1 2 -1s3 1 4 1s1 -2 3 -1c3 2 -2 11 -5 11c-5 0 -4 2 -2 6c4 6 -2 5 -4 9c-2 3 -6 5 -8 8
l-3 3c0 1 -1 4 -2 3c0 -1 -1 -1 -2 0c-2 3 -5 8 -9 3c-2 -3 -5 -6 -9 -2c1 1 4 2 2 4s-5 3 -7 3s-4 2 -6 3s-5 0 -7 0c-3 0 -5 0 -6 -3c0 -2 -1 -5 0 -7c-6 -2 0 -5 2 -7c1 -2 0 -4 -2 -5c-1 0 -2 2 -4 1c-3 -1 0 -7 1 -9c0 -2 2 -5 -1 -4c-1 0 -2 0 -1 1c1 2 0 7 -1 9
c-1 -1 -1 -2 -2 -3c-1 3 -2 6 -5 7s-6 -1 -9 0c-5 1 -10 5 -15 4c-1 2 -2 3 -2 5c0 4 -2 4 2 7c3 2 4 6 8 6c5 0 5 -3 6 3h1c-1 -1 -2 -4 1 -4c2 0 4 1 6 2c2 2 2 5 3 1s6 -8 8 -2c1 4 -7 6 -9 8c2 1 6 1 7 3s-1 6 -3 7c1 1 2 3 3 4s2 3 2 4c0 0 2 -9 5 -9c8 0 -2 -4 1 -8
c-5 -1 -3 -11 0 -9c3 1 9 2 12 0c2 -1 4 -1 5 -2c2 -2 4 -1 4 -1c2 -2 2 -3 5 -3h4c0 6 6 -3 7 2c0 2 0 5 -2 7c-1 1 -4 1 -5 3c3 0 7 -5 10 -3s5 5 7 8c-3 0 -7 0 -9 2c-3 4 -4 3 -8 3c-2 0 -2 7 -4 8s-5 1 -7 1c-6 1 -12 5 -18 7c-3 1 -5 -1 -8 -2c-1 -1 -3 -4 -5 -4
c1 0 1 3 1 3c0 1 2 1 3 2s3 6 2 7c-4 3 -9 -3 -12 -5h4c-1 0 -6 0 -7 -1c-2 -2 2 -3 -1 -4c0 1 1 3 1 4c-4 -3 -9 -7 -13 -10c1 -1 2 -1 3 -2c-1 0 -2 -1 -3 -2c-1 1 -1 2 -2 3c-19 -16 -36 -32 -50 -53c-7 -10 -14 -21 -19 -32c-3 -6 -6 -12 -8 -18c-1 -3 -5 -9 -4 -12
s5 -4 5 -7s2 1 4 -2c1 -1 1 1 2 -2c1 -1 2 -4 3 -5s3 0 2 -2c-1 -1 -2 -3 -1 -5c1 -3 4 0 5 -2c1 -1 3 -3 3 -4c0 -2 4 -6 6 -7s5 1 5 3s-2 4 -4 5s-1 3 -2 5s-3 3 -4 5c4 -4 6 -9 10 -13c1 -1 3 -2 4 -3c2 -3 2 -5 2 -8c0 -2 1 -5 4 -6c2 -1 6 0 7 -2c2 -2 1 -6 4 -8
c2 -2 5 0 7 0c2 -1 2 -5 5 -3c1 1 2 3 4 3s5 -4 6 -5c2 -2 7 -4 9 -7c2 -4 3 2 3 2c3 -2 1 -6 3 -8s6 -3 8 -6c3 -3 10 -7 11 0c3 0 6 -10 5 -12c-1 -3 -1 -4 -3 -6c-2 -1 -3 -2 -4 -4c-3 -4 -2 -7 -2 -12s-4 -9 2 -13c4 -3 5 -11 7 -15c2 -5 1 -10 6 -13c6 -3 18 -7 18 -16
c0 -4 -2 -8 -3 -12c0 -3 -2 -5 -2 -8c1 -4 -2 -4 -3 -7c0 -1 1 -1 0 -2c-1 0 -2 -1 -2 -2c0 -2 2 -4 2 -6s-2 -5 -3 -7s-2 -2 -2 -4v-3c-1 -2 -2 -2 -1 -5c1 -2 2 -1 1 -4s-2 -5 -1 -8c0 -2 1 -2 0 -4c-2 -4 -7 -7 -4 -12c2 -2 -5 -8 1 -9c-2 -2 -2 -3 1 -5c2 -1 1 -2 1 -4
s5 -8 7 -8c1 -2 7 -3 9 -3c3 0 7 2 10 3c1 0 4 2 2 3s-4 0 -6 1c-3 1 -6 6 -6 9c1 5 18 13 5 15c0 2 4 4 5 6s3 3 4 5c3 5 -3 3 -4 6c3 -1 9 -4 8 2c-1 4 4 3 7 3s4 1 6 4c1 2 5 7 2 9c6 -2 9 4 12 8c1 2 1 6 3 7s3 2 4 4s3 2 4 4c1 3 -2 4 -1 7c1 2 7 5 9 6s5 1 8 2
s3 3 4 6l3 6s0 5 1 7c1 5 -1 10 3 14c3 3 6 7 8 11zM309 420c0 0 1 1 1 2c-4 1 -12 4 -15 2c-2 -2 -4 -5 -6 -3c-1 1 -2 5 -3 5c-17 2 -34 3 -51 1c-18 -2 -35 -6 -52 -11c-2 -1 -3 0 -5 -1c-1 0 0 -1 0 -1c0 -3 -2 -1 -4 -2c-3 -1 -3 -5 -5 -6s-3 -1 -5 -1
c3 -1 7 -18 12 -7c2 -3 6 3 7 5c1 5 6 0 8 -2c2 -3 4 -6 7 -7c5 -2 1 -8 4 -12l2 2c-1 0 1 -9 4 -10c-2 -3 -2 -6 0 -9c1 -2 2 -3 4 -4c0 -1 0 -3 1 -4c2 -3 5 -5 7 -7s3 -3 7 -1c1 -5 5 -4 8 -1c2 2 2 4 2 7c2 -1 3 0 4 2c1 4 -2 3 2 5c3 1 4 2 7 2c1 0 5 -2 6 -1
c0 0 4 0 4 1s3 7 5 7c5 0 11 2 15 5c1 1 4 8 2 8c1 0 1 -2 1 -3l3 -2c2 -1 -1 5 -1 5c1 1 4 1 5 2c3 2 4 3 4 7c0 3 6 14 0 12c-2 -1 2 4 2 4c1 1 2 3 3 4c3 3 8 4 10 7zM450 277c-1 0 -2 -16 -3 -17c-2 -2 0 -3 -3 -4c-1 0 -2 2 -4 2s-3 0 -5 -1c0 3 -5 2 -7 2
c-3 0 -5 1 -8 2c-3 2 -5 1 -7 -2c-1 -2 -2 -6 -5 -5l-12 6c-3 1 -10 3 -11 6c2 1 4 -1 5 2c0 3 -1 6 -3 8c-3 3 -6 1 -10 1c-8 0 -15 2 -22 -2c1 1 3 2 3 4c0 1 -2 2 -1 3s3 4 4 4s3 0 4 1c1 2 1 4 2 6c2 0 4 -2 6 -2c3 0 5 5 8 4c2 0 2 -3 3 -4s2 -3 4 -4c2 -2 6 -2 8 -4
s3 -9 7 -9s0 7 0 9c1 0 4 1 4 1c1 -1 3 -3 3 -5c1 -3 1 -7 2 -10c2 -4 7 3 9 4c4 3 3 6 -1 9c2 1 3 2 5 3c1 -2 -1 -7 1 -9c3 -2 7 -3 11 -3c2 0 1 5 3 4c0 0 4 -6 3 -6c0 0 6 6 7 6zM344 270c-1 -2 1 1 1 1c-1 0 -1 0 -1 -1v0zM350 274c1 1 -1 -1 0 0s4 0 5 1
c-3 -2 -6 -5 -10 -4l3 6c1 0 0 -4 2 -3zM376 142c4 4 8 3 8 -3v-54h128v-85h-128v-53c0 -6 -4 -7 -8 -3l-99 99z" />
    <glyph glyph-name="uniF1B4" unicode="&#xf1b4;" 
d="M148 367v0v0c-2 1 -5 -4 -3 -8c1 -2 8 0 10 0c3 0 7 -1 10 -3c2 -2 4 -1 4 -1c2 -2 2 -3 5 -3h4c0 0 0 2 1 2c3 0 6 -4 6 2s-5 4 -7 8c5 -1 6 -5 12 -2c3 1 3 5 5 7c-3 0 -7 0 -9 2c-3 4 -4 3 -8 3c-2 0 -2 7 -4 8c-3 1 -5 1 -8 2c-6 1 -12 5 -18 6c-2 0 -6 -2 -8 -3
c-1 -1 -2 -3 -4 -3c1 0 1 1 1 2c0 2 2 2 3 3s4 6 2 7c-4 3 -9 -3 -12 -5h4c-1 0 -6 0 -7 -1c-2 -2 2 -3 -1 -4c0 1 1 3 1 4c-4 -3 -9 -7 -13 -10c1 -1 2 -1 3 -2c-1 0 -2 -1 -3 -2c-1 1 -1 2 -2 3c-9 -8 -19 -15 -27 -24s-16 -19 -23 -29s-14 -21 -19 -32
c-3 -6 -6 -12 -8 -18c-1 -3 -5 -9 -4 -12s5 -4 5 -7s2 1 4 -2c1 -1 1 1 2 -2c1 -1 2 -4 3 -5s3 0 2 -2c-1 -1 -2 -3 -1 -5c1 -3 4 0 5 -2c1 -1 3 -3 3 -4c0 -2 4 -6 6 -7s5 1 5 3s-2 4 -4 5s-1 3 -2 5s-3 3 -4 5c4 -4 6 -9 10 -13c1 -1 3 -2 4 -3c2 -3 2 -5 2 -8
c0 -2 2 -5 5 -6c2 -1 5 0 6 -2c2 -2 1 -6 4 -8c2 -2 5 0 7 0c2 -1 2 -5 5 -3c1 1 2 3 4 3s5 -4 6 -5c2 -2 7 -4 9 -7c2 -5 3 2 3 2c3 -2 1 -6 3 -8s6 -3 8 -6c3 -3 11 -7 12 0c3 0 5 -10 4 -12c-1 -3 -1 -4 -3 -6c-2 -1 -3 -2 -4 -4c-3 -4 -2 -7 -2 -12s-4 -9 2 -13
c4 -3 5 -10 7 -15s1 -10 6 -13c6 -3 18 -7 18 -16c0 -4 -2 -8 -3 -12c0 -3 -2 -5 -2 -8c1 -4 -3 -4 -3 -7c0 -1 1 -1 0 -2c-1 0 -1 -1 -1 -2c0 -2 1 -4 1 -6s-2 -5 -3 -7s-2 -2 -2 -4v-3c-1 -2 -2 -2 -1 -5c1 -2 2 -1 1 -4s-2 -5 -1 -8c0 -2 1 -2 0 -4c-2 -4 -7 -7 -4 -12
c2 -2 -4 -8 2 -9c-2 -2 -3 -3 0 -5c2 -1 1 -2 1 -4s5 -8 7 -8c0 -2 8 -3 9 -3c3 0 7 2 10 3c1 0 4 2 2 3s-4 0 -6 1s-6 4 -6 7c0 6 18 15 5 17c0 2 4 4 5 6s3 3 4 5c3 5 -2 3 -3 6c3 -1 8 -4 7 2c-1 4 4 3 7 3s4 1 6 4c1 2 5 7 2 9c5 -2 8 2 11 6c2 2 2 5 3 8c1 1 2 1 3 2
c2 2 2 3 4 4s2 4 2 6c-1 3 -2 4 1 6l6 3v-122h123c-22 -10 -46 -16 -70 -19c-74 -9 -149 14 -204 64c-54 49 -85 121 -84 195c1 73 35 143 91 190c57 48 133 70 206 58c71 -11 135 -53 174 -114c41 -63 52 -144 29 -216l-31 31c-3 3 0 3 2 6s4 6 6 8s4 2 6 3c4 4 5 11 8 16
c1 5 -2 12 0 17l-12 -6c-1 0 -5 -2 -5 0c0 1 0 2 -1 2c1 2 5 2 7 3s5 4 7 5c4 2 5 1 5 5c0 5 -1 11 -2 16c-2 20 -7 40 -15 59c-7 18 -17 36 -29 52l-9 12c-2 3 -3 2 -7 2s-7 0 -11 -1c-3 -1 -1 -4 1 -4c-4 0 -7 0 -10 -3c-2 -2 -2 -3 -4 -5s0 -2 1 -2c-3 1 -9 0 -11 -3
c-1 -2 -1 -8 -4 -8c-8 0 -1 20 -10 19c1 1 2 3 3 4c0 -1 2 -10 3 -10c2 0 1 2 3 3c3 2 6 3 9 5c0 -1 1 -2 1 -3c3 1 2 -1 3 2c1 2 3 3 4 5c3 5 -1 5 -4 7c2 3 6 2 9 4c-1 -3 0 -7 2 -10s3 3 5 1c3 -3 3 2 5 3c2 2 5 -2 8 -2c-4 4 -7 8 -11 12c-3 3 -3 1 -7 -1
c6 8 -7 13 -12 17c-3 2 -3 2 -6 0s-4 -6 -7 -8c-7 -5 -15 -5 -20 -14c-2 -3 0 -6 0 -9c0 -5 5 -7 10 -7c-3 -2 -4 -7 -2 -10c-4 1 -7 -1 -10 -4c-2 -2 -8 -2 -8 -5c0 -4 -4 -3 -7 -4c-2 0 -13 -4 -10 -7c2 -2 9 -1 9 -5c0 -2 0 -7 -3 -7c-5 0 -13 3 -17 0c-2 -2 -2 -6 -2 -8
c1 -3 0 -4 -1 -7s1 -6 3 -8c1 -2 5 0 6 -1c3 -3 2 -3 -1 -5l-3 -3c-3 0 -4 -4 -5 -6s1 -7 -1 -8c-3 -2 -6 -3 -9 -5c-3 -3 -5 -8 -6 -12s-3 -7 -2 -11c2 -6 2 -11 -2 -17c-3 -1 1 -5 1 -7c0 -3 0 -5 3 -7c2 -1 6 -2 8 -4s3 -6 4 -8c2 -4 4 -7 7 -10c2 -2 5 -4 6 0
c1 2 4 2 6 2c3 0 7 -2 10 0c3 1 3 5 5 6c3 1 7 0 9 -2s2 -5 5 -6c-7 -9 -10 -21 -10 -32c0 -3 1 -9 -2 -9h-31h-67c2 6 2 13 -5 15c-4 1 -7 8 -12 6s-9 4 -13 6c-2 1 -3 1 -5 1s-1 2 -4 2c4 4 -3 7 -4 9c-2 4 -6 10 -11 11c-3 1 -4 -1 -6 -1c-1 1 -2 3 -3 4c-2 2 -2 3 -5 3
l-2 1c2 4 3 12 -2 5c-2 3 -9 4 -10 0c0 3 -6 2 -7 1c-1 2 -2 5 -5 4c-2 -1 -4 -2 -5 -4c4 9 -3 5 -8 2c-2 -1 -4 -4 -6 -4s0 3 -1 3l-1 -2c-3 5 -10 -8 -13 -2s0 9 0 15c0 3 -5 13 -10 10c-2 -1 -1 2 -2 -2c0 -1 -1 -3 -2 -3c1 2 0 4 0 6s1 3 2 4c1 2 3 7 -1 8h-7
c-6 0 -3 -6 -5 -8c-3 2 -6 -4 -8 -2s-5 5 -6 8s-1 8 0 11c1 2 1 6 -1 8l6 6c1 2 2 5 3 7c2 3 2 -3 3 -3c3 0 3 -6 6 -6c4 0 5 11 8 9c0 0 6 -5 5 -5c1 -2 2 -4 5 -2c0 -3 1 -7 3 -9c2 -1 2 -4 4 -5c3 -2 4 2 4 4c1 3 0 6 -1 9s-3 5 -1 7c2 3 5 5 7 8s6 3 8 5s-1 5 -2 7
c4 -2 4 4 4 6c4 -1 2 4 4 4c2 -1 8 -1 9 1c2 3 -6 6 -1 9c2 1 2 0 2 0c1 -8 13 0 18 1c6 1 10 2 7 9c-2 5 -4 -1 -6 -1c-1 3 -2 5 -5 2c-1 1 1 3 0 5c3 -3 6 4 8 5c1 1 4 -1 6 0c1 0 1 3 2 3l-2 -4c-1 -1 -1 -4 -2 -5c-3 -3 2 -5 3 -7c1 -1 1 -7 3 -3c0 0 3 6 2 6
c1 0 1 -1 2 -1s3 1 4 1s1 -2 3 -1c3 2 -2 11 -5 11c-5 0 -4 2 -2 6c4 6 -2 5 -4 9s-6 5 -8 8l-3 3c0 1 -1 4 -2 3c0 -1 -1 -1 -2 0c-2 3 -5 8 -9 3c-2 -3 -5 -6 -9 -2c1 2 4 3 1 5c-2 1 -5 1 -7 2c-6 3 -9 3 -15 3c-3 0 -3 -6 -3 -8s-4 -3 -2 -5c1 -2 4 -2 5 -4
c2 -2 0 -3 0 -5c-1 2 -5 2 -7 1s0 -7 1 -9c0 -2 2 -5 -1 -4c-1 0 -2 0 -1 1c1 2 0 7 -1 9c-1 -1 -1 -2 -2 -3c-1 3 -2 6 -5 7s-6 -1 -9 0c-5 1 -10 6 -15 4c-1 2 -3 3 -3 5c0 1 -1 4 0 5l4 4c2 2 4 4 7 4c5 0 5 -3 6 3h1c-1 -1 -2 -4 1 -4c2 0 4 1 6 2c2 2 3 5 4 1
s5 -8 7 -2c1 4 -7 6 -9 8c2 1 6 1 7 3s-1 6 -3 7c1 1 2 3 3 4s2 3 2 4c-1 0 3 -8 3 -8c1 -3 9 1 3 -5c-3 -3 -1 -3 0 -4zM159 404v0c0 0 3 0 4 1c2 2 2 -2 3 -2s2 -6 3 -7c2 -3 6 -1 7 2c2 -3 6 3 7 5c1 5 6 0 8 -2s4 -6 7 -7c5 -2 1 -8 4 -12l2 2c-1 0 1 -9 4 -10
c-3 -3 -1 -6 0 -9c1 -2 2 -3 4 -4c0 -1 0 -3 1 -4c2 -3 5 -5 7 -7s3 -3 7 -1c1 -5 8 -4 8 1c0 3 0 5 3 5s4 3 3 5s1 2 3 3s3 1 6 1c1 0 5 -2 6 -1c0 0 4 0 4 1s3 7 5 7c5 0 11 2 15 5c1 1 4 8 2 8c1 0 1 -2 1 -3l3 -2c2 -1 -2 8 -2 8c2 -3 5 -1 5 -1c1 0 5 4 5 5
c0 2 0 4 1 6s2 3 2 5s-2 3 -3 3c-2 -1 2 4 2 4c2 2 2 3 4 5c3 3 8 4 10 8c-5 1 -12 4 -16 0c-5 -5 -5 2 -8 4c-18 2 -38 3 -56 1s-35 -6 -52 -12c-1 0 1 -3 -1 -3c-3 0 -5 0 -6 -3c-2 -5 -11 -1 -12 -5zM471 200c-2 3 -4 4 -6 7c-2 4 -6 6 -9 10c-2 3 1 9 -1 13
c-1 3 -4 6 -5 9l-1 1c2 0 3 -1 4 1c0 0 3 -6 3 -7c1 -1 2 -1 2 -2c0 -3 2 -8 4 -11s5 -5 6 -8c2 -4 2 -9 3 -13zM395 294c-1 1 1 -2 0 0c-1 1 -4 5 -4 6c3 0 7 -5 9 -7s6 -4 7 -7c-3 3 -10 4 -12 8zM354 275c1 1 -1 -1 0 0s4 2 4 4c0 1 -2 2 -1 3s3 4 4 4s3 0 4 1
c1 2 1 4 2 6c2 0 4 -2 6 -2c3 0 5 5 8 4c2 0 2 -3 3 -4l4 -4c2 -2 6 -2 8 -4s3 -9 7 -9s1 7 1 9c1 0 3 1 3 1c1 -1 3 -3 3 -5c1 -3 1 -7 2 -10c2 -4 7 3 9 4c4 3 4 6 0 9c2 1 2 2 4 3c1 -2 -1 -7 1 -9c3 -2 7 -3 11 -3c2 0 1 5 3 4c0 0 4 -6 3 -6c1 0 5 7 7 6c2 0 1 -8 1 -9
c0 -3 -1 -11 -5 -12h-2c-1 0 -1 2 -2 2c-2 1 -5 0 -7 -1c0 3 -5 2 -7 2c-3 0 -5 1 -8 2c-3 2 -5 1 -7 -2c-1 -2 -2 -6 -5 -5l-12 6c-3 1 -10 3 -11 6c3 2 6 0 4 6c-1 3 -3 4 -6 5s-7 0 -11 0c-6 0 -9 1 -15 -1c-2 -1 -5 -1 -7 -2s-1 3 -2 3s-3 -7 -5 -7c2 3 8 1 11 5z
M122 373c0 2 -2 3 -3 4h7c0 -3 -3 -2 -4 -4zM174 311c0 0 1 0 0 0s-3 -1 -4 -1c2 5 7 2 10 5c0 1 3 -1 3 -1c1 -1 1 -1 1 -2c-3 4 -6 0 -10 -1zM512 43l-99 -99c-4 -4 -8 -3 -8 3v53h-128v85h128v54c0 6 4 7 8 3z" />
    </font>
</defs>
</svg>
