<?xml version="1.0" encoding="utf-8"?>
<!-- Generator: Adobe Illustrator 19.2.0, SVG Export Plug-In . SVG Version: 6.00 Build 0)  -->
<svg version="1.1" id="Layer_1" xmlns="http://www.w3.org/2000/svg" xmlns:xlink="http://www.w3.org/1999/xlink" x="0px" y="0px"
	 viewBox="0 0 128 128" enable-background="new 0 0 128 128" xml:space="preserve">
<g>
	<path fill="#FF0000" d="M64,63.3c6.7-7.1,16.3-11.6,26.9-11.6c2.7,0,5.3,0.3,7.8,0.8c1.6-4.1,2.5-8.6,2.5-13.3
		c0-20.4-16.6-37-37-37s-37,16.6-37,37c0,4.7,0.9,9.1,2.5,13.3c2.4-0.5,5-0.8,7.5-0.8C47.7,51.8,57.3,56.2,64,63.3z"/>
	<path fill="#00FF00" d="M56.4,75.4C44.1,72.8,34,64,29.6,52.5C12.8,56,0.1,70.9,0.1,88.8c0,20.4,16.6,37,37,37
		c10.6,0,20.1-4.5,26.9-11.6c-6.3-6.6-10.1-15.6-10.1-25.4C53.9,84.1,54.8,79.6,56.4,75.4z"/>
	<path fill="#F6EB14" d="M56.4,75.4c1.7-4.5,4.4-8.6,7.6-12.1c-6.7-7.1-16.3-11.6-26.9-11.6c-2.6,0-5.1,0.3-7.5,0.8
		C34,64,44.1,72.8,56.4,75.4z"/>
	<path fill="#0000FF" d="M98.6,52.6c-4.5,11.6-14.6,20.3-27,22.9c1.6,4.1,2.5,8.6,2.5,13.3c0,9.8-3.9,18.8-10.1,25.4
		c6.7,7.1,16.3,11.6,26.9,11.6c20.4,0,37-16.6,37-37C127.9,71,115.3,56.1,98.6,52.6z"/>
	<path fill="#B9529F" d="M64,63.3c3.3,3.5,5.9,7.6,7.7,12.1c12.4-2.6,22.5-11.3,27-22.9c-2.5-0.5-5.1-0.8-7.8-0.8
		C80.3,51.8,70.7,56.2,64,63.3z"/>
	<path fill="#6FCCDD" d="M71.7,75.5c-2.4,0.5-5,0.8-7.5,0.8c-2.7,0-5.3-0.3-7.8-0.8c-1.6,4.1-2.5,8.6-2.5,13.3
		c0,9.8,3.9,18.8,10.1,25.4c6.3-6.6,10.1-15.6,10.1-25.4C74.1,84.1,73.2,79.6,71.7,75.5z"/>
	<path fill="#F9F9DE" d="M56.4,75.4c2.5,0.5,5.1,0.8,7.8,0.8c2.6,0,5.1-0.3,7.5-0.8c-1.7-4.6-4.4-8.7-7.7-12.1
		C60.7,66.8,58.1,70.9,56.4,75.4z"/>
</g>
</svg>
