<?xml version="1.0" encoding="utf-8"?>
<!-- Generator: Adobe Illustrator 19.2.0, SVG Export Plug-In . SVG Version: 6.00 Build 0)  -->
<svg version="1.1" id="Layer_1" xmlns="http://www.w3.org/2000/svg" xmlns:xlink="http://www.w3.org/1999/xlink" x="0px" y="0px"
	 viewBox="0 0 128 128" enable-background="new 0 0 128 128" xml:space="preserve">
<g>
	<path fill="none" d="M67.5,62.6L65.9,61c-0.1-0.1-0.3-0.3-0.4-0.4h-2.3c-0.2,0-0.4,0-0.6,0L61,62.1c-0.1,0.1-0.3,0.3-0.4,0.4v2.3
		c0,0.2,0,0.4,0,0.6l1.6,1.6c0.1,0.1,0.3,0.3,0.4,0.4h2.3c0.2,0,0.4,0,0.6,0l1.6-1.6c0.1-0.1,0.3-0.3,0.4-0.4v-2.3
		C67.5,63,67.5,62.8,67.5,62.6z"/>
	<path fill="#FAAA2E" d="M64.4,38.6c0.4-0.6,0.9-1.1,1.5-1.7l16.6-16.6V17c0-9.4-7.6-17-17-17h-2.3c-9.4,0-17,7.6-17,17v3l16.4,16.4
		C63.3,37.1,63.9,37.9,64.4,38.6z"/>
	<path fill="#E95918" d="M65.5,60.5c-0.5-0.6-1-1.1-1.4-1.7c-0.4,0.6-0.9,1.1-1.5,1.7l0,0c0.2,0,0.4,0,0.6,0H65.5z"/>
	<path opacity="0.85" fill="#CF2619" d="M62.6,60.5c-0.8,0-1.5-0.1-2.2-0.2c0.1,0.7,0.2,1.5,0.2,2.2v0c0.1-0.1,0.3-0.3,0.4-0.4
		L62.6,60.5z"/>
	<path fill="#F07461" d="M46.4,45.7c-0.1-0.7-0.2-1.5-0.2-2.2V20l-2.3-2.3c-6.6-6.6-17.4-6.6-24,0l-1.6,1.6c-6.6,6.6-6.6,17.4,0,24
		l2.1,2.1h23.2C44.5,45.5,45.4,45.6,46.4,45.7z"/>
	<path opacity="0.85" fill="#CF2619" d="M46.4,45.7c7.3,1.2,13,7.1,14,14.5c0.7,0.1,1.5,0.2,2.2,0.2l0,0c0.5-0.5,1-1.1,1.5-1.7
		c-4.3-6-4.2-14.3,0.4-20.2c-0.5-0.8-1.1-1.5-1.8-2.2L46.2,20v23.5C46.2,44.3,46.3,45,46.4,45.7z"/>
	<path opacity="0.85" fill="#9E305A" d="M60.5,62.5c-0.6,0.5-1.1,1-1.7,1.4c0.6,0.4,1.1,0.9,1.7,1.5l0,0c0-0.2,0-0.4,0-0.6V62.5z"/>
	<path fill="#DA81A2" d="M38.6,63.6c-0.6-0.4-1.1-0.9-1.7-1.5L20.3,45.5H17c-9.4,0-17,7.6-17,17v2.3c0,9.4,7.6,17,17,17h3l16.4-16.4
		C37.1,64.7,37.9,64.1,38.6,63.6z"/>
	<path fill="#D62017" d="M38.6,63.6c6-4.3,14.3-4.2,20.2,0.4c0.6-0.4,1.2-0.9,1.7-1.4v0c0-0.8-0.1-1.5-0.2-2.2
		c-7.3-1.2-13-7.1-14-14.5c-0.9-0.2-1.9-0.3-2.8-0.3H20.3l16.6,16.6C37.5,62.6,38,63.1,38.6,63.6z"/>
	<path fill="#B22014" d="M46.4,45.7c1,7.4,6.7,13.3,14,14.5C59.4,52.9,53.7,47,46.4,45.7z"/>
	<path opacity="0.85" fill="#63599E" d="M60.5,65.4c0,0.8-0.1,1.5-0.2,2.2c0.7-0.1,1.5-0.2,2.2-0.2h0c-0.1-0.1-0.3-0.3-0.4-0.4
		L60.5,65.4z"/>
	<path fill="#A38EC3" d="M45.7,81.6c-0.7,0.1-1.5,0.2-2.2,0.2H20l-2.3,2.3c-6.6,6.6-6.6,17.4,0,24l1.6,1.6c6.6,6.6,17.4,6.6,24,0
		l2.1-2.1V84.5C45.5,83.5,45.6,82.6,45.7,81.6z"/>
	<path fill="#AB3E64" d="M45.7,81.6c1.2-7.3,7.1-13,14.5-14c0.1-0.7,0.2-1.5,0.2-2.2l0,0c-0.5-0.5-1.1-1-1.7-1.5
		c-6,4.3-14.3,4.2-20.2-0.4c-0.8,0.5-1.5,1.1-2.2,1.8L20,81.8h23.5C44.3,81.8,45,81.7,45.7,81.6z"/>
	<path fill="#8D1F1F" d="M38.6,63.6c5.9,4.6,14.1,4.7,20.2,0.4C52.9,59.4,44.7,59.3,38.6,63.6z"/>
	<path opacity="0.85" fill="#3E76A0" d="M62.5,67.5c0.5,0.6,1,1.1,1.4,1.7c0.4-0.6,0.9-1.1,1.5-1.7l0,0c-0.2,0-0.4,0-0.6,0H62.5z"/>
	<path opacity="0.85" fill="#7BACDB" d="M63.6,89.4c-0.4,0.6-0.9,1.1-1.5,1.7l-16.6,16.6v3.3c0,9.4,7.6,17,17,17h2.3
		c9.4,0,17-7.6,17-17v-3L65.4,91.6C64.7,90.9,64.1,90.1,63.6,89.4z"/>
	<path fill="#69549B" d="M63.6,89.4c-4.3-6-4.2-14.3,0.4-20.2c-0.4-0.6-0.9-1.2-1.4-1.7h0c-0.8,0-1.5,0.1-2.2,0.2
		c-1.2,7.3-7.1,13-14.5,14c-0.2,0.9-0.3,1.9-0.3,2.8v23.2l16.6-16.6C62.6,90.5,63.1,90,63.6,89.4z"/>
	<path fill="#521A30" d="M45.7,81.6c7.4-1,13.3-6.7,14.5-14C52.9,68.6,47,74.3,45.7,81.6z"/>
	<path fill="#3C945E" d="M65.4,67.5c0.8,0,1.5,0.1,2.2,0.2c-0.1-0.7-0.2-1.5-0.2-2.2v0c-0.1,0.1-0.3,0.3-0.4,0.4L65.4,67.5z"/>
	<path fill="#6EC08C" d="M81.6,82.3c0.1,0.7,0.2,1.5,0.2,2.2V108l2.3,2.3c6.6,6.6,17.4,6.6,24,0l1.6-1.6c6.6-6.6,6.6-17.4,0-24
		l-2.1-2.1H84.5C83.5,82.5,82.6,82.4,81.6,82.3z"/>
	<path fill="#3B779C" d="M81.6,82.3c-7.3-1.2-13-7.1-14-14.5c-0.7-0.1-1.5-0.2-2.2-0.2l0,0c-0.5,0.5-1,1.1-1.5,1.7
		c4.3,6,4.2,14.3-0.4,20.2c0.5,0.8,1.1,1.5,1.8,2.2L81.8,108V84.5C81.8,83.7,81.7,83,81.6,82.3z"/>
	<path fill="#231B5C" d="M63.6,89.4c4.6-5.9,4.7-14.1,0.4-20.2C59.4,75.1,59.3,83.3,63.6,89.4z"/>
	<path fill="#7BB336" d="M67.5,62.6c0,0.2,0,0.4,0,0.6v2.3c0.6-0.5,1.1-1,1.7-1.4C68.6,63.6,68.1,63.1,67.5,62.6L67.5,62.6z"/>
	<path fill="#BCD645" d="M111,46.2h-3L91.6,62.6c-0.7,0.7-1.4,1.3-2.2,1.8c0.6,0.4,1.1,0.9,1.7,1.5l16.6,16.6h3.3
		c9.4,0,17-7.6,17-17v-2.3C128,53.8,120.4,46.2,111,46.2z"/>
	<path fill="#439851" d="M89.4,64.4c-6,4.3-14.3,4.2-20.2-0.4c-0.6,0.4-1.2,0.9-1.7,1.4v0c0,0.8,0.1,1.5,0.2,2.2
		c7.3,1.2,13,7.1,14,14.5c0.9,0.2,1.9,0.3,2.8,0.3h23.2L91.1,65.9C90.5,65.4,90,64.9,89.4,64.4z"/>
	<path fill="#184633" d="M81.6,82.3c-1-7.4-6.7-13.3-14-14.5C68.6,75.1,74.3,81,81.6,82.3z"/>
	<path fill="#F2E32C" d="M82.3,46.4c0.7-0.1,1.5-0.2,2.2-0.2H108l2.3-2.3c6.6-6.6,6.6-17.4,0-24l-1.6-1.6c-6.6-6.6-17.4-6.6-24,0
		l-2.1,2.1v23.2C82.5,44.5,82.4,45.4,82.3,46.4z"/>
	<path fill="#DFB80E" d="M67.5,62.6c0-0.8,0.1-1.5,0.2-2.2c-0.7,0.1-1.5,0.2-2.2,0.2h0c0.1,0.1,0.3,0.3,0.4,0.4L67.5,62.6z"/>
	<path fill="#E1B012" d="M64.4,38.6c4.3,6,4.2,14.3-0.4,20.2c0.4,0.6,0.9,1.2,1.4,1.7h0c0.8,0,1.5-0.1,2.2-0.2
		c1.2-7.3,7.1-13,14.5-14c0.2-0.9,0.3-1.9,0.3-2.8V20.3L65.9,36.9C65.4,37.5,64.9,38,64.4,38.6z"/>
	<path fill="#A65728" d="M64.4,38.6c-4.6,5.9-4.7,14.1-0.4,20.2C68.6,52.9,68.7,44.7,64.4,38.6z"/>
	<path fill="#90BB2B" d="M82.3,46.4c-1.2,7.3-7.1,13-14.5,14c-0.1,0.7-0.2,1.5-0.2,2.2l0,0c0.5,0.5,1.1,1,1.7,1.5
		c6-4.3,14.3-4.2,20.2,0.4c0.8-0.5,1.5-1.1,2.2-1.8L108,46.2H84.5C83.7,46.2,83,46.3,82.3,46.4z"/>
	<path fill="#5F8735" d="M82.3,46.4c-7.4,1-13.3,6.7-14.5,14C75.1,59.4,81,53.7,82.3,46.4z"/>
	<path fill="#245839" d="M69.2,64.1c5.9,4.6,14.1,4.7,20.2,0.4C83.5,59.9,75.2,59.8,69.2,64.1z"/>
</g>
</svg>
