<?xml version="1.0" encoding="utf-8"?>
<!-- Generator: Adobe Illustrator 19.2.0, SVG Export Plug-In . SVG Version: 6.00 Build 0)  -->
<svg version="1.1" id="Layer_1" xmlns="http://www.w3.org/2000/svg" xmlns:xlink="http://www.w3.org/1999/xlink" x="0px" y="0px"
	 viewBox="0 0 128 128" enable-background="new 0 0 128 128" xml:space="preserve">
<rect width="18.3" height="18.3"/>
<rect x="18.3" fill="#FFFFFF" width="18.3" height="18.3"/>
<rect x="36.6" width="18.3" height="18.3"/>
<rect x="54.9" fill="#FFFFFF" width="18.3" height="18.3"/>
<rect x="73.1" width="18.3" height="18.3"/>
<rect x="91.2" fill="#FFFFFF" width="18.3" height="18.3"/>
<rect x="109.7" width="18.3" height="18.3"/>
<rect y="18.3" fill="#FFFFFF" width="18.3" height="18.3"/>
<rect x="18.3" y="18.3" width="18.3" height="18.3"/>
<rect x="36.6" y="18.3" fill="#FFFFFF" width="18.3" height="18.3"/>
<rect x="54.9" y="18.3" width="18.3" height="18.3"/>
<rect x="73.1" y="18.3" fill="#FFFFFF" width="18.3" height="18.3"/>
<rect x="91.4" y="18.3" width="18.3" height="18.3"/>
<rect x="109.7" y="18.3" fill="#FFFFFF" width="18.3" height="18.3"/>
<rect y="36.6" width="18.3" height="18.3"/>
<rect x="18.3" y="36.6" fill="#FFFFFF" width="18.3" height="18.3"/>
<rect x="36.6" y="36.6" width="18.3" height="18.3"/>
<rect x="54.9" y="36.6" fill="#FFFFFF" width="18.3" height="18.3"/>
<rect x="73.1" y="36.6" width="18.3" height="18.3"/>
<rect x="91.2" y="36.6" fill="#FFFFFF" width="18.3" height="18.3"/>
<rect x="109.7" y="36.6" width="18.3" height="18.3"/>
<rect y="54.9" fill="#FFFFFF" width="18.3" height="18.3"/>
<rect x="18.3" y="54.9" width="18.3" height="18.3"/>
<rect x="36.6" y="54.9" fill="#FFFFFF" width="18.3" height="18.3"/>
<rect x="54.9" y="54.9" width="18.3" height="18.3"/>
<rect x="73.1" y="54.9" fill="#FFFFFF" width="18.3" height="18.3"/>
<rect x="91.4" y="54.9" width="18.3" height="18.3"/>
<rect x="109.7" y="54.9" fill="#FFFFFF" width="18.3" height="18.3"/>
<rect y="73.1" width="18.3" height="18.3"/>
<rect x="18.3" y="73.1" fill="#FFFFFF" width="18.3" height="18.3"/>
<rect x="36.6" y="73.1" width="18.3" height="18.3"/>
<rect x="54.9" y="73.1" fill="#FFFFFF" width="18.3" height="18.3"/>
<rect x="73.1" y="73.1" width="18.3" height="18.3"/>
<rect x="91.2" y="73.1" fill="#FFFFFF" width="18.3" height="18.3"/>
<rect x="109.7" y="73.1" width="18.3" height="18.3"/>
<rect y="91.4" fill="#FFFFFF" width="18.3" height="18.3"/>
<rect x="18.3" y="91.4" width="18.3" height="18.3"/>
<rect x="36.6" y="91.4" fill="#FFFFFF" width="18.3" height="18.3"/>
<rect x="54.9" y="91.4" width="18.3" height="18.3"/>
<rect x="73.1" y="91.4" fill="#FFFFFF" width="18.3" height="18.3"/>
<rect x="91.4" y="91.4" width="18.3" height="18.3"/>
<rect x="109.7" y="91.4" fill="#FFFFFF" width="18.3" height="18.3"/>
<rect y="109.7" width="18.3" height="18.3"/>
<rect x="18.3" y="109.7" fill="#FFFFFF" width="18.3" height="18.3"/>
<rect x="36.6" y="109.7" width="18.3" height="18.3"/>
<rect x="54.9" y="109.7" fill="#FFFFFF" width="18.3" height="18.3"/>
<rect x="73.1" y="109.7" width="18.3" height="18.3"/>
<rect x="91.2" y="109.7" fill="#FFFFFF" width="18.3" height="18.3"/>
<rect x="109.7" y="109.7" width="18.3" height="18.3"/>
</svg>
