<?xml version="1.0" encoding="UTF-8" standalone="no"?>
<!-- Generator: Adobe Illustrator 15.1.0, SVG Export Plug-In . SVG Version: 6.00 Build 0)  -->

<svg
   xmlns:dc="http://purl.org/dc/elements/1.1/"
   xmlns:cc="http://creativecommons.org/ns#"
   xmlns:rdf="http://www.w3.org/1999/02/22-rdf-syntax-ns#"
   xmlns:svg="http://www.w3.org/2000/svg"
   xmlns="http://www.w3.org/2000/svg"
   xmlns:xlink="http://www.w3.org/1999/xlink"
   xmlns:sodipodi="http://sodipodi.sourceforge.net/DTD/sodipodi-0.dtd"
   xmlns:inkscape="http://www.inkscape.org/namespaces/inkscape"
   version="1.1"
   id="Layer_1"
   x="0px"
   y="0px"
   width="16.199991"
   height="16.198999"
   viewBox="0 0 16.19999 16.198999"
   enable-background="new 0 0 595.28 841.89"
   xml:space="preserve"
   inkscape:version="0.48.3.1 r9886"
   sodipodi:docname="magnifier.svg"><metadata
   id="metadata21"><rdf:RDF><cc:Work
       rdf:about=""><dc:format>image/svg+xml</dc:format><dc:type
         rdf:resource="http://purl.org/dc/dcmitype/StillImage" /></cc:Work></rdf:RDF></metadata><defs
   id="defs19" /><sodipodi:namedview
   pagecolor="#ffffff"
   bordercolor="#666666"
   borderopacity="1"
   objecttolerance="10"
   gridtolerance="10"
   guidetolerance="10"
   inkscape:pageopacity="0"
   inkscape:pageshadow="2"
   inkscape:window-width="1212"
   inkscape:window-height="917"
   id="namedview17"
   showgrid="false"
   fit-margin-top="0.6"
   fit-margin-right="0.6"
   fit-margin-bottom="0.6"
   fit-margin-left="0.6"
   inkscape:zoom="11.024947"
   inkscape:cx="13.073543"
   inkscape:cy="-6.5161868"
   inkscape:window-x="594"
   inkscape:window-y="215"
   inkscape:window-maximized="0"
   inkscape:current-layer="Layer_1" />
<g
   id="g3"
   style="opacity:0.5"
   transform="translate(-290.37102,-413.076)">
	<g
   id="g5">
		<defs
   id="defs7">
			<rect
   id="SVGID_1_"
   x="290.97101"
   y="413.67599"
   width="15"
   height="15" />
		</defs>
		<clipPath
   id="SVGID_2_">
			<use
   xlink:href="#SVGID_1_"
   overflow="visible"
   id="use11"
   style="overflow:visible"
   x="0"
   y="0"
   width="595.28003"
   height="841.89001" />
		</clipPath>
		<path
   clip-path="url(#SVGID_2_)"
   d="m 300.471,413.676 c -3.037,0 -5.5,2.463 -5.5,5.5 0,1.005 0.274,1.944 0.745,2.755 l -4.745,4.744 v 1 l 1,1 h 1 l 4.745,-4.744 c 0.811,0.471 1.75,0.744 2.755,0.744 3.037,0 5.5,-2.463 5.5,-5.5 0,-3.037 -2.463,-5.499 -5.5,-5.499 m 0,10 c -2.485,0 -4.5,-2.014 -4.5,-4.5 0,-2.485 2.015,-4.5 4.5,-4.5 2.484,0 4.5,2.015 4.5,4.5 0,2.486 -2.016,4.5 -4.5,4.5"
   id="path13"
   inkscape:connector-curvature="0"
   style="fill:#010202" />
	</g>
</g>
<path
   d="m 14.599982,6.1 c 0,2.485 -2.016,4.5 -4.5,4.5 -2.4849998,0 -4.4999998,-2.014 -4.4999998,-4.5 0,-2.485 2.015,-4.5 4.4999998,-4.5 2.484,0 4.5,2.015 4.5,4.5"
   id="path15"
   inkscape:connector-curvature="0"
   style="fill:#ffffff" />
</svg>