<?xml version="1.0" encoding="iso-8859-1"?>
<!-- Generator: Adobe Illustrator 19.0.1, SVG Export Plug-In . SVG Version: 6.00 Build 0)  -->
<!DOCTYPE svg PUBLIC "-//W3C//DTD SVG 1.1//EN" "http://www.w3.org/Graphics/SVG/1.1/DTD/svg11.dtd">
<svg version="1.1" id="be_x5F_appicon_x5F_RGB" xmlns="http://www.w3.org/2000/svg" xmlns:xlink="http://www.w3.org/1999/xlink"
	 x="0px" y="0px" viewBox="0 0 240 234" style="enable-background:new 0 0 240 234;" xml:space="preserve">
<path style="fill-rule:evenodd;clip-rule:evenodd;fill:#FBB500;" d="M0,0v234h240V0H0z M10,10h220v214H10V10z"/>
<rect x="10" y="10" style="fill-rule:evenodd;clip-rule:evenodd;fill:#261C00;" width="220" height="214"/>
<path style="fill-rule:evenodd;clip-rule:evenodd;fill:#FBB500;" d="M64,58.57c0-0.8,0.16-1.13,0.8-1.29
	c4.51-0.16,16.99-0.48,26.81-0.48c29.78,0,35.09,17.39,35.09,27.85c0,11.92-5.79,18.68-9.98,22.06c5.96,2.9,14.81,10.3,14.81,25.6
	c0,20.28-16.26,32.68-41.05,32.52c-10.63,0-20.2-0.16-25.35-0.32c-0.81-0.17-1.13-0.65-1.13-1.29V58.57z M81,101h9.82
	c4.67,0,10.45-0.25,12.7,0.23c3.38-2.89,6.12-7.24,6.12-14.16c0-9.98-7.07-14.98-18.5-14.98c-3.86,0-7.56,0.17-10.14,0.33V101z
	 M81,149.65c2.9,0.16,5.63,0.04,9.18,0.04c12.72,0,23.32-4.83,23.32-17.06c0-7.57-3.86-12.93-11.75-15.34
	c-2.74-0.81-5.96-1.29-9.5-1.29H81V149.65z M147,101.4c0-1.13,0-4.03-0.48-9.5c0-0.81,0.31-0.97,0.95-1.29
	c5.96-2.42,19.63-6.76,35.4-6.76c0.81,0,1.13,0.16,1.13,0.96v14.17c0,0.81-0.02,0.97-0.83,0.97c-6.11-0.33-14.79,0.48-18.17,1.93
	v61.99c0,0.81-0.32,1.13-1.13,1.13h-15.74c-0.81,0-1.13-0.32-1.13-1.13V101.4z"/>
</svg>
