<?xml version="1.0" encoding="iso-8859-1"?>
<!-- Generator: Adobe Illustrator 19.0.1, SVG Export Plug-In . SVG Version: 6.00 Build 0)  -->
<!DOCTYPE svg PUBLIC "-//W3C//DTD SVG 1.1//EN" "http://www.w3.org/Graphics/SVG/1.1/DTD/svg11.dtd">
<svg version="1.1" id="Id_x5F_app_x5F_RGB.svg" xmlns="http://www.w3.org/2000/svg" xmlns:xlink="http://www.w3.org/1999/xlink"
	 x="0px" y="0px" viewBox="0 0 240 234" style="enable-background:new 0 0 240 234;" xml:space="preserve">
<g>
	<rect x="10.122" y="10" style="fill-rule:evenodd;clip-rule:evenodd;fill:#2E0013;" width="220" height="214"/>
</g>
<g>
	<path style="fill-rule:evenodd;clip-rule:evenodd;fill:#FF3F94;" d="M0,0V234h240.001V0H0z M10,10h220.001V224H10V10z"/>
</g>
<path style="fill-rule:evenodd;clip-rule:evenodd;fill:#FF3F94;" d="M87.75,162.182c0,0.988-0.165,1.318-1.32,1.318H71.07
	c-0.99,0-1.32-0.494-1.32-1.318V54.821c0-0.99,0.495-1.32,1.32-1.32h15.525c0.825,0,1.155,0.33,1.155,1.155V162.182z
	 M105.44,123.453c0-23.925,15.785-42.57,41.029-42.57c2.146,0,3.301,0,5.281,0.164V54.491c0-0.66,0.494-0.99,0.99-0.99h16.27
	c0.824,0,0.99,0.33,0.99,0.825v93.547c0,2.805,0,6.27,0.494,10.065c0,0.66-0.209,0.826-0.869,1.156
	c-8.58,4.125-17.656,5.939-26.235,5.939C121.28,165.033,105.44,151.338,105.44,123.453z M151.75,97.218
	c-1.484-0.66-3.465-0.99-5.939-0.99c-12.871,0-21.891,9.9-21.891,26.401c0,18.809,9.185,26.398,20.734,26.398
	c2.475,0,5.115-0.33,7.096-1.154V97.218z"/>
</svg>
