<?xml version="1.0" standalone="no"?>
<!DOCTYPE svg PUBLIC "-//W3C//DTD SVG 1.1//EN" "http://www.w3.org/Graphics/SVG/1.1/DTD/svg11.dtd" >
<svg xmlns="http://www.w3.org/2000/svg">
<metadata></metadata>
<defs>
<font id="AdobeCleanBold" horiz-adv-x="1118" >
<font-face units-per-em="2048" ascent="1464" descent="-584" />
<missing-glyph horiz-adv-x="473" />
<glyph unicode="&#xfb03;" horiz-adv-x="1740" d="M18 827v154q0 14 13 14h125v41q0 206 100 320t258 114q25 0 40 -0.5t35 -3.5t30 -10.5t10 -19.5v-166q0 -16 -15 -13q-33 11 -67 11q-64 0 -105 -52.5t-41 -173.5v-47h371v35q0 218 96 329t252 111q72 0 86 -13q6 -6 6 -13v-170q0 -7 -2 -10t-8 -2q-36 6 -53 6 q-24 0 -44.5 -9.5t-41 -32.5t-32 -70t-11.5 -114v-47h170q8 0 11 -2.5t3 -11.5v-152q0 -16 -14 -16l-170 -4v-791q0 -18 -16 -18h-213q-19 0 -19 16v793h-371v-791q0 -18 -16 -18h-213q-16 0 -16 18v793l-127 4q-11 0 -11 12zM1346 1255q0 58 38.5 93.5t100.5 35.5 q61 0 98 -36t37 -93q0 -58 -38 -92.5t-101 -34.5q-61 0 -98 34.5t-37 92.5zM1358 16v963q0 14 16 14h215q17 0 17 -14v-963q0 -18 -17 -18h-213q-18 0 -18 18z" />
<glyph unicode="&#xfb04;" horiz-adv-x="1792" d="M18 827v154q0 14 13 14h125v41q0 206 100 320t258 114q25 0 40 -0.5t35 -3.5t30 -10.5t10 -19.5v-166q0 -16 -15 -13q-33 11 -67 11q-65 0 -105.5 -52t-40.5 -174v-47h371v43q0 217 95.5 324.5t252.5 107.5q72 0 86 -13q6 -6 6 -13v-170q0 -7 -2 -10t-8 -2q-36 6 -53 6 q-24 0 -44.5 -9.5t-41 -32.5t-32 -70t-11.5 -114v-47h170q8 0 11 -2.5t3 -11.5v-152q0 -16 -14 -16l-170 -4v-791q0 -18 -16 -18h-213q-19 0 -19 16v793h-371v-791q0 -18 -16 -18h-213q-16 0 -16 18v793l-127 4q-11 0 -11 12zM1376 231v1205q0 16 17 16h213q16 0 16 -16 v-1192q0 -44 16.5 -61t47.5 -17q15 0 47 4q10 3 10 -10v-137q0 -18 -14 -23q-46 -20 -130 -20q-108 0 -165.5 55.5t-57.5 195.5z" />
<glyph horiz-adv-x="0" />
<glyph horiz-adv-x="2048" />
<glyph unicode=" "  horiz-adv-x="473" />
<glyph unicode="&#x09;" horiz-adv-x="473" />
<glyph unicode="&#xa0;" horiz-adv-x="473" />
<glyph unicode="!" horiz-adv-x="626" d="M219 121q0 61 41.5 101t104.5 40q66 0 107.5 -39t41.5 -102q0 -64 -41 -100.5t-108 -36.5q-64 0 -105 37.5t-41 99.5zM233 1163v148q0 15 11 22q18 10 58 17.5t65 7.5q83 0 127 -19q10 -6 10 -22v-148q0 -116 -16.5 -382t-24.5 -324q0 -12 -14 -12h-164q-12 0 -15 12 q-37 527 -37 700z" />
<glyph unicode="&#x22;" horiz-adv-x="815" d="M111 1450q-3 16 16 16h199q16 0 16 -16l-35 -508q-3 -14 -16 -14h-160q-18 0 -18 16zM479 1448q0 18 19 18h196q20 0 17 -20l-35 -504q0 -14 -17 -14h-159q-17 0 -17 16z" />
<glyph unicode="#" d="M78 430v150q0 10 10 10h193l55 207h-150q-5 0 -6.5 1t-1.5 7v153q0 11 10 11h197l80 280q5 13 16 13h129q11 0 8 -13l-75 -280h186l78 284q3 9 10 9h133q11 0 8 -13l-77 -280h143q10 0 10 -13v-149q0 -10 -12 -10h-188l-56 -207h140q12 0 12 -10v-152q0 -12 -12 -12h-187 l-86 -314q-6 -14 -16 -14h-129q-17 0 -11 14l86 314h-186l-90 -316q-3 -12 -14 -12h-129q-17 0 -11 14l88 314h-143q-12 0 -12 14zM434 590h191l55 207h-188z" />
<glyph unicode="$" d="M115 186v191q0 8 5.5 10t12.5 -2q190 -133 406 -133q110 0 162.5 37t52.5 98q0 62 -54 107t-198 100q-221 84 -304 170t-83 225q0 130 94 228t258 124v154q0 12 10 12h174q13 0 13 -12v-149q82 -6 155 -27t115 -51q8 -8 8 -23v-184q0 -7 -5 -10t-11 2q-159 102 -355 102 q-113 0 -165 -43t-52 -98q0 -57 59 -101.5t210 -103.5q120 -45 198 -91t118 -96.5t54.5 -98t14.5 -111.5q0 -63 -21 -118t-55.5 -93.5t-80.5 -67.5t-94 -46t-98 -24v-161q0 -13 -12 -13h-172q-12 0 -12 15v149q-92 6 -181 33t-155 70q-12 10 -12 30z" />
<glyph unicode="%" horiz-adv-x="1712" d="M92 981q0 173 96.5 275t237.5 102q161 0 245.5 -102.5t84.5 -268.5q0 -69 -20.5 -133.5t-60 -118.5t-104.5 -86.5t-147 -32.5q-83 0 -148 29t-104.5 79.5t-59.5 115.5t-20 141zM281 987q0 -101 38 -162t111 -61q65 0 102 57t37 164q0 227 -143 227q-65 0 -105 -58 t-40 -167zM318 5q-2 5 4 13l884 1309q6 8 19 8h157q6 0 8 -4.5t-1 -7.5l-881 -1313q-5 -10 -19 -10h-163q-6 0 -8 5zM956 346q0 171 96.5 273t237.5 102q160 0 245 -102t85 -267q0 -69 -20 -133.5t-59.5 -119t-105 -87t-147.5 -32.5q-162 0 -247 103.5t-85 262.5zM1145 350 q0 -95 38.5 -159t108.5 -64q65 0 103.5 59t38.5 164q0 107 -38 167.5t-106 60.5q-64 0 -104.5 -61.5t-40.5 -166.5z" />
<glyph unicode="&#x26;" horiz-adv-x="1456" d="M113 369q0 129 78.5 221t203.5 131q-63 57 -100 120t-37 150q0 147 116 239.5t288 92.5q165 0 247 -51q11 -8 11 -25v-162q0 -9 -5.5 -12t-11.5 2q-101 58 -219 58q-84 0 -129 -41t-45 -109q0 -55 40.5 -105t125.5 -104h631q15 0 12 -16l-29 -158q-1 -10 -5 -13t-13 -3 h-410q98 -73 221 -254q59 -86 112.5 -120t109.5 -34q7 0 47 4q14 0 14 -14v-143q0 -19 -16 -27q-32 -16 -115 -16q-113 0 -198 54.5t-181 207.5q-77 126 -183.5 231t-140.5 105q-59 0 -113 -51t-54 -134q0 -88 66 -151.5t179 -63.5q91 0 168 31q13 3 13 -12v-158 q0 -15 -15 -21q-82 -38 -223 -38q-192 0 -316 105t-124 284z" />
<glyph unicode="'" horiz-adv-x="452" d="M115 1450q0 16 14 16h205q12 0 12 -12l-37 -514q-2 -12 -16 -12h-162q-14 0 -14 14z" />
<glyph unicode="(" horiz-adv-x="722" d="M104 592q0 156 30 304.5t81.5 267t104 207t112.5 163.5q10 10 23 10h190q9 0 11.5 -5t-3.5 -13q-325 -434 -325 -922q0 -276 86 -514.5t235 -425.5q5 -6 3 -12t-11 -6h-188q-19 0 -29 10q-138 155 -229 397t-91 539z" />
<glyph unicode=")" horiz-adv-x="724" d="M66 -338q327 429 327 924q0 279 -85.5 517.5t-235.5 424.5q-5 6 -3 11t11 5h190q17 0 29 -14q138 -156 226.5 -392.5t88.5 -539.5q0 -157 -29 -305t-78.5 -265.5t-101 -205t-110.5 -162.5q-11 -14 -29 -14h-188q-24 0 -12 16z" />
<glyph unicode="*" horiz-adv-x="694" d="M29 1096l61 121q5 10 16 4l199 -129l12 254q0 12 13 12l145 -19q12 -3 8 -12l-67 -252l229 72q12 3 14 -8l23 -131q3 -15 -6 -15l-242 -16l166 -211q6 -10 -2 -16l-111 -74q-9 -4 -16 6l-135 238l-174 -197q-8 -7 -15 0l-86 90q-8 8 0 14l201 170l-227 82q-9 4 -6 17z " />
<glyph unicode="+" horiz-adv-x="1140" d="M61 461v147q0 15 15 15h403v421q3 13 13 13h157q15 0 15 -15v-419h403q12 0 12 -17v-145q0 -9 -2.5 -12t-11.5 -3h-401v-428q0 -10 -15 -10h-157q-13 0 -13 12v426h-401q-17 0 -17 15z" />
<glyph unicode="," horiz-adv-x="477" d="M7 -270q-3 6 1 10q86 145 113.5 274t17.5 279q0 12 13 12h198q9 0 12 -3.5t5 -12.5q24 -334 -152 -553q-8 -12 -22 -12h-175q-8 0 -11 6z" />
<glyph unicode="-" horiz-adv-x="724" d="M109 426v178q0 14 14 14h481q12 0 12 -14v-178q0 -14 -12 -14h-481q-14 0 -14 14z" />
<glyph unicode="." horiz-adv-x="475" d="M88 129q0 67 42.5 108.5t107.5 41.5q66 0 107.5 -42.5t41.5 -107.5q0 -67 -40 -108t-109 -41q-66 0 -108 40.5t-42 108.5z" />
<glyph unicode="/" horiz-adv-x="751" d="M76 -74l405 1508q2 8 13 8h170q13 0 10 -10l-404 -1510q-3 -10 -14 -10h-170q-13 0 -10 14z" />
<glyph unicode="0" d="M78 670q0 197 55 351t166 245.5t262 91.5q91 0 165.5 -29t125.5 -80t88 -115.5t58 -144t30.5 -157.5t9.5 -162q0 -112 -14.5 -209.5t-49.5 -187.5t-88.5 -153.5t-136 -101.5t-186.5 -38q-125 0 -219.5 53t-151.5 147.5t-85.5 217.5t-28.5 272zM330 670q0 -233 59 -366.5 t174 -133.5q223 0 223 498q0 253 -55.5 378t-171.5 125q-102 0 -165.5 -127t-63.5 -374z" />
<glyph unicode="1" d="M193 18v164q3 17 18 17h250v907q-134 -48 -223 -66q-19 -3 -19 13v153q0 15 12 17q170 43 297 106q24 8 31 8h137q13 0 13 -12v-1126h237q16 0 19 -17v-162q3 -20 -15 -20h-745q-15 0 -12 18z" />
<glyph unicode="2" d="M94 16v125q0 15 8 23q228 190 402 364q121 123 168 206.5t47 180.5q0 105 -68.5 169.5t-191.5 64.5q-167 0 -328 -96q-20 -7 -20 12v168q0 13 12 20q173 105 393 105q211 0 329 -118.5t118 -295.5q0 -121 -49 -223.5t-156 -212.5q-117 -127 -318 -311q27 1 355 6h235 q17 0 14 -15l-40 -174q-6 -14 -21 -14h-874q-15 0 -15 16z" />
<glyph unicode="3" d="M113 94v182q0 9 5 12.5t11 0.5q180 -103 356 -103q139 0 203 59t64 146q0 94 -73.5 143.5t-199.5 49.5h-145q-17 0 -17 14v164q0 20 15 20h137q236 0 236 183q0 86 -62.5 139t-181.5 53q-157 0 -314 -92q-18 -9 -18 10v162q0 16 12 23q168 98 373 98q199 0 316.5 -97.5 t117.5 -252.5q0 -210 -205 -297v-2q108 -28 185.5 -110.5t77.5 -211.5q0 -128 -68 -221t-182 -138.5t-260 -45.5q-221 0 -371 88q-12 6 -12 24z" />
<glyph unicode="4" d="M59 362v113q3 18 9 29q74 116 283 413.5t292 405.5q11 14 27 14h178q18 0 18 -16v-795h201q15 0 12 -16l-26 -152q-3 -12 -17 -12h-170v-330q0 -16 -14 -16h-209q-16 0 -16 16v330h-551q-10 0 -13.5 3.5t-3.5 12.5zM295 526h332v193q0 171 8 319h-2q-26 -43 -170 -256.5 t-168 -255.5z" />
<glyph unicode="5" d="M125 88v186q0 8 4.5 11.5t11.5 -0.5q174 -101 355 -101q123 0 188.5 58t65.5 147q0 122 -135 180.5t-425 81.5q-14 0 -14 17l-2 88q6 33 86 299.5t80 267.5q5 12 18 12h594q17 0 11 -14l-45 -170q-2 -14 -19 -14h-420q-66 -236 -80 -299q145 -18 252 -48.5t188.5 -81 t123 -127t41.5 -178.5q0 -192 -141 -307.5t-369 -115.5q-98 0 -195 23t-164 63q-10 5 -10 22z" />
<glyph unicode="6" d="M80 492q0 143 51.5 274.5t135 230t193 180t221 133t222.5 79.5q7 3 11 -0.5t4 -8.5v-184q0 -13 -13 -16q-206 -66 -333.5 -171.5t-182.5 -217.5q117 69 254 69q175 0 290.5 -116.5t115.5 -307.5q0 -90 -31.5 -171.5t-91 -145.5t-153 -101.5t-208.5 -37.5q-225 0 -355 142 t-130 370zM332 494q0 -161 66.5 -243.5t170.5 -82.5q102 0 164 70.5t62 187.5q0 115 -63 185.5t-171 70.5q-54 0 -113 -20t-104 -56q-12 -54 -12 -112z" />
<glyph unicode="7" d="M104 1153l5 170q3 12 12 12h880q15 0 15 -10v-123q0 -16 -6 -28q-36 -81 -142.5 -327t-205.5 -471t-164 -364q-6 -12 -21 -12h-235q-20 0 -13 18q181 370 298 621t165 362.5t60 135.5h-633q-15 0 -15 16z" />
<glyph unicode="8" d="M100 358q0 200 203 310q-182 104 -182 317q0 155 119 264t323 109q105 0 189 -33t134.5 -87t76.5 -119t26 -134q0 -200 -174 -305q201 -100 201 -309q0 -180 -132 -285.5t-337 -105.5q-200 0 -323.5 107.5t-123.5 270.5zM342 377q0 -93 62 -152t159 -59q100 0 155.5 59.5 t55.5 143.5q0 129 -102 194q-21 15 -51 15h-127q-32 0 -45 -13q-48 -29 -77.5 -79t-29.5 -109zM354 973q0 -124 88 -185q28 -20 54 -20h122q35 0 58 20q80 66 80 183q0 98 -56 152.5t-145 54.5q-92 0 -146.5 -58.5t-54.5 -146.5z" />
<glyph unicode="9" d="M74 895q0 128 60.5 233t173 167.5t255.5 62.5q209 0 343 -146.5t134 -398.5q0 -144 -45.5 -273t-121.5 -224t-178 -170.5t-212.5 -122t-226.5 -68.5q-18 -3 -18 14v181q0 13 12 18q361 106 493 373q-107 -72 -245 -72q-184 0 -304 113t-120 313zM326 911 q0 -126 69.5 -190t173.5 -64q139 0 215 76q9 37 9 111q0 157 -63 244.5t-173 87.5q-100 0 -165.5 -74.5t-65.5 -190.5z" />
<glyph unicode=":" horiz-adv-x="632" d="M168 125q0 64 42 104.5t107 40.5q66 0 108 -41t42 -104q0 -64 -40.5 -104.5t-109.5 -40.5q-65 0 -107 40t-42 105zM168 797q0 64 42 104.5t107 40.5t107.5 -41.5t42.5 -103.5q0 -65 -40.5 -105.5t-109.5 -40.5q-66 0 -107.5 40t-41.5 106z" />
<glyph unicode=";" horiz-adv-x="632" d="M81 -270q-3 6 1 10q85 145 113 273.5t20 277.5q0 14 10 14h201q7 0 10 -3t6 -13q20 -336 -153 -553q-4 -12 -23 -12h-172q-10 0 -13 6zM168 797q0 64 42 104.5t107 40.5t107.5 -41.5t42.5 -103.5q0 -65 -40.5 -105.5t-109.5 -40.5q-66 0 -107.5 40t-41.5 106z" />
<glyph unicode="&#x3c;" horiz-adv-x="1140" d="M131 465v139q0 14 8 19l856 434q17 7 17 -8v-162q0 -15 -15 -19l-665 -331v-5l667 -333q13 -7 13 -19v-157q0 -16 -15 -13l-856 436q-10 8 -10 19z" />
<glyph unicode="=" horiz-adv-x="1140" d="M63 262v146q0 14 15 14h983q9 0 12.5 -3t3.5 -13v-144q0 -16 -18 -16h-979q-17 0 -17 16zM63 664v145q0 14 17 14h983q14 0 14 -14v-147q0 -17 -16 -17h-981q-17 0 -17 19z" />
<glyph unicode="&#x3e;" horiz-adv-x="1140" d="M131 18v162q0 16 10 19l666 331v5l-664 333q-12 5 -12 17v164q0 14 12 8l858 -436q11 -5 11 -19v-135q0 -10 -11 -18l-860 -439q-10 -3 -10 8z" />
<glyph unicode="?" horiz-adv-x="919" d="M129 1112v162q0 16 8 20q131 64 305 64q179 0 286.5 -92.5t107.5 -241.5q0 -62 -30 -123t-72.5 -107.5t-85.5 -88t-73 -81t-30 -71.5q0 -46 37 -109q3 -6 -0.5 -11t-10.5 -5h-180q-14 0 -24 10q-54 60 -54 140q0 45 27.5 90.5t67.5 84.5t79.5 78t67 84.5t27.5 90.5 q0 63 -50.5 106t-140.5 43q-130 0 -248 -51q-14 -7 -14 8zM326 123q0 64 40.5 102.5t102.5 38.5q64 0 103.5 -39.5t39.5 -101.5q0 -65 -38 -104t-105 -39q-63 0 -103 38.5t-40 104.5z" />
<glyph unicode="@" horiz-adv-x="1693" d="M86 422q0 242 108.5 437t304 306t441.5 111q137 0 257.5 -42t212 -119.5t145 -197.5t53.5 -266q0 -149 -55 -272t-148 -202t-214.5 -122t-256.5 -43q-101 0 -183.5 23t-146.5 70t-99.5 126.5t-35.5 184.5q0 148 74 265.5t197 180t270 62.5q154 0 221 -37q9 -3 6 -15 l-137 -690q39 6 80 25t86 57t80 88.5t58 126.5t23 166q0 234 -137 359.5t-370 125.5q-179 0 -325 -87t-231 -247t-85 -364q0 -191 84 -337t251 -234q11 -8 11 -23v-162q0 -16 -15 -10q-249 98 -386.5 298.5t-137.5 457.5zM670 428q0 -228 217 -246q6 -2 22 -2l119 586 q-20 8 -63 8q-87 0 -156 -51t-104 -129.5t-35 -165.5z" />
<glyph unicode="A" horiz-adv-x="1347" d="M59 20q284 802 428 1190q13 44 17 113q0 12 12 12h283q11 0 16 -10q50 -138 146.5 -407t177 -490.5t149.5 -409.5q2 -4 2 -8q0 -10 -14 -10h-229q-13 0 -19 12l-131 361h-469l-125 -357q-3 -16 -20 -16h-209q-16 0 -16 12q0 4 1 8zM481 573h361q-19 62 -90 271.5 t-93 285.5h-2q-14 -60 -42 -150t-72 -220.5t-62 -186.5z" />
<glyph unicode="B" horiz-adv-x="1212" d="M156 16v1301q0 16 12 18q160 4 405 4q121 0 213 -21.5t145 -55t86.5 -81.5t44.5 -93t11 -97q0 -106 -55.5 -181.5t-147.5 -109.5v-4q50 -13 93.5 -38t81.5 -62.5t60.5 -93.5t22.5 -123q0 -191 -153.5 -287t-427.5 -96h-81q-128 0 -296 4q-14 2 -14 16zM397 195 q1 0 55.5 -2.5t108.5 -2.5q150 0 230.5 47t80.5 154q0 197 -282 197h-193v-393zM397 786h193q128 0 184.5 49.5t56.5 131.5q0 94 -64 136t-196 42q-128 0 -174 -4v-355z" />
<glyph unicode="C" horiz-adv-x="1230" d="M109 666q0 144 51.5 271t144 220t228.5 147t298 54q197 0 285 -45q10 -5 10 -21v-186q0 -17 -14 -12q-120 51 -274 51q-214 0 -345 -127.5t-131 -345.5q0 -107 29.5 -191t76.5 -135.5t110.5 -85t125.5 -46.5t127 -13q164 0 295 55q6 3 10.5 0t4.5 -12v-178q0 -20 -15 -25 q-119 -61 -338 -61q-107 0 -204.5 24t-185 77t-151 131.5t-101 195t-37.5 258.5z" />
<glyph unicode="D" horiz-adv-x="1384" d="M154 18v1303q0 12 14 14q185 6 410 6q339 0 517.5 -177t178.5 -480q0 -121 -26.5 -221.5t-70.5 -170.5t-106 -124t-126.5 -85.5t-139.5 -52t-139 -27.5t-129 -7q-135 0 -369 4q-14 0 -14 18zM401 193q55 -3 144 -3q223 0 349 121t126 367q0 230 -114.5 348.5 t-327.5 118.5q-141 0 -177 -4v-948z" />
<glyph unicode="E" horiz-adv-x="1101" d="M156 18v1301q0 16 16 16h789q16 0 18 -12l20 -168q4 -18 -12 -18h-584v-355h527q14 0 14 -14v-172q0 -14 -16 -14h-525v-383h619q12 0 12 -12v-5l-28 -166q-2 -16 -21 -16h-813q-10 0 -13 3.5t-3 14.5z" />
<glyph unicode="F" horiz-adv-x="1042" d="M156 16v1305q0 9 2.5 11.5t11.5 2.5h788q17 0 19 -14l18 -166q3 -18 -14 -18h-578v-389h519q16 0 16 -15v-170q0 -14 -16 -14h-519v-533q0 -16 -16 -16h-219q-12 0 -12 16z" />
<glyph unicode="G" horiz-adv-x="1390" d="M109 657q0 211 93 371t257.5 245t376.5 85q112 0 211 -20.5t157 -53.5q13 -5 13 -24v-187q0 -9 -5.5 -12t-11.5 0q-158 84 -358 84q-228 0 -354 -125.5t-126 -355.5q0 -97 30 -182t87 -152t149 -105.5t208 -38.5q102 0 178 33v297l-228 6q-16 3 -16 19v161q0 13 14 13 h461q17 0 17 -17v-606q0 -14 -15 -22q-204 -90 -440 -90q-176 0 -312 54t-219 148t-125 214.5t-42 260.5z" />
<glyph unicode="H" horiz-adv-x="1390" d="M156 18v1301q0 10 3.5 13t12.5 3h213q18 0 18 -14v-539h584v539q0 14 17 14h219q12 0 12 -14v-1305q0 -16 -14 -16h-217q-17 0 -17 16v566h-584v-564q0 -18 -18 -18h-211q-10 0 -14 4t-4 14z" />
<glyph unicode="I" horiz-adv-x="559" d="M156 18v1303q0 14 16 14h215q9 0 12.5 -2.5t3.5 -11.5v-1303q0 -18 -18 -18h-213q-16 0 -16 18z" />
<glyph unicode="J" horiz-adv-x="798" d="M-2 -57v180q0 17 16 12q95 -45 193 -45q99 0 143.5 53.5t44.5 188.5v989q0 14 17 14h217q6 0 8.5 -0.5t4 -3t1.5 -8.5v-995q0 -451 -410 -451q-143 0 -223 41q-12 7 -12 25z" />
<glyph unicode="K" horiz-adv-x="1286" d="M156 18v1303q0 14 14 14h217q16 0 16 -14v-545h125q20 0 35 21q49 70 174.5 256.5t186.5 269.5q7 12 24 12h232q22 0 10 -20q-242 -356 -449 -613q-9 -9 0 -18q62 -74 135 -166.5t122.5 -157.5t134.5 -176.5t122 -160.5q4 -4 4 -9q1 -3 -1 -6q-4 -8 -13 -8h-252 q-23 0 -32 16q-56 71 -124 160.5t-158 210.5t-124 166q-16 22 -39 22h-113v-557q0 -18 -18 -18h-211q-18 0 -18 18z" />
<glyph unicode="L" horiz-adv-x="1062" d="M156 20v1299q0 16 16 16h217q14 0 14 -14v-1122h601q12 0 12 -12v-5l-31 -168q-5 -14 -20 -14h-789q-20 0 -20 20z" />
<glyph unicode="M" horiz-adv-x="1798" d="M125 16l141 1309q2 10 17 10h321q17 0 19 -12q70 -227 162 -543t118 -430h2q17 71 72.5 257t126 417t90.5 299q3 12 16 12h310q12 0 14 -10l137 -1309q3 -16 -14 -16h-240q-14 0 -16 14q-70 999 -72 1135h-2q-24 -105 -147.5 -535t-169.5 -600q-6 -14 -21 -14h-194 q-18 0 -23 14q-254 894 -311 1139h-4q-6 -209 -95 -1139q-2 -14 -16 -14h-205q-10 0 -13.5 3t-2.5 13z" />
<glyph unicode="N" horiz-adv-x="1400" d="M156 18v1305q0 12 14 12h276q18 0 25 -12q502 -916 543 -1012h4q-6 165 -6 344v666q0 14 16 14h199q16 0 16 -16v-1301q0 -10 -3.5 -14t-14.5 -4h-269q-15 0 -26 14q-55 120 -282 544t-267 519h-2q8 -104 8 -403v-658q0 -16 -14 -16h-199q-10 0 -14 3.5t-4 14.5z" />
<glyph unicode="O" horiz-adv-x="1482" d="M106 672q0 203 81 359.5t225.5 241.5t330.5 85q189 0 334 -92t220.5 -246t76.5 -344q0 -323 -175 -509.5t-458 -186.5q-293 0 -464 188t-171 504zM362 670q0 -218 103.5 -351t284.5 -133q173 0 271.5 129.5t98.5 354.5q0 218 -103.5 350.5t-277.5 132.5q-167 0 -272 -128 t-105 -355z" />
<glyph unicode="P" horiz-adv-x="1177" d="M156 14v1307q0 14 12 14q156 4 387 4q117 0 210 -23.5t154 -64t102 -97.5t58.5 -121t18.5 -138q0 -118 -46 -209.5t-126.5 -146.5t-181 -83t-216.5 -28h-127v-412q0 -16 -14 -16h-217q-14 0 -14 14zM401 627q32 -4 134 -4q51 0 95.5 8t86 27.5t71 49.5t47 76.5 t17.5 106.5q0 123 -76 188.5t-221 65.5q-122 0 -154 -4v-514z" />
<glyph unicode="Q" horiz-adv-x="1484" d="M106 666q0 316 179 504t463 188q183 0 326.5 -87.5t221.5 -242t78 -348.5q0 -122 -26 -225.5t-69.5 -175.5t-91.5 -121t-102 -80q239 -191 414 -307q3 -2 3 -10v-7q-2 -14 -5 -16l-264 -23q-5 -1 -9 -1q-10 0 -18 5q-100 59 -356 275q-32 -14 -100 -14q-193 0 -339.5 86 t-225.5 241.5t-79 358.5zM362 672q0 -224 106 -355t282 -131h5q166 0 265 126q100 127 100 356q0 219 -102 352t-281 133q-173 0 -274 -131t-101 -350z" />
<glyph unicode="R" horiz-adv-x="1257" d="M156 16v1303q0 16 12 16q164 6 403 6q245 0 379.5 -98.5t134.5 -286.5q0 -139 -74.5 -229t-205.5 -133q362 -469 430 -571q5 -7 5 -13q0 -10 -11 -10h-256q-19 0 -29 10q-87 117 -334 482q-12 22 -24.5 29t-40.5 7h-148v-512q0 -16 -14 -16h-211q-16 0 -16 16zM397 725 h162q142 0 211.5 58t69.5 159q0 100 -73.5 152.5t-207.5 52.5t-162 -4v-418z" />
<glyph unicode="S" horiz-adv-x="1044" d="M68 115v194q0 8 5 11t11 -1q86 -61 195.5 -97t216.5 -36q112 0 165.5 43t53.5 109q0 67 -50.5 111.5t-211.5 113.5q-211 89 -293 180.5t-82 237.5q0 76 30.5 143t88.5 119t149 82.5t203 30.5q206 0 336 -74q12 -9 12 -25v-186q0 -6 -5.5 -9t-12.5 1q-69 42 -158 68 t-176 26q-66 0 -112.5 -15.5t-68.5 -41t-31 -49t-9 -47.5q0 -40 17.5 -70.5t71.5 -67t154 -78.5q122 -50 201 -98.5t122.5 -101t60 -105t16.5 -121.5q0 -177 -129.5 -279.5t-352.5 -102.5q-115 0 -222.5 26.5t-180.5 77.5q-14 9 -14 31z" />
<glyph unicode="T" horiz-adv-x="1140" d="M12 1155l27 166q3 14 18 14h1033q15 0 18 -16l18 -162v-6q0 -14 -14 -14h-428v-1119q0 -18 -16 -18h-211h-5q-16 0 -16 18v1119h-411q-13 0 -13 13v5z" />
<glyph unicode="U" horiz-adv-x="1388" d="M156 487v832q0 9 3 12.5t13 3.5h215q9 0 12.5 -2.5t3.5 -11.5v-829q0 -145 75 -226.5t220 -81.5q59 0 107.5 15t90.5 49t65.5 98t23.5 154v819q0 16 16 16h213q19 0 19 -16v-821q0 -137 -42 -239t-117 -162t-170 -88.5t-210 -28.5q-248 0 -393 128t-145 379z" />
<glyph unicode="V" horiz-adv-x="1318" d="M39 1317q-2 5 -2 8q0 10 14 10h236q13 0 18 -12q329 -902 373 -1073h4q80 279 348 1071q5 14 19 14h227q11 0 11 -10q0 -3 -1 -8l-477 -1305q-5 -12 -18 -12h-240q-16 0 -21 12z" />
<glyph unicode="W" horiz-adv-x="1853" d="M39 1319q-3 16 14 16h230q18 0 20 -12q141 -565 188 -765.5t62 -291.5h2q62 288 254 1055q5 14 22 14h230q15 0 20 -14l242 -1055h2q92 423 240 1055q6 14 20 14h215q18 0 15 -18l-355 -1305q-5 -12 -20 -12h-230q-17 0 -20 12q-20 87 -80.5 339t-108 454.5t-65.5 284.5 h-2q-40 -194 -275 -1072q-4 -18 -20 -18h-223q-17 0 -25 18z" />
<glyph unicode="X" horiz-adv-x="1251" d="M31 10q0 5 4 10l420 652l-404 647q-4 7 -1.5 11.5t9.5 4.5h250q21 0 27 -14l295 -506h2l291 506q8 14 26 14h226q9 0 12 -6.5t-2 -15.5l-398 -627l426 -666q3 -5 3 -9q-1 -2 -1 -4q-2 -5 -10 -7h-252q-22 0 -30 16l-312 512h-2l-301 -512q-11 -16 -26 -16h-240 q-12 0 -12 10z" />
<glyph unicode="Y" horiz-adv-x="1222" d="M31 1317q-3 6 -3 9q0 9 15 9h248q13 0 18 -10q259 -507 316 -631q74 162 305 631q2 10 16 10h238q10 0 10 -7q0 -3 -2 -7l-442 -791q-17 -28 -17 -63v-449q0 -10 -3.5 -14t-14.5 -4h-211q-19 0 -19 18v459q0 33 -14 60z" />
<glyph unicode="Z" horiz-adv-x="1142" d="M37 16v113q0 14 8 25l707 983h-686q-10 0 -13 3t-2 13l29 168q5 14 18 14h953q7 0 9.5 -2.5t2.5 -9.5v-123q0 -16 -10 -31l-688 -970h743q14 0 14 -11q0 -4 -2 -8l-33 -164q-3 -16 -18 -16h-1014q-18 0 -18 16z" />
<glyph unicode="[" horiz-adv-x="655" d="M133 -336v1866q0 16 19 16h430q8 0 8 -8v-121q0 -12 -8 -12l-258 -4v-1604l260 -8q8 0 8 -12v-121q0 -10 -12 -10h-428q-19 0 -19 18z" />
<glyph unicode="\" horiz-adv-x="747" d="M76 1427q-4 15 10 15h168q13 0 16 -12l400 -1500q5 -18 -13 -18h-170q-15 0 -18 14z" />
<glyph unicode="]" horiz-adv-x="669" d="M86 1415v119q0 12 10 12h430q17 0 17 -18v-1866q0 -16 -17 -16h-430q-8 0 -8 8v121q0 12 8 12l258 4v1604l-260 8q-8 0 -8 12z" />
<glyph unicode="^" horiz-adv-x="1056" d="M76 494l342 759q9 13 14 13h186q12 0 19 -13l350 -757q6 -19 -8 -19h-164q-17 0 -22 12l-265 605h-2l-258 -602q-6 -15 -13 -15h-5h-162q-19 0 -12 17z" />
<glyph unicode="_" horiz-adv-x="1058" d="M0 -152h1059v-100h-1059v100z" />
<glyph unicode="`" horiz-adv-x="800" d="M113 1426q2 6 10 6h235q15 0 23 -11l170 -301q8 -16 -10 -16h-189q-12 0 -20 12l-217 297q-4 7 -2 13z" />
<glyph unicode="a" horiz-adv-x="1038" d="M63 307q0 328 526 327q36 0 75 -1v33q0 20 -7.5 42t-27.5 48t-64 42.5t-106 16.5q-147 0 -281 -67q-16 -4 -16 12v160q0 15 12 20q69 34 158 55t174 21q196 0 296.5 -108t100.5 -287v-406q0 -63 6 -127q0 -8 -6 -10q-206 -98 -428 -98q-87 0 -160.5 19t-130.5 57.5 t-89 102.5t-32 148zM305 311q0 -64 51.5 -105.5t157.5 -41.5q94 0 150 20v285q-33 1 -63 1q-91 0 -151 -13q-80 -18 -112.5 -53.5t-32.5 -92.5z" />
<glyph unicode="b" horiz-adv-x="1159" d="M135 45v1393q0 14 15 14h215q11 0 14.5 -2.5t3.5 -11.5v-467q113 45 225 45q209 0 333 -133t124 -336q0 -130 -48.5 -238t-132 -178.5t-192.5 -109.5t-231 -39q-167 0 -314 43q-12 6 -12 20zM383 182q40 -12 111 -12q59 0 114 22t101 63t74 109.5t28 153.5 q0 145 -71.5 222t-192.5 77q-100 0 -164 -35v-600z" />
<glyph unicode="c" horiz-adv-x="915" d="M88 494q0 229 149.5 375.5t389.5 146.5q131 0 207 -37q10 -5 10 -21l-2 -165q0 -19 -15 -11q-82 37 -184 37q-138 0 -219.5 -87t-81.5 -232q0 -82 24.5 -145t66.5 -99.5t93.5 -55t110.5 -18.5q107 0 190 37q15 3 15 -10v-166q0 -13 -11 -18q-93 -45 -245 -45 q-122 0 -218 39.5t-156.5 109.5t-92 162.5t-31.5 202.5z" />
<glyph unicode="d" horiz-adv-x="1153" d="M88 487q0 111 40 208t112.5 168t179.5 112t235 41q65 0 117 -15v437q0 14 12 14h224q10 0 10 -12v-1209q0 -32 6 -131q2 -12 -10 -20q-205 -100 -410 -100q-235 0 -375.5 129.5t-140.5 377.5zM342 500q0 -163 82 -243.5t209 -80.5q74 0 139 21v610q-47 18 -121 18 q-141 0 -225 -85.5t-84 -239.5z" />
<glyph unicode="e" horiz-adv-x="1067" d="M86 492q0 148 55 265.5t166 188t260 70.5q108 0 192 -38.5t132.5 -101t73 -134t24.5 -146.5q0 -122 -18 -135q-30 -12 -215 -12h-418q3 -122 80 -194.5t227 -72.5q141 0 256 51q12 4 12 -10v-164q0 -16 -12 -22q-105 -54 -307 -57q-108 0 -195.5 28.5t-145 77t-96 115 t-55 139t-16.5 152.5zM338 606h328q86 0 90 17v22q0 26 -9.5 56.5t-30 63t-62 54t-97.5 21.5q-95 0 -150.5 -65t-68.5 -169z" />
<glyph unicode="f" horiz-adv-x="577" d="M18 829v154q0 12 13 12h125v35q0 200 95.5 320t268.5 120q71 0 127 -18q10 -6 10 -20v-168q0 -16 -14 -13q-37 15 -82 15q-160 0 -160 -222v-49h183q14 0 14 -14v-152q0 -16 -14 -16l-183 -6v-791q0 -16 -16 -16h-213q-16 0 -16 16v793l-125 4q-13 3 -13 16z" />
<glyph unicode="g" horiz-adv-x="1071" d="M57 -150q0 62 45.5 122.5t141.5 133.5q-47 68 -47 150q0 30 12 69.5t27 65.5q-142 88 -142 281q0 151 111.5 246.5t300.5 95.5q92 0 168 -13q25 -6 57 -6h283q12 0 12 -14v-152q0 -12 -14 -12l-158 6q47 -52 47 -157q0 -158 -108.5 -244t-282.5 -86q-48 0 -80 8 q-18 -29 -18 -76q0 -50 32 -82q36 4 105 4q116 0 203.5 -15t156 -49t104.5 -94t36 -145q0 -158 -139 -263t-375 -105q-220 0 -349 92t-129 239zM281 -143q0 -67 69 -114.5t195 -47.5q135 0 200.5 47.5t65.5 114.5q0 55 -38.5 87.5t-100.5 44t-156 11.5q-85 0 -135 -8 q-35 -18 -67.5 -56.5t-32.5 -78.5zM326 676q0 -83 47 -131.5t129 -48.5q78 0 124 47.5t46 130.5q0 85 -43 132.5t-127 47.5q-77 0 -126.5 -48t-49.5 -130z" />
<glyph unicode="h" horiz-adv-x="1144" d="M135 16v1422q0 14 15 14h219q12 0 12 -14v-516q133 94 287 94q67 0 124.5 -20.5t108 -66t80 -130.5t29.5 -201v-582q0 -16 -17 -16h-215q-16 0 -16 16v590q0 207 -176 207q-108 0 -205 -78v-721q0 -14 -14 -14h-217q-15 0 -15 16z" />
<glyph unicode="i" horiz-adv-x="518" d="M121 1257q0 56 39 91.5t100 35.5q62 0 98.5 -34.5t36.5 -92.5t-37.5 -92.5t-99.5 -34.5t-99.5 34.5t-37.5 92.5zM135 18v961q0 16 15 16h217q9 0 12.5 -3t3.5 -13v-963q0 -16 -16 -16h-213q-19 0 -19 18z" />
<glyph unicode="j" horiz-adv-x="516" d="M-57 -287q0 17 14 17h12q93 0 129 42q37 46 37 177v1030q0 16 17 16h215q16 0 16 -16v-883q0 -204 -22 -302.5t-72 -162.5q-85 -100 -246 -100q-3 0 -14 -1h-10h-9q-7 1 -18 1.5t-18.5 2t-15 4.5t-11.5 8t-4 12v155zM123 1257q0 56 39 91.5t100 35.5q62 0 98.5 -34.5 t36.5 -92.5t-37.5 -92.5t-99.5 -34.5t-99.5 34.5t-37.5 92.5z" />
<glyph unicode="k" horiz-adv-x="1079" d="M135 18v1420q0 14 17 14h215q14 0 14 -14v-836h80q23 0 35 12q27 41 124.5 182t127.5 187q7 12 22 12h223q10 0 13 -6.5t-2 -13.5q-60 -97 -334 -440q-6 -9 0 -19q69 -82 207.5 -252.5t201.5 -245.5q3 -4 3 -8q0 -2 -1 -4q-3 -6 -12 -6h-274q-16 0 -25 12 q-43 59 -138 184.5t-145 194.5q-15 17 -34 17h-72v-390q0 -18 -14 -18h-215q-17 0 -17 18z" />
<glyph unicode="l" horiz-adv-x="550" d="M135 231v1205q0 16 17 16h213q16 0 16 -16v-1192q0 -44 16 -61t47 -17q16 0 48 4q10 3 10 -10v-137q0 -18 -15 -23q-46 -20 -129 -20q-108 0 -165.5 55.5t-57.5 195.5z" />
<glyph unicode="m" horiz-adv-x="1755" d="M125 979q0 16 16 16h189q9 0 15 -7t10 -19.5t5.5 -23.5t3.5 -27t3 -21q147 119 303 119q178 0 262 -142q83 68 166.5 105t185.5 37q46 0 90.5 -11.5t89.5 -40t78.5 -72.5t54.5 -114.5t21 -159.5v-602q0 -16 -19 -16h-210q-17 0 -17 18v592q0 203 -168 203 q-105 0 -213 -90q8 -50 8 -107v-598q0 -18 -14 -18h-213q-18 0 -18 16v594q0 100 -43 151.5t-125 51.5q-98 0 -205 -86v-711q0 -16 -14 -16h-217q-15 0 -15 18v758q0 106 -10 203z" />
<glyph unicode="n" horiz-adv-x="1144" d="M125 979q0 16 14 16h187q18 0 24 -14q11 -34 15 -82q136 117 309 117q51 0 96 -11t90 -40t77.5 -74.5t52.5 -120t20 -170.5v-584q0 -16 -17 -16h-213q-18 0 -18 18v584q0 211 -176 211q-106 0 -205 -88v-709q0 -16 -16 -16h-215q-15 0 -15 18v742q0 116 -10 219z" />
<glyph unicode="o" horiz-adv-x="1175" d="M88 498q0 228 139 373t367 145q154 0 267.5 -69t169.5 -184.5t56 -260.5q0 -240 -137.5 -381t-361.5 -141q-103 0 -187.5 29t-141.5 78.5t-96.5 116.5t-57 141t-17.5 153zM340 502q0 -156 66.5 -248t187.5 -92q104 0 173 82t69 250q0 155 -63 247.5t-191 92.5 q-108 0 -175 -89.5t-67 -242.5z" />
<glyph unicode="p" horiz-adv-x="1153" d="M127 915q0 10 8 13q261 88 434 88q123 0 219 -38t155.5 -104.5t90.5 -153.5t31 -188q0 -105 -33.5 -195.5t-91 -155t-133.5 -110.5t-161.5 -68t-174.5 -23q-44 0 -90 8v-402q0 -14 -14 -16l-217 -21h-4q-11 0 -11 13v1235q0 64 -8 118zM381 182q41 -12 98 -12 q142 0 237 90.5t95 259.5q0 145 -73.5 221t-194.5 76q-76 0 -162 -22v-613z" />
<glyph unicode="q" horiz-adv-x="1155" d="M88 479q0 113 41.5 211.5t117 170.5t189 113.5t250.5 41.5q177 0 336 -60q6 -4 6 -14q-8 -47 -8 -131v-1225q0 -13 -14 -16q-72 -6 -222 -21q-12 0 -12 17v444q-82 -30 -190 -30q-219 0 -356.5 131.5t-137.5 367.5zM342 492q0 -82 25 -145t68 -99t93 -54t105 -18 q81 0 139 27v606q-50 16 -115 16q-141 0 -228 -87.5t-87 -245.5z" />
<glyph unicode="r" horiz-adv-x="737" d="M125 983q-1 2 -1 4q0 8 13 8h193q17 0 22 -16q14 -48 21 -125q55 75 140.5 118.5t162.5 43.5h5q13 0 18.5 -0.5t10.5 -6t5 -16.5v-190q0 -15 -17 -15h-15q-81 0 -161 -30q-86 -32 -139 -90v-652q0 -16 -16 -16h-215q-17 0 -17 16v691q0 163 -10 276z" />
<glyph unicode="s" horiz-adv-x="831" d="M63 80v188q0 7 5 10.5t10 0.5q173 -111 332 -111q65 0 96 27t31 65q0 40 -38 69.5t-147 73.5q-159 65 -221.5 134.5t-62.5 181.5q0 129 99 213t275 84q167 0 271 -60q12 -10 12 -26v-168q0 -9 -5.5 -12.5t-12.5 0.5q-139 77 -285 77q-68 0 -97.5 -25.5t-29.5 -60.5 q0 -38 34 -65.5t146 -71.5q164 -67 232.5 -134.5t68.5 -174.5q0 -150 -105 -232.5t-278 -82.5q-189 0 -317 79q-13 7 -13 21z" />
<glyph unicode="t" horiz-adv-x="665" d="M14 831v148q0 9 3.5 12.5t13.5 3.5h125q4 159 22 256q4 14 17 17l204 39q3 1 5 1q12 0 12 -12q-9 -102 -13 -301h207q15 0 15 -14v-152q0 -13 -13 -16l-211 -4v-502q0 -71 26.5 -104t90.5 -33q36 0 88 14q5 2 8.5 -1t3.5 -11v-135q0 -18 -12 -23q-69 -34 -184 -34 q-130 0 -198 68t-68 216v545l-127 4q-9 1 -12 5t-3 13z" />
<glyph unicode="u" horiz-adv-x="1132" d="M135 356v623q0 10 3.5 13t13.5 3h215q14 0 14 -14v-588q0 -213 172 -213q115 0 197 82v717q0 16 16 16h215q10 0 13 -3t3 -11v-756q0 -93 11 -211q3 -14 -15 -14h-190q-16 0 -21 12q-4 13 -10 74q-128 -106 -299 -106q-55 0 -102.5 11t-91.5 38t-75.5 68.5t-50 107.5 t-18.5 151z" />
<glyph unicode="v" horiz-adv-x="1021" d="M23 979q-2 4 -2 8q0 8 12 8h233q16 0 19 -14q208 -662 237 -791h4q37 146 246 793q5 12 19 12h204q7 -1 11 -5q3 -3 3 -6q0 -2 -1 -5q-39 -109 -180.5 -494t-172.5 -471q-6 -14 -22 -14h-246q-16 0 -20 12q-21 58 -99 277t-146 409.5t-99 280.5z" />
<glyph unicode="w" horiz-adv-x="1525" d="M18 979q-1 4 -1 7q0 9 14 9h219q16 0 18 -12q145 -552 183 -754h4q44 191 194 750q2 9 5.5 12.5t13.5 3.5h219q13 0 16 -12q141 -552 180 -760h4q70 339 191 758q3 14 16 14h203q13 0 13 -10q0 -2 -1 -4l-297 -965q-3 -10 -7 -13t-15 -3h-229q-18 0 -23 16 q-133 530 -174 725h-2q-27 -140 -199 -725q-5 -16 -22 -16h-228q-20 0 -26 18z" />
<glyph unicode="x" horiz-adv-x="997" d="M18 6q-2 3 -2 6t2 6q301 458 314 478l-307 481q-4 6 -1 12t13 6h244q18 0 26 -16l195 -350h4l205 356q5 10 18 10h217q8 0 11 -5.5t-1 -12.5q-207 -325 -309 -469q48 -74 175 -258.5t159 -233.5q3 -4 3 -7q0 -2 -1 -4q-3 -5 -12 -5h-254q-19 0 -25 16l-211 355h-4 l-205 -359q-5 -12 -22 -12h-221q-7 0 -11 6z" />
<glyph unicode="y" horiz-adv-x="997" d="M10 979q-3 16 13 16h239q13 0 19 -14q198 -537 245 -694h2q109 289 220 694q6 14 20 14h203q15 0 15 -12q0 -3 -1 -6q-43 -185 -137.5 -441t-198.5 -475q-86 -175 -165.5 -307.5t-131.5 -195.5q-12 -15 -33 -15h-233q-9 0 -12 6.5t4 14.5q73 87 171 235t138 234 q9 23 6 35q-38 80 -184 427t-199 484z" />
<glyph unicode="z" horiz-adv-x="882" d="M35 12v107q0 11 6 20q248 337 491 662h-483q-15 0 -15 11q0 3 1 7l28 160q3 16 19 16h727q12 0 12 -14v-107q0 -16 -10 -28q-115 -167 -267 -374t-208 -279h518q14 0 12 -17l-32 -162q-3 -14 -17 -14h-770q-12 0 -12 12z" />
<glyph unicode="{" horiz-adv-x="792" d="M57 524v160q0 10 11 10q136 0 189 42.5t56 140.5q1 47 -6.5 164t-7.5 157q0 41 10.5 82.5t39 89.5t73 87t120 71.5t171.5 46.5q14 3 14 -10l2 -152q0 -11 -12 -14q-65 -13 -109 -37t-65 -55t-29 -60t-8 -65q0 -46 6 -156.5t6 -153.5q0 -108 -52 -173t-163 -91v-8 q63 -13 107.5 -39t68 -63.5t34 -78t11.5 -89.5q0 -49 -9 -164t-9 -164q0 -81 48.5 -133t166.5 -74q8 -3 9 -5t1 -9v-156q0 -13 -10 -10q-203 20 -311.5 118t-108.5 251q0 58 9 163.5t9 159.5q0 103 -55 154t-196 51q-11 0 -11 12z" />
<glyph unicode="|" horiz-adv-x="483" d="M135 -401v2007h211v-2007h-211z" />
<glyph unicode="}" horiz-adv-x="792" d="M59 1411v154q0 12 11 12q203 -20 312.5 -118.5t109.5 -252.5q0 -58 -10.5 -157.5t-10.5 -153.5q0 -102 55.5 -152.5t196.5 -50.5q10 0 10 -14v-158q0 -10 -10 -10q-136 0 -189.5 -42.5t-56.5 -141.5q0 -44 7.5 -166.5t7.5 -167.5q0 -41 -10.5 -82.5t-39 -89.5t-73 -87 t-120 -71.5t-171.5 -46.5q-15 -3 -15 10v154q0 9 11 12q65 13 109 37t65 55.5t29 60.5t8 64q0 46 -6.5 162.5t-6.5 161.5q0 107 52 172t163 92v6q-121 26 -170 96t-49 174q-1 53 8 162.5t9 153.5q0 82 -48 133.5t-167 73.5q-8 3 -9.5 5t-1.5 11z" />
<glyph unicode="~" horiz-adv-x="1150" d="M80 401q-3 96 16.5 167.5t56.5 113.5t85 62t106 20q68 0 121.5 -24.5t146.5 -90.5q78 -57 119 -78.5t80 -21.5q52 0 73.5 40t18.5 148q0 15 15 15h141q14 0 14 -13q6 -103 -12.5 -177.5t-57 -114t-84.5 -57t-102 -17.5q-67 0 -127.5 23.5t-142.5 84.5q-20 14 -50.5 37.5 t-43.5 32.5t-32.5 21t-34 16t-30.5 4q-111 0 -106 -193q0 -14 -12 -14h-146q-12 2 -12 16z" />
<glyph unicode="&#xa1;" horiz-adv-x="577" d="M92 809q0 64 40.5 100.5t107.5 36.5q65 0 105 -37t40 -100q0 -61 -41 -101t-104 -40q-66 0 -107 39t-41 102zM100 -240q0 112 16.5 370t24.5 337q4 12 17 12h161q12 0 15 -12q39 -556 39 -700v-148q0 -25 -47 -36t-88 -11q-138 0 -138 41v147z" />
<glyph unicode="&#xa2;" d="M162 670q0 192 115.5 319t289.5 158v176q0 10 13 10h165q15 0 15 -10v-166q41 0 93.5 -12t82.5 -27q10 -8 10 -20v-172q0 -17 -18 -11q-95 43 -221 43q-134 0 -216.5 -75.5t-82.5 -202.5q0 -59 18 -107.5t48 -80.5t70 -54t82.5 -31.5t86.5 -9.5q129 0 227 45q12 5 12 -10 v-166q0 -14 -12 -20q-69 -41 -180 -45v-181q0 -10 -12 -10h-168q-15 0 -15 13v180q-181 24 -292 150t-111 317z" />
<glyph unicode="&#xa3;" d="M78 10v142q0 11 10 14q75 23 125 80t70 125t20 149v53h-176q-12 0 -12 15v145q0 12 14 12h162q0 25 -1 70t-1 57q0 222 120.5 354t325.5 132q136 0 209 -39q19 -7 19 -27v-164q0 -18 -17 -12q-86 39 -182 39q-227 0 -227 -291v-119h292q13 0 13 -12v-147q0 -13 -13 -13 h-288q-3 -250 -148 -372h621q17 0 14 -15l-31 -174q-2 -12 -16 -12h-893q-10 0 -10 10z" />
<glyph unicode="&#xa4;" d="M76 1030q-10 10 0 19l96 102q11 8 18 -2l150 -145q92 65 213 65q122 0 217 -65l150 141q10 10 18 0l96 -96q8 -9 -2 -19l-147 -145q65 -91 65 -217q0 -124 -65 -217l145 -142q10 -10 0 -18l-96 -94q-10 -13 -21 2l-137 141q-36 -29 -95 -48.5t-126 -19.5q-133 0 -223 64 l-131 -139q-14 -11 -23 -2l-94 92q-11 9 -2 20l141 142q-61 92 -61 221q0 121 63 215zM344 670q0 -64 19 -112.5t50.5 -75.5t67 -40.5t74.5 -13.5q41 0 76.5 12t67 38.5t49.5 75.5t18 116q0 103 -56.5 172t-158.5 69q-94 0 -150.5 -66t-56.5 -175z" />
<glyph unicode="&#xa5;" d="M39 1323q-8 12 8 12h244q14 0 18 -8q213 -417 250 -522h4q37 103 242 518q6 12 18 12h236q14 0 8 -12l-346 -586h223q10 0 10 -12v-123q0 -12 -12 -12h-272v-125h272q12 0 12 -10v-125q0 -15 -14 -15h-270v-301q-3 -14 -17 -14h-209q-16 3 -16 16v299h-264q-14 0 -14 15 v121q0 14 14 14h264v125h-264q-14 0 -14 16v117q0 14 14 14h227z" />
<glyph unicode="&#xa6;" horiz-adv-x="483" d="M135 -401v802h211v-802h-211zM137 803v803h209v-803h-209z" />
<glyph unicode="&#xa7;" horiz-adv-x="1019" d="M88 799q0 142 68 270t191 208.5t271 80.5q91 0 163.5 -21t105.5 -49q10 -10 10 -18v-158q0 -8 -6.5 -11t-11.5 1q-122 92 -263 92q-62 0 -97.5 -24.5t-35.5 -61.5q0 -29 10 -51t59 -79.5t153 -160.5q61 -61 99 -102.5t81 -98.5t67 -107.5t40 -115t16 -133.5 q0 -110 -41 -213.5t-110.5 -181t-168.5 -124t-209 -46.5q-107 0 -194 31t-127 67q-11 7 -11 23v164q0 6 4.5 9t10.5 -1q159 -115 319 -115q107 0 107 68q0 55 -38.5 109.5t-189.5 217.5q-152 166 -212 280.5t-60 250.5zM250 844q2 -103 55 -197.5t213 -265.5 q132 -145 182 -236.5t35 -179.5q49 47 77 114t28 136q0 107 -52.5 206t-199.5 249q-114 115 -170.5 188t-73 118.5t-18.5 106.5q-79 -105 -76 -239z" />
<glyph unicode="&#xa8;" horiz-adv-x="800" d="M76 1257q0 56 36 91.5t91 35.5q53 0 87 -35t34 -92t-35 -90.5t-90 -33.5t-89 34t-34 90zM475 1257q0 56 36 91.5t89 35.5q55 0 88 -35t33 -92q0 -56 -34 -90t-89 -34t-89 33t-34 91z" />
<glyph unicode="&#xa9;" horiz-adv-x="1554" d="M100 672q0 189 89 344t244 242.5t343 87.5q141 0 266.5 -51.5t214.5 -140.5t141 -214.5t52 -267.5q0 -194 -88.5 -350t-242.5 -243t-343 -87q-188 0 -343 87.5t-244 243.5t-89 349zM231 672q0 -161 72.5 -290t197 -200t275.5 -71q247 0 396 156.5t149 404.5 q0 160 -72.5 288t-197 198.5t-275.5 70.5q-160 0 -285 -73t-192.5 -199.5t-67.5 -284.5zM434 668q0 161 113.5 268.5t290.5 107.5q120 0 186 -34q10 -6 10 -21l-2 -119q0 -11 -14 -8q-68 33 -162 33q-105 0 -169 -61.5t-64 -157.5q0 -105 67 -164t162 -59q102 0 178 39 q4 3 7 0.5t3 -7.5v-118q2 -8 -10 -17q-75 -45 -209 -45q-177 0 -282 105.5t-105 257.5z" />
<glyph unicode="&#xaa;" horiz-adv-x="735" d="M51 797q0 196 416 211v12q0 36 -30.5 64t-108.5 28q-106 0 -197 -39q-12 -3 -12 10v115q0 7 6 10q102 45 227 45q139 0 217 -73t78 -191v-340q0 -10 -12 -18q-157 -47 -283 -47q-85 0 -150 20t-108 69t-43 124zM229 801q0 -84 136 -84q66 0 102 12v164q-238 -6 -238 -92z " />
<glyph unicode="&#xab;" horiz-adv-x="1378" d="M160 436v125q0 11 12 17l465 362q7 5 12.5 1.5t5.5 -13.5v-172q0 -17 -12 -25l-285 -233l287 -236q10 -10 10 -24v-177q0 -22 -20 -12l-465 369q-10 7 -10 18zM702 436v125q0 7 11 12l465 367q8 5 13 1.5t5 -13.5v-172q0 -15 -12 -25l-285 -233l285 -236q12 -9 12 -24 v-177q0 -23 -18 -12l-465 369q-11 6 -11 18z" />
<glyph unicode="&#xac;" horiz-adv-x="1140" d="M61 662v149q0 12 13 12h991q12 0 12 -14v-573q0 -15 -10 -15h-160q-12 0 -12 15v411h-821q-13 0 -13 15z" />
<glyph unicode="&#xad;" horiz-adv-x="724" d="M109 426v178q0 14 14 14h481q12 0 12 -14v-178q0 -14 -12 -14h-481q-14 0 -14 14z" />
<glyph unicode="&#xae;" horiz-adv-x="411" d="M29 1116q0 86 59.5 145.5t151.5 59.5q87 0 145.5 -59.5t58.5 -145.5q0 -88 -58.5 -147.5t-145.5 -59.5q-92 0 -151.5 59.5t-59.5 147.5zM80 1114q0 -68 45 -115t115 -47q68 0 110.5 45.5t42.5 116.5q0 72 -44.5 119t-115.5 47q-68 0 -110.5 -46.5t-42.5 -119.5zM156 1024 v190q0 7 6 7h71q44 0 67.5 -16.5t23.5 -45.5q0 -39 -45 -55q5 -8 29.5 -40.5t29.5 -39.5q2 -2 0.5 -4t-4.5 -2h-47q-7 0 -11 4q-26 36 -43 63q-3 7 -8 7h-18v-68q0 -6 -4 -6h-41q-6 0 -6 6zM207 1128h24q39 0 39 27q0 25 -39 25h-24v-52z" />
<glyph unicode="&#xaf;" horiz-adv-x="800" d="M98 1194v145q0 15 17 15h577q13 0 13 -15v-145q0 -14 -15 -14h-577q-15 0 -15 14z" />
<glyph unicode="&#xb0;" horiz-adv-x="591" d="M37 1024q0 110 74 186t188 76q113 0 184.5 -74.5t71.5 -187.5q0 -114 -71 -190t-185 -76q-116 0 -189 76t-73 190zM168 1024q0 -61 37 -101t94 -40q56 0 92.5 40t36.5 101q0 60 -37.5 99.5t-91.5 39.5q-57 0 -94 -39.5t-37 -99.5z" />
<glyph unicode="&#xb1;" horiz-adv-x="1140" d="M61 16v146q0 14 17 14h985q9 0 12.5 -3t3.5 -13v-142q0 -18 -18 -18h-979q-21 0 -21 16zM61 709v149q0 14 15 14h403v398q0 14 15 14h155q15 0 15 -14v-398h401q9 0 11.5 -3.5t2.5 -12.5v-145q0 -17 -14 -17h-401v-401q0 -14 -15 -14h-157q-13 0 -13 14v401h-403 q-15 0 -15 15z" />
<glyph unicode="&#xb2;" horiz-adv-x="694" d="M53 938v86q0 10 4 14q14 10 63.5 43.5t72.5 50.5t65.5 49.5t65 55.5t48.5 54t37 60t11 58q0 56 -37.5 91.5t-110.5 35.5q-91 0 -196 -57q-8 -4 -12.5 -2t-4.5 8v119q0 13 13 18q107 66 245 66q137 0 210 -70t73 -178q0 -55 -20.5 -105t-61.5 -96.5t-82 -82t-104 -81.5 h311q8 0 8 -10l-26 -127q-3 -10 -15 -10h-547q-10 0 -10 10z" />
<glyph unicode="&#xb3;" horiz-adv-x="688" d="M63 983v123q0 10 13 6q106 -59 221 -59q71 0 107 27.5t36 66.5q0 49 -38 71.5t-123 22.5h-72q-10 0 -10 10v105q0 10 10 10h74q131 0 131 88q0 41 -34.5 66.5t-103.5 25.5q-100 0 -188 -49q-12 -5 -12 6v113q0 9 6 12q107 60 235 60q127 0 197 -55.5t70 -141.5 q0 -120 -127 -166v-2q73 -17 119.5 -61t46.5 -117q0 -114 -88.5 -173t-227.5 -59q-135 0 -231 52q-11 5 -11 18z" />
<glyph unicode="&#xb4;" horiz-adv-x="800" d="M279 1118l157 297q8 17 25 17h233q20 0 11 -19l-203 -299q-10 -10 -29 -10h-186q-15 0 -8 14z" />
<glyph unicode="&#xb5;" horiz-adv-x="1173" d="M135 -426v1407q0 14 17 14h217q8 0 11 -2.5t3 -11.5v-645q0 -73 37 -116.5t106 -43.5q96 0 162 88t66 266v453q0 7 2 9.5t10 2.5h223q12 0 12 -12v-721q1 -58 20.5 -80t55.5 -22q25 0 49 4q11 3 11 -10v-134q0 -12 -9 -16q-50 -24 -129 -24q-180 0 -208 172q0 2 -1.5 14 t-1.5 14q-43 -104 -115 -152t-157 -48q-103 0 -149 57q8 -107 8 -443q0 -15 -15 -18q-22 -2 -76 -7.5t-90.5 -9t-41.5 -3.5q-17 0 -17 18z" />
<glyph unicode="&#xb6;" horiz-adv-x="1011" d="M82 627q0 144 63.5 259t193 192t312.5 100q7 96 37 159q6 13 19 13h137q13 0 10 -13q-35 -144 -35 -231q0 -194 3.5 -507.5t4.5 -473.5q0 -345 -88 -469q-10 -10 -22 -10h-133q-15 0 -11 16q84 145 84 377v33q-88 7 -165.5 27.5t-154.5 62.5t-132 102.5t-89 153.5 t-34 209z" />
<glyph unicode="&#xb7;" horiz-adv-x="598" d="M152 524q0 66 41.5 108t107.5 42t108 -42.5t42 -107.5q0 -67 -41 -108t-109 -41q-67 0 -108 40.5t-41 108.5z" />
<glyph unicode="&#xb8;" horiz-adv-x="800" d="M199 -326q0 17 14 11q66 -27 131 -27q86 0 86 61q0 73 -190 99q-5 5 -5.5 25t3.5 26l112 143h150l-72 -96q90 -25 133 -71.5t43 -120.5q0 -85 -69 -141t-177 -56q-91 0 -147 29q-12 5 -12 22v96z" />
<glyph unicode="&#xb9;" horiz-adv-x="559" d="M78 1487v110q0 11 8 11q76 19 188 65q4 4 17 4h121q8 0 8 -10v-727q0 -12 -12 -12h-168q-13 0 -13 12v580q-70 -27 -139 -41q-10 -3 -10 8z" />
<glyph unicode="&#xba;" horiz-adv-x="837" d="M61 918q0 149 98 242t265 93q169 0 260.5 -92.5t91.5 -238.5q0 -158 -96 -248t-260 -90q-95 0 -167 28.5t-112.5 77t-60 106t-19.5 122.5zM260 922q0 -86 43.5 -141.5t120.5 -55.5q69 0 113.5 49.5t44.5 145.5q0 84 -39.5 140t-122.5 56q-73 0 -116.5 -51t-43.5 -143z " />
<glyph unicode="&#xbb;" horiz-adv-x="1378" d="M180 59v172q0 17 13 25l284 236l-284 233q-13 13 -13 25v178q3 22 21 10l465 -369q8 -5 8 -18v-123q0 -9 -10 -14l-465 -365q-7 -5 -13 -2t-6 12zM721 59v172q0 18 12 25l285 236l-283 233q-14 11 -14 25v178q0 23 20 10l465 -369q11 -5 11 -18v-123q0 -12 -11 -16 l-467 -363q-7 -5 -12.5 -2t-5.5 12z" />
<glyph unicode="&#xbc;" horiz-adv-x="1507" d="M80 1157v111q0 10 8 10q88 23 186 65q10 5 19 5h119q10 0 10 -11v-727q0 -12 -12 -12h-168q-13 0 -13 12v580q-77 -28 -139 -41q-10 -3 -10 8zM287 -8l725 1356q8 10 16 10h148q6 0 7.5 -4t-1.5 -8l-725 -1356q-7 -13 -17 -13h-147q-13 0 -6 15zM809 190v76q0 13 6 19 q27 35 167.5 221.5t176.5 232.5q11 11 21 11h127q12 0 12 -13v-440h123q8 0 8 -8l-16 -99q-3 -10 -11 -10h-104v-168q0 -14 -10 -14h-152q-10 0 -10 14v168h-330q-8 0 -8 10zM954 297h193q0 151 6 274h-6q-36 -59 -193 -274z" />
<glyph unicode="&#xbd;" horiz-adv-x="1544" d="M66 1157v111q0 10 8 10q76 19 188 65q5 5 17 5h120q9 0 9 -11v-727q0 -12 -11 -12h-170q-7 0 -9.5 2t-2.5 10v580q-70 -27 -139 -41q-10 -3 -10 8zM243.5 -18.5q-2.5 4.5 0.5 10.5l727 1358q5 8 14 8h150q4 0 5.5 -3.5t-1.5 -6.5l-723 -1358q-10 -13 -19 -13h-145 q-6 0 -8.5 4.5zM895 10v88q0 7 6 13q17 12 63 43.5t71 50t66 49.5t64.5 55.5t48.5 54.5t36.5 60t11.5 59q0 55 -37 90t-111 35q-95 0 -194 -57q-17 -10 -17 8v119q0 10 10 18q113 63 248 66q135 0 209 -70.5t74 -177.5q0 -55 -20 -105t-62 -96.5t-82 -81t-104 -81.5h311 q6 0 6 -11l-25 -129q-5 -10 -14 -10h-549q-10 0 -10 10z" />
<glyph unicode="&#xbe;" horiz-adv-x="1579" d="M82 653v123q0 10 12 6q106 -59 221 -59q71 0 107.5 27.5t36.5 66.5q0 49 -38.5 71.5t-123.5 22.5h-74q-8 0 -8 11v104q0 10 10 10h74q131 0 131 88q0 41 -34.5 67t-102.5 26q-99 0 -189 -50q-12 -5 -12 7v112q0 9 6 12q107 60 236 60q126 0 196 -56t70 -141 q0 -120 -127 -166v-2q73 -17 119.5 -61t46.5 -117q0 -114 -88 -172.5t-227 -58.5q-138 0 -232 51q-10 5 -10 18zM384.5 -18.5q-2.5 4.5 0.5 10.5l727 1358q5 8 14 8h150q4 0 5.5 -3.5t-1.5 -6.5l-725 -1358q-7 -13 -16 -13h-146q-6 0 -8.5 4.5zM889 190v76q0 10 6 19 q27 34 168 221t178 233q11 11 21 11h124q15 0 15 -13v-440h123q9 0 6 -8l-14 -99q-3 -10 -13 -10h-102v-170q0 -12 -12 -12h-150q-12 0 -12 12v170h-328q-10 0 -10 10zM1036 297h191q0 151 6 274h-4q-52 -82 -193 -274z" />
<glyph unicode="&#xbf;" horiz-adv-x="856" d="M74 -94q0 62 29.5 123t72 107.5t85 88t72 81t29.5 71.5q0 52 -36 108q-3 6 0 11.5t10 5.5h180q15 0 25 -10q53 -59 53 -140q0 -45 -27.5 -90.5t-67 -84.5l-79 -78t-67 -84.5t-27.5 -90.5q0 -63 50.5 -106t141.5 -43q128 0 246 51q6 3 11 0.5t5 -8.5v-162q0 -17 -8 -21 q-129 -63 -307 -63q-177 0 -284 92.5t-107 241.5zM295 807q0 65 38 104t105 39q64 0 104 -38.5t40 -104.5q0 -64 -40 -102.5t-104 -38.5t-103.5 39.5t-39.5 101.5z" />
<glyph unicode="&#xc0;" horiz-adv-x="1347" d="M59 20q284 802 428 1190q13 44 17 113q0 12 12 12h283q11 0 16 -10q50 -138 146.5 -407t177 -490.5t149.5 -409.5q6 -18 -12 -18h-229q-13 0 -19 12l-131 361h-469l-125 -357q-3 -16 -20 -16h-209q-21 0 -15 20zM291.5 1678q2.5 5 11.5 5h250q19 0 25 -10l219 -233 q5 -9 2 -14t-11 -5h-200q-18 0 -31 13l-262 233q-6 6 -3.5 11zM481 573h361q-19 62 -90 271.5t-93 285.5h-2q-14 -60 -42 -150t-72 -220.5t-62 -186.5z" />
<glyph unicode="&#xc1;" horiz-adv-x="1347" d="M59 20q284 802 428 1190q13 44 17 113q0 12 12 12h283q11 0 16 -10q50 -138 146.5 -407t177 -490.5t149.5 -409.5q6 -18 -12 -18h-229q-13 0 -19 12l-131 361h-469l-125 -357q-3 -16 -20 -16h-209q-21 0 -15 20zM481 573h361q-19 62 -90 271.5t-93 285.5h-2 q-14 -60 -42 -150t-72 -220.5t-62 -186.5zM517.5 1429.5q-2.5 6.5 0.5 10.5l221 237q7 9 23 9h246q7 0 8.5 -6t-2.5 -11l-254 -231q-15 -15 -29 -15h-205q-6 0 -8.5 6.5z" />
<glyph unicode="&#xc2;" horiz-adv-x="1347" d="M59 20q284 802 428 1190q13 44 17 113q0 12 12 12h283q11 0 16 -10q50 -138 146.5 -407t177 -490.5t149.5 -409.5q6 -18 -12 -18h-229q-13 0 -19 12l-131 361h-469l-125 -357q-3 -16 -20 -16h-209q-21 0 -15 20zM318 1425.5q-2 6.5 4 10.5l229 237q8 8 20 8h185 q14 0 24 -10l238 -239q5 -4 2 -8.5t-10 -4.5h-197q-14 0 -25 11l-129 133l-129 -133q-8 -11 -20 -11h-184q-6 0 -8 6.5zM481 573h361q-19 62 -90 271.5t-93 285.5h-2q-14 -60 -42 -150t-72 -220.5t-62 -186.5z" />
<glyph unicode="&#xc3;" horiz-adv-x="1347" d="M59 20q284 802 428 1190q13 44 17 113q0 12 12 12h283q11 0 16 -10q50 -138 146.5 -407t177 -490.5t149.5 -409.5q6 -18 -12 -18h-229q-13 0 -19 12l-131 361h-469l-125 -357q-3 -16 -20 -16h-209q-21 0 -15 20zM317 1446q1 126 60.5 192t148.5 66q44 0 87 -16t70 -35 t57 -35t53 -16q52 0 59 84q0 12 12 12h135q15 0 15 -12q-8 -254 -199 -254q-42 0 -83.5 15.5t-68 34.5t-58 34.5t-56.5 15.5t-43.5 -22.5t-22.5 -63.5q0 -12 -12 -12h-137q-14 0 -17 12zM481 573h361q-19 62 -90 271.5t-93 285.5h-2q-14 -60 -42 -150t-72 -220.5t-62 -186.5 z" />
<glyph unicode="&#xc4;" horiz-adv-x="1347" d="M59 20q284 802 428 1190q13 44 17 113q0 12 12 12h283q11 0 16 -10q50 -138 146.5 -407t177 -490.5t149.5 -409.5q6 -18 -12 -18h-229q-13 0 -19 12l-131 361h-469l-125 -357q-3 -16 -20 -16h-209q-21 0 -15 20zM317 1554q0 54 38 88.5t98 34.5q58 0 93.5 -35t35.5 -88 q0 -55 -37 -87.5t-96 -32.5q-60 0 -96 32.5t-36 87.5zM481 573h361q-19 62 -90 271.5t-93 285.5h-2q-14 -60 -42 -150t-72 -220.5t-62 -186.5zM743 1554q0 54 38.5 88.5t95.5 34.5q58 0 94.5 -34.5t36.5 -88.5q0 -55 -37 -87.5t-99 -32.5q-58 0 -93.5 32.5t-35.5 87.5z" />
<glyph unicode="&#xc5;" horiz-adv-x="1347" d="M59 20q284 802 428 1190q13 44 17 113q0 12 12 12h283q11 0 16 -10q50 -138 146.5 -407t177 -490.5t149.5 -409.5q6 -18 -12 -18h-229q-13 0 -19 12l-131 361h-469l-125 -357q-3 -16 -20 -16h-209q-21 0 -15 20zM438 1561q0 85 62 134.5t159 49.5q99 0 161.5 -50.5 t62.5 -133.5q0 -87 -62.5 -138t-161.5 -51t-160 50.5t-61 138.5zM481 573h361q-19 62 -90 271.5t-93 285.5h-2q-14 -60 -42 -150t-72 -220.5t-62 -186.5zM569 1561q0 -38 25 -61t65 -23q42 0 67.5 23t25.5 61q0 37 -26 59t-67 22q-40 0 -65 -22t-25 -59z" />
<glyph unicode="&#xc6;" horiz-adv-x="1777" d="M59 18l535 1201q21 62 31 106q3 10 14 10h928q14 0 16 -12l23 -174q0 -12 -15 -12h-551l45 -375h494q12 0 12 -12v-175q0 -12 -12 -12h-463l43 -364h543q12 0 12 -15l-31 -172q-2 -12 -16 -12h-717q-10 0 -10 8l-51 404h-397l-173 -400q-6 -12 -18 -12h-229q-19 0 -13 18 zM567 610h297l-43 334q-3 28 -12 106t-12 115h-4q-64 -171 -80 -211z" />
<glyph unicode="&#xc7;" horiz-adv-x="1230" d="M109 666q0 144 51.5 271t144 220t228.5 147t298 54q197 0 285 -45q10 -5 10 -21v-186q0 -17 -14 -12q-120 51 -274 51q-214 0 -345 -127.5t-131 -345.5q0 -107 29.5 -191t76.5 -135.5t110.5 -85t125.5 -46.5t127 -13q164 0 295 55q6 3 10.5 0t4.5 -12v-178q0 -20 -15 -25 q-99 -52 -288 -61l-47 -64q88 -25 131 -71.5t43 -120.5q0 -88 -67.5 -142.5t-176.5 -54.5q-89 0 -152 29q-10 2 -10 16v104q0 15 12 9q66 -27 134 -27q88 0 88 61q0 72 -193 99q-5 5 -5.5 25t5.5 26l90 117q-95 11 -179 41.5t-158.5 86t-128 132t-84.5 184t-31 236.5z" />
<glyph unicode="&#xc8;" horiz-adv-x="1101" d="M156 18v1301q0 16 16 16h789q16 0 18 -12l20 -168q4 -18 -12 -18h-584v-355h527q14 0 14 -14v-172q0 -14 -16 -14h-525v-383h619q15 0 12 -17l-28 -166q-2 -16 -21 -16h-813q-10 0 -13 3.5t-3 14.5zM215.5 1694.5q2.5 5.5 11.5 5.5h250q19 0 25 -10l219 -234 q12 -18 -8 -18h-201q-19 0 -31 12l-262 233q-6 6 -3.5 11.5z" />
<glyph unicode="&#xc9;" horiz-adv-x="1101" d="M156 18v1301q0 16 16 16h789q16 0 18 -12l20 -168q4 -18 -12 -18h-584v-355h527q14 0 14 -14v-172q0 -14 -16 -14h-525v-383h619q15 0 12 -17l-28 -166q-2 -16 -21 -16h-813q-10 0 -13 3.5t-3 14.5zM428 1439q-3 5 2 9l219 238q8 10 25 10h244q8 0 10 -6t-2 -11 l-256 -233q-12 -12 -29 -12h-203q-7 0 -10 5z" />
<glyph unicode="&#xca;" horiz-adv-x="1101" d="M156 18v1301q0 16 16 16h789q16 0 18 -12l20 -168q4 -18 -12 -18h-584v-355h527q14 0 14 -14v-172q0 -14 -16 -14h-525v-383h619q15 0 12 -17l-28 -166q-2 -16 -21 -16h-813q-10 0 -13 3.5t-3 14.5zM217 1440q-2 6 4 10l230 240q9 6 20 6h184q20 0 25 -8l238 -242 q4 -4 1.5 -8t-10.5 -4h-196q-15 0 -25 10l-129 133l-127 -131q-12 -12 -22 -12h-185q-6 0 -8 6z" />
<glyph unicode="&#xcb;" horiz-adv-x="1101" d="M156 18v1301q0 16 16 16h789q16 0 18 -12l20 -168q4 -18 -12 -18h-584v-355h527q14 0 14 -14v-172q0 -14 -16 -14h-525v-383h619q15 0 12 -17l-28 -166q-2 -16 -21 -16h-813q-10 0 -13 3.5t-3 14.5zM219 1565q0 54 38 88.5t97 34.5t95 -35t36 -88q0 -55 -37.5 -88 t-97.5 -33q-59 0 -95 33t-36 88zM645 1565q0 54 38.5 88.5t96.5 34.5t94.5 -34.5t36.5 -88.5q0 -56 -37 -88.5t-98 -32.5q-58 0 -94.5 33t-36.5 88z" />
<glyph unicode="&#xcc;" horiz-adv-x="559" d="M-92 1693.5q2 6.5 10 6.5h252q18 0 25 -10l219 -236q5 -8 2.5 -12t-10.5 -4h-203q-17 0 -29 10l-262 233q-6 6 -4 12.5zM156 18v1303q0 14 16 14h215q9 0 12.5 -2.5t3.5 -11.5v-1303q0 -18 -18 -18h-213q-16 0 -16 18z" />
<glyph unicode="&#xcd;" horiz-adv-x="559" d="M141.5 1430.5q-3.5 5.5 1.5 9.5l219 237q9 11 25 11h244q7 0 9 -6t-3 -11l-254 -233q-16 -13 -29 -13h-202q-7 0 -10.5 5.5zM156 18v1303q0 14 16 14h215q9 0 12.5 -2.5t3.5 -11.5v-1303q0 -18 -18 -18h-213q-16 0 -16 18z" />
<glyph unicode="&#xce;" horiz-adv-x="559" d="M-71 1430.5q-2 7.5 3 11.5l230 237q9 9 20 9h185q17 0 24 -11l238 -239q5 -4 2 -9.5t-10 -5.5h-197q-12 0 -25 13l-129 133l-127 -133q-13 -13 -22 -13h-184q-6 0 -8 7.5zM156 18v1303q0 14 16 14h215q9 0 12.5 -2.5t3.5 -11.5v-1303q0 -18 -18 -18h-213q-16 0 -16 18z " />
<glyph unicode="&#xcf;" horiz-adv-x="559" d="M-68 1563q0 54 39 88.5t99 34.5q58 0 93.5 -35t35.5 -88q0 -55 -37.5 -88t-98.5 -33q-59 0 -95 33t-36 88zM156 18v1303q0 14 16 14h215q9 0 12.5 -2.5t3.5 -11.5v-1303q0 -18 -18 -18h-213q-16 0 -16 18zM358 1563q0 53 39 88t97 35t94.5 -34.5t36.5 -88.5 q0 -56 -37 -88.5t-99 -32.5q-58 0 -94.5 32.5t-36.5 88.5z" />
<glyph unicode="&#xd0;" horiz-adv-x="1406" d="M41 610v150q0 10 12 10h123v553q0 12 10 12q144 6 394 6q343 0 529.5 -174t186.5 -481q0 -123 -27.5 -225t-72.5 -172t-108.5 -124t-129.5 -86t-142 -51.5t-139.5 -26.5t-127.5 -7q-175 0 -356 6q-17 0 -17 18v578h-123q-12 0 -12 14zM424 195q4 0 47 -2.5t82 -2.5 q226 0 357.5 121t131.5 369q0 234 -124 349.5t-338 115.5q-110 0 -156 -4v-371h278h6.5t3.5 -1.5t2.5 -3.5t0.5 -7v-150q0 -12 -13 -12h-278v-401z" />
<glyph unicode="&#xd1;" horiz-adv-x="1400" d="M156 18v1305q0 12 14 12h276q18 0 25 -12q502 -916 543 -1012h4q-6 165 -6 344v666q0 14 16 14h199q16 0 16 -16v-1301q0 -10 -3.5 -14t-14.5 -4h-269q-15 0 -26 14q-55 120 -282 544t-267 519h-2q8 -104 8 -403v-658q0 -16 -14 -16h-199q-10 0 -14 3.5t-4 14.5z M365 1462q0 126 58.5 192t147.5 66q44 0 87 -16t70 -36t57 -36t53 -16q52 0 59 86q0 12 12 12h135q15 0 15 -12q-8 -256 -199 -256q-53 0 -103 25t-91 50t-72 25q-25 0 -43.5 -22t-22.5 -64q0 -10 -12 -10h-137q-14 0 -14 12z" />
<glyph unicode="&#xd2;" horiz-adv-x="1482" d="M106 672q0 203 81 359.5t225.5 241.5t330.5 85q189 0 334 -92t220.5 -246t76.5 -344q0 -323 -175 -509.5t-458 -186.5q-293 0 -464 188t-171 504zM362 670q0 -218 103.5 -351t284.5 -133q173 0 271.5 129.5t98.5 354.5q0 218 -103.5 350.5t-277.5 132.5q-167 0 -272 -128 t-105 -355zM377 1705q3 5 10 5h250q19 0 27 -10l217 -234q12 -18 -9 -18h-200q-17 0 -29 12l-264 234q-5 6 -2 11z" />
<glyph unicode="&#xd3;" horiz-adv-x="1482" d="M106 672q0 203 81 359.5t225.5 241.5t330.5 85q189 0 334 -92t220.5 -246t76.5 -344q0 -323 -175 -509.5t-458 -186.5q-293 0 -464 188t-171 504zM362 670q0 -218 103.5 -351t284.5 -133q173 0 271.5 129.5t98.5 354.5q0 218 -103.5 350.5t-277.5 132.5q-167 0 -272 -128 t-105 -355zM589.5 1449q-2.5 5 0.5 9l221 240q6 8 23 8h245q7 0 8.5 -6t-2.5 -10l-254 -234q-15 -12 -28 -12h-205q-6 0 -8.5 5z" />
<glyph unicode="&#xd4;" horiz-adv-x="1482" d="M106 672q0 203 81 359.5t225.5 241.5t330.5 85q189 0 334 -92t220.5 -246t76.5 -344q0 -323 -175 -509.5t-458 -186.5q-293 0 -464 188t-171 504zM362 670q0 -218 103.5 -351t284.5 -133q173 0 271.5 129.5t98.5 354.5q0 218 -103.5 350.5t-277.5 132.5q-167 0 -272 -128 t-105 -355zM390 1448q-2 6 3 10l230 238q8 8 20 8h184q18 0 25 -10l240 -240q3 -4 0 -8t-9 -4h-198q-15 0 -25 10l-129 133l-127 -133q-10 -10 -22 -10h-183q-7 0 -9 6z" />
<glyph unicode="&#xd5;" horiz-adv-x="1482" d="M106 672q0 203 81 359.5t225.5 241.5t330.5 85q189 0 334 -92t220.5 -246t76.5 -344q0 -323 -175 -509.5t-458 -186.5q-293 0 -464 188t-171 504zM362 670q0 -218 103.5 -351t284.5 -133q173 0 271.5 129.5t98.5 354.5q0 218 -103.5 350.5t-277.5 132.5q-167 0 -272 -128 t-105 -355zM395 1464q0 126 59 192t148 66q44 0 86.5 -16t69.5 -36t57 -36t53 -16q53 0 60 86q0 12 12 12h135q15 0 15 -12q-8 -256 -199 -256q-42 0 -83.5 15.5t-68 34.5t-58 34.5t-56.5 15.5t-43.5 -22t-22.5 -64q0 -10 -12 -10h-137q-15 0 -15 12z" />
<glyph unicode="&#xd6;" horiz-adv-x="1482" d="M106 672q0 203 81 359.5t225.5 241.5t330.5 85q189 0 334 -92t220.5 -246t76.5 -344q0 -323 -175 -509.5t-458 -186.5q-293 0 -464 188t-171 504zM362 670q0 -218 103.5 -351t284.5 -133q173 0 271.5 129.5t98.5 354.5q0 218 -103.5 350.5t-277.5 132.5q-167 0 -272 -128 t-105 -355zM395 1569q0 55 37.5 89t97.5 34q58 0 93.5 -34.5t35.5 -88.5t-36.5 -86.5t-96.5 -32.5q-59 0 -95 32.5t-36 86.5zM821 1569q0 55 38 89t97 34q57 0 93 -34.5t36 -88.5q0 -55 -36.5 -87t-98.5 -32q-58 0 -93.5 32t-35.5 87z" />
<glyph unicode="&#xd7;" horiz-adv-x="1140" d="M82 127q-10 11 2 23l371 376l-373 381q-9 9 2 23l94 96q11 11 25 0l368 -385l371 385q14 11 25 0l92 -98q10 -13 0 -23l-373 -379l375 -381q4 -2 5 -8t-5 -14l-96 -96q-12 -9 -25 4l-369 379l-370 -381q-8 -8 -12 -7.5t-9 5.5z" />
<glyph unicode="&#xd8;" horiz-adv-x="1482" d="M109 670q-1 203 79.5 360t225.5 242.5t331 85.5q179 0 312 -82l37 51q5 8 16 8h145q17 0 11 -12l-90 -135q93 -87 145.5 -219.5t52.5 -292.5q1 -318 -171 -507t-453 -189q-200 0 -344 90l-46 -62q-3 -8 -16 -8h-145q-7 0 -9.5 5t0.5 9l101 142q-182 192 -182 514z M360 672q0 -189 82 -310l494 730q-78 63 -201 63q-78 0 -144.5 -30t-118.5 -88t-82 -152t-30 -213zM543 248q89 -68 211 -68q176 1 273 132.5t97 359.5q0 101 -25 182t-67 129z" />
<glyph unicode="&#xd9;" horiz-adv-x="1388" d="M156 487v832q0 9 3 12.5t13 3.5h215q9 0 12.5 -2.5t3.5 -11.5v-829q0 -145 75 -226.5t220 -81.5q59 0 107.5 15t90.5 49t65.5 98t23.5 154v819q0 16 16 16h213q19 0 19 -16v-821q0 -137 -42 -239t-117 -162t-170 -88.5t-210 -28.5q-248 0 -393 128t-145 379zM348 1680.5 q3 5.5 10 5.5h250q18 0 27 -11l217 -233q13 -19 -8 -19h-201q-18 0 -29 11l-264 235q-5 6 -2 11.5z" />
<glyph unicode="&#xda;" horiz-adv-x="1388" d="M156 487v832q0 9 3 12.5t13 3.5h215q9 0 12.5 -2.5t3.5 -11.5v-829q0 -145 75 -226.5t220 -81.5q59 0 107.5 15t90.5 49t65.5 98t23.5 154v819q0 16 16 16h213q19 0 19 -16v-821q0 -137 -42 -239t-117 -162t-170 -88.5t-210 -28.5q-248 0 -393 128t-145 379z M558.5 1426.5q-2.5 5.5 0.5 9.5l221 237q6 10 23 10h246q7 0 8.5 -5.5t-2.5 -10.5l-256 -233q-13 -13 -29 -13h-203q-6 0 -8.5 5.5z" />
<glyph unicode="&#xdb;" horiz-adv-x="1388" d="M156 487v832q0 9 3 12.5t13 3.5h215q9 0 12.5 -2.5t3.5 -11.5v-829q0 -145 75 -226.5t220 -81.5q59 0 107.5 15t90.5 49t65.5 98t23.5 154v819q0 16 16 16h213q19 0 19 -16v-821q0 -137 -42 -239t-117 -162t-170 -88.5t-210 -28.5q-248 0 -393 128t-145 379zM349 1431.5 q-2 6.5 3 10.5l230 237q9 9 20 9h184q20 0 25 -11l238 -239q4 -4 1.5 -8.5t-8.5 -4.5h-198q-14 0 -25 11l-129 133l-127 -131q-10 -13 -22 -13h-183q-7 0 -9 6.5z" />
<glyph unicode="&#xdc;" horiz-adv-x="1388" d="M156 487v832q0 9 3 12.5t13 3.5h215q9 0 12.5 -2.5t3.5 -11.5v-829q0 -145 75 -226.5t220 -81.5q59 0 107.5 15t90.5 49t65.5 98t23.5 154v819q0 16 16 16h213q19 0 19 -16v-821q0 -137 -42 -239t-117 -162t-170 -88.5t-210 -28.5q-248 0 -393 128t-145 379zM346 1563 q0 54 38.5 88.5t98.5 34.5q58 0 93.5 -35t35.5 -90q0 -54 -37 -86.5t-96 -32.5q-60 0 -96.5 33t-36.5 88zM772 1561q0 55 38.5 90t96.5 35t94.5 -35.5t36.5 -89.5q0 -55 -36.5 -87t-98.5 -32q-58 0 -94.5 32t-36.5 87z" />
<glyph unicode="&#xdd;" horiz-adv-x="1222" d="M31 1317q-10 18 12 18h248q13 0 18 -10q259 -507 316 -631q74 162 305 631q2 10 16 10h238q15 0 8 -14l-442 -791q-17 -28 -17 -63v-449q0 -10 -3.5 -14t-14.5 -4h-211q-19 0 -19 18v459q0 33 -14 60zM475 1429.5q-3 6.5 2 10.5l221 237q7 9 23 9h246q7 0 8.5 -6 t-2.5 -11l-256 -231q-12 -15 -29 -15h-203q-7 0 -10 6.5z" />
<glyph unicode="&#xde;" horiz-adv-x="1167" d="M154 14v1311q0 10 12 10h219q16 0 16 -12v-238q77 5 168 5q150 0 260.5 -43.5t175 -137.5t64.5 -231q0 -112 -42 -196.5t-117 -134t-170 -73.5t-210 -24q-24 0 -71.5 1t-57.5 1v-236q0 -16 -14 -16h-219q-14 0 -14 14zM401 449q72 -5 131 -5q147 0 220 60t73 168 q0 107 -69.5 166t-212.5 59q-88 0 -142 -4v-444z" />
<glyph unicode="&#xdf;" horiz-adv-x="1224" d="M18 831v150q0 14 11 14h125q7 221 142 348t359 127q97 0 175.5 -25.5t127 -65.5t81.5 -92t46 -102.5t13 -99.5q0 -74 -15 -104q-40 -40 -122.5 -103t-133.5 -96q11 -9 60.5 -44.5t93.5 -69.5q112 -87 151 -162t39 -174q0 -152 -108.5 -252t-288.5 -100q-174 0 -260 55 q-14 9 -14 33v178q0 7 5 9t9 -1q121 -72 260 -72q71 0 113.5 38.5t42.5 94.5q0 49 -25.5 88.5t-97.5 96.5q-105 83 -211 145q-6 6 -6 14v166q0 5 4 13q64 42 144.5 104t117.5 100q4 20 4 50q0 78 -55.5 138t-155.5 60q-248 0 -248 -321v-953q0 -16 -12 -16h-221 q-14 0 -14 16v795l-125 4q-11 0 -11 16z" />
<glyph unicode="&#xe0;" horiz-adv-x="1038" d="M63 307q0 350 601 326v33q0 20 -7.5 42t-27.5 48t-64 42.5t-106 16.5q-147 0 -281 -67q-16 -4 -16 12v160q0 15 12 20q69 34 158 55t174 21q196 0 296.5 -108t100.5 -287v-406q0 -63 6 -127q0 -8 -6 -10q-206 -98 -428 -98q-87 0 -160.5 19t-130.5 57.5t-89 102.5 t-32 148zM234 1426q2 6 8 6h237q15 0 21 -11l170 -301q4 -6 2 -11t-10 -5h-189q-12 0 -20 12l-217 297q-4 7 -2 13zM305 311q0 -64 51.5 -105.5t157.5 -41.5q94 0 150 20v285q-133 6 -213.5 -12t-113 -53.5t-32.5 -92.5z" />
<glyph unicode="&#xe1;" horiz-adv-x="1038" d="M63 307q0 350 601 326v33q0 20 -7.5 42t-27.5 48t-64 42.5t-106 16.5q-147 0 -281 -67q-16 -4 -16 12v160q0 15 12 20q69 34 158 55t174 21q196 0 296.5 -108t100.5 -287v-406q0 -63 6 -127q0 -8 -6 -10q-206 -98 -428 -98q-87 0 -160.5 19t-130.5 57.5t-89 102.5 t-32 148zM305 311q0 -64 51.5 -105.5t157.5 -41.5q94 0 150 20v285q-133 6 -213.5 -12t-113 -53.5t-32.5 -92.5zM397 1108q-3 4 0 10l158 297q9 17 25 17h233q19 0 10 -19l-202 -299q-10 -10 -29 -10h-186q-6 0 -9 4z" />
<glyph unicode="&#xe2;" horiz-adv-x="1038" d="M63 307q0 350 601 326v33q0 20 -7.5 42t-27.5 48t-64 42.5t-106 16.5q-147 0 -281 -67q-16 -4 -16 12v160q0 15 12 20q69 34 158 55t174 21q196 0 296.5 -108t100.5 -287v-406q0 -63 6 -127q0 -8 -6 -10q-206 -98 -428 -98q-87 0 -160.5 19t-130.5 57.5t-89 102.5 t-32 148zM200 1104q-2 6 3 10l205 303q8 8 18 8h182q14 0 19 -10l211 -303q5 -4 1.5 -9t-10.5 -5h-170q-12 0 -20 8q-74 112 -127 199q-86 -139 -129 -199q-5 -8 -18 -8h-156q-7 0 -9 6zM305 311q0 -64 51.5 -105.5t157.5 -41.5q94 0 150 20v285q-133 6 -213.5 -12 t-113 -53.5t-32.5 -92.5z" />
<glyph unicode="&#xe3;" horiz-adv-x="1038" d="M63 307q0 350 601 326v33q0 20 -7.5 42t-27.5 48t-64 42.5t-106 16.5q-147 0 -281 -67q-16 -4 -16 12v160q0 15 12 20q69 34 158 55t174 21q196 0 296.5 -108t100.5 -287v-406q0 -63 6 -127q0 -8 -6 -10q-206 -98 -428 -98q-87 0 -160.5 19t-130.5 57.5t-89 102.5 t-32 148zM164 1151q0 131 59.5 198.5t151.5 67.5q43 0 88 -16t76 -35t63.5 -35t52.5 -16q32 0 46.5 22.5t17.5 65.5q0 12 12 12h135q15 0 15 -12q-5 -270 -203 -270q-50 0 -103 25t-99.5 50t-78.5 25q-65 0 -71 -86q0 -2 -4 -6t-9 -4h-135q-14 0 -14 14zM305 311 q0 -64 51.5 -105.5t157.5 -41.5q94 0 150 20v285q-133 6 -213.5 -12t-113 -53.5t-32.5 -92.5z" />
<glyph unicode="&#xe4;" horiz-adv-x="1038" d="M63 307q0 350 601 326v33q0 20 -7.5 42t-27.5 48t-64 42.5t-106 16.5q-147 0 -281 -67q-16 -4 -16 12v160q0 15 12 20q69 34 158 55t174 21q196 0 296.5 -108t100.5 -287v-406q0 -63 6 -127q0 -8 -6 -10q-206 -98 -428 -98q-87 0 -160.5 19t-130.5 57.5t-89 102.5 t-32 148zM197 1257q0 56 36 91.5t91 35.5q53 0 86.5 -35t33.5 -92t-35 -90.5t-90 -33.5t-88.5 33.5t-33.5 90.5zM305 311q0 -64 51.5 -105.5t157.5 -41.5q94 0 150 20v285q-133 6 -213.5 -12t-113 -53.5t-32.5 -92.5zM596 1257q0 56 36 91.5t89 35.5q55 0 88 -35t33 -92 q0 -56 -34 -90t-89 -34t-89 33t-34 91z" />
<glyph unicode="&#xe5;" horiz-adv-x="1038" d="M63 307q0 350 601 326v33q0 20 -7.5 42t-27.5 48t-64 42.5t-106 16.5q-147 0 -281 -67q-16 -4 -16 12v160q0 15 12 20q69 34 158 55t174 21q196 0 296.5 -108t100.5 -287v-406q0 -63 6 -127q0 -8 -6 -10q-206 -98 -428 -98q-87 0 -160.5 19t-130.5 57.5t-89 102.5 t-32 148zM299 1280q0 87 61 142t160 55q98 0 159.5 -55t61.5 -142q0 -90 -61 -144.5t-160 -54.5q-101 0 -161 53t-60 146zM305 311q0 -64 51.5 -105.5t157.5 -41.5q94 0 150 20v285q-133 6 -213.5 -12t-113 -53.5t-32.5 -92.5zM426 1280q0 -41 26.5 -65.5t67.5 -24.5 q40 0 67 24.5t27 65.5q0 40 -27.5 65t-66.5 25q-41 0 -67.5 -24.5t-26.5 -65.5z" />
<glyph unicode="&#xe6;" horiz-adv-x="1638" d="M59 303q0 78 37 137t103.5 94.5t151 52.5t186.5 17h129v49q0 28 -8 52.5t-29 52.5t-68 44.5t-115 16.5q-135 0 -272 -61q-16 -5 -16 12v156q0 13 10 16q157 74 324 74q120 0 198.5 -40.5t112.5 -109.5q122 150 334 150q90 0 164 -26.5t121 -69.5t79.5 -99.5t46 -113.5 t13.5 -115q0 -130 -21 -137q-56 -15 -217 -15h-430q3 -114 84.5 -186t239.5 -72q133 0 258 51q14 7 14 -8v-162q0 -15 -12 -22q-117 -61 -322 -61q-221 0 -340 122q-89 -67 -178.5 -94.5t-194.5 -27.5q-70 0 -134.5 17.5t-122 53.5t-92 101t-34.5 151zM303 305 q0 -65 48.5 -102t137.5 -37q123 0 222 76q-44 87 -47 209h-127q-106 0 -170 -37t-64 -109zM895 600h360q55 0 63.5 6t8.5 45q0 26 -10 56t-31.5 61t-63.5 51.5t-98 20.5q-94 0 -158 -65.5t-71 -174.5z" />
<glyph unicode="&#xe7;" horiz-adv-x="915" d="M88 494q0 229 149.5 375.5t389.5 146.5q131 0 207 -37q10 -5 10 -21l-2 -165q0 -19 -15 -11q-82 37 -184 37q-138 0 -219.5 -87t-81.5 -232q0 -82 24.5 -145t66.5 -99.5t93.5 -55t110.5 -18.5q107 0 190 37q15 3 15 -10v-166q0 -13 -11 -18q-82 -40 -196 -43l-47 -66 q90 -25 133 -71.5t43 -120.5q0 -85 -69 -141t-177 -56q-91 0 -147 29q-13 5 -13 22v96q0 17 15 11q66 -27 131 -27q86 0 86 61q0 73 -191 99q-5 5 -5.5 25t3.5 26l92 117q-195 30 -298 168t-103 340z" />
<glyph unicode="&#xe8;" horiz-adv-x="1067" d="M86 492q0 148 55 265.5t166 188t260 70.5q108 0 192 -38.5t132.5 -101t73 -134t24.5 -146.5q0 -122 -18 -135q-30 -12 -215 -12h-418q3 -122 80 -194.5t227 -72.5q141 0 256 51q12 4 12 -10v-164q0 -16 -12 -22q-105 -54 -307 -57q-108 0 -195.5 28.5t-145 77t-96 115 t-55 139t-16.5 152.5zM252 1426q2 6 8 6h238q12 0 20 -11l170 -301q4 -6 2 -11t-10 -5h-191q-10 0 -18 12l-217 297q-4 7 -2 13zM338 606h328q86 0 90 17v22q0 26 -9.5 56.5t-30 63t-62 54t-97.5 21.5q-95 0 -150.5 -65t-68.5 -169z" />
<glyph unicode="&#xe9;" horiz-adv-x="1067" d="M86 492q0 148 55 265.5t166 188t260 70.5q108 0 192 -38.5t132.5 -101t73 -134t24.5 -146.5q0 -122 -18 -135q-30 -12 -215 -12h-418q3 -122 80 -194.5t227 -72.5q141 0 256 51q12 4 12 -10v-164q0 -16 -12 -22q-105 -54 -307 -57q-108 0 -195.5 28.5t-145 77t-96 115 t-55 139t-16.5 152.5zM338 606h328q86 0 90 17v22q0 26 -9.5 56.5t-30 63t-62 54t-97.5 21.5q-95 0 -150.5 -65t-68.5 -169zM428 1118l158 297q8 17 24 17h234q20 0 10 -19l-203 -299q-10 -10 -28 -10h-187q-15 0 -8 14z" />
<glyph unicode="&#xea;" horiz-adv-x="1067" d="M86 492q0 148 55 265.5t166 188t260 70.5q108 0 192 -38.5t132.5 -101t73 -134t24.5 -146.5q0 -122 -18 -135q-30 -12 -215 -12h-418q3 -122 80 -194.5t227 -72.5q141 0 256 51q12 4 12 -10v-164q0 -16 -12 -22q-105 -54 -307 -57q-108 0 -195.5 28.5t-145 77t-96 115 t-55 139t-16.5 152.5zM235 1104q-2 6 3 10l204 303q8 8 19 8h182q14 0 19 -10l210 -303q5 -4 2 -9t-10 -5h-170q-12 0 -20 8q-74 112 -127 199q-86 -139 -129 -199q-5 -8 -19 -8h-153q-9 0 -11 6zM338 606h328q86 0 90 17v22q0 26 -9.5 56.5t-30 63t-62 54t-97.5 21.5 q-95 0 -150.5 -65t-68.5 -169z" />
<glyph unicode="&#xeb;" horiz-adv-x="1067" d="M86 492q0 148 55 265.5t166 188t260 70.5q108 0 192 -38.5t132.5 -101t73 -134t24.5 -146.5q0 -122 -18 -135q-30 -12 -215 -12h-418q3 -122 80 -194.5t227 -72.5q141 0 256 51q12 4 12 -10v-164q0 -16 -12 -22q-105 -54 -307 -57q-108 0 -195.5 28.5t-145 77t-96 115 t-55 139t-16.5 152.5zM221 1257q0 56 36 91.5t91 35.5q53 0 87 -35t34 -92t-35 -90.5t-90 -33.5t-89 34t-34 90zM338 606h328q86 0 90 17v22q0 26 -9.5 56.5t-30 63t-62 54t-97.5 21.5q-95 0 -150.5 -65t-68.5 -169zM621 1257q0 56 35.5 91.5t88.5 35.5q55 0 88 -35t33 -92 q0 -56 -34 -90t-89 -34t-88.5 33t-33.5 91z" />
<glyph unicode="&#xec;" horiz-adv-x="518" d="M-61 1413q-8 19 8 19h237q13 0 21 -11l170 -301q8 -16 -10 -16h-189q-10 0 -18 12zM135 18v961q0 16 15 16h217q9 0 12.5 -3t3.5 -13v-963q0 -16 -16 -16h-213q-19 0 -19 18z" />
<glyph unicode="&#xed;" horiz-adv-x="518" d="M135 18v961q0 16 15 16h217q9 0 12.5 -3t3.5 -13v-963q0 -16 -16 -16h-213q-19 0 -19 18zM141 1108q-3 4 0 10l158 297q9 17 25 17h233q19 0 10 -19l-202 -299q-10 -10 -29 -10h-186q-6 0 -9 4z" />
<glyph unicode="&#xee;" horiz-adv-x="518" d="M-58 1104q-2 6 1 10l207 303q5 8 16 8h182q14 0 19 -10l213 -303q3 -5 0 -9.5t-9 -4.5h-170q-12 0 -20 8q-19 29 -68 105t-61 94q-65 -112 -127 -199q-5 -8 -19 -8h-155q-7 0 -9 6zM135 18v961q0 16 15 16h217q9 0 12.5 -3t3.5 -13v-963q0 -16 -16 -16h-213q-19 0 -19 18 z" />
<glyph unicode="&#xef;" horiz-adv-x="518" d="M-63 1257q0 56 35.5 91.5t90.5 35.5q53 0 87 -35t34 -92t-35 -90.5t-90 -33.5t-88.5 33.5t-33.5 90.5zM135 18v961q0 16 15 16h217q9 0 12.5 -3t3.5 -13v-963q0 -16 -16 -16h-213q-19 0 -19 18zM336 1257q0 56 36 91.5t89 35.5q55 0 88 -35t33 -92q0 -56 -34 -90t-89 -34 t-89 33t-34 91z" />
<glyph unicode="&#xf0;" horiz-adv-x="1181" d="M88 469q0 216 140 348.5t362 132.5q111 0 172 -45q-52 134 -162 209l-289 -149q-4 -3 -9 0t-5 8v100q0 11 12 17l174 90q-88 55 -272 92q-16 0 -16 18v164q0 16 14 16q27 0 59 -4q254 -43 439 -161l243 133q11 3 11 -6v-107q0 -13 -11 -18l-147 -80q282 -241 282 -662 q0 -281 -141 -433t-371 -152q-122 0 -217 40t-152.5 109t-86.5 155t-29 185zM340 469q0 -135 70 -217t184 -82q107 0 174.5 86.5t67.5 271.5q0 127 -37 164q-76 76 -195 76q-52 0 -97 -16t-83.5 -50t-61 -93.5t-22.5 -139.5z" />
<glyph unicode="&#xf1;" horiz-adv-x="1144" d="M125 979q0 16 14 16h187q18 0 24 -14q11 -34 15 -82q136 117 309 117q51 0 96 -11t90 -40t77.5 -74.5t52.5 -120t20 -170.5v-584q0 -16 -17 -16h-213q-18 0 -18 18v584q0 211 -176 211q-106 0 -205 -88v-709q0 -16 -16 -16h-215q-15 0 -15 18v742q0 116 -10 219z M213 1151q0 132 59 199t152 67q55 0 111 -25.5t99.5 -51t67.5 -25.5q32 0 46.5 22.5t17.5 65.5q0 12 12 12h135q15 0 15 -12q-3 -270 -203 -270q-50 0 -103 25t-99 50t-79 25q-63 0 -71 -86q0 -2 -3.5 -6t-7.5 -4h-135q-14 0 -14 14z" />
<glyph unicode="&#xf2;" horiz-adv-x="1175" d="M88 498q0 228 139 373t367 145q154 0 267.5 -69t169.5 -184.5t56 -260.5q0 -240 -137.5 -381t-361.5 -141q-103 0 -187.5 29t-141.5 78.5t-96.5 116.5t-57 141t-17.5 153zM289 1426q2 6 8 6h238q12 0 20 -11l170 -301q5 -6 2 -11t-10 -5h-191q-10 0 -18 12l-217 297 q-4 7 -2 13zM340 502q0 -156 66.5 -248t187.5 -92q104 0 173 82t69 250q0 155 -63 247.5t-191 92.5q-108 0 -175 -89.5t-67 -242.5z" />
<glyph unicode="&#xf3;" horiz-adv-x="1175" d="M88 498q0 228 139 373t367 145q154 0 267.5 -69t169.5 -184.5t56 -260.5q0 -240 -137.5 -381t-361.5 -141q-103 0 -187.5 29t-141.5 78.5t-96.5 116.5t-57 141t-17.5 153zM340 502q0 -156 66.5 -248t187.5 -92q104 0 173 82t69 250q0 155 -63 247.5t-191 92.5 q-108 0 -175 -89.5t-67 -242.5zM453 1118l157 297q8 17 25 17h233q20 0 11 -19l-203 -299q-10 -10 -29 -10h-186q-15 0 -8 14z" />
<glyph unicode="&#xf4;" horiz-adv-x="1175" d="M88 498q0 228 139 373t367 145q154 0 267.5 -69t169.5 -184.5t56 -260.5q0 -240 -137.5 -381t-361.5 -141q-103 0 -187.5 29t-141.5 78.5t-96.5 116.5t-57 141t-17.5 153zM269.5 1104q-2.5 6 0.5 10l207 303q5 8 17 8h182q12 0 20 -10l211 -303q3 -4 0.5 -9t-8.5 -5h-170 q-12 0 -20 8q-19 29 -68 105t-61 94q-65 -112 -127 -199q-5 -8 -19 -8h-155q-7 0 -9.5 6zM340 502q0 -156 66.5 -248t187.5 -92q104 0 173 82t69 250q0 155 -63 247.5t-191 92.5q-108 0 -175 -89.5t-67 -242.5z" />
<glyph unicode="&#xf5;" horiz-adv-x="1175" d="M88 498q0 228 139 373t367 145q154 0 267.5 -69t169.5 -184.5t56 -260.5q0 -240 -137.5 -381t-361.5 -141q-103 0 -187.5 29t-141.5 78.5t-96.5 116.5t-57 141t-17.5 153zM233 1151q0 132 59 199t152 67q55 0 111.5 -25.5t100 -51t67.5 -25.5q32 0 46 22.5t17 65.5 q0 12 13 12h135q14 0 14 -12q-3 -270 -203 -270q-50 0 -102.5 25t-98.5 50t-79 25q-64 0 -72 -86q0 -2 -3 -6t-7 -4h-135q-15 0 -15 14zM340 502q0 -156 66.5 -248t187.5 -92q104 0 173 82t69 250q0 155 -63 247.5t-191 92.5q-108 0 -175 -89.5t-67 -242.5z" />
<glyph unicode="&#xf6;" horiz-adv-x="1175" d="M88 498q0 228 139 373t367 145q154 0 267.5 -69t169.5 -184.5t56 -260.5q0 -240 -137.5 -381t-361.5 -141q-103 0 -187.5 29t-141.5 78.5t-96.5 116.5t-57 141t-17.5 153zM264 1257q0 56 36 91.5t91 35.5q53 0 87 -35t34 -92t-35 -90.5t-90 -33.5t-89 34t-34 90zM340 502 q0 -156 66.5 -248t187.5 -92q104 0 173 82t69 250q0 155 -63 247.5t-191 92.5q-108 0 -175 -89.5t-67 -242.5zM664 1257q0 56 35.5 91.5t88.5 35.5q55 0 88 -35t33 -92q0 -56 -34 -90t-89 -34t-88.5 33t-33.5 91z" />
<glyph unicode="&#xf7;" horiz-adv-x="1142" d="M61 467v141q0 17 15 17h989q9 0 11.5 -3t2.5 -12v-145q0 -9 -2.5 -12.5t-11.5 -3.5h-987q-17 0 -17 18zM455 176q0 56 32 89.5t84 33.5q53 0 85 -34t32 -89q0 -52 -32.5 -85.5t-86.5 -33.5q-52 0 -84 33.5t-30 85.5zM455 895q0 53 32 86t84 33t84.5 -33t32.5 -86 q0 -55 -32 -88t-87 -33q-52 0 -84 33.5t-30 87.5z" />
<glyph unicode="&#xf8;" horiz-adv-x="1185" d="M88 494q0 150 62 268.5t177.5 186t266.5 67.5q153 0 266 -70l33 41q5 8 16 8h127q8 0 10 -4t-4 -10l-86 -111q140 -134 140 -372q0 -239 -138 -378.5t-362 -139.5q-159 0 -268 69l-41 -53q-6 -8 -25 -8h-123q-7 0 -9 5t3 11l92 117q-137 149 -137 373zM332 502 q0 -119 47 -187l362 478q-61 49 -151 49q-114 0 -186 -89.5t-72 -250.5zM451 205q63 -49 149 -49q50 0 94 18t81.5 55.5t59 104t21.5 155.5q0 121 -47 191z" />
<glyph unicode="&#xf9;" horiz-adv-x="1132" d="M135 356v623q0 10 3.5 13t13.5 3h215q14 0 14 -14v-588q0 -213 172 -213q115 0 197 82v717q0 16 16 16h215q10 0 13 -3t3 -11v-756q0 -93 11 -211q3 -14 -15 -14h-190q-16 0 -21 12q-4 13 -10 74q-128 -106 -299 -106q-55 0 -102.5 11t-91.5 38t-75.5 68.5t-50 107.5 t-18.5 151zM277 1426q2 6 10 6h235q16 0 21 -11l172 -301q3 -6 0 -11t-10 -5h-189q-12 0 -20 12l-217 297q-4 7 -2 13z" />
<glyph unicode="&#xfa;" horiz-adv-x="1132" d="M135 356v623q0 10 3.5 13t13.5 3h215q14 0 14 -14v-588q0 -213 172 -213q115 0 197 82v717q0 16 16 16h215q10 0 13 -3t3 -11v-756q0 -93 11 -211q3 -14 -15 -14h-190q-16 0 -21 12q-4 13 -10 74q-128 -106 -299 -106q-55 0 -102.5 11t-91.5 38t-75.5 68.5t-50 107.5 t-18.5 151zM440 1108q-3 4 0 10l158 297q8 17 25 17h233q20 0 10 -19l-202 -299q-10 -10 -29 -10h-186q-6 0 -9 4z" />
<glyph unicode="&#xfb;" horiz-adv-x="1132" d="M135 356v623q0 10 3.5 13t13.5 3h215q14 0 14 -14v-588q0 -213 172 -213q115 0 197 82v717q0 16 16 16h215q10 0 13 -3t3 -11v-756q0 -93 11 -211q3 -14 -15 -14h-190q-16 0 -21 12q-4 13 -10 74q-128 -106 -299 -106q-55 0 -102.5 11t-91.5 38t-75.5 68.5t-50 107.5 t-18.5 151zM251 1104q-2 6 1 10l207 303q5 8 16 8h182q14 0 19 -10l213 -303q3 -4 0.5 -9t-8.5 -5h-170q-13 0 -21 8q-19 29 -68 105t-61 94q-65 -112 -127 -199q-5 -8 -18 -8h-156q-7 0 -9 6z" />
<glyph unicode="&#xfc;" horiz-adv-x="1132" d="M135 356v623q0 10 3.5 13t13.5 3h215q14 0 14 -14v-588q0 -213 172 -213q115 0 197 82v717q0 16 16 16h215q10 0 13 -3t3 -11v-756q0 -93 11 -211q3 -14 -15 -14h-190q-16 0 -21 12q-4 13 -10 74q-128 -106 -299 -106q-55 0 -102.5 11t-91.5 38t-75.5 68.5t-50 107.5 t-18.5 151zM250 1257q0 56 36 91.5t91 35.5q53 0 87 -35t34 -92t-35 -90.5t-90 -33.5t-89 34t-34 90zM649 1257q0 56 36 91.5t89 35.5q55 0 88 -35t33 -92q0 -56 -34 -90t-89 -34t-89 33t-34 91z" />
<glyph unicode="&#xfd;" horiz-adv-x="997" d="M10 979q-3 16 13 16h239q13 0 19 -14q198 -537 245 -694h2q109 289 220 694q6 14 20 14h203q18 0 14 -18q-43 -185 -137.5 -441t-198.5 -475q-86 -175 -165.5 -307.5t-131.5 -195.5q-12 -15 -33 -15h-233q-9 0 -12 6.5t4 14.5q73 87 171 235t138 234q9 23 6 35 q-38 80 -184 427t-199 484zM373 1118l157 297q8 17 25 17h233q20 0 11 -19l-203 -299q-10 -10 -29 -10h-186q-15 0 -8 14z" />
<glyph unicode="&#xfe;" horiz-adv-x="1148" d="M135 -432v1868q0 16 15 16h215q16 0 16 -16v-461q84 41 209 41q111 0 202 -41.5t148.5 -111.5t88 -159t30.5 -188q0 -161 -69.5 -284t-187 -187.5t-263.5 -64.5q-95 0 -158 26v-418q0 -15 -12 -18l-217 -21q-17 0 -17 19zM381 199q53 -31 149 -31q51 0 98 19t87.5 58 t65 107t24.5 156q0 154 -76 234.5t-199 80.5q-76 0 -149 -39v-585z" />
<glyph unicode="&#xff;" horiz-adv-x="997" d="M10 979q-3 16 13 16h239q13 0 19 -14q198 -537 245 -694h2q109 289 220 694q6 14 20 14h203q18 0 14 -18q-43 -185 -137.5 -441t-198.5 -475q-86 -175 -165.5 -307.5t-131.5 -195.5q-12 -15 -33 -15h-233q-9 0 -12 6.5t4 14.5q73 87 171 235t138 234q9 23 6 35 q-38 80 -184 427t-199 484zM176 1257q0 56 36 91.5t91 35.5q54 0 87.5 -35t33.5 -92t-34.5 -90.5t-88.5 -33.5q-56 0 -90.5 33.5t-34.5 90.5zM575 1257q0 56 36 91.5t89 35.5q55 0 89 -35t34 -92q0 -56 -35 -90t-90 -34t-89 33t-34 91z" />
<glyph unicode="&#x152;" horiz-adv-x="1939" d="M106 664q0 160 53 290t148 216t225 132t285 46q54 0 268 -13h717q11 0 15 -10l20 -174q3 -14 -12 -14h-586v-355h530q13 0 13 -14v-172q0 -14 -15 -14h-528v-383h623q12 0 10 -15l-29 -172q-2 -12 -16 -12h-737q-156 -12 -289 -12q-325 0 -510 179t-185 497zM360 670 q0 -238 124.5 -362t340.5 -124q83 0 166 9v944q-56 12 -170 12q-208 0 -334.5 -125t-126.5 -354z" />
<glyph unicode="&#x153;" horiz-adv-x="1820" d="M88 494q0 233 139 377.5t361 144.5q260 0 373 -203q59 106 154 154.5t206 48.5q108 0 191.5 -39.5t131 -103.5t71.5 -135.5t24 -145.5q0 -118 -21 -131q-34 -12 -217 -12h-414q2 -118 77 -192.5t229 -74.5q142 0 256 49q8 3 11 -0.5t3 -13.5v-151q0 -23 -10 -29 q-105 -54 -305 -57q-287 0 -392 194q-119 -194 -370 -194q-101 0 -185 29t-141 78.5t-96.5 116t-57.5 139.5t-18 151zM340 502q0 -147 67 -235.5t187 -88.5q102 0 172 78t70 233q0 154 -62.5 245t-187.5 91q-112 0 -179 -84t-67 -239zM1087 606h328q86 0 90 15v20 q0 28 -9.5 59.5t-30 64.5t-61.5 54t-97 21q-93 0 -149.5 -65.5t-70.5 -168.5z" />
<glyph unicode="&#x178;" horiz-adv-x="1222" d="M31 1317q-10 18 12 18h248q13 0 18 -10q259 -507 316 -631q74 162 305 631q2 10 16 10h238q15 0 8 -14l-442 -791q-17 -28 -17 -63v-449q0 -10 -3.5 -14t-14.5 -4h-211q-19 0 -19 18v459q0 33 -14 60zM264 1552q0 55 38.5 89t98.5 34q58 0 93.5 -34.5t35.5 -88.5 q0 -55 -37 -86.5t-96 -31.5q-60 0 -96.5 32t-36.5 86zM690 1552q0 54 38.5 88.5t96.5 34.5t94.5 -34.5t36.5 -88.5q0 -55 -36.5 -86.5t-98.5 -31.5q-58 0 -94.5 31.5t-36.5 86.5z" />
<glyph unicode="&#x2c6;" horiz-adv-x="800" d="M81 1104q-2 6 1 10l207 303q5 8 16 8h182q14 0 19 -10l213 -303q3 -4 0.5 -9t-8.5 -5h-170q-13 0 -21 8q-19 29 -68 105t-61 94q-65 -112 -127 -199q-5 -8 -18 -8h-156q-7 0 -9 6z" />
<glyph unicode="&#x2dc;" horiz-adv-x="800" d="M45 1151q0 132 59 199t152 67q55 0 111.5 -25.5t100 -51t67.5 -25.5q32 0 46 22.5t17 65.5q0 12 12 12h135q15 0 15 -12q-3 -270 -203 -270q-50 0 -103 25t-99 50t-79 25q-63 0 -71 -86q0 -2 -3 -6t-7 -4h-136q-14 0 -14 14z" />
<glyph unicode="&#x2000;" horiz-adv-x="872" />
<glyph unicode="&#x2001;" horiz-adv-x="1745" />
<glyph unicode="&#x2002;" horiz-adv-x="872" />
<glyph unicode="&#x2003;" horiz-adv-x="1745" />
<glyph unicode="&#x2004;" horiz-adv-x="581" />
<glyph unicode="&#x2005;" horiz-adv-x="436" />
<glyph unicode="&#x2006;" horiz-adv-x="290" />
<glyph unicode="&#x2007;" horiz-adv-x="290" />
<glyph unicode="&#x2008;" horiz-adv-x="218" />
<glyph unicode="&#x2009;" horiz-adv-x="349" />
<glyph unicode="&#x200a;" horiz-adv-x="96" />
<glyph unicode="&#x2010;" horiz-adv-x="724" d="M109 426v178q0 14 14 14h481q12 0 12 -14v-178q0 -14 -12 -14h-481q-14 0 -14 14z" />
<glyph unicode="&#x2011;" horiz-adv-x="724" d="M109 426v178q0 14 14 14h481q12 0 12 -14v-178q0 -14 -12 -14h-481q-14 0 -14 14z" />
<glyph unicode="&#x2012;" horiz-adv-x="724" d="M109 426v178q0 14 14 14h481q12 0 12 -14v-178q0 -14 -12 -14h-481q-14 0 -14 14z" />
<glyph unicode="&#x2013;" horiz-adv-x="1024" d="M137 440v152q0 14 15 14h722q13 0 13 -12v-154q0 -14 -15 -14h-720q-15 0 -15 14z" />
<glyph unicode="&#x2014;" horiz-adv-x="2048" d="M-6 440v152q0 14 12 14h2030q12 0 12 -14v-152q0 -14 -12 -14h-2026q-16 0 -16 14z" />
<glyph unicode="&#x2018;" horiz-adv-x="460" d="M104 1083q0 190 95 373q5 10 18 10h170q11 0 8 -14q-42 -120 -60 -201t-18 -172q0 -65 13 -137q0 -14 -11 -14h-180q-15 0 -20 16q-15 66 -15 139z" />
<glyph unicode="&#x2019;" horiz-adv-x="464" d="M80 942q78 186 78 361q0 63 -15 151q0 12 13 12h182q12 0 18 -14q15 -66 15 -145q0 -196 -95 -367q-12 -12 -18 -12h-170q-15 0 -8 14z" />
<glyph unicode="&#x201a;" horiz-adv-x="464" d="M80 -219q78 186 78 360q0 68 -15 150q0 14 11 14h184q13 0 16 -14q17 -63 17 -146q0 -195 -95 -366q-8 -12 -18 -12h-170q-15 0 -8 14z" />
<glyph unicode="&#x201c;" horiz-adv-x="827" d="M111 1065q-3 188 69 389q6 12 17 12h165q9 0 9 -14q-52 -219 -52 -387q0 -62 9 -127q0 -12 -11 -12h-184q-29 0 -22 139zM481 1065q0 87 18.5 192t51.5 197q6 12 18 12h166q10 0 6 -16q-51 -204 -51 -385q0 -88 8 -127q0 -12 -12 -12h-180q-14 0 -17 14q-8 36 -8 125z " />
<glyph unicode="&#x201d;" horiz-adv-x="827" d="M103.5 931q-2.5 5 0.5 11q52 219 52 385q0 62 -9 127q0 12 13 12h180q11 0 14 -14q11 -50 11 -125q0 -88 -19 -193t-53 -196q-6 -12 -17 -12h-165q-5 0 -7.5 5zM475 940q49 207 49 387q0 83 -6 127q0 12 8 12h187q12 0 14 -14q12 -52 8 -125q0 -197 -69 -389 q-6 -12 -17 -12h-166q-4 0 -7 4.5t-1 9.5z" />
<glyph unicode="&#x201e;" horiz-adv-x="827" d="M103.5 -230.5q-2.5 5.5 0.5 11.5q52 219 52 385q0 62 -9 127q0 12 13 12h180q5 0 7.5 -1.5t4 -4.5t2.5 -8q11 -50 11 -125q0 -88 -19 -193t-53 -196q-7 -13 -17 -13h-165q-5 0 -7.5 5.5zM475 -221q49 207 49 387q0 84 -6 127q0 12 8 12h187q29 0 22 -139q0 -197 -69 -389 q-6 -13 -17 -13h-166q-4 0 -7 5t-1 10z" />
<glyph unicode="&#x2022;" horiz-adv-x="753" d="M150 524q0 96 62 160t165 64t165 -64.5t62 -159.5q0 -98 -61 -160.5t-166 -62.5q-103 0 -165 63.5t-62 159.5z" />
<glyph unicode="&#x2026;" horiz-adv-x="1794" d="M119 129q0 67 42 108.5t107 41.5q66 0 108 -42.5t42 -107.5q0 -67 -40 -108t-110 -41q-66 0 -107.5 40.5t-41.5 108.5zM727 129q0 67 42.5 108.5t107.5 41.5q67 0 108 -42.5t41 -107.5q0 -67 -40 -108t-109 -41q-66 0 -108 40.5t-42 108.5zM1339 129q0 67 42.5 108.5 t107.5 41.5q66 0 107.5 -42.5t41.5 -107.5q0 -67 -40 -108t-109 -41q-66 0 -108 40.5t-42 108.5z" />
<glyph unicode="&#x202f;" horiz-adv-x="349" />
<glyph unicode="&#x2039;" horiz-adv-x="903" d="M160 436v125q0 11 12 17l530 362q19 10 19 -12v-174q0 -15 -12 -25l-340 -231l340 -234q12 -7 12 -24v-181q0 -19 -19 -10l-532 369q-10 7 -10 18z" />
<glyph unicode="&#x203a;" horiz-adv-x="903" d="M180 59v170q0 15 13 23l333 240l-333 235q-13 13 -13 25v176q3 22 21 10l530 -369q10 -5 10 -18v-123q0 -13 -10 -16l-532 -363q-7 -5 -13 -2t-6 12z" />
<glyph unicode="&#x205f;" horiz-adv-x="436" />
<glyph unicode="&#x20ac;" d="M72 512v94q0 15 10 15h88q0 71 4 104h-88q-14 0 -14 12v97q0 12 10 12h108q39 226 196 369t388 143q160 0 246 -47q14 -6 14 -25v-166q0 -9 -6 -12t-12 2q-100 51 -234 51q-152 0 -240.5 -87.5t-115.5 -227.5h461q10 0 10 -10v-99q0 -12 -12 -12h-469q-8 -43 -4 -104h473 q12 0 12 -13v-96q0 -12 -12 -12h-455q22 -147 115 -232.5t235 -85.5q145 0 244 45q4 3 8 1.5t4 -7.5v-168q0 -14 -12 -20q-100 -53 -274 -53q-240 0 -385.5 140.5t-178.5 379.5h-102q-12 0 -12 12z" />
<glyph unicode="&#x2122;" horiz-adv-x="663" d="M16 1210l7 52q2 2 6 2h229q4 0 4 -2l6 -52q0 -6 -4 -6h-86v-209q0 -6 -6 -6h-63q-5 0 -5 4v211h-84q-4 0 -4 6zM285 993l20 267q0 4 6 4h88q7 0 9 -4q50 -160 55 -179h2q2 12 61 181q0 2 6 2h84q7 0 7 -4l12 -265q0 -6 -6 -6h-64q-4 0 -4 6q-2 166 -2 217h-2 q-12 -61 -63 -208l-7 -7h-55q-4 0 -8 7q-52 177 -59 210h-3q0 -63 -8 -221q0 -4 -4 -4h-59q-6 0 -6 4z" />
<glyph unicode="&#xe000;" horiz-adv-x="993" d="M0 0v993h993v-993h-993z" />
<glyph unicode="&#xfb01;" horiz-adv-x="1112" d="M18 831v150q0 14 13 14h127q18 239 148.5 357t340.5 118q166 0 252 -47q10 -6 10 -22v-178q0 -7 -4 -11.5t-10 -1.5q-112 62 -242 62q-237 0 -247 -277h555q9 0 11.5 -3.5t2.5 -12.5v-961q0 -18 -17 -18h-210q-19 0 -19 18v791h-328v-791q0 -18 -16 -18h-213 q-16 0 -16 18v793l-125 4q-13 3 -13 16z" />
<glyph unicode="&#xfb02;" horiz-adv-x="1175" d="M18 829v152q0 14 13 14h125v58q0 197 96.5 307t243.5 110q30 0 44.5 -0.5t37.5 -3.5t33 -10.5t10 -19.5v-166q0 -7 -4 -11.5t-11 -1.5q-27 9 -67 9q-60 0 -99 -48.5t-39 -158.5v-64h177q16 0 16 -14v-152q0 -16 -16 -16l-177 -6v-789q0 -18 -16 -18h-213q-16 0 -16 18 v791l-125 4q-13 3 -13 16zM758 231v1205q0 16 16 16h213q19 0 19 -16v-1192q0 -44 15.5 -61t45.5 -17q15 0 47 4q6 1 8 -1.5t2 -8.5v-137q0 -18 -12 -23q-46 -20 -131 -20q-108 0 -165.5 55.5t-57.5 195.5z" />
</font>
</defs>
</svg>
