<?xml version="1.0" standalone="no"?>
<!DOCTYPE svg PUBLIC "-//W3C//DTD SVG 1.1//EN" "http://www.w3.org/Graphics/SVG/1.1/DTD/svg11.dtd" >
<svg xmlns="http://www.w3.org/2000/svg">
<metadata></metadata>
<defs>
<font id="AdobeCleanSemiCondensedItalic" horiz-adv-x="1019" >
<font-face units-per-em="2048" ascent="1464" descent="-584" />
<missing-glyph horiz-adv-x="450" />
<glyph unicode="&#xfb03;" horiz-adv-x="1507" d="M-37 -360q29 84 124.5 542t139.5 680l-116 6q-12 0 -9 13l21 96q3 10 12 10h119l16 68q33 151 91 244.5t128.5 130t161.5 36.5q17 0 35.5 -1.5t37.5 -5t30 -10t8 -15.5l-27 -109q-3 -13 -12 -10q-36 12 -74 12q-35 0 -62 -9t-57 -35.5t-55 -83t-43 -142.5l-14 -70h368 l19 76q20 91 49 160.5t63.5 115t77.5 74.5t89 41t100 12q17 0 35.5 -1.5t37 -5t29.5 -10t8 -15.5l-26 -109q-3 -13 -13 -10q-36 12 -75 12q-35 0 -62.5 -10t-56.5 -37t-53.5 -82.5t-42.5 -138.5l-15 -72h178q10 0 7 -10l-23 -98q-3 -11 -10 -11l-180 -8 q-226 -1092 -263 -1206q-2 -11 -14 -14q-57 -5 -139 -17q-13 0 -10 17q29 85 125 544t139 676h-369q-18 -85 -54.5 -260t-63.5 -303t-58 -271.5t-53.5 -239t-34.5 -132.5q-2 -11 -14 -14q-60 -6 -140 -17q-13 0 -10 17zM1104 12l205 965q3 10 14 10h141q12 0 9 -14 l-203 -963q-5 -10 -17 -10h-139q-6 0 -8 2.5t-2 9.5zM1356 1262q6 40 35.5 65t72.5 25q28 0 47.5 -12t28 -33t4.5 -47q-3 -26 -17.5 -47t-37.5 -32.5t-51 -11.5q-41 0 -64.5 26.5t-17.5 66.5z" />
<glyph unicode="&#xfb04;" horiz-adv-x="1546" d="M-37 -360q29 84 124.5 542t139.5 680l-116 6q-12 0 -9 13l21 96q3 10 12 10h119l16 68q33 151 91 244.5t128.5 130t161.5 36.5q17 0 35.5 -1.5t37.5 -5t30 -10t8 -15.5l-27 -109q-3 -13 -12 -10q-36 12 -74 12q-35 0 -62 -9t-57 -35.5t-55 -83t-43 -142.5l-14 -70h368 l19 76q20 91 49 160.5t63.5 115t77.5 74.5t89 41t100 12q17 0 35.5 -1.5t37 -5t29.5 -10t8 -15.5l-26 -109q-3 -13 -13 -10q-36 12 -75 12q-35 0 -62.5 -10t-56.5 -37t-53.5 -82.5t-42.5 -138.5l-15 -72h178q10 0 7 -10l-23 -98q-3 -11 -10 -11l-180 -8 q-226 -1092 -263 -1206q-2 -11 -14 -14q-57 -5 -139 -17q-13 0 -10 17q29 85 125 544t139 676h-369q-18 -85 -54.5 -260t-63.5 -303t-58 -271.5t-53.5 -239t-34.5 -132.5q-2 -11 -14 -14q-60 -6 -140 -17q-13 0 -10 17zM1157 205l260 1237q3 10 13 12q19 1 78.5 5.5 t66.5 4.5q6 0 7 -2t1 -8l-264 -1255q-4 -29 -3.5 -47t9 -28t18.5 -14t25 -4q25 0 62 11q8 3 8 -11l-23 -92q-4 -14 -27 -21.5t-44 -9t-54 -1.5q-179 0 -133 223z" />
<glyph horiz-adv-x="0" />
<glyph horiz-adv-x="2048" />
<glyph unicode=" "  horiz-adv-x="450" />
<glyph unicode="&#x09;" horiz-adv-x="450" />
<glyph unicode="&#xa0;" horiz-adv-x="450" />
<glyph unicode="!" horiz-adv-x="563" d="M147 80q5 44 36 72t77 28q44 0 68.5 -29.5t19.5 -70.5q-5 -45 -34 -71.5t-78 -26.5q-44 0 -69.5 27.5t-19.5 70.5zM250 424q10 70 60 344t75 387l33 162q3 14 12 16q31 17 80 17q13 0 26.5 -1.5t27.5 -4.5t21.5 -9.5t4.5 -15.5l-33 -156q-24 -109 -93.5 -392.5 t-86.5 -346.5q-3 -10 -15 -10h-102q-12 0 -10 10z" />
<glyph unicode="&#x22;" horiz-adv-x="727" d="M233 958l109 494q3 8 10 8h133q6 0 9 -3t2 -7l-125 -492q-5 -10 -13 -10h-116q-12 0 -9 10zM543 958l108 494q3 8 13 8h133q10 0 10 -10l-125 -492q-5 -10 -12 -10h-119q-8 0 -8 10z" />
<glyph unicode="#" d="M55 434l15 103q0 10 10 10h184l98 248h-155q-9 0 -6 10l12 104q3 9 10 9h191l121 303q5 10 14 10h90q11 0 6 -10l-119 -303h211l119 305q5 8 12 8h90q12 0 9 -10l-121 -303h147q8 0 8 -11l-12 -102q-3 -10 -12 -10h-180l-99 -248h146q10 0 10 -10l-14 -105q0 -10 -11 -10 h-178l-133 -338q-6 -12 -14 -12h-90q-15 0 -6 12l133 338h-211l-137 -340q-7 -10 -15 -10h-92q-12 0 -6 12l137 338h-151q-11 0 -11 12zM377 547h211l98 248h-211z" />
<glyph unicode="$" d="M31 150l30 122q2 6 7 8.5t10 -1.5q70 -63 162 -98.5t182 -35.5q126 0 200 58t74 155q2 66 -45.5 122.5t-167.5 123.5q-153 86 -214.5 164.5t-61.5 185.5q0 154 111 257t292 110l31 152q3 12 12 12h117q13 0 10 -12l-32 -156q67 -6 128.5 -31.5t92.5 -56.5q7 -5 4 -19 l-27 -118q-4 -15 -16 -7q-132 107 -301 107q-129 0 -195.5 -63t-66.5 -148q0 -64 44.5 -116.5t163.5 -119.5q164 -94 227.5 -174t63.5 -186q0 -111 -56 -194.5t-144 -126.5t-197 -50l-35 -157q-3 -13 -12 -13h-117q-10 0 -10 13l35 157q-76 6 -155.5 36t-135.5 77 q-11 8 -8 23z" />
<glyph unicode="%" horiz-adv-x="1521" d="M178 7.5q1 3.5 4 6.5l1096 1307q11 8 20 8h109q4 0 5 -2t0 -5t-3 -5l-1096 -1309q-5 -8 -18 -8h-111q-4 0 -5.5 2t-0.5 5.5zM182 872q0 122 47 231.5t134 178t192 68.5q108 0 168.5 -72.5t60.5 -192.5q0 -77 -23.5 -156.5t-68 -149.5t-118 -114t-162.5 -44 q-112 0 -171 71t-59 180zM309 881q0 -74 32 -115t93 -41q94 0 159.5 112.5t65.5 249.5q0 80 -31 120t-87 40q-90 0 -161 -113.5t-71 -252.5zM805 233q0 91 28 177.5t77 153t119.5 107t150.5 40.5q107 0 167 -73t60 -192q0 -61 -14.5 -124.5t-45 -124.5t-73.5 -109 t-105.5 -77t-134.5 -29q-112 0 -170.5 71t-58.5 180zM932 242q0 -74 32 -115t93 -41q94 0 159.5 113t65.5 250q0 159 -119 159q-59 0 -113 -53t-86 -138t-32 -175z" />
<glyph unicode="&#x26;" horiz-adv-x="1306" d="M80 328q0 151 92.5 253t257.5 146q-90 117 -90 240q0 160 106 256t273 96q149 0 219 -53q9 -6 6 -17l-26 -110q-3 -14 -15 -6q-78 53 -186 53q-97 0 -156 -57.5t-59 -155.5q3 -101 106 -219h617q13 0 6 -13l-41 -108q-7 -12 -16 -12h-467q103 -107 208 -314 q55 -109 95.5 -151.5t91.5 -42.5q24 0 59 6q3 2 5.5 -0.5t2.5 -9.5l-22 -97q-6 -30 -105 -30q-89 0 -144 53.5t-136 220.5q-46 99 -105.5 186.5t-98.5 129.5t-50 42q-30 0 -64 -9.5t-69 -30t-63 -50.5t-46 -74.5t-18 -97.5q0 -97 65.5 -166t175.5 -69q109 0 185 37 q4 1 6 -1.5t2 -7.5l-25 -112q-2 -12 -12 -17q-78 -36 -211 -36q-153 0 -253.5 97.5t-100.5 250.5z" />
<glyph unicode="'" horiz-adv-x="421" d="M233 958l109 494q3 8 10 8h140q10 0 10 -10l-125 -492q-5 -10 -12 -10h-123q-12 0 -9 10z" />
<glyph unicode="(" horiz-adv-x="702" d="M113 315q0 190 44 371.5t121.5 333t173.5 277t210 227.5q12 8 18 8h141q6 0 8 -4t-4 -10q-277 -273 -416 -566.5t-139 -634.5q0 -180 41.5 -350t114.5 -293q3 -4 0.5 -9t-8.5 -5h-131q-16 0 -19 10q-66 109 -110.5 280.5t-44.5 364.5z" />
<glyph unicode=")" horiz-adv-x="708" d="M-81.5 -335q-0.5 5 5.5 9q275 270 414 564.5t139 646.5q0 182 -41 348t-112 285q-3 4 -1 9t9 5h129q12 0 18 -12q64 -98 110 -270.5t46 -358.5q1 -194 -41 -375.5t-118 -334t-170 -278t-210 -233.5q-10 -10 -22 -10h-146q-9 0 -9.5 5z" />
<glyph unicode="*" horiz-adv-x="638" d="M133 1137l49 84q6 10 15 4l194 -140l37 254q0 11 10 9l101 -19q9 -3 6 -12l-74 -248l238 45q8 3 10 -4l10 -98q0 -11 -8 -11l-242 -10l144 -231q4 -11 -2 -15l-80 -45q-11 -5 -15 7l-123 247l-194 -182q-6 -3 -14 2l-54 68q-6 6 0 14l209 158l-213 108q-9 5 -4 15z" />
<glyph unicode="+" horiz-adv-x="1120" d="M63 479v103q0 12 13 12h420v436q0 10 10 10h110q11 0 11 -12v-434h420q10 0 10 -14v-101q0 -12 -10 -12h-420v-440q0 -11 -13 -11h-108q-10 0 -10 13v438h-420q-13 0 -13 12z" />
<glyph unicode="," horiz-adv-x="419" d="M-117 -285q101 136 148.5 258.5t60.5 257.5q0 13 10 13h136q12 0 12 -11q-11 -138 -66.5 -276.5t-148.5 -245.5q-8 -8 -17 -8h-127q-16 0 -8 12z" />
<glyph unicode="-" horiz-adv-x="661" d="M92 446l27 121q0 11 12 11h434q11 0 8 -11l-26 -121q-3 -12 -12 -12h-433q-13 0 -10 12z" />
<glyph unicode="." horiz-adv-x="419" d="M23 84q6 45 37 73.5t75 28.5t68.5 -30t21.5 -74q-6 -45 -36 -72.5t-76 -27.5q-44 0 -69 28t-21 74z" />
<glyph unicode="/" horiz-adv-x="817" d="M-20 -111l784 1536q3 9 12 9h131q13 0 6 -11l-782 -1538q-8 -8 -14 -8h-133q-10 0 -4 12z" />
<glyph unicode="0" d="M104 391q0 96 16 202t46 214t79.5 205t111 173t145.5 120.5t178 44.5q81 0 141.5 -32.5t95.5 -90.5t51.5 -130t16.5 -159q0 -78 -9.5 -163.5t-30.5 -179.5t-52 -181.5t-77 -166.5t-102 -138t-130.5 -94t-159.5 -35q-159 0 -239.5 111.5t-80.5 299.5zM266 383 q0 -132 45.5 -201t130.5 -69q72 0 136.5 60t109 154t77 207.5t48 222.5t14.5 197q0 265 -170 265q-76 0 -149.5 -79t-125.5 -201t-84 -270.5t-32 -285.5z" />
<glyph unicode="1" d="M106 14l23 109q6 12 18 12h256l220 1036q-57 -25 -143 -52t-136 -36q-7 -1 -9.5 2.5t-0.5 10.5l22 100q2 9 11 12q77 22 177 58t146 61q12 4 23 4h98q6 0 6 -10l-250 -1186h246q7 0 9.5 -2.5t2.5 -9.5l-22 -107q0 -16 -15 -16h-673q-15 0 -9 14z" />
<glyph unicode="2" d="M12 12l17 78q2 9 12 19q221 178 434 378q180 163 249 273.5t69 236.5q0 90 -55 148.5t-169 58.5q-167 0 -319 -102q-3 -2 -6 -0.5t-2 8.5l28 131q3 11 13 16q145 93 329 93q164 0 254 -93.5t90 -234.5q0 -149 -67 -268.5t-221 -266.5q-149 -145 -385 -350q113 2 362 2 h195q10 0 8 -10l-45 -117q-6 -12 -17 -12h-766q-12 0 -8 12z" />
<glyph unicode="3" d="M29 109l30 122q4 11 13 5q70 -57 157.5 -86t171.5 -29q81 0 141.5 24t93.5 64t48.5 85t15.5 95q0 104 -68 168t-202 64h-108q-12 0 -9 10l27 117q3 10 10 10h107q151 0 234 67.5t83 182.5q-2 93 -60.5 148.5t-168.5 55.5q-154 0 -289 -86q-5 -3 -8 0t-2 9l28 120 q3 12 11 17q131 78 305 78q160 0 252 -88.5t92 -223.5q0 -132 -74 -221.5t-207 -128.5v-4q92 -30 153.5 -104t61.5 -197q0 -184 -132.5 -293.5t-334.5 -109.5q-231 0 -368 110q-10 10 -4 19z" />
<glyph unicode="4" d="M51 387l15 68l10 20q97 127 352.5 434.5t355.5 413.5q8 6 19 6h123q12 0 10 -12l-176 -821h190q9 0 6 -13l-36 -98q-3 -8 -13 -8h-170l-78 -367q-3 -10 -14 -10h-139q-11 0 -8 12l77 365h-516q-8 0 -8 10zM246 496h354q113 535 137 612h-2q-455 -564 -489 -612z" />
<glyph unicode="5" d="M41 106l31 127q2 5 5.5 6.5t6.5 -1.5q161 -119 336 -119q138 0 210 75.5t72 188.5q0 122 -124 202.5t-383 139.5l14 68q159 429 201 530q3 6 12 6h498q10 0 6 -12l-49 -117q-3 -8 -13 -8h-370q-81 -214 -136 -365q250 -67 378 -169t128 -263q0 -192 -128.5 -303.5 t-329.5 -111.5q-217 0 -359 110q-6 4 -6 16z" />
<glyph unicode="6" d="M86 373q0 142 52 280t138.5 248.5t199 204.5t233 159t241.5 101q5 2 7 -0.5t1 -9.5l-30 -135q-3 -13 -13 -15q-198 -72 -344.5 -194t-214.5 -256q109 73 240 73q142 0 230.5 -96.5t88.5 -249.5q0 -133 -55 -247t-161.5 -185t-243.5 -71q-174 0 -271.5 110t-97.5 283z M244 379q0 -130 66 -200t161 -70q125 0 206 100t81 252q0 113 -60 179.5t-161 66.5q-71 0 -136 -27.5t-112 -71.5q-19 -41 -32 -104.5t-13 -124.5z" />
<glyph unicode="7" d="M123.5 4q-1.5 4 1.5 8q564 893 754 1176h-621q-14 0 -8 12l39 121q3 8 14 8h766q8 0 8 -8l-18 -88q-2 -4 -5 -11.5t-5 -11.5q-361 -598 -748 -1202q-8 -8 -16 -8h-154q-6 0 -7.5 4z" />
<glyph unicode="8" d="M70 297q0 120 72 217t206 162q-55 45 -85 112t-30 142q0 111 51 206t149.5 154.5t225.5 59.5q151 0 236.5 -92t85.5 -220q0 -125 -62 -220.5t-182 -155.5q62 -42 102 -112.5t40 -162.5q1 -185 -127.5 -296t-321.5 -111q-170 0 -265 90.5t-95 226.5zM227 317 q0 -96 62 -152t160 -56q122 0 199 77.5t77 202.5t-90 197q-26 16 -47 16h-131q-24 0 -41 -10q-79 -36 -134 -107.5t-55 -167.5zM387 932q0 -115 70 -176q21 -19 55 -19h111q37 0 59 15q152 93 152 270q0 85 -48.5 144t-142.5 59q-113 0 -184.5 -85t-71.5 -208z" />
<glyph unicode="9" d="M158 -27l28 136q3 11 13 14q181 73 319.5 185.5t220.5 258.5q-105 -67 -229 -67q-150 0 -241 97t-91 259q0 124 54 235.5t161.5 185t245.5 73.5q161 0 254.5 -113t93.5 -299q0 -151 -50 -292t-132 -249t-189.5 -197t-220.5 -146.5t-227 -88.5q-10 -3 -10 8zM334 870 q0 -117 63 -181t164 -64q67 0 130 23.5t102 66.5q15 26 29 92.5t14 132.5q0 128 -54.5 204.5t-158.5 76.5q-84 0 -151.5 -51.5t-102.5 -131t-35 -168.5z" />
<glyph unicode=":" horiz-adv-x="540" d="M86 84q5 45 36.5 73.5t76.5 28.5q43 0 68 -30t20 -74q-5 -45 -34.5 -72.5t-78.5 -27.5q-45 0 -69.5 28.5t-18.5 73.5zM240 797q6 43 37 71.5t75 28.5t68.5 -29.5t21.5 -72.5q-6 -47 -36 -75t-76 -28q-44 0 -70 29.5t-20 75.5z" />
<glyph unicode=";" horiz-adv-x="540" d="M-41 -285q97 135 141 257.5t54 258.5q3 13 12 13h135q10 0 10 -11q-6 -138 -57 -276.5t-141 -245.5q-8 -8 -17 -8h-129q-16 0 -8 12zM240 797q6 43 37 71.5t75 28.5t68.5 -29.5t21.5 -72.5q-6 -47 -36 -75t-76 -28q-44 0 -69.5 29.5t-20.5 75.5z" />
<glyph unicode="&#x3c;" horiz-adv-x="1120" d="M127 479v103q0 11 8 14l846 446q12 3 12 -6v-116q0 -12 -10 -15l-711 -373v-2l713 -370q8 -5 8 -17v-114q0 -11 -10 -9l-848 445q-8 5 -8 14z" />
<glyph unicode="=" horiz-adv-x="1120" d="M72 289v100q0 12 14 12h948q15 0 15 -12v-100q0 -13 -17 -13h-946q-14 0 -14 13zM72 672v100q0 12 14 12h950q13 0 13 -10v-102q0 -15 -17 -15h-946q-14 0 -14 15z" />
<glyph unicode="&#x3e;" horiz-adv-x="1120" d="M127 29v112q0 12 8 17l713 372v5l-713 368q-8 5 -8 15v116q0 11 10 8l848 -444q8 -5 8 -14v-99q0 -11 -8 -16l-848 -449q-10 -3 -10 9z" />
<glyph unicode="?" horiz-adv-x="860" d="M264 1118l27 123q7 14 10 16q44 33 124.5 61t174.5 28q141 0 222 -77t81 -190q0 -94 -53.5 -162t-181.5 -161q-120 -94 -159.5 -130.5t-39.5 -60.5q0 -48 57 -145q3 -10 -6 -10h-125q-9 0 -12 6q-68 99 -68 170q0 34 38.5 80t156.5 131q144 111 175 141q61 59 65 119v10 q-2 60 -48 100.5t-133 40.5q-161 0 -295 -96q-3 -2 -6.5 0t-3.5 6zM295 80q5 44 36 72t77 28q44 0 68.5 -29.5t19.5 -70.5q-5 -45 -34.5 -71.5t-78.5 -26.5q-44 0 -69 27.5t-19 70.5z" />
<glyph unicode="@" horiz-adv-x="1591" d="M100 418q0 180 61.5 337t167.5 267.5t255 174t319 63.5q99 0 191 -24.5t171 -75t137.5 -122t92 -172t33.5 -219.5q0 -121 -35.5 -224.5t-96 -177t-142 -125.5t-173.5 -77t-190 -25q-92 0 -167 21.5t-134 66.5t-92 122t-33 180q0 143 68 261t186 185.5t260 67.5 q18 0 49.5 -2.5t66.5 -8t59 -14.5t20 -20l-144 -725q42 7 88 25.5t97 58t90.5 92.5t65.5 135t26 180q0 244 -140.5 374t-371.5 130q-133 0 -251 -52t-205 -145t-138 -229t-51 -295q0 -204 95 -361t279 -247q9 -7 9 -19l-25 -112q-3 -15 -12 -9q-224 91 -355 290t-131 450z M606 416q0 -121 64.5 -192t195.5 -77h27l129 646q-24 8 -74 8q-104 0 -184 -57.5t-119 -144t-39 -183.5z" />
<glyph unicode="A" horiz-adv-x="1169" d="M-35 12q522 963 664 1231q12 25 26 78q0 8 9 8h190q8 0 8 -8q0 -1 152 -1309q0 -12 -13 -12h-135q-12 0 -14 12l-47 424h-447l-225 -428q-5 -8 -14 -8h-146q-10 0 -10 6q0 2 2 6zM426 575h369q-55 441 -62 615h-2q-8 -24 -31 -73.5t-62.5 -127.5t-67.5 -133t-79 -154.5 t-65 -126.5z" />
<glyph unicode="B" horiz-adv-x="1062" d="M55 16l273 1299q2 12 12 14q132 4 295 4q95 0 167.5 -19.5t114 -49t67.5 -70.5t35 -78.5t9 -79.5q0 -76 -24.5 -137.5t-67.5 -101.5t-90.5 -65.5t-104.5 -41.5v-2q96 -31 155.5 -104.5t59.5 -182.5q0 -107 -42.5 -186.5t-121.5 -126.5t-181.5 -70t-231.5 -24 q-168 0 -316 8q-9 0 -9 9q0 2 1 5zM240 133q50 -4 178 -4q111 0 192 25.5t131.5 88.5t49.5 160q0 98 -70 159t-213 61h-164zM373 756h168q155 0 241 68q84 67 84 181v5q0 190 -252 190q-131 0 -149 -2z" />
<glyph unicode="C" horiz-adv-x="1075" d="M129 500q0 125 32 247.5t97 231t154.5 191.5t212.5 131.5t264 48.5q86 0 152.5 -15.5t99.5 -36.5q5 -3 5 -9q0 -2 -1 -5l-29 -121q-5 -9 -14 -6q-96 49 -225 49q-105 0 -198.5 -38.5t-162.5 -105.5t-119.5 -155t-76 -189.5t-25.5 -205.5q0 -83 21.5 -150t57 -109.5 t83 -70.5t96 -39.5t100.5 -11.5q164 0 285 59q5 2 8 -0.5t2 -9.5l-30 -129q-3 -14 -13 -16q-97 -53 -289 -53q-93 0 -177 29.5t-155 89t-113 162.5t-42 237z" />
<glyph unicode="D" horiz-adv-x="1232" d="M55 16l275 1301q2 10 10 10q80 6 278 6q265 0 411.5 -146t148.5 -396q0 -198 -67 -364t-202 -277q-63 -51 -136.5 -85t-149 -48t-129.5 -18.5t-117 -4.5q-122 0 -311 6q-11 0 -11 16zM242 135q46 -4 168 -4q251 0 389 119q107 90 160 232q51 136 51 297v12 q0 202 -108 305.5t-300 103.5q-95 0 -135 -4z" />
<glyph unicode="E" horiz-adv-x="966" d="M53 12l277 1309q3 8 12 8h643q10 0 10 -10l2 -119q0 -10 -8 -10h-526l-94 -445h483q8 0 8 -10l-26 -121q-3 -8 -13 -8h-481l-98 -467h592q9 0 6 -12l-47 -117q-3 -10 -13 -10h-717q-10 0 -10 12z" />
<glyph unicode="F" horiz-adv-x="929" d="M53 12l277 1307q2 10 12 10h664q12 0 12 -10v-119q0 -10 -10 -10h-543l-98 -469h481q11 0 8 -10l-25 -119q-3 -10 -12 -10h-483l-119 -570q-2 -12 -14 -12h-140q-10 0 -10 12z" />
<glyph unicode="G" horiz-adv-x="1230" d="M129 498q0 130 33.5 254.5t100 232.5t157.5 189.5t214.5 128.5t262.5 47q214 0 328 -78q3 -4 3 -11q0 -3 -1 -8l-29 -118q-6 -14 -16 -7q-119 78 -301 78q-107 0 -200.5 -38.5t-163 -105.5t-119.5 -156t-75.5 -191.5t-25.5 -210.5q0 -175 96 -279t262 -104q127 0 219 47 l80 371l-282 6q-11 0 -8 10l24 109q2 10 12 10h435q8 0 8 -12l-123 -574q-3 -16 -19 -22q-164 -84 -374 -84q-231 0 -364.5 140.5t-133.5 375.5z" />
<glyph unicode="H" horiz-adv-x="1224" d="M53 12l277 1307q2 10 12 10h141q11 0 11 -10l-121 -571h592l120 571q3 10 13 10h143q7 0 7 -6q0 -2 -1 -4l-274 -1307q-2 -12 -12 -12h-142q-13 0 -10 12l125 596h-590l-127 -598q-3 -10 -12 -10h-139q-13 0 -13 12z" />
<glyph unicode="I" horiz-adv-x="468" d="M53 12l277 1307q2 10 12 10h141q10 0 10 -6q0 -2 -1 -4l-277 -1309q-3 -10 -12 -10h-140q-10 0 -10 12z" />
<glyph unicode="J" horiz-adv-x="714" d="M-82 -23l29 111q3 8 10 6q75 -47 166 -47q103 0 157 67.5t89 225.5l206 979q3 10 13 10h139q12 0 10 -12l-205 -971q-47 -232 -144.5 -336t-262.5 -104q-65 0 -119.5 15.5t-81.5 37.5q-7 5 -7 12q0 3 1 6z" />
<glyph unicode="K" horiz-adv-x="1118" d="M55 12l277 1307q2 10 12 10h139q3 0 6 -1t4.5 -3t0.5 -6l-121 -576h125q18 0 34 19q78 87 242.5 279.5t245.5 281.5q6 6 20 6h152q8 0 8 -5q0 -3 -4 -9q-41 -46 -135.5 -154t-155 -176.5t-141 -157.5t-139.5 -151q-9 -10 -2 -17q50 -81 112.5 -190.5t139 -248 t116.5 -208.5q6 -12 -8 -12h-149q-12 0 -17 8q-59 98 -180.5 320.5t-140.5 255.5q-10 20 -33 20h-119l-127 -594q-3 -10 -12 -10h-139q-13 0 -11 12z" />
<glyph unicode="L" horiz-adv-x="927" d="M53 12l277 1307q2 10 12 10h143q9 0 9 -12l-250 -1178h565q5 1 7 -3q0 -1 1 -3q0 -3 -2 -6l-43 -117q-5 -10 -16 -10h-693q-10 0 -10 12z" />
<glyph unicode="M" horiz-adv-x="1589" d="M20 14l431 1307q3 8 12 8h203q8 0 8 -8q64 -753 64 -1033q0 -42 -1 -73h2q84 208 549 1104q2 10 15 10h194q12 0 10 -12l-135 -1305q0 -12 -12 -12h-143q-11 0 -11 12q99 915 148 1186h-2q-125 -303 -584 -1188q-5 -10 -16 -10h-129q-13 0 -13 12q-17 248 -37 655.5 t-24 532.5h-2q-59 -255 -365 -1190q-2 -10 -12 -10h-143q-9 0 -9 7q0 3 2 7z" />
<glyph unicode="N" horiz-adv-x="1228" d="M53 12l277 1307q2 10 12 10h186q8 0 11 -8q298 -932 331 -1118h2q12 104 224 1116q2 10 12 10h137q7 0 7 -6q0 -2 -1 -4l-274 -1307q-2 -12 -14 -12h-177q-13 0 -16 10q-145 462 -231.5 769t-96.5 382h-2q-15 -139 -229 -1151q-3 -10 -12 -10h-136q-10 0 -10 12z" />
<glyph unicode="O" horiz-adv-x="1286" d="M125 463q0 128 29.5 255t89 240.5t140.5 201t192 139t235 51.5q187 0 304.5 -129.5t117.5 -362.5v-9q0 -127 -27 -250q-28 -127 -85 -238.5t-136 -196t-188 -133.5t-234 -49q-193 0 -315.5 124.5t-122.5 356.5zM291 467q0 -163 82 -255.5t213 -92.5q111 0 204.5 67.5 t152.5 175.5t91.5 236.5t32.5 257.5q-1 175 -78.5 264.5t-204.5 89.5q-136 0 -251.5 -110t-178.5 -280t-63 -353z" />
<glyph unicode="P" horiz-adv-x="1036" d="M53 12l275 1305q3 12 14 12q123 6 252 6q217 0 330.5 -108t113.5 -281q0 -121 -44.5 -216.5t-123 -155t-181.5 -90.5t-224 -31q-67 0 -154 6l-94 -449q-3 -10 -12 -10h-144q-8 0 -8 12zM340 594q81 -6 145 -6q81 0 150.5 20.5t124.5 61.5t86 109t31 157q0 130 -80 196 t-209 66q-98 0 -121 -2z" />
<glyph unicode="Q" horiz-adv-x="1286" d="M125 463q0 136 32 267.5t93.5 242.5t144 196t190 133t224.5 48q197 0 311.5 -135t114.5 -357q0 -154 -37 -294t-96.5 -240t-126.5 -169t-135 -104q72 -63 182 -143t199 -133q5 -3 3.5 -8.5t-7.5 -6.5l-152 -55q-3 -1 -6 -1q-8 0 -17 7q-54 35 -160 118t-200 165 q-54 -14 -115 -14q-139 1 -241 66.5t-151.5 173t-49.5 243.5zM293 465q0 -163 82 -254.5t213 -91.5q110 0 203.5 67.5t152.5 175.5t92 237.5t33 258.5q-1 175 -79 263.5t-206 88.5q-103 0 -195.5 -65t-156.5 -170t-101.5 -239t-37.5 -271z" />
<glyph unicode="R" horiz-adv-x="1093" d="M53 12l277 1305q3 12 12 12q126 4 281 4q205 0 309 -89.5t104 -244.5q0 -158 -93.5 -261t-256.5 -144q8 -21 142.5 -286.5t144.5 -293.5q7 -14 -8 -14h-156q-12 0 -18 12q-19 40 -116 249.5t-124 266.5q-9 23 -20 30t-33 7h-166l-117 -555q-3 -10 -12 -10h-140 q-10 0 -10 12zM362 698h152q179 0 268.5 78.5t89.5 204.5v6q0 93 -62 152q-64 61 -210 61q-75 0 -133 -4z" />
<glyph unicode="S" horiz-adv-x="935" d="M8 127l29 125q3 13 14 6q69 -62 162.5 -99.5t187.5 -37.5q123 0 191 63q66 61 65 151v5q0 68 -40.5 124t-161.5 136q-143 98 -205 179t-62 190q0 76 27.5 143.5t79 120.5t134 84t185.5 31t182 -26t122 -62q3 -3 3 -9q0 -4 -1 -8l-27 -117q-3 -11 -12 -6q-121 92 -279 92 q-67 0 -118.5 -20.5t-80.5 -54t-43 -71.5t-14 -79q1 -67 46 -121t153 -125q162 -110 220 -191t58 -188q0 -172 -117.5 -276t-320.5 -104h-6q-109 0 -207 34q-100 35 -160 90q-5 5 -5 13q0 4 1 8z" />
<glyph unicode="T" horiz-adv-x="1009" d="M168 1204l41 117q5 8 14 8h905q10 0 10 -6q0 -2 -1 -4v-117q0 -12 -11 -12h-407l-250 -1180q-3 -10 -14 -10h-138q-10 0 -10 12l250 1178h-383q-8 0 -8 6q0 3 2 8z" />
<glyph unicode="U" horiz-adv-x="1214" d="M136 244q-8 40 -8 87q0 60 13 130l183 858q2 10 12 10h141q11 0 8 -10l-178 -852q-12 -60 -12 -109q1 -93 43 -149q66 -86 205 -86q50 0 89 7t82 29t75 59.5t61.5 102.5t48.5 154l180 844q3 10 15 10h139q9 0 9 -7q0 -2 -1 -5l-182 -854q-28 -134 -77.5 -228.5 t-119.5 -149t-153 -79t-187 -24.5q-97 0 -175.5 27.5t-135.5 86t-75 148.5z" />
<glyph unicode="V" horiz-adv-x="1171" d="M217 1319q0 10 10 10h142q10 0 10 -8q125 -970 139 -1159h4q40 92 154.5 311t456.5 848q5 8 14 8h147q7 0 7 -5q0 -3 -3 -9l-716 -1305q-8 -10 -19 -10h-162q-11 0 -14 10z" />
<glyph unicode="W" horiz-adv-x="1679" d="M229 1319q0 10 13 10h145q10 0 10 -8q5 -219 10 -446.5t7 -307.5q4 -81 6 -199q2 -85 1 -109v-11q-1 -2 -1 -72h2q65 180 498 1122q3 11 14 11h166q10 0 10 -11q14 -382 18 -720q2 -160 3 -258q0 -109 -3 -142h5q62 165 493 1143q5 8 14 8h150q7 0 7 -6q0 -2 -1 -6 l-602 -1305q-6 -12 -16 -12h-162q-14 0 -17 14q-23 670 -23 1004q0 71 1 127h-2q-75 -226 -508 -1135q-3 -10 -14 -10h-164q-13 0 -13 10z" />
<glyph unicode="X" horiz-adv-x="1091" d="M-61 4q-1 1 -1 3q0 3 3 5l540 664l-245 643q-3 10 8 10h151q11 0 13 -8q36 -101 194 -551h2q39 51 191 250t233 303q4 6 12 6h160q5 0 5 -4q0 -3 -3 -6l-514 -643l262 -664q3 -12 -8 -12h-149q-15 0 -17 10q-35 88 -107 279t-106 278h-4q-311 -407 -432 -557 q-8 -10 -18 -10h-162q-6 0 -8 4z" />
<glyph unicode="Y" horiz-adv-x="1044" d="M197 1319q-1 2 -1 4q0 6 9 6h149q8 0 11 -8q164 -563 184 -684q104 177 471 684q5 8 16 8h150q4 0 6 -1q2 -2 2 -4q0 -3 -4 -7l-563 -770q-17 -22 -35 -80l-96 -455q-3 -12 -13 -12h-139q-13 0 -10 14l98 465q4 25 4 43t-4 31z" />
<glyph unicode="Z" horiz-adv-x="1030" d="M-43 10l16 78q4 10 13 21q128 161 447 549t437 534h-647q-11 0 -8 10l43 119q3 8 14 8h826q10 0 8 -10l-19 -80q-6 -15 -14 -25q-176 -221 -874 -1077h714q10 0 7 -10l-46 -117q-5 -10 -14 -10h-895q-8 0 -8 10z" />
<glyph unicode="[" horiz-adv-x="669" d="M-2 -324l391 1844q3 14 17 14h389q11 0 8 -10l-19 -88q-3 -11 -12 -11h-260l-350 -1652l262 -2q9 0 6 -11l-18 -88q-2 -10 -13 -10h-391q-13 0 -10 14z" />
<glyph unicode="\" horiz-adv-x="741" d="M270 1419q0 15 11 15h120q9 0 13 -11l129 -1532q0 -12 -15 -12h-122q-10 0 -13 10z" />
<glyph unicode="]" horiz-adv-x="692" d="M-63 -330l18 90q2 9 10 9h262l351 1652l-263 2q-10 0 -6 11l19 90q5 10 12 10h391q13 0 10 -16l-391 -1840q-3 -10 -6.5 -13t-13.5 -3h-387q-5 0 -6 1t0 7z" />
<glyph unicode="^" horiz-adv-x="983" d="M78 510l332 739q3 8 12 8h135q9 0 14 -8l342 -737q6 -14 -6 -14h-119q-11 0 -16 10l-283 629h-2l-272 -629q-6 -12 -16 -10h-113q-14 0 -8 12z" />
<glyph unicode="_" horiz-adv-x="1054" d="M6 -152h1038v-100h-1038v100z" />
<glyph unicode="`" horiz-adv-x="794" d="M315 1411q-3 5 0 9.5t9 4.5h157q13 0 13 -10l102 -301q2 -5 -1 -8.5t-9 -3.5h-127q-12 0 -15 10z" />
<glyph unicode="a" horiz-adv-x="995" d="M84 356v6q0 90 29 181q30 94 88 176.5t137 147t183.5 102t219.5 37.5q123 0 215 -29q7 -4 5 -10l-191 -908q-3 -8 -14 -14q-135 -63 -299 -63q-177 0 -275 98t-98 276zM250 369q0 -126 63 -190t179 -64q74 0 129 22l155 729q-24 8 -74 8q-120 0 -225 -71t-166 -187.5 t-61 -246.5z" />
<glyph unicode="b" horiz-adv-x="1017" d="M51 76l287 1366q3 12 14 12q123 12 144 12q8 0 8 -12l-111 -524q118 76 252 76t210.5 -100.5t76.5 -256.5q0 -134 -44.5 -256.5t-121.5 -213t-187 -144t-235 -53.5q-78 0 -159 20t-128 55q-7 5 -7 13q0 3 1 6zM229 143q46 -30 144 -30q106 0 196.5 71.5t143.5 193 t53 261.5q0 102 -43.5 167.5t-134.5 65.5q-113 0 -223 -79z" />
<glyph unicode="c" horiz-adv-x="800" d="M84 377q0 98 28 192.5t79.5 172.5t120 138t155 93t178.5 33t141 -20q20 -8 20 -18q0 -2 -1 -5l-27 -109q-3 -10 -12 -8q-52 24 -127 24q-111 0 -201.5 -68t-139 -177t-48.5 -232q0 -136 68 -206t176 -70q106 0 174 37q6 1 8 -2t0 -9l-27 -110q-3 -14 -12 -19 q-65 -32 -182 -32q-74 0 -135.5 20t-105 56t-73 85.5t-43.5 108t-14 125.5z" />
<glyph unicode="d" horiz-adv-x="1009" d="M84 367q0 166 78 312.5t217.5 236.5t304.5 90q78 0 129 -21l96 457q3 9 11 12q111 12 147 12q8 0 8 -10l-291 -1388q-3 -14 -14 -19q-142 -67 -309 -67q-177 0 -277 102.5t-100 282.5zM250 381q0 -134 67.5 -200t174.5 -66q82 0 143 28l151 709q-48 25 -127 25 q-107 0 -202.5 -69.5t-151.5 -184t-55 -242.5z" />
<glyph unicode="e" horiz-adv-x="915" d="M82 362q0 94 25.5 188.5t74 175.5t112 144t145.5 99.5t169 36.5q72 0 126.5 -20.5t85.5 -55.5t46 -76t15 -86q0 -166 -160 -254q-153 -85 -446 -84h-27q-6 -37 -6 -78q0 -235 237 -235q140 0 248 67q5 2 7 -1t1 -7l-26 -119q-2 -11 -13 -18q-92 -57 -260 -57 q-178 0 -266 101.5t-88 278.5zM266 545h30q92 1 164 11q84 12 134.5 33t82 51.5t43 59.5t11.5 62q0 19 -5 37.5t-18.5 38.5t-42.5 32.5t-71 12.5q-106 0 -198 -95t-130 -243z" />
<glyph unicode="f" horiz-adv-x="483" d="M-37 -360q29 85 125 544t139 676l-116 6q-14 0 -11 13l23 98q3 10 12 10h119l16 70q48 220 144.5 314.5t236.5 94.5q17 0 35.5 -1.5t37.5 -5t30 -9.5q9 -6 9 -12q0 -2 -1 -4l-27 -111q-4 -12 -12 -10q-27 12 -74 12q-35 0 -62 -9t-56.5 -34.5t-54 -80.5t-42.5 -138 l-16 -76h178q8 0 6 -10l-22 -100q-3 -11 -11 -11l-180 -8q-226 -1095 -262 -1204q-2 -11 -14 -14q-60 -6 -140 -17q-11 0 -11 11q0 3 1 6z" />
<glyph unicode="g" horiz-adv-x="999" d="M-47 -381l33 123q3 10 14 6q114 -63 248 -63q79 0 134.5 21t96 69t68 113t53.5 167q-92 -47 -201 -47q-143 0 -229 90t-86 258q0 122 45 238.5t124 208t198 147.5t256 56q155 0 249 -37q11 -6 9 -17q-16 -47 -27 -86l-166 -784q-30 -134 -73.5 -232t-91.5 -157 t-110.5 -93.5t-122 -46.5t-134.5 -12q-74 0 -151 16t-130 46q-7 5 -7 11q0 2 1 5zM250 379q0 -125 57.5 -181.5t151.5 -56.5q88 0 172 47l143 678q-30 13 -106 13q-112 0 -209 -69t-153 -184.5t-56 -246.5z" />
<glyph unicode="h" horiz-adv-x="1013" d="M37 10l301 1432q2 10 12 12q11 1 47 3.5t65 4.5t34 2q10 0 8 -10l-129 -612q174 164 344 164q37 0 69 -9.5t63.5 -33.5t48 -64.5t22.5 -103.5q1 -14 1 -28q0 -53 -16 -122l-133 -633q-3 -12 -14 -12h-142q-10 0 -10 14l137 625q13 54 13 96q0 39 -12 69q-24 62 -103 62 q-70 0 -147.5 -47t-151.5 -133l-143 -676q-3 -10 -15 -10h-139q-11 0 -11 7q0 1 1 3z" />
<glyph unicode="i" horiz-adv-x="438" d="M35 12l205 965q2 10 14 10h141q11 0 8 -14l-202 -963q-5 -10 -17 -10h-139q-10 0 -10 12zM287 1262q6 40 35.5 65t72.5 25q42 0 64 -26q17 -20 18 -50q0 -8 -2 -16q-5 -40 -34 -65.5t-72 -25.5q-41 1 -65 27q-19 21 -18 50q0 8 1 16z" />
<glyph unicode="j" horiz-adv-x="438" d="M-238 -436l23 104q3 10 14 10q65 2 102 21t66 73.5t51 161.5l222 1041q2 10 14 10h139q10 0 10 -10l-208 -985q-37 -176 -73 -254.5t-87 -124.5q-78 -68 -209 -68q-33 0 -57 6q-8 0 -8 8q0 3 1 7zM283 1262q6 40 36.5 65t71.5 25q42 0 64 -26q17 -20 17 -50q0 -7 -1 -16 q-5 -40 -34 -65.5t-72 -25.5q-41 0 -65 27q-18 21 -18 50q0 8 1 16z" />
<glyph unicode="k" horiz-adv-x="933" d="M35 12l301 1430q3 9 12 12q16 1 76.5 5.5t69.5 4.5q10 0 8 -10l-185 -885h93q20 0 45 25q40 45 166.5 194.5t160.5 188.5q7 10 19 10h149q6 0 8 -5v-3q0 -4 -4 -8q-78 -101 -409 -457q-8 -8 -2 -14q53 -85 159 -271t123 -215q3 -14 -10 -14h-156q-13 0 -16 10 q-42 69 -123.5 217t-105.5 189q-11 22 -33 22h-92l-88 -426q-2 -12 -17 -12h-139q-10 0 -10 12z" />
<glyph unicode="l" horiz-adv-x="464" d="M76 205l260 1237q3 10 12 12q16 1 50 3.5t61.5 4.5t32.5 2q7 0 8.5 -1.5t1.5 -8.5l-264 -1255q-4 -22 -4 -38q0 -23 8 -35q14 -20 45 -20q24 0 61 11q4 1 6 -2t0 -9l-20 -92q-8 -32 -125 -32q-142 0 -142 141q0 36 9 82z" />
<glyph unicode="m" horiz-adv-x="1552" d="M35 12l160 760q22 95 36 201q0 14 13 14h127q10 0 10 -10q-4 -72 -16 -146q93 92 174 133.5t163 41.5q80 0 133 -47.5t62 -137.5q190 185 367 185q36 0 67 -9.5t62.5 -34t47.5 -65.5q15 -41 21 -104l2 -28q0 -53 -16 -122l-133 -629q-3 -14 -17 -14h-133q-9 0 -13 3.5 t-3 10.5l137 641q10 49 10 86q0 127 -112 127q-129 0 -287 -178q-7 -59 -14 -84l-125 -594q-2 -12 -17 -12h-135q-15 0 -12 12l133 625q12 58 12 101q0 130 -110 130q-135 0 -289 -186l-143 -670q-3 -12 -17 -12h-133q-14 0 -12 12z" />
<glyph unicode="n" horiz-adv-x="1011" d="M37 10l158 746q19 93 38 219q3 12 13 12h127q9 0 12 -8q0 -39 -18 -145q179 172 350 172q29 0 56 -6.5t55.5 -21.5t48.5 -43t33 -67q13 -38 13 -93q0 -60 -16 -136l-133 -629q-2 -10 -12 -10h-141q-14 0 -11 12l135 629q10 51 10 91q0 136 -114 136q-68 0 -146 -48 t-151 -138l-143 -674q-3 -8 -15 -8h-141q-9 0 -9 6q0 2 1 4z" />
<glyph unicode="o" horiz-adv-x="1024" d="M84 356q0 98 23 192.5t68.5 177t107.5 145.5t145 99t176 36q158 0 248 -106.5t90 -274.5q0 -170 -62.5 -316t-181 -236.5t-268.5 -90.5q-167 0 -256.5 104t-89.5 270zM248 354q0 -112 53 -180t148 -68q86 0 162.5 72.5t121.5 194.5t45 260q0 37 -5 70t-19 66.5t-35 57.5 t-56 39t-79 15q-90 0 -168.5 -75.5t-123 -197t-44.5 -254.5z" />
<glyph unicode="p" horiz-adv-x="1011" d="M-57 -428l284 1348q4 11 17 14q199 72 350 72q160 0 249 -103t89 -267q0 -185 -80 -335q-80 -152 -215 -235.5t-295 -83.5q-85 0 -141 30l-90 -426q-2 -11 -13 -14q-17 -2 -70 -6t-75 -6q-10 0 -10 12zM229 145q61 -34 140 -34q78 0 151 40t127 108t86.5 164.5 t32.5 203.5q0 113 -53 181.5t-160 68.5q-93 0 -180 -41z" />
<glyph unicode="q" horiz-adv-x="1009" d="M84 336q0 125 45 245t124 214.5t198 152.5t256 58q77 0 148 -15.5t114 -36.5q7 -2 7 -9q0 -2 -1 -5q-21 -65 -25 -84l-268 -1272q-2 -10 -12 -12q-121 -11 -144 -12q-10 0 -10 12l98 457q-91 -47 -206 -47q-147 0 -235.5 96.5t-88.5 257.5zM250 356q0 -119 56.5 -181 t152.5 -62q97 0 182 51l145 696q-59 19 -118 19q-115 0 -212.5 -75t-151.5 -195t-54 -253z" />
<glyph unicode="r" horiz-adv-x="641" d="M35 10l151 717q32 140 43 250q3 10 13 10h120q13 0 13 -10q1 -9 1 -20q0 -51 -16 -138q66 85 162.5 136t175.5 51q12 0 12 -10q0 -2 -1 -5l-31 -139q-3 -10 -12 -10q-218 -10 -330 -185l-137 -647q-3 -10 -13 -10h-143q-8 0 -8 10z" />
<glyph unicode="s" horiz-adv-x="735" d="M-12 96l26 115q1 6 5.5 7.5t7.5 -1.5q137 -104 274 -104q87 0 129.5 39t42.5 102q0 48 -29 84.5t-116 95.5q-117 76 -161 137t-44 144q0 131 94.5 211t249.5 80q148 0 229 -60q5 -4 5 -10q0 -3 -1 -6l-26 -113q-3 -12 -15 -4q-97 64 -219 64q-83 0 -126.5 -39t-43.5 -99 q0 -45 25 -78t111 -92q122 -72 173.5 -138t51.5 -157q0 -74 -28 -132t-77 -92.5t-110 -52t-131 -17.5q-93 0 -170 28t-121 68q-7 5 -7 14q0 3 1 6z" />
<glyph unicode="t" horiz-adv-x="561" d="M92 881l23 96q3 10 12 10h127l53 242q2 10 12 12q75 3 146 29q4 2 6 2q6 0 6 -10q-11 -46 -61 -275h196q12 0 12 -8q0 -2 -1 -4l-21 -96q-3 -13 -14 -13l-201 -6l-125 -606q-6 -29 -6 -53q0 -88 84 -88q56 0 106 22q11 4 11 -10l-21 -92q-5 -13 -14 -19q-55 -32 -160 -32 q-98 0 -146 64q-30 39 -30 107q0 44 12 99l127 608l-125 6q-10 3 -8 15z" />
<glyph unicode="u" horiz-adv-x="989" d="M86 210q1 53 14 122l136 643q3 12 14 12h141q8 0 8 -12l-135 -645q-9 -41 -9 -74q0 -45 16 -78q28 -57 110 -57q63 0 127 33.5t139 126.5l148 696q3 10 14 10h139q9 0 9 -6q0 -2 -1 -4l-159 -760q-25 -123 -29 -205q0 -12 -12 -12h-125q-15 0 -17 12q0 54 13 121 q-81 -86 -159 -118.5t-163 -32.5q-34 0 -63.5 7t-59 22.5t-49.5 42t-34 64.5q-13 36 -13 85v7z" />
<glyph unicode="v" horiz-adv-x="882" d="M106 975q0 8 11 12h143q9 0 12 -10q68 -759 68 -830h4q53 120 430 832q3 8 12 8h152q8 0 8 -5q0 -3 -2 -7q-54 -107 -265.5 -488t-268.5 -477q-5 -10 -15 -10h-166q-11 0 -14 10q-35 317 -109 965z" />
<glyph unicode="w" horiz-adv-x="1390" d="M125 975q0 12 12 12h142q12 0 12 -10q21 -567 21 -762q0 -33 -1 -55h4q2 3 19 43t41 93.5t64.5 140.5t108 227.5t152.5 312.5q7 10 15 10h141q12 0 12 -12q24 -774 23 -815h4q53 141 379 817q4 10 16 10h142q8 0 8 -6q0 -3 -2 -8l-482 -963q-5 -10 -16 -10h-156 q-12 0 -12 10q-28 635 -28 778q0 22 1 33q-13 -33 -61.5 -134.5t-148.5 -308t-177 -368.5q-7 -10 -16 -10h-154q-14 0 -14 12z" />
<glyph unicode="x" horiz-adv-x="851" d="M-83 6q0 3 3 6q62 73 207 248.5t201 241.5l-193 473q-1 5 1 8.5t7 3.5h154q7 0 10 -8l144 -389h2l295 387q10 10 16 10h154q6 -1 8 -5v-2q0 -3 -2 -5q-14 -18 -170 -211.5t-219 -267.5q26 -64 105 -250t97 -232q3 -14 -8 -14h-149q-12 0 -17 10l-151 391h-2 q-74 -103 -308 -391q-3 -10 -16 -10h-162q-7 0 -7 6z" />
<glyph unicode="y" horiz-adv-x="888" d="M-160 -435q-1 2 -1 3q0 3 3 6q107 99 227 238.5t189 244.5q6 8 6 21q-8 52 -79 452t-79 445q-3 12 9 12h153q8 0 11 -8q106 -631 112 -756h4q35 59 70.5 126t80 156.5t70.5 143t82 172t74 156.5q7 10 16 10h144q9 0 9 -8q0 -3 -1 -6q-250 -548 -502 -924 q-96 -141 -216 -283.5t-181 -197.5q-8 -8 -18 -8h-175q-6 0 -8 5z" />
<glyph unicode="z" horiz-adv-x="780" d="M-49 8l18 76q1 2 11 18q117 147 616 752q-43 -2 -203 -2h-262q-13 0 -8 10l37 119q2 6 12 6h637q8 0 8 -10l-20 -82q-3 -11 -13 -21q-232 -317 -602 -741q59 2 232 2h268q9 0 6 -10l-41 -117q-3 -8 -12 -8h-678q-7 0 -7 4q0 2 1 4z" />
<glyph unicode="{" horiz-adv-x="790" d="M84 553l25 111q3 8 12 8q139 0 201.5 48.5t85.5 153.5q10 48 27 167t24 157q9 47 24.5 88.5t49 92t80 87t122.5 63.5t172 30q11 3 11 -9l-23 -106q-2 -7 -12 -12q-73 -6 -126 -29t-83 -59.5t-45.5 -72t-26.5 -83.5q-8 -41 -24 -153.5t-27 -160.5q-24 -112 -84 -177 t-170 -89l-2 -4q56 -13 91.5 -42.5t48.5 -67.5t14.5 -83.5t-11.5 -91.5q-13 -57 -41 -158.5t-37 -135.5q-30 -116 10 -174.5t162 -83.5q8 -3 5 -11l-23 -110q-3 -10 -10 -8q-95 12 -161.5 47t-97.5 85.5t-40 113.5t10 132q9 41 39 143t41 154q12 68 4 119t-59.5 80 t-149.5 29q-6 0 -6 12z" />
<glyph unicode="|" horiz-adv-x="421" d="M137 -401v2007h148v-2007h-148z" />
<glyph unicode="}" horiz-adv-x="790" d="M-82 -354l21 108q3 10 10 10q77 12 129.5 35.5t81.5 59t43 68.5t24 81q12 52 31.5 176t24.5 154q22 111 83.5 177t172.5 87v6q-72 18 -111 60t-43 96t10 117q16 61 46 162.5t40 138.5q26 109 -11.5 168.5t-168.5 81.5q-9 0 -6 10l24 108q0 11 11 11q96 -11 163 -45 t98 -83t40.5 -111.5t-8.5 -131.5q-11 -47 -40.5 -144.5t-41.5 -144.5q-28 -114 15.5 -170.5t188.5 -60.5q7 0 7 -11l-25 -110q0 -10 -10 -10q-139 1 -202.5 -48t-86.5 -155q-8 -43 -26.5 -168t-28.5 -170q-71 -338 -449 -360q-5 0 -6 1t0 7z" />
<glyph unicode="~" horiz-adv-x="1134" d="M94 412q-7 170 61.5 255t178.5 85q64 0 113.5 -25t142.5 -96q85 -65 128.5 -89t90.5 -24q60 0 86.5 49t22.5 162q0 12 10 12h102q10 0 10 -12q6 -93 -10.5 -162t-51.5 -106.5t-76.5 -54.5t-90.5 -17q-61 0 -119.5 23.5t-144.5 89.5q-20 16 -52 42t-46 36.5t-35 24t-38 18 t-36 4.5q-57 0 -91 -49.5t-30 -165.5q0 -11 -12 -11h-103q-10 0 -10 11z" />
<glyph unicode="&#xa1;" horiz-adv-x="477" d="M170 -332l35 156q24 109 93.5 392.5t86.5 346.5q3 10 14 10h103q10 0 10 -10q-9 -62 -59 -334t-76 -399l-35 -162q-4 -13 -10 -16q-32 -14 -80 -14q-52 0 -76 14q-6 2 -6 16zM412 907q6 44 36 71.5t78 27.5q44 0 69 -28.5t19 -72.5q-5 -42 -35.5 -70t-76.5 -28 q-44 0 -68.5 28.5t-21.5 71.5z" />
<glyph unicode="&#xa2;" d="M197 563q0 219 138 380.5t341 184.5l39 177q3 10 12 10h109q10 0 8 -10l-35 -172q42 -1 85.5 -14t68.5 -29q7 -7 4 -15l-27 -117q-3 -10 -12 -8q-77 49 -187 49q-158 0 -268.5 -118.5t-110.5 -298.5q0 -122 69.5 -186t172.5 -64q125 0 215 47q5 2 6 0t0 -8l-24 -117 q-4 -12 -13 -14q-66 -41 -180 -45l-37 -179q-3 -10 -12 -10h-113q-9 0 -6 12l37 181q-133 25 -206.5 119.5t-73.5 244.5z" />
<glyph unicode="&#xa3;" d="M-20 8l20 101q3 8 10 10q86 32 145.5 107t88.5 162t47 204h-160q-6 0 -7 2t-1 8l22 103q3 10 13 10h151q2 17 23 133q43 262 154 382t284 120q127 0 184 -43q7 -5 4 -19l-26 -108q-3 -12 -12 -9q-62 39 -150 39q-58 0 -102.5 -22.5t-75.5 -62t-54.5 -103.5t-38.5 -136 t-28 -171h289q10 0 8 -10l-20 -103q-2 -10 -15 -10h-284q-27 -166 -78 -273.5t-142 -177.5h611q12 0 6 -12l-43 -119q-5 -10 -17 -10h-800q-10 0 -6 8z" />
<glyph unicode="&#xa4;" d="M92 1012q-6 10 0 16l68 70q10 10 16 0l137 -133q89 69 211 69q124 0 215 -71l138 133q8 8 16 0l65 -68q8 -8 0 -16l-137 -135q70 -87 70 -224q0 -133 -66 -219l133 -133q8 -8 0 -16l-67 -66q-7 -10 -17 0l-129 133q-36 -31 -95 -52t-126 -21q-131 0 -219 69l-125 -129 q-10 -10 -18 -2l-68 66q-7 7 0 18l131 131q-65 92 -65 223q0 123 69 222zM289 655q0 -67 21.5 -119.5t56.5 -82.5t75 -45t82 -15q46 0 86 13t75.5 41.5t56 81.5t20.5 124q0 108 -63.5 187.5t-176.5 79.5q-106 0 -169.5 -73.5t-63.5 -191.5z" />
<glyph unicode="&#xa5;" d="M121 375l16 76q2 12 13 12h249l31 147h-248q-13 0 -10 13l16 75q3 11 15 11h221l-209 610q-3 10 8 10h146q10 0 12 -8q22 -77 49.5 -170t44 -148t32.5 -110.5t24.5 -88.5t11.5 -50h4q50 99 393 567q5 8 16 8h156q11 0 2 -12l-467 -608h219q8 0 8 -11l-16 -75 q-3 -13 -14 -13h-254l-33 -147h256q10 0 10 -10l-18 -80q-3 -11 -12 -11h-256l-74 -350q0 -12 -12 -12h-138q-13 0 -10 12l76 350h-250q-11 0 -8 13z" />
<glyph unicode="&#xa6;" horiz-adv-x="421" d="M137 -401v802h146v-802h-146zM137 803v803h148v-803h-148z" />
<glyph unicode="&#xa7;" horiz-adv-x="1099" d="M35 -166l26 121q2 5 7 7t8 -1q118 -108 268 -108q125 0 139 94q10 59 -15.5 121t-123.5 202q-90 130 -133 237t-43 208q0 164 73 308.5t204 234t290 92.5q97 1 171 -23.5t102 -54.5q6 -6 6 -17l-23 -112q-3 -16 -16 -8q-93 88 -246 88q-83 0 -121.5 -35.5t-38.5 -97.5 q0 -44 31.5 -101t128.5 -186q93 -128 142 -234t49 -227q0 -130 -48.5 -247t-129.5 -199.5t-190.5 -130.5t-227.5 -48q-100 0 -175.5 30.5t-107.5 66.5q-8 8 -6 20zM299 762q0 -97 36 -183t124 -212q50 -73 80.5 -127t51 -110t18 -99t-18.5 -94q89 61 140.5 156t51.5 216 q0 90 -35.5 178.5t-125.5 208.5q-119 164 -151.5 248.5t-16.5 175.5q-154 -145 -154 -358z" />
<glyph unicode="&#xa8;" horiz-adv-x="794" d="M250 1262q6 40 34.5 65t69.5 25t62 -25.5t16 -66.5q-6 -40 -34.5 -65.5t-69.5 -25.5q-40 0 -62 26.5t-16 66.5zM618 1262q8 40 37 65t70 25t61.5 -26t14.5 -66q-5 -40 -33.5 -65.5t-69.5 -25.5q-40 0 -62.5 26.5t-17.5 66.5z" />
<glyph unicode="&#xa9;" horiz-adv-x="1533" d="M139 668q0 139 50.5 263t137.5 212.5t209.5 140t260.5 51.5t260.5 -51.5t209 -139.5t137 -212t50.5 -264q0 -192 -85.5 -345.5t-235.5 -239t-336 -85.5q-185 0 -335.5 86t-236.5 239.5t-86 344.5zM242 668q0 -124 43 -232t117.5 -183.5t177 -119t217.5 -43.5 q250 0 402.5 162t152.5 416q0 164 -73.5 296.5t-200.5 206.5t-281 74q-161 0 -288.5 -76.5t-197 -208t-69.5 -292.5zM457 666q0 160 111.5 270.5t289.5 110.5q114 0 186 -39q9 -4 9 -17v-88q0 -9 -13 -6q-74 41 -174 41q-121 0 -196.5 -75t-75.5 -191q0 -125 77.5 -195.5 t190.5 -70.5q111 0 187 43q4 1 8 -1.5t4 -5.5v-84q0 -9 -10 -14q-80 -49 -209 -49q-177 0 -281 108.5t-104 262.5z" />
<glyph unicode="&#xaa;" horiz-adv-x="710" d="M139 834q0 171 122 288.5t306 116.5q105 0 203 -35q4 -2 4 -10l-100 -477q-8 -43 -12 -78q-3 -9 -11 -12q-118 -52 -241 -52q-126 0 -198.5 70.5t-72.5 188.5zM270 844q0 -74 42.5 -120t119.5 -46q61 0 111 24l90 420q-30 15 -94 15q-119 0 -194 -87t-75 -206z" />
<glyph unicode="&#xab;" horiz-adv-x="1263" d="M145 455l19 86q2 7 10 12l522 348q6 4 9.5 2t1.5 -10l-29 -131q-3 -12 -12 -19l-379 -258l268 -262q6 -4 6 -16l-26 -121q-3 -10 -11 -2l-374 354q-5 5 -5 17zM625 455l18 86q2 7 10 12l523 348q6 4 9 2t1 -10l-29 -131q-3 -12 -12 -19l-379 -258l268 -262q7 -7 4 -16 l-24 -121q-3 -9 -10 -2l-375 354q-4 4 -4 17z" />
<glyph unicode="&#xac;" horiz-adv-x="1120" d="M66 674v104q0 10 10 10h964q13 0 13 -12v-530q0 -13 -11 -13h-112q-10 0 -10 11v418h-844q-10 0 -10 12z" />
<glyph unicode="&#xad;" horiz-adv-x="661" d="M92 446l27 121q0 11 12 11h434q11 0 8 -11l-26 -121q-3 -12 -12 -12h-433q-13 0 -10 12z" />
<glyph unicode="&#xae;" horiz-adv-x="382" d="M145 1122q0 81 55.5 137t139.5 56q82 0 137 -56.5t55 -136.5q0 -83 -55 -139.5t-137 -56.5q-84 0 -139.5 56t-55.5 140zM186 1120q0 -67 44 -112t112 -45q67 0 108.5 44.5t41.5 112.5t-44 114t-112 46q-65 0 -107.5 -45t-42.5 -115zM264 1030v187q0 4 6 4q10 2 62 2 q84 0 84 -60q0 -41 -45 -53q4 -5 29 -37.5t32 -42.5q3 -6 -4 -6h-35q-6 0 -8 4q-1 1 -49 66q-3 6 -10 6h-21v-70q0 -6 -4 -6h-31q-6 0 -6 6zM305 1130h23q47 0 47 29q0 33 -47 33q-13 0 -23 -2v-60z" />
<glyph unicode="&#xaf;" horiz-adv-x="794" d="M256 1208l23 105q3 10 10 10h514q11 0 8 -12l-23 -103q-2 -10 -12 -10h-512q-11 0 -8 10z" />
<glyph unicode="&#xb0;" horiz-adv-x="534" d="M37 1030q-2 103 68 175.5t174 72.5q103 0 171 -70t68 -178t-67 -179t-172 -71t-173.5 71.5t-68.5 178.5zM137 1030q0 -67 41 -111.5t101 -44.5q62 0 102.5 44.5t40.5 111.5q0 66 -41.5 111t-101.5 45t-101 -45t-41 -111z" />
<glyph unicode="&#xb1;" horiz-adv-x="1120" d="M63 12v103q0 12 15 12h966q13 0 13 -12v-101q0 -14 -15 -14h-964q-15 0 -15 12zM63 688v105q0 10 13 10h420v424q0 12 10 12h110q11 0 11 -12v-424h417q13 0 13 -12v-101q0 -14 -13 -14h-417v-426q0 -12 -13 -12h-108q-10 0 -10 12v426h-420q-13 0 -13 12z" />
<glyph unicode="&#xb2;" horiz-adv-x="614" d="M145 926l19 67q2 7 6 11q31 23 96.5 69.5t102 73.5t88 70.5t79 77t48 75.5t20.5 82q0 52 -34.5 84.5t-94.5 32.5q-95 0 -190 -56q-5 -3 -8.5 -1t-2.5 8l21 92q4 12 12 14q92 53 207 53q101 0 158 -59.5t57 -142.5q0 -63 -23 -117.5t-73 -107t-105 -98t-142 -111.5 q-17 -12 -26 -19l328 2q6 0 4 -10l-37 -90q-3 -8 -10 -8h-493q-7 0 -7 8z" />
<glyph unicode="&#xb3;" horiz-adv-x="608" d="M166 975l20 92q0 9 9 6q85 -65 198 -65q86 0 130 39t44 96q0 53 -38.5 81.5t-108.5 28.5h-74q-8 0 -4 7l16 77q0 11 9 11h63q87 1 129.5 37t42.5 92q2 43 -29.5 70.5t-93.5 27.5q-88 0 -182 -51q-6 -3 -8 -1t0 7l18 90q3 8 10 10q88 49 203 49q96 0 150.5 -51t54.5 -123 q0 -142 -154 -196v-2q48 -15 83.5 -57t35.5 -103q0 -80 -45.5 -136.5t-112 -81t-143.5 -24.5q-137 0 -217 58q-10 3 -6 12z" />
<glyph unicode="&#xb4;" horiz-adv-x="794" d="M408 1114l221 299q9 12 18 12h160q15 0 6 -14l-246 -301q-11 -8 -20 -8h-133q-15 0 -6 12z" />
<glyph unicode="&#xb5;" horiz-adv-x="1024" d="M-61 -426l297 1401q2 12 16 12h137q8 0 9.5 -2.5t0.5 -9.5l-139 -668q-20 -88 10 -138t105 -50q109 0 201 110.5t139 333.5l88 410q3 14 14 14h137q14 0 11 -14l-156 -740q-26 -118 51 -118q35 0 62 10q6 1 8 -2.5t0 -11.5l-23 -97q-6 -32 -114 -32q-31 0 -55 7t-46 25 t-30.5 56t-2.5 94q1 3 3 11.5t3.5 15.5t2.5 10q-66 -112 -151.5 -165.5t-178.5 -53.5q-47 0 -86.5 19.5t-56.5 61.5q-28 -178 -95 -475q-2 -12 -14 -14q-96 -14 -137 -14q-12 0 -10 14z" />
<glyph unicode="&#xb6;" horiz-adv-x="933" d="M98 565q0 256 180 412.5t488 175.5q35 115 74 164q5 8 14 8h96q11 0 6 -10q-60 -123 -82 -221q-36 -173 -94.5 -467.5t-97.5 -479.5q-74 -349 -182 -466q-7 -7 -19 -7h-102q-11 0 -4 11q112 146 168 391l8 37q-197 18 -325.5 135.5t-127.5 316.5z" />
<glyph unicode="&#xb7;" horiz-adv-x="501" d="M150 508q5 45 36 73.5t76 28.5q43 0 68 -30t20 -72q-5 -47 -34 -74.5t-78 -27.5q-43 0 -68.5 29t-19.5 73z" />
<glyph unicode="&#xb8;" horiz-adv-x="755" d="M18 -401l19 84q3 9 12 6q53 -29 117 -29q44 0 72 21t28 59q0 76 -157 94q-3 2 0.5 18.5t7.5 20.5l116 141h121l-88 -108q58 -19 90.5 -58.5t32.5 -95.5q0 -91 -64 -142.5t-167 -51.5q-85 0 -135 26q-5 3 -5 15z" />
<glyph unicode="&#xb9;" horiz-adv-x="417" d="M240 1506q-2 2 0 7l16 78q3 5 8 8q112 27 182 64q6 6 15 6h80q3 0 5 -2.5t1 -5.5l-156 -733q-3 -10 -10 -10h-111q-10 0 -8 10l133 622q-81 -35 -149 -45q-4 -1 -6 1z" />
<glyph unicode="&#xba;" horiz-adv-x="720" d="M141 834q0 104 44.5 195.5t130.5 150.5t194 59q120 0 187 -72t67 -184q0 -170 -104 -289t-259 -119q-89 0 -149.5 38t-85.5 94.5t-25 126.5zM276 838q0 -75 37.5 -118.5t108.5 -43.5q80 0 145.5 87.5t65.5 215.5q0 72 -34.5 117t-104.5 45q-92 0 -155 -91.5t-63 -211.5z " />
<glyph unicode="&#xbb;" horiz-adv-x="1263" d="M92 81.5q-3 2.5 0 8.5l29 133q0 10 12 19l377 258l-268 262q-4 4 -4 16l24 119q3 13 12 4l375 -354q5 -5 2 -17l-16 -86q-1 -3 -10 -12l-525 -350q-5 -3 -8 -0.5zM569 90l29 133q3 10 14 19l377 258l-268 262q-4 4 -4 16l24 119q3 14 13 4l372 -354q7 -7 4 -17l-18 -86 q0 -4 -8 -12l-524 -350q-5 -3 -8.5 -0.5t-2.5 8.5z" />
<glyph unicode="&#xbc;" horiz-adv-x="1409" d="M127 -10l995 1351q9 9 15 9h125q4 0 4.5 -4t-2.5 -7l-994 -1351q-5 -8 -16 -8h-123q-12 0 -4 10zM190 1184l19 78q0 5 8 8q115 27 182 63q6 6 15 6h80q8 0 4 -8l-154 -733q-2 -10 -12 -10h-111q-9 0 -6 10l133 623q-81 -35 -149 -45q-9 -3 -9 8zM748 203l10 55q4 8 10 14 q54 62 206 231t216 238q9 9 14 9h92q10 0 7 -11l-99 -458h119q7 0 4 -7l-27 -73q-3 -6 -10 -6h-104l-39 -189q-3 -8 -12 -8h-99q-8 0 -8 10l41 187h-317q-7 0 -4 8zM879 281h208q36 173 76 331h-2q-30 -40 -282 -331z" />
<glyph unicode="&#xbd;" horiz-adv-x="1488" d="M113 -10l995 1353q7 7 14 7h125q4 0 4.5 -4t-2.5 -7l-991 -1351q-8 -8 -18 -8h-121q-11 0 -6 10zM195 1177q-2 2 0 7l16 78q3 5 8 8q115 27 182 63q6 6 15 6h80q3 0 5 -2.5t1 -5.5l-156 -733q-2 -10 -10 -10h-111q-11 0 -8 10l133 623q-81 -35 -149 -45q-4 -1 -6 1z M807 6l18 70q2 6 6 10q31 23 96.5 69.5t102.5 73.5t88 70.5t79 76.5t48.5 75t20.5 81q0 52 -34.5 84.5t-94.5 32.5q-96 0 -191 -53q-5 -3 -7 -1.5t-1 7.5l20 92q0 10 11 15q89 51 209 51q99 0 156 -60t57 -143q0 -62 -21 -115t-78 -111.5t-100.5 -95t-145.5 -114.5 q-14 -11 -22 -17l326 2q7 0 4 -8l-37 -92q-3 -8 -10 -8h-494q-6 0 -6 8z" />
<glyph unicode="&#xbe;" horiz-adv-x="1505" d="M113 645l20 92q0 10 8 6q85 -65 199 -65q87 0 131.5 39t44.5 96q-2 53 -40.5 82t-108.5 29h-74q-4 0 -4 6l16 78q3 10 8 10h66q86 1 128 36.5t44 92.5q0 44 -31.5 71t-91.5 27q-90 0 -184 -51q-4 -3 -7 -1t-1 7l20 90q2 7 8 10q89 50 203 50q96 0 150.5 -51t54.5 -123 q0 -143 -154 -197v-2q48 -15 83.5 -57t35.5 -103q0 -80 -45 -136.5t-111 -81t-145 -24.5q-133 0 -217 58q-6 2 -6 12zM266 -10l996 1353q7 7 14 7h125q3 0 4 -4t-2 -7l-993 -1351q-5 -8 -17 -8h-123q-12 0 -4 10zM850 201l10 55q4 12 10 16q155 176 422 469q12 8 15 9h92 q9 0 6 -11l-98 -458h118q8 0 5 -9l-27 -71q-4 -8 -10 -8h-105l-39 -187q-3 -8 -12 -8h-98q-11 0 -9 10l41 185h-317q-8 0 -4 8zM981 281h207q42 194 78 329h-2q-14 -19 -57 -69.5t-84.5 -98t-87.5 -100t-54 -61.5z" />
<glyph unicode="&#xbf;" horiz-adv-x="759" d="M168 -92q0 93 53.5 162.5t179.5 160.5q119 91 160 129t41 60q0 44 -59 145q-3 10 6 10h125q8 0 14 -6q66 -98 66 -168q0 -34 -38.5 -81t-156.5 -132q-145 -111 -176 -141q-61 -68 -64 -127q2 -60 48 -100.5t135 -40.5q156 0 293 94q3 3 6.5 1t3.5 -7l-27 -123 q-2 -8 -8 -14q-42 -32 -124 -60t-177 -28q-140 0 -221.5 77t-79.5 189zM573 907q5 44 35 71.5t78 27.5q44 0 69 -28.5t19 -72.5q-5 -42 -35 -70t-75 -28t-70.5 29t-20.5 71z" />
<glyph unicode="&#xc0;" horiz-adv-x="1169" d="M-35 12q522 963 664 1231q12 25 26 78q0 8 9 8h190q8 0 8 -8q0 -1 152 -1309q0 -12 -13 -12h-135q-12 0 -14 12l-47 424h-447l-225 -428q-5 -8 -14 -8h-146q-14 0 -8 12zM426 575h369q-55 441 -62 615h-2q-8 -24 -31 -73.5t-62.5 -127.5t-67.5 -133t-79 -154.5 t-65 -126.5zM516 1643.5q2 5.5 8 5.5h162q7 0 16 -9l146 -221q12 -12 -6 -12h-129q-15 0 -23 8l-172 219q-4 4 -2 9.5z" />
<glyph unicode="&#xc1;" horiz-adv-x="1169" d="M-35 12q522 963 664 1231q12 25 26 78q0 8 9 8h190q8 0 8 -8q0 -1 152 -1309q0 -12 -13 -12h-135q-12 0 -14 12l-47 424h-447l-225 -428q-5 -8 -14 -8h-146q-14 0 -8 12zM426 575h369q-55 441 -62 615h-2q-8 -24 -31 -73.5t-62.5 -127.5t-67.5 -133t-79 -154.5 t-65 -126.5zM666 1406.5q-2 3.5 2 8.5l223 223q9 9 18 9h168q7 0 8.5 -6t-2.5 -9l-245 -219q-10 -10 -23 -10h-141q-6 0 -8 3.5z" />
<glyph unicode="&#xc2;" horiz-adv-x="1169" d="M-35 12q522 963 664 1231q12 25 26 78q0 8 9 8h190q8 0 8 -8q0 -1 152 -1309q0 -12 -13 -12h-135q-12 0 -14 12l-47 424h-447l-225 -428q-5 -8 -14 -8h-146q-14 0 -8 12zM426 575h369q-55 441 -62 615h-2q-8 -24 -31 -73.5t-62.5 -127.5t-67.5 -133t-79 -154.5 t-65 -126.5zM465.5 1407.5q-1.5 4.5 3.5 9.5l279 221q7 7 14 7h135q13 0 16 -9l156 -223q7 -10 -8 -10h-127q-11 0 -16 8l-103 148l-182 -148q-11 -8 -21 -8h-139q-6 0 -7.5 4.5z" />
<glyph unicode="&#xc3;" horiz-adv-x="1169" d="M-35 12q522 963 664 1231q12 25 26 78q0 8 9 8h190q8 0 8 -8q0 -1 152 -1309q0 -12 -13 -12h-135q-12 0 -14 12l-47 424h-447l-225 -428q-5 -8 -14 -8h-146q-14 0 -8 12zM426 575h369q-55 441 -62 615h-2q-8 -24 -31 -73.5t-62.5 -127.5t-67.5 -133t-79 -154.5 t-65 -126.5zM463 1438q12 102 67 158.5t132 56.5q41 0 78.5 -16.5t61 -36t51 -36t50.5 -16.5q58 0 74 88q4 11 12 11h96q11 0 11 -11q-33 -213 -191 -213q-38 0 -74 16.5t-59.5 36t-52 36t-53.5 16.5q-29 0 -52 -23t-32 -67q0 -11 -11 -11h-96q-12 0 -12 11z" />
<glyph unicode="&#xc4;" horiz-adv-x="1169" d="M-35 12q522 963 664 1231q12 25 26 78q0 8 9 8h190q8 0 8 -8q0 -1 152 -1309q0 -12 -13 -12h-135q-12 0 -14 12l-47 424h-447l-225 -428q-5 -8 -14 -8h-146q-14 0 -8 12zM426 575h369q-55 441 -62 615h-2q-8 -24 -31 -73.5t-62.5 -127.5t-67.5 -133t-79 -154.5 t-65 -126.5zM489 1524q4 40 35 66t72 26q43 0 67 -26.5t19 -65.5q-4 -42 -34 -67t-73 -25t-66.5 25.5t-19.5 66.5zM870 1524q4 39 35.5 65.5t73.5 26.5t66.5 -27t19.5 -67q-4 -42 -33.5 -66t-73.5 -24q-42 0 -67 25.5t-21 66.5z" />
<glyph unicode="&#xc5;" horiz-adv-x="1169" d="M-35 12q522 963 664 1231q12 25 26 78q0 8 9 8h190q8 0 8 -8q0 -1 152 -1309q0 -12 -13 -12h-135q-12 0 -14 12l-47 424h-447l-225 -428q-5 -8 -14 -8h-146q-14 0 -8 12zM426 575h369q-55 441 -62 615h-2q-8 -24 -31 -73.5t-62.5 -127.5t-67.5 -133t-79 -154.5 t-65 -126.5zM578 1540q7 76 69 124t152 48t141 -50t43 -126q-9 -76 -70 -123t-151 -47q-91 0 -142 48.5t-42 125.5zM676 1540q-4 -41 22.5 -66.5t71.5 -25.5q47 0 79 24t36 66t-23.5 68t-73.5 26t-76.5 -25.5t-35.5 -66.5z" />
<glyph unicode="&#xc6;" horiz-adv-x="1564" d="M-35 14l768 1227q15 26 39 80q3 8 12 8h729q11 0 11 -10l2 -119q2 -10 -10 -10h-498l-51 -457h456q9 0 7 -10l-25 -119q-3 -10 -12 -10h-439l-51 -455h543q9 0 6 -12l-45 -117q-3 -10 -12 -10h-658q-5 0 -6 1t-2 7l49 445h-366l-273 -443q-5 -10 -14 -10h-154 q-13 0 -6 14zM487 592h308q56 526 69 620h-4q-63 -124 -373 -620z" />
<glyph unicode="&#xc7;" horiz-adv-x="1075" d="M129 500q0 125 32 247.5t97 231t154.5 191.5t212.5 131.5t264 48.5q86 0 152.5 -15.5t99.5 -36.5q7 -4 4 -14l-29 -121q-5 -9 -14 -6q-96 49 -225 49q-105 0 -198.5 -38.5t-162.5 -105.5t-119.5 -155t-76 -189.5t-25.5 -205.5q0 -83 21.5 -150t57 -109.5t83 -70.5 t96 -39.5t100.5 -11.5q164 0 285 59q5 2 8 -0.5t2 -9.5l-30 -129q-3 -14 -13 -16q-84 -47 -248 -53l-61 -76q58 -19 90.5 -58.5t32.5 -95.5q0 -91 -64.5 -142.5t-167.5 -51.5q-85 0 -135 26q-4 4 -4 15l21 84q3 8 10 6q53 -29 117 -29q44 0 72 21t28 59q0 76 -158 94 q-3 2 0.5 18.5t7.5 20.5l95 113q-83 11 -154.5 46t-130.5 95.5t-93 156t-34 216.5z" />
<glyph unicode="&#xc8;" horiz-adv-x="966" d="M53 12l277 1309q3 8 12 8h643q10 0 10 -10l2 -119q0 -10 -8 -10h-526l-94 -445h483q8 0 8 -10l-26 -121q-3 -8 -13 -8h-481l-98 -467h592q9 0 6 -12l-47 -117q-3 -10 -13 -10h-717q-10 0 -10 12zM447 1668.5q2 4.5 8 4.5h159q8 0 19 -8l145 -221q9 -12 -8 -12h-127 q-17 0 -25 8l-169 219q-4 5 -2 9.5z" />
<glyph unicode="&#xc9;" horiz-adv-x="966" d="M53 12l277 1309q3 8 12 8h643q10 0 10 -10l2 -119q0 -10 -8 -10h-526l-94 -445h483q8 0 8 -10l-26 -121q-3 -8 -13 -8h-481l-98 -467h592q9 0 6 -12l-47 -117q-3 -10 -13 -10h-717q-10 0 -10 12zM578.5 1431.5q-1.5 4.5 1.5 8.5l223 223q6 6 20 6h166q15 0 6 -14 l-245 -217q-8 -11 -23 -11h-141q-6 0 -7.5 4.5z" />
<glyph unicode="&#xca;" horiz-adv-x="966" d="M53 12l277 1309q3 8 12 8h643q10 0 10 -10l2 -119q0 -10 -8 -10h-526l-94 -445h483q8 0 8 -10l-26 -121q-3 -8 -13 -8h-481l-98 -467h592q9 0 6 -12l-47 -117q-3 -10 -13 -10h-717q-10 0 -10 12zM383 1435q-1 5 4 9l277 221q8 6 16 6h135q13 0 16 -8l154 -223q3 -4 1 -7 t-7 -3h-127q-11 0 -16 8l-103 147l-184 -147q-8 -8 -21 -8h-137q-7 0 -8 5z" />
<glyph unicode="&#xcb;" horiz-adv-x="966" d="M53 12l277 1309q3 8 12 8h643q10 0 10 -10l2 -119q0 -10 -8 -10h-526l-94 -445h483q8 0 8 -10l-26 -121q-3 -8 -13 -8h-481l-98 -467h592q9 0 6 -12l-47 -117q-3 -10 -13 -10h-717q-10 0 -10 12zM401 1552q4 40 35 65t74 25q42 0 65.5 -26t18.5 -66q-3 -42 -33 -66 t-74 -24q-42 0 -66 25.5t-20 66.5zM782 1552q6 40 37 65t74 25q41 0 65 -26t19 -66q-4 -42 -33.5 -66t-73.5 -24q-42 0 -67 25t-21 67z" />
<glyph unicode="&#xcc;" horiz-adv-x="468" d="M53 12l277 1307q2 10 12 10h141q12 0 9 -10l-277 -1309q-3 -10 -12 -10h-140q-10 0 -10 12zM174 1663.5q2 3.5 8 3.5h160q10 0 18 -8l146 -219q4 -6 2 -10.5t-10 -4.5h-127q-13 0 -25 9l-170 221q-4 5 -2 8.5z" />
<glyph unicode="&#xcd;" horiz-adv-x="468" d="M53 12l277 1307q2 10 12 10h141q12 0 9 -10l-277 -1309q-3 -10 -12 -10h-140q-10 0 -10 12zM328.5 1423.5q-1.5 4.5 1.5 8.5l223 223q6 6 20 6h166q15 0 6 -14l-245 -217q-8 -11 -21 -11h-143q-6 0 -7.5 4.5z" />
<glyph unicode="&#xce;" horiz-adv-x="468" d="M53 12l277 1307q2 10 12 10h141q12 0 9 -10l-277 -1309q-3 -10 -12 -10h-140q-10 0 -10 12zM123.5 1427q-1.5 6 3.5 9l279 221q8 8 14 8h135q13 0 16 -10l156 -223q1 -4 -1 -7.5t-7 -3.5h-127q-11 0 -17 9l-102 147l-182 -147q-12 -9 -21 -9h-139q-6 0 -7.5 6z" />
<glyph unicode="&#xcf;" horiz-adv-x="468" d="M53 12l277 1307q2 10 12 10h141q12 0 9 -10l-277 -1309q-3 -10 -12 -10h-140q-10 0 -10 12zM147 1532q5 40 35.5 66t73.5 26q42 0 66.5 -26.5t19.5 -65.5q-4 -42 -33.5 -67t-72.5 -25t-67.5 25.5t-21.5 66.5zM530 1532q5 40 35.5 66t73.5 26q41 0 65 -27t21 -67 q-4 -42 -34 -66t-75 -24q-42 0 -66 25.5t-20 66.5z" />
<glyph unicode="&#xd0;" horiz-adv-x="1253" d="M68 627l22 104q2 10 12 10h127l121 578q3 8 8 10q118 4 281 4q265 0 411 -145.5t148 -396.5q0 -200 -66 -365t-200 -276q-194 -156 -537 -156q-217 0 -309 6q-10 2 -10 16l127 598h-127q-11 0 -8 13zM262 135q50 -4 166 -4q255 0 391 119q107 91 160 232.5t51 308.5 q0 201 -107.5 305t-299.5 104q-99 0 -136 -2l-96 -457h289q6 0 7.5 -2.5t0.5 -9.5l-20 -104q-6 -11 -15 -11h-288z" />
<glyph unicode="&#xd1;" horiz-adv-x="1228" d="M53 12l277 1307q2 10 12 10h186q8 0 11 -8q298 -932 331 -1118h2q12 104 224 1116q2 10 12 10h137q9 0 6 -10l-274 -1307q-2 -12 -14 -12h-177q-13 0 -16 10q-145 462 -231.5 769t-96.5 382h-2q-15 -139 -229 -1151q-3 -10 -12 -10h-136q-10 0 -10 12zM489 1462 q12 101 67.5 157t131.5 56q41 0 78.5 -16.5t60.5 -35.5t50.5 -35.5t50.5 -16.5q57 0 76 90q0 10 12 10h96q11 0 8 -12q-30 -211 -190 -211q-48 0 -91.5 26t-80 52t-68.5 26q-28 0 -50.5 -23.5t-31.5 -68.5q-4 -8 -12 -8h-94q-13 0 -13 10z" />
<glyph unicode="&#xd2;" horiz-adv-x="1286" d="M125 463q0 128 29.5 255t89 240.5t140.5 201t192 139t235 51.5q187 0 304.5 -129.5t117.5 -362.5q1 -132 -27 -259t-85 -238.5t-136 -196t-188 -133.5t-234 -49q-193 0 -315.5 124.5t-122.5 356.5zM291 467q0 -163 82 -255.5t213 -92.5q111 0 204.5 67.5t152.5 175.5 t91.5 236.5t32.5 257.5q-1 175 -78.5 264.5t-204.5 89.5q-136 0 -251.5 -110t-178.5 -280t-63 -353zM582 1688q2 4 8 4h160q11 0 18 -9l145 -219q8 -14 -6 -14h-129q-14 0 -22 8l-172 221q-4 5 -2 9z" />
<glyph unicode="&#xd3;" horiz-adv-x="1286" d="M125 463q0 128 29.5 255t89 240.5t140.5 201t192 139t235 51.5q187 0 304.5 -129.5t117.5 -362.5q1 -132 -27 -259t-85 -238.5t-136 -196t-188 -133.5t-234 -49q-193 0 -315.5 124.5t-122.5 356.5zM291 467q0 -163 82 -255.5t213 -92.5q111 0 204.5 67.5t152.5 175.5 t91.5 236.5t32.5 257.5q-1 175 -78.5 264.5t-204.5 89.5q-136 0 -251.5 -110t-178.5 -280t-63 -353zM720.5 1448q-2.5 4 0.5 8l225 221q7 9 19 9h168q6 0 7.5 -5t-3.5 -10l-244 -219q-11 -8 -23 -8h-141q-6 0 -8.5 4z" />
<glyph unicode="&#xd4;" horiz-adv-x="1286" d="M125 463q0 128 29.5 255t89 240.5t140.5 201t192 139t235 51.5q187 0 304.5 -129.5t117.5 -362.5q1 -132 -27 -259t-85 -238.5t-136 -196t-188 -133.5t-234 -49q-193 0 -315.5 124.5t-122.5 356.5zM291 467q0 -163 82 -255.5t213 -92.5q111 0 204.5 67.5t152.5 175.5 t91.5 236.5t32.5 257.5q-1 175 -78.5 264.5t-204.5 89.5q-136 0 -251.5 -110t-178.5 -280t-63 -353zM537 1455q-1 5 4 9l276 222q8 6 17 6h135q13 0 16 -9l154 -223q3 -4 1 -7t-7 -3h-127q-12 0 -17 8l-102 148l-185 -148q-8 -8 -20 -8h-137q-7 0 -8 5z" />
<glyph unicode="&#xd5;" horiz-adv-x="1286" d="M125 463q0 128 29.5 255t89 240.5t140.5 201t192 139t235 51.5q187 0 304.5 -129.5t117.5 -362.5q1 -132 -27 -259t-85 -238.5t-136 -196t-188 -133.5t-234 -49q-193 0 -315.5 124.5t-122.5 356.5zM291 467q0 -163 82 -255.5t213 -92.5q111 0 204.5 67.5t152.5 175.5 t91.5 236.5t32.5 257.5q-1 175 -78.5 264.5t-204.5 89.5q-136 0 -251.5 -110t-178.5 -280t-63 -353zM526 1483q12 102 67 158.5t132 56.5q41 0 79 -16.5t61 -36t50.5 -36t49.5 -16.5q56 0 75 88q3 11 13 11h96q10 0 10 -11q-33 -211 -190 -211q-39 0 -75.5 16.5t-59.5 36 t-51.5 36t-53.5 16.5q-29 0 -52 -23.5t-32 -68.5q0 -10 -10 -10h-96q-13 0 -13 10z" />
<glyph unicode="&#xd6;" horiz-adv-x="1286" d="M125 463q0 128 29.5 255t89 240.5t140.5 201t192 139t235 51.5q187 0 304.5 -129.5t117.5 -362.5q1 -132 -27 -259t-85 -238.5t-136 -196t-188 -133.5t-234 -49q-193 0 -315.5 124.5t-122.5 356.5zM291 467q0 -163 82 -255.5t213 -92.5q111 0 204.5 67.5t152.5 175.5 t91.5 236.5t32.5 257.5q-1 175 -78.5 264.5t-204.5 89.5q-136 0 -251.5 -110t-178.5 -280t-63 -353zM553 1565q5 40 35.5 66t73.5 26q42 0 65 -26.5t18 -65.5q-4 -42 -33.5 -67t-72.5 -25q-42 0 -66 25.5t-20 66.5zM934 1565q6 40 37 66t73 26q41 0 65 -27t19 -67 q-4 -42 -33 -66t-73 -24q-42 0 -67 25.5t-21 66.5z" />
<glyph unicode="&#xd7;" horiz-adv-x="1120" d="M92 115q-11 11 2 20l383 389l-385 394q-9 9 0 18l68 70q8 8 18 0l383 -398l383 396q10 10 21 0l65 -70q8 -11 -2 -21l-383 -389l385 -391q9 -9 0 -20l-67 -66q-11 -11 -21 0l-383 393l-381 -393q-9 -9 -18 -2z" />
<glyph unicode="&#xd8;" horiz-adv-x="1286" d="M84 10l123 150q-82 127 -82 309q0 109 22 217t63 205.5t102.5 181.5t135.5 145.5t168 96.5t195 35q159 0 266 -103l68 76q6 6 14 6h101q13 0 6 -10l-117 -139q40 -57 62 -141.5t22 -178.5q0 -139 -29.5 -269.5t-87 -240.5t-137.5 -192.5t-187 -129t-229 -46.5 q-183 0 -284 106l-66 -82q-6 -6 -14 -6h-109q-11 0 -6 10zM289 489q0 -59 13.5 -107.5t29.5 -72.5l651 815q-72 88 -197 88q-108 0 -202 -63t-157.5 -165.5t-100 -232t-37.5 -262.5zM381 207q76 -88 205 -88q95 0 176.5 46t137 120.5t95 169t58 192t18.5 189.5 q0 121 -37 190z" />
<glyph unicode="&#xd9;" horiz-adv-x="1214" d="M136 244.5q-18 90.5 5 216.5l183 858q2 10 12 10h141q11 0 8 -10l-178 -852q-35 -172 30.5 -258t205.5 -86q50 0 89 7t82 29t75 59.5t61.5 102.5t48.5 154l180 844q3 10 15 10h139q11 0 8 -12l-182 -854q-28 -134 -77.5 -228.5t-119.5 -149t-153 -79t-187 -24.5 q-97 0 -175.5 27.5t-135.5 86t-75 149zM551 1660.5q2 4.5 8 4.5h160q10 0 18 -8l146 -221q4 -6 2 -10.5t-8 -4.5h-129q-15 0 -23 11l-172 219q-4 5 -2 9.5z" />
<glyph unicode="&#xda;" horiz-adv-x="1214" d="M136 244.5q-18 90.5 5 216.5l183 858q2 10 12 10h141q11 0 8 -10l-178 -852q-35 -172 30.5 -258t205.5 -86q50 0 89 7t82 29t75 59.5t61.5 102.5t48.5 154l180 844q3 10 15 10h139q11 0 8 -12l-182 -854q-28 -134 -77.5 -228.5t-119.5 -149t-153 -79t-187 -24.5 q-97 0 -175.5 27.5t-135.5 86t-75 149zM672 1434q-2 4 2 8l223 221q6 8 18 8h168q7 0 8.5 -4.5t-1.5 -9.5l-246 -219q-8 -8 -23 -8h-141q-6 0 -8 4z" />
<glyph unicode="&#xdb;" horiz-adv-x="1214" d="M136 244.5q-18 90.5 5 216.5l183 858q2 10 12 10h141q11 0 8 -10l-178 -852q-35 -172 30.5 -258t205.5 -86q50 0 89 7t82 29t75 59.5t61.5 102.5t48.5 154l180 844q3 10 15 10h139q11 0 8 -12l-182 -854q-28 -134 -77.5 -228.5t-119.5 -149t-153 -79t-187 -24.5 q-97 0 -175.5 27.5t-135.5 86t-75 149zM490 1441q1 4 4 7l276 221q9 6 16 6h136q13 0 16 -8l154 -225q3 -4 0 -7t-9 -3h-125q-13 0 -16 8l-104 149l-183 -149q-11 -8 -20 -8h-139q-4 0 -5.5 2.5t-0.5 6.5z" />
<glyph unicode="&#xdc;" horiz-adv-x="1214" d="M136 244.5q-18 90.5 5 216.5l183 858q2 10 12 10h141q11 0 8 -10l-178 -852q-35 -172 30.5 -258t205.5 -86q50 0 89 7t82 29t75 59.5t61.5 102.5t48.5 154l180 844q3 10 15 10h139q11 0 8 -12l-182 -854q-28 -134 -77.5 -228.5t-119.5 -149t-153 -79t-187 -24.5 q-97 0 -175.5 27.5t-135.5 86t-75 149zM512 1542q5 40 35.5 66t73.5 26q42 0 66.5 -26.5t19.5 -65.5q-4 -42 -34 -67t-73 -25t-67 25.5t-21 66.5zM895 1542q5 40 35.5 66t73.5 26q41 0 65 -27t21 -67q-4 -42 -34 -66t-75 -24q-42 0 -66 25.5t-20 66.5z" />
<glyph unicode="&#xdd;" horiz-adv-x="1044" d="M197 1319q-3 10 8 10h149q8 0 11 -8q164 -563 184 -684q104 177 471 684q5 8 16 8h150q4 0 6 -1.5t1.5 -4.5t-3.5 -6l-563 -770q-17 -22 -35 -80l-96 -455q-3 -12 -13 -12h-139q-13 0 -10 14l98 465q8 49 0 74zM574.5 1418.5q-2.5 3.5 0.5 8.5l224 224q6 6 20 6h168 q6 0 7.5 -5.5t-3.5 -9.5l-243 -219q-11 -8 -23 -8h-141q-7 0 -9.5 3.5z" />
<glyph unicode="&#xde;" horiz-adv-x="1042" d="M51 12l279 1307q2 10 12 10h141q12 0 9 -10l-54 -258q18 2 142 2q186 0 286.5 -95.5t100.5 -240.5q0 -116 -42 -205t-117.5 -144t-175.5 -82.5t-220 -27.5q-84 0 -142 4l-55 -260q-4 -12 -14 -12h-140q-10 0 -10 12zM299 406q68 -5 139 -5q174 0 269.5 80.5t95.5 233.5 q0 98 -67.5 159.5t-198.5 61.5q-73 0 -127 -4z" />
<glyph unicode="&#xdf;" horiz-adv-x="1081" d="M-37 -365q32 123 80.5 346t107.5 507.5t78 371.5l-118 6q-13 0 -9 15l21 94q2 12 12 12h121q109 479 489 479q85 0 149.5 -28t100.5 -75t53.5 -98.5t18.5 -107.5q0 -106 -37 -156q-15 -16 -40 -38.5t-49.5 -42t-58.5 -45t-54.5 -40.5t-50.5 -36.5t-34 -24.5 q49 -58 59.5 -71t48 -59.5t46.5 -62.5t31.5 -54t28.5 -61.5t13 -57.5t7 -68q0 -160 -106 -260t-273 -100q-75 0 -147.5 21.5t-110.5 53.5q-11 8 -6 19l26 119q1 6 5.5 7.5t7.5 -1.5q103 -80 229 -80q101 0 157 61.5t56 147.5q0 59 -19 104t-69 111q-28 37 -55 67t-54 58.5 t-36 38.5q-7 7 -7 18l15 78q5 11 12 14q218 153 291 236q16 40 16 100q0 81 -48 133.5t-134 52.5q-116 0 -194.5 -91t-120.5 -285q-25 -113 -86 -414t-112 -536.5t-85 -358.5q-3 -14 -14 -14l-142 -17q-13 0 -10 12z" />
<glyph unicode="&#xe0;" horiz-adv-x="995" d="M84 356q-1 93 29 187t88 176.5t137 147t183.5 102t219.5 37.5q123 0 215 -29q7 -4 5 -10l-191 -908q-3 -8 -14 -14q-135 -63 -299 -63q-177 0 -275 98t-98 276zM250 369q0 -126 63 -190t179 -64q74 0 129 22l155 729q-24 8 -74 8q-120 0 -225 -71t-166 -187.5t-61 -246.5 zM498 1411q-2 5 1 9.5t9 4.5h158q9 0 12 -10l102 -301q4 -12 -12 -12h-125q-11 0 -14 10z" />
<glyph unicode="&#xe1;" horiz-adv-x="995" d="M84 356q-1 93 29 187t88 176.5t137 147t183.5 102t219.5 37.5q123 0 215 -29q7 -4 5 -10l-191 -908q-3 -8 -14 -14q-135 -63 -299 -63q-177 0 -275 98t-98 276zM250 369q0 -126 63 -190t179 -64q74 0 129 22l155 729q-24 8 -74 8q-120 0 -225 -71t-166 -187.5t-61 -246.5 zM575 1116l222 299q9 12 18 12h160q15 0 6 -14l-246 -301q-11 -8 -20 -8h-133q-16 0 -7 12z" />
<glyph unicode="&#xe2;" horiz-adv-x="995" d="M84 356q-1 93 29 187t88 176.5t137 147t183.5 102t219.5 37.5q123 0 215 -29q7 -4 5 -10l-191 -908q-3 -8 -14 -14q-135 -63 -299 -63q-177 0 -275 98t-98 276zM250 369q0 -126 63 -190t179 -64q74 0 129 22l155 729q-24 8 -74 8q-120 0 -225 -71t-166 -187.5t-61 -246.5 zM397 1112l267 301q11 8 16 8h127q9 0 12 -8l113 -303q3 -4 0.5 -8t-8.5 -4h-113q-11 0 -16 8q-51 154 -72 217q-92 -118 -182 -217q-8 -8 -19 -8h-121q-13 0 -4 14z" />
<glyph unicode="&#xe3;" horiz-adv-x="995" d="M84 356q-1 93 29 187t88 176.5t137 147t183.5 102t219.5 37.5q123 0 215 -29q7 -4 5 -10l-191 -908q-3 -8 -14 -14q-135 -63 -299 -63q-177 0 -275 98t-98 276zM250 369q0 -126 63 -190t179 -64q74 0 129 22l155 729q-24 8 -74 8q-120 0 -225 -71t-166 -187.5t-61 -246.5 zM350 1167q13 105 69 162t136 57q51 0 101.5 -26t91 -52t67.5 -26q62 0 78 90q0 10 10 10h103q8 0 8 -10q-14 -117 -66 -169t-127 -52q-50 0 -97 26t-88.5 52t-76.5 26q-66 0 -86 -92q0 -10 -10 -10h-103q-10 0 -10 14z" />
<glyph unicode="&#xe4;" horiz-adv-x="995" d="M84 356q-1 93 29 187t88 176.5t137 147t183.5 102t219.5 37.5q123 0 215 -29q7 -4 5 -10l-191 -908q-3 -8 -14 -14q-135 -63 -299 -63q-177 0 -275 98t-98 276zM250 369q0 -126 63 -190t179 -64q74 0 129 22l155 729q-24 8 -74 8q-120 0 -225 -71t-166 -187.5t-61 -246.5 zM412 1262q6 40 34.5 65t69.5 25t62 -25.5t16 -66.5q-6 -40 -35 -65.5t-70 -25.5q-40 0 -61.5 26.5t-15.5 66.5zM780 1262q8 40 37 65t70 25t61.5 -26t14.5 -66q-5 -40 -33.5 -65.5t-69.5 -25.5q-40 0 -62.5 26.5t-17.5 66.5z" />
<glyph unicode="&#xe5;" horiz-adv-x="995" d="M84 356q-1 93 29 187t88 176.5t137 147t183.5 102t219.5 37.5q123 0 215 -29q7 -4 5 -10l-191 -908q-3 -8 -14 -14q-135 -63 -299 -63q-177 0 -275 98t-98 276zM250 369q0 -126 63 -190t179 -64q74 0 129 22l155 729q-24 8 -74 8q-120 0 -225 -71t-166 -187.5t-61 -246.5 zM514 1268q9 83 68.5 132.5t146.5 49.5t138 -50.5t44 -131.5q-10 -85 -70.5 -135t-148.5 -50t-137.5 50t-40.5 135zM610 1268q-6 -45 19.5 -73t70.5 -28t77 26.5t38 74.5q4 45 -23 73.5t-71 28.5q-45 0 -76 -27.5t-35 -74.5z" />
<glyph unicode="&#xe6;" horiz-adv-x="1517" d="M84 264q0 130 64.5 260.5t171 232t255.5 165.5t308 65q112 0 166 -16q75 35 168 35q70 0 123.5 -20t84 -54.5t45.5 -75t15 -86.5q0 -162 -161 -253t-472 -85q-6 -36 -6 -78q0 -108 58.5 -173.5t185.5 -65.5q133 0 241 67q3 2 5.5 -1t2.5 -7l-26 -117q-2 -12 -15 -18 q-89 -57 -251 -57q-229 0 -320 190q-167 -190 -385 -190q-114 0 -186 68.5t-72 213.5zM250 291q0 -89 41 -130.5t106 -41.5q155 0 293 172q-4 46 -4 92q2 121 59 260.5t152 212.5q-116 12 -235 -33t-208.5 -124.5t-146.5 -188.5t-57 -219zM868 545q111 -2 196 10t135 33 t82 51.5t43 60t11 62.5q0 20 -5 38t-18.5 39t-44 33.5t-73.5 12.5q-110 0 -200.5 -95t-125.5 -245z" />
<glyph unicode="&#xe7;" horiz-adv-x="800" d="M84 377q0 98 28 192.5t79.5 172.5t120 138t155 93t178.5 33t141 -20q25 -10 19 -23l-27 -109q-3 -10 -12 -8q-52 24 -127 24q-111 0 -201.5 -68t-139 -177t-48.5 -232q0 -136 68 -206t176 -70q106 0 174 37q6 1 8 -2t0 -9l-27 -110q-3 -14 -12 -19q-62 -29 -150 -32 l-61 -76q58 -19 90.5 -58.5t32.5 -95.5q0 -91 -64.5 -142.5t-167.5 -51.5q-85 0 -135 26q-4 3 -4 15l19 84q3 9 12 6q53 -29 117 -29q44 0 72 21t28 59q0 76 -158 94q-3 2 0.5 18.5t7.5 20.5l97 115q-96 17 -162 73t-96.5 136t-30.5 180z" />
<glyph unicode="&#xe8;" horiz-adv-x="915" d="M82 362q0 94 25.5 188.5t74 175.5t112 144t145.5 99.5t169 36.5q72 0 126.5 -20.5t85.5 -55.5t46 -76t15 -86q0 -165 -160 -253.5t-473 -84.5q-6 -37 -6 -78q0 -235 237 -235q140 0 248 67q5 2 7 -1t1 -7l-26 -119q-2 -11 -13 -18q-92 -57 -260 -57q-178 0 -266 101.5 t-88 278.5zM266 545q110 -2 194.5 10.5t134.5 33.5t81.5 51.5t43 59.5t11.5 62q0 19 -5 37.5t-18.5 38.5t-42.5 32.5t-71 12.5q-106 0 -198 -95t-130 -243zM416 1411q-2 5 1 9.5t9 4.5h158q9 0 12 -10l102 -301q0 -12 -12 -12h-125q-11 0 -14 10z" />
<glyph unicode="&#xe9;" horiz-adv-x="915" d="M82 362q0 94 25.5 188.5t74 175.5t112 144t145.5 99.5t169 36.5q72 0 126.5 -20.5t85.5 -55.5t46 -76t15 -86q0 -165 -160 -253.5t-473 -84.5q-6 -37 -6 -78q0 -235 237 -235q140 0 248 67q5 2 7 -1t1 -7l-26 -119q-2 -11 -13 -18q-92 -57 -260 -57q-178 0 -266 101.5 t-88 278.5zM266 545q110 -2 194.5 10.5t134.5 33.5t81.5 51.5t43 59.5t11.5 62q0 19 -5 37.5t-18.5 38.5t-42.5 32.5t-71 12.5q-106 0 -198 -95t-130 -243zM477 1114l221 299q9 12 19 12h160q15 0 6 -14l-246 -301q-11 -8 -21 -8h-133q-15 0 -6 12z" />
<glyph unicode="&#xea;" horiz-adv-x="915" d="M82 362q0 94 25.5 188.5t74 175.5t112 144t145.5 99.5t169 36.5q72 0 126.5 -20.5t85.5 -55.5t46 -76t15 -86q0 -165 -160 -253.5t-473 -84.5q-6 -37 -6 -78q0 -235 237 -235q140 0 248 67q5 2 7 -1t1 -7l-26 -119q-2 -11 -13 -18q-92 -57 -260 -57q-178 0 -266 101.5 t-88 278.5zM266 545q110 -2 194.5 10.5t134.5 33.5t81.5 51.5t43 59.5t11.5 62q0 19 -5 37.5t-18.5 38.5t-42.5 32.5t-71 12.5q-106 0 -198 -95t-130 -243zM322 1112l266 301q8 8 16 8h127q9 0 12 -8l113 -303q3 -4 0.5 -8t-8.5 -4h-115q-9 0 -14 8q-7 22 -23.5 71t-30 88.5 t-18.5 57.5q-92 -118 -182 -217q-8 -8 -19 -8h-120q-13 0 -4 14z" />
<glyph unicode="&#xeb;" horiz-adv-x="915" d="M82 362q0 94 25.5 188.5t74 175.5t112 144t145.5 99.5t169 36.5q72 0 126.5 -20.5t85.5 -55.5t46 -76t15 -86q0 -165 -160 -253.5t-473 -84.5q-6 -37 -6 -78q0 -235 237 -235q140 0 248 67q5 2 7 -1t1 -7l-26 -119q-2 -11 -13 -18q-92 -57 -260 -57q-178 0 -266 101.5 t-88 278.5zM266 545q110 -2 194.5 10.5t134.5 33.5t81.5 51.5t43 59.5t11.5 62q0 19 -5 37.5t-18.5 38.5t-42.5 32.5t-71 12.5q-106 0 -198 -95t-130 -243zM326 1262q6 40 34.5 65t69.5 25t62 -25.5t16 -66.5q-6 -40 -35 -65.5t-70 -25.5q-40 0 -61.5 26.5t-15.5 66.5z M694 1262q8 40 37 65t70 25t61.5 -26t14.5 -66q-5 -40 -33.5 -65.5t-69.5 -25.5q-40 0 -62.5 26.5t-17.5 66.5z" />
<glyph unicode="&#xec;" horiz-adv-x="438" d="M35 12l205 965q2 10 14 10h141q11 0 8 -14l-202 -963q-5 -10 -17 -10h-139q-10 0 -10 12zM139 1411q-3 4 1 9t10 5h155q11 0 14 -10l101 -301q2 -5 -1 -8.5t-9 -3.5h-125q-12 0 -15 10z" />
<glyph unicode="&#xed;" horiz-adv-x="438" d="M35 12l205 965q2 10 14 10h141q11 0 8 -14l-202 -963q-5 -10 -17 -10h-139q-10 0 -10 12zM250 1114l221 299q9 12 18 12h160q15 0 6 -14l-245 -301q-11 -8 -21 -8h-133q-15 0 -6 12z" />
<glyph unicode="&#xee;" horiz-adv-x="438" d="M35 12l205 965q2 10 14 10h141q11 0 8 -14l-202 -963q-5 -10 -17 -10h-139q-10 0 -10 12zM64 1105.5q1 3.5 4 6.5l266 301q8 8 14 8h127q9 0 14 -8l113 -303q2 -4 -1 -8t-7 -4h-115q-11 0 -16 8q-51 154 -72 217q-92 -118 -182 -217q-8 -8 -16 -8h-123q-4 0 -5.5 2 t-0.5 5.5z" />
<glyph unicode="&#xef;" horiz-adv-x="438" d="M35 12l205 965q2 10 14 10h141q11 0 8 -14l-202 -963q-5 -10 -17 -10h-139q-10 0 -10 12zM86 1262q6 40 34.5 65t69.5 25t62 -25.5t16 -66.5q-6 -40 -34.5 -65.5t-69.5 -25.5q-40 0 -62 26.5t-16 66.5zM455 1262q8 40 36.5 65t69.5 25t61.5 -26t14.5 -66 q-5 -40 -33 -65.5t-69 -25.5q-40 0 -62.5 26.5t-17.5 66.5z" />
<glyph unicode="&#xf0;" d="M86 348q0 154 63.5 289t180.5 218t260 83q110 0 174 -61q-23 167 -115 262l-289 -146q-4 -3 -8 -1t-4 7l17 84q3 12 12 15l205 104q-98 88 -256 133q-12 3 -9 15l31 104q2 12 12 12q83 -11 182.5 -59t182.5 -125l250 127q4 2 6 1.5t2.5 -2t-0.5 -3.5l-14 -88 q-3 -11 -13 -14l-170 -89q75 -91 116 -223.5t40 -292.5q-2 -193 -63 -354t-180 -261.5t-275 -100.5q-165 0 -251.5 101t-86.5 265zM252 338q0 -62 19.5 -112.5t65.5 -85t112 -34.5q89 0 165 82.5t119.5 217t44.5 284.5q0 31 -12 43q-24 34 -70.5 56t-109.5 22 q-91 0 -168 -63.5t-121.5 -172.5t-44.5 -237z" />
<glyph unicode="&#xf1;" horiz-adv-x="1011" d="M37 10l158 746q19 93 38 219q3 12 13 12h127q9 0 12 -8q0 -39 -18 -145q179 172 350 172q29 0 56 -6.5t55.5 -21.5t48.5 -43t33 -67t12.5 -97.5t-15.5 -131.5l-133 -629q-2 -10 -12 -10h-141q-14 0 -11 12l135 629q43 227 -104 227q-68 0 -146 -48t-151 -138l-143 -674 q-3 -8 -15 -8h-141q-11 0 -8 10zM299 1167q13 104 70 161.5t137 57.5q50 0 100 -26t90.5 -52t67.5 -26q62 0 78 90q2 10 12 10h100q11 0 11 -10q-14 -117 -66.5 -169t-126.5 -52q-50 0 -97.5 26t-89 52t-75.5 26q-68 0 -88 -92q0 -10 -10 -10h-103q-10 0 -10 14z" />
<glyph unicode="&#xf2;" horiz-adv-x="1024" d="M84 356q0 98 23 192.5t68.5 177t107.5 145.5t145 99t176 36q158 0 248 -106.5t90 -274.5q0 -170 -62.5 -316t-181 -236.5t-268.5 -90.5q-167 0 -256.5 104t-89.5 270zM248 354q0 -112 53 -180t148 -68q86 0 162.5 72.5t121.5 194.5t45 260q0 37 -5 70t-19 66.5t-35 57.5 t-56 39t-79 15q-90 0 -168.5 -75.5t-123 -197t-44.5 -254.5zM428 1411q-2 5 1 9.5t9 4.5h156q11 0 14 -10l101 -301q2 -5 -1.5 -8.5t-9.5 -3.5h-125q-11 0 -14 10z" />
<glyph unicode="&#xf3;" horiz-adv-x="1024" d="M84 356q0 98 23 192.5t68.5 177t107.5 145.5t145 99t176 36q158 0 248 -106.5t90 -274.5q0 -170 -62.5 -316t-181 -236.5t-268.5 -90.5q-167 0 -256.5 104t-89.5 270zM248 354q0 -112 53 -180t148 -68q86 0 162.5 72.5t121.5 194.5t45 260q0 37 -5 70t-19 66.5t-35 57.5 t-56 39t-79 15q-90 0 -168.5 -75.5t-123 -197t-44.5 -254.5zM506 1114l221 299q9 12 18 12h160q15 0 6 -14l-245 -301q-11 -8 -21 -8h-133q-15 0 -6 12z" />
<glyph unicode="&#xf4;" horiz-adv-x="1024" d="M84 356q0 98 23 192.5t68.5 177t107.5 145.5t145 99t176 36q158 0 248 -106.5t90 -274.5q0 -170 -62.5 -316t-181 -236.5t-268.5 -90.5q-167 0 -256.5 104t-89.5 270zM248 354q0 -112 53 -180t148 -68q86 0 162.5 72.5t121.5 194.5t45 260q0 37 -5 70t-19 66.5t-35 57.5 t-56 39t-79 15q-90 0 -168.5 -75.5t-123 -197t-44.5 -254.5zM354 1105.5q1 3.5 4 6.5l267 301q8 8 14 8h129q7 0 12 -8l113 -303q4 -12 -8 -12h-115q-11 0 -14 8q-2 7 -74 217q-44 -60 -180 -217q-12 -8 -19 -8h-123q-4 0 -5.5 2t-0.5 5.5z" />
<glyph unicode="&#xf5;" horiz-adv-x="1024" d="M84 356q0 98 23 192.5t68.5 177t107.5 145.5t145 99t176 36q158 0 248 -106.5t90 -274.5q0 -170 -62.5 -316t-181 -236.5t-268.5 -90.5q-167 0 -256.5 104t-89.5 270zM248 354q0 -112 53 -180t148 -68q86 0 162.5 72.5t121.5 194.5t45 260q0 37 -5 70t-19 66.5t-35 57.5 t-56 39t-79 15q-90 0 -168.5 -75.5t-123 -197t-44.5 -254.5zM305 1167q13 104 70 161.5t137 57.5q50 0 100 -26t90.5 -52t67.5 -26q62 0 78 90q2 10 12 10h101q10 0 10 -10q-14 -117 -66.5 -169t-126.5 -52q-50 0 -97.5 26t-89 52t-75.5 26q-68 0 -88 -92q0 -10 -10 -10 h-103q-10 0 -10 14z" />
<glyph unicode="&#xf6;" horiz-adv-x="1024" d="M84 356q0 98 23 192.5t68.5 177t107.5 145.5t145 99t176 36q158 0 248 -106.5t90 -274.5q0 -170 -62.5 -316t-181 -236.5t-268.5 -90.5q-167 0 -256.5 104t-89.5 270zM248 354q0 -112 53 -180t148 -68q86 0 162.5 72.5t121.5 194.5t45 260q0 37 -5 70t-19 66.5t-35 57.5 t-56 39t-79 15q-90 0 -168.5 -75.5t-123 -197t-44.5 -254.5zM360 1262q6 40 35 65t70 25t62 -25.5t16 -66.5q-6 -40 -35 -65.5t-70 -25.5q-40 0 -62 26.5t-16 66.5zM729 1262q8 40 37 65t70 25t61 -26t14 -66q-5 -40 -33 -65.5t-69 -25.5q-40 0 -62.5 26.5t-17.5 66.5z" />
<glyph unicode="&#xf7;" horiz-adv-x="1122" d="M63 485v103q0 12 13 12h971q10 0 10 -12v-101q0 -14 -10 -14h-971q-13 0 -13 12zM473 190q0 40 24.5 66.5t63.5 26.5t63.5 -26.5t24.5 -66.5t-24 -66t-66 -26q-39 0 -63.5 26.5t-22.5 65.5zM473 883q0 39 24.5 64.5t63.5 25.5t63.5 -25.5t24.5 -64.5q0 -42 -24 -68.5 t-66 -26.5q-40 0 -64 27t-22 68z" />
<glyph unicode="&#xf8;" horiz-adv-x="1038" d="M37 4l108 121q-61 99 -61 229q0 126 37.5 243.5t103.5 208.5t165 145.5t214 54.5q133 0 217 -80l51 57q6 6 15 6h88q13 0 4 -12l-100 -111q63 -99 63 -243q0 -172 -62.5 -317.5t-180.5 -234.5t-267 -89q-67 0 -128 21t-101 58l-56 -63q-6 -8 -20 -8h-88q-11 0 -2 14z M249 393q1 -72 19 -135l453 557q-52 64 -141 64q-59 0 -112 -28.5t-93 -75.5t-69.5 -110.5t-43.5 -131.5t-13 -140zM309 176q54 -63 142 -63q63 0 118 29.5t93 79t65 113.5t38.5 131.5t9.5 135t-19 123.5z" />
<glyph unicode="&#xf9;" horiz-adv-x="989" d="M86 210q1 53 14 122l136 643q3 12 14 12h141q8 0 8 -12l-135 -645q-21 -95 7 -152t110 -57q63 0 127 33.5t139 126.5l148 696q3 10 14 10h139q11 0 8 -10l-159 -760q-25 -123 -29 -205q0 -12 -12 -12h-125q-15 0 -17 12q0 54 13 121q-81 -86 -159 -118.5t-163 -32.5 q-34 0 -63.5 7t-59 22.5t-49.5 42t-34 65t-13 91.5zM422 1411q-2 5 1 9.5t9 4.5h156q11 0 14 -10l100 -301q2 -5 -1 -8.5t-9 -3.5h-125q-11 0 -14 10z" />
<glyph unicode="&#xfa;" horiz-adv-x="989" d="M86 210q1 53 14 122l136 643q3 12 14 12h141q8 0 8 -12l-135 -645q-21 -95 7 -152t110 -57q63 0 127 33.5t139 126.5l148 696q3 10 14 10h139q11 0 8 -10l-159 -760q-25 -123 -29 -205q0 -12 -12 -12h-125q-15 0 -17 12q0 54 13 121q-81 -86 -159 -118.5t-163 -32.5 q-34 0 -63.5 7t-59 22.5t-49.5 42t-34 65t-13 91.5zM504 1114l221 299q9 12 18 12h160q15 0 6 -14l-245 -301q-11 -8 -21 -8h-133q-15 0 -6 12z" />
<glyph unicode="&#xfb;" horiz-adv-x="989" d="M86 210q1 53 14 122l136 643q3 12 14 12h141q8 0 8 -12l-135 -645q-21 -95 7 -152t110 -57q63 0 127 33.5t139 126.5l148 696q3 10 14 10h139q11 0 8 -10l-159 -760q-25 -123 -29 -205q0 -12 -12 -12h-125q-15 0 -17 12q0 54 13 121q-81 -86 -159 -118.5t-163 -32.5 q-34 0 -63.5 7t-59 22.5t-49.5 42t-34 65t-13 91.5zM358 1112l267 301q8 8 16 8h127q9 0 12 -8l113 -303q4 -12 -8 -12h-115q-11 0 -14 8q-2 7 -74 217q-24 -33 -86 -107.5t-94 -109.5q-8 -8 -19 -8h-121q-13 0 -4 14z" />
<glyph unicode="&#xfc;" horiz-adv-x="989" d="M86 210q1 53 14 122l136 643q3 12 14 12h141q8 0 8 -12l-135 -645q-21 -95 7 -152t110 -57q63 0 127 33.5t139 126.5l148 696q3 10 14 10h139q11 0 8 -10l-159 -760q-25 -123 -29 -205q0 -12 -12 -12h-125q-15 0 -17 12q0 54 13 121q-81 -86 -159 -118.5t-163 -32.5 q-34 0 -63.5 7t-59 22.5t-49.5 42t-34 65t-13 91.5zM365 1262q6 40 34.5 65t69.5 25t62 -25.5t16 -66.5q-6 -40 -35 -65.5t-70 -25.5q-40 0 -61.5 26.5t-15.5 66.5zM733 1262q8 40 37 65t70 25t61 -26t14 -66q-5 -40 -33 -65.5t-69 -25.5q-40 0 -62.5 26.5t-17.5 66.5z" />
<glyph unicode="&#xfd;" horiz-adv-x="888" d="M-160 -435q-2 5 2 9q107 99 227 238.5t189 244.5q6 8 6 21q-8 52 -79 452t-79 445q-3 12 9 12h153q8 0 11 -8q106 -631 112 -756h4q35 59 70.5 126t80 156.5t70.5 143t82 172t74 156.5q7 10 16 10h144q12 0 8 -14q-250 -548 -502 -924q-96 -141 -216 -283.5t-181 -197.5 q-8 -8 -18 -8h-175q-6 0 -8 5zM438 1114l221 299q9 12 19 12h160q15 0 6 -14l-246 -301q-11 -8 -20 -8h-134q-15 0 -6 12z" />
<glyph unicode="&#xfe;" horiz-adv-x="1011" d="M-55 -428l393 1870q2 10 12 12q11 1 46.5 3.5t64.5 4.5t35 2q10 0 8 -10l-105 -487q111 39 211 39q151 0 236.5 -102t87.5 -259q0 -141 -47.5 -265t-127.5 -210.5t-189 -137t-228 -50.5q-85 0 -141 30l-90 -426q-2 -11 -13 -14q-19 -2 -71.5 -6t-73.5 -6q-11 0 -8 12z M229 145q61 -34 140 -34q159 0 278 150.5t119 365.5q0 111 -54 180.5t-157 69.5q-90 0 -184 -46z" />
<glyph unicode="&#xff;" horiz-adv-x="888" d="M-160 -435q-2 5 2 9q107 99 227 238.5t189 244.5q6 8 6 21q-8 52 -79 452t-79 445q-3 12 9 12h153q8 0 11 -8q106 -631 112 -756h4q35 59 70.5 126t80 156.5t70.5 143t82 172t74 156.5q7 10 16 10h144q12 0 8 -14q-250 -548 -502 -924q-96 -141 -216 -283.5t-181 -197.5 q-8 -8 -18 -8h-175q-6 0 -8 5zM283 1262q6 40 34.5 65t69.5 25t62 -25.5t16 -66.5q-6 -40 -35 -65.5t-70 -25.5q-40 0 -61.5 26.5t-15.5 66.5zM651 1262q8 40 37 65t70 25t61.5 -26t14.5 -66q-5 -40 -33.5 -65.5t-69.5 -25.5q-40 0 -62.5 26.5t-17.5 66.5z" />
<glyph unicode="&#x152;" horiz-adv-x="1718" d="M133 510q2 178 63.5 333.5t165.5 265t249 172t309 62.5q124 0 227 -14h594q5 0 6.5 -1t1.5 -7l2 -119q0 -12 -12 -12h-522l-95 -445h484q9 0 6 -12l-23 -119q-2 -8 -12 -8h-483l-99 -467h592q9 0 4 -12l-43 -117q-5 -10 -14 -10h-660q-154 -14 -249 -14q-120 0 -216 41 t-156 113t-91 166t-29 204zM301 512q-1 -187 98 -288t271 -101q110 0 161 10l226 1059q-57 14 -160 14q-169 0 -306 -92.5t-213.5 -251t-76.5 -350.5z" />
<glyph unicode="&#x153;" horiz-adv-x="1585" d="M84 356q0 98 23 192.5t68.5 177t107.5 145.5t145 99t176 36q44 0 85 -10.5t83.5 -34.5t75.5 -73t49 -118q69 114 170.5 175t210.5 61q72 0 126 -20.5t85 -55.5t46 -76t15 -86q0 -166 -160.5 -254t-474.5 -84q0 -4 -2 -33t-2 -43q0 -107 57.5 -172t184.5 -65q133 0 244 69 q3 2 5.5 -1t2.5 -7l-27 -121q-2 -12 -12 -18q-97 -57 -254 -57q-248 0 -311 211q-135 -211 -371 -211q-167 0 -256.5 104t-89.5 270zM248 352q0 -111 52.5 -177t148.5 -66q87 0 163 74.5t120 195.5t44 254q0 48 -9.5 89.5t-30 78.5t-59.5 58.5t-93 21.5q-90 0 -168.5 -75.5 t-123 -197.5t-44.5 -256zM934 547q110 -3 195 9t135 33t82 51.5t43.5 60t11.5 61.5q0 18 -5 36t-18 38.5t-43 33.5t-73 13q-109 0 -199.5 -96t-128.5 -240z" />
<glyph unicode="&#x178;" horiz-adv-x="1044" d="M197 1319q-3 10 8 10h149q8 0 11 -8q164 -563 184 -684q104 177 471 684q5 8 16 8h150q4 0 6 -1.5t1.5 -4.5t-3.5 -6l-563 -770q-17 -22 -35 -80l-96 -455q-3 -12 -13 -12h-139q-13 0 -10 14l98 465q8 49 0 74zM428 1524q5 40 35.5 66t73.5 26q42 0 65.5 -26.5 t18.5 -65.5q-3 -42 -33 -67t-74 -25q-42 0 -66 25.5t-20 66.5zM809 1524q6 40 37 66t74 26q41 0 65 -27t19 -67q-4 -42 -33.5 -66t-73.5 -24q-42 0 -67 25.5t-21 66.5z" />
<glyph unicode="&#x2c6;" horiz-adv-x="794" d="M258 1105.5q1 3.5 4 6.5l266 301q8 8 15 8h127q9 0 14 -8l113 -303q1 -4 -1.5 -8t-7.5 -4h-114q-12 0 -17 8q-20 67 -71 217q-86 -110 -183 -217q-8 -8 -16 -8h-123q-4 0 -5.5 2t-0.5 5.5z" />
<glyph unicode="&#x2dc;" horiz-adv-x="794" d="M190 1167q13 104 70 161.5t137 57.5q50 0 100 -26t90.5 -52t67.5 -26q62 0 78 90q3 10 12 10h101q10 0 10 -10q-14 -117 -66 -169t-126 -52q-39 0 -78.5 16.5t-65.5 35.5t-58.5 35.5t-60.5 16.5q-68 0 -88 -92q0 -10 -10 -10h-102q-11 0 -11 14z" />
<glyph unicode="&#x2000;" horiz-adv-x="856" />
<glyph unicode="&#x2001;" horiz-adv-x="1712" />
<glyph unicode="&#x2002;" horiz-adv-x="856" />
<glyph unicode="&#x2003;" horiz-adv-x="1712" />
<glyph unicode="&#x2004;" horiz-adv-x="570" />
<glyph unicode="&#x2005;" horiz-adv-x="428" />
<glyph unicode="&#x2006;" horiz-adv-x="285" />
<glyph unicode="&#x2007;" horiz-adv-x="285" />
<glyph unicode="&#x2008;" horiz-adv-x="214" />
<glyph unicode="&#x2009;" horiz-adv-x="342" />
<glyph unicode="&#x200a;" horiz-adv-x="95" />
<glyph unicode="&#x2010;" horiz-adv-x="661" d="M92 446l27 121q0 11 12 11h434q11 0 8 -11l-26 -121q-3 -12 -12 -12h-433q-13 0 -10 12z" />
<glyph unicode="&#x2011;" horiz-adv-x="661" d="M92 446l27 121q0 11 12 11h434q11 0 8 -11l-26 -121q-3 -12 -12 -12h-433q-13 0 -10 12z" />
<glyph unicode="&#x2012;" horiz-adv-x="661" d="M92 446l27 121q0 11 12 11h434q11 0 8 -11l-26 -121q-3 -12 -12 -12h-433q-13 0 -10 12z" />
<glyph unicode="&#x2013;" horiz-adv-x="1024" d="M145 457l23 102q2 10 10 10h703q11 0 8 -10l-23 -104q-3 -11 -14 -11h-698q-12 0 -9 13z" />
<glyph unicode="&#x2014;" horiz-adv-x="2048" d="M-18 455l22 104q2 10 14 10h2038q13 0 8 -10l-20 -104q-3 -11 -14 -11h-2036q-12 0 -12 11z" />
<glyph unicode="&#x2018;" horiz-adv-x="432" d="M236 958q2 115 52 255.5t128 236.5q6 6 14 6h127q11 0 4 -10q-157 -220 -182 -488q0 -10 -10 -10h-123q-10 0 -10 10z" />
<glyph unicode="&#x2019;" horiz-adv-x="432" d="M180.5 951.5q-1.5 3.5 1.5 6.5q158 221 183 490q0 8 10 8h123q10 0 10 -10q-2 -115 -52 -255.5t-128 -236.5q-6 -6 -15 -6h-127q-4 0 -5.5 3.5z" />
<glyph unicode="&#x201a;" horiz-adv-x="432" d="M-72 -254q158 219 183 487q0 11 10 11h123q10 0 10 -11q-2 -115 -52 -255.5t-128 -235.5q-5 -8 -15 -8h-127q-12 0 -4 12z" />
<glyph unicode="&#x201c;" horiz-adv-x="741" d="M236 958q2 115 52 255.5t128 236.5q6 6 14 6h127q11 0 4 -10q-157 -220 -182 -488q0 -10 -10 -10h-123q-10 0 -10 10zM545 958q2 116 52 256t130 236q6 6 14 6h127q11 0 4 -10q-160 -220 -182 -488q0 -10 -10 -10h-123q-12 0 -12 10z" />
<glyph unicode="&#x201d;" horiz-adv-x="741" d="M186 958q161 222 183 490q0 8 10 8h123q12 0 12 -10q-2 -115 -52 -255.5t-128 -236.5q-6 -6 -17 -6h-124q-12 0 -7 10zM496.5 951.5q-1.5 3.5 1.5 6.5q161 225 182 490q0 8 10 8h123q12 0 12 -10q-2 -116 -52 -256t-130 -236q-6 -6 -14 -6h-127q-4 0 -5.5 3.5z" />
<glyph unicode="&#x201e;" horiz-adv-x="741" d="M-67.5 -262q-1.5 4 1.5 8q161 219 183 487q0 4 3.5 7.5t6.5 3.5h123q12 0 12 -11q-2 -116 -52.5 -256.5t-129.5 -234.5q-5 -8 -14 -8h-127q-5 0 -6.5 4zM244.5 -262q-1.5 4 1.5 8q157 217 182 487q0 11 10 11h123q10 0 10 -11q-2 -115 -52 -255.5t-128 -235.5 q-5 -8 -14 -8h-127q-4 0 -5.5 4z" />
<glyph unicode="&#x2022;" horiz-adv-x="641" d="M152 514q8 75 61 124.5t135 49.5q79 0 120.5 -50t35.5 -124q-8 -76 -60 -125t-133 -49t-124 50t-35 124z" />
<glyph unicode="&#x2026;" horiz-adv-x="1587" d="M49 84q6 45 37.5 73.5t75.5 28.5t68.5 -30t21.5 -74q-6 -45 -36.5 -72.5t-78.5 -27.5q-43 0 -68.5 28.5t-19.5 73.5zM592 84q6 45 37.5 73.5t75.5 28.5t68.5 -30t21.5 -74q-6 -45 -36.5 -72.5t-78.5 -27.5q-43 0 -68.5 28.5t-19.5 73.5zM1137 84q6 45 37 73.5t75 28.5 q45 0 70 -30t20 -74q-6 -45 -36 -72.5t-76 -27.5q-44 0 -69 28t-21 74z" />
<glyph unicode="&#x202f;" horiz-adv-x="342" />
<glyph unicode="&#x2039;" horiz-adv-x="860" d="M133 455l17 86q3 10 12 12l592 348q6 5 10 2t2 -10l-29 -129q-4 -15 -14 -19l-434 -260l327 -262q7 -7 7 -16l-27 -115q-3 -17 -16 -8l-445 354q-5 5 -2 17z" />
<glyph unicode="&#x203a;" horiz-adv-x="860" d="M94 94l29 127q3 14 14 21l434 260l-323 260q-9 9 -6 22l22 109q6 16 19 8l442 -352q7 -7 4 -17l-16 -86q-3 -8 -15 -14l-589 -346q-8 -5 -12 -3t-3 11z" />
<glyph unicode="&#x205f;" horiz-adv-x="428" />
<glyph unicode="&#x20ac;" d="M57 532l17 70q2 10 10 10h90q7 53 25 121h-88q-11 0 -9 12l17 72q3 8 12 8h92q74 234 239 379.5t378 145.5q150 0 229 -52q6 -4 6 -16l-28 -119q-1 -6 -5.5 -7.5t-7.5 1.5q-82 55 -207 55q-153 0 -266 -106.5t-172 -280.5h451q10 0 8 -8l-17 -72q-2 -12 -12 -12h-459 q-10 -38 -22 -121h457h4t3 -1t1.5 -3t-0.5 -6l-17 -70q-3 -12 -12 -12h-446q0 -7 -2 -32.5t-2 -43.5q0 -149 71 -235t205 -86q132 0 236 53q13 6 10 -8l-27 -119q-3 -13 -16 -18q-92 -51 -254 -51q-98 0 -174 37t-122 101t-69.5 145t-23.5 175q0 42 6 82h-98q-13 0 -11 12z " />
<glyph unicode="&#x2122;" horiz-adv-x="595" d="M139 1225l4 35q2 4 7 4h212q5 0 5 -4l4 -35q0 -6 -4 -6h-86v-224q0 -4 -5 -4h-47q-4 0 -4 2v226h-82q-4 0 -4 6zM393 995l23 265q0 4 4 4h67q5 0 7 -4q13 -39 29 -86t24.5 -72t9.5 -31h2q1 5 12 31t29 71t33 87q2 4 6 4h63q7 0 7 -4l10 -265q0 -4 -4 -4h-49q-4 0 -4 4 q-1 76 -1 126t0.5 75t0.5 27h-3q-4 -18 -77 -209q0 -4 -4 -4h-43q-5 0 -9 4q-15 48 -31.5 99t-24.5 77.5t-11 34.5q0 -6 -1 -27t-3.5 -76t-5.5 -127q0 -4 -7 -4h-43q-6 0 -6 4z" />
<glyph unicode="&#xe000;" horiz-adv-x="983" d="M0 0v983h983v-983h-983z" />
<glyph unicode="&#xfb01;" horiz-adv-x="964" d="M-37 -360q29 85 128.5 560t135.5 662l-118 2q-11 3 -9 15l23 96q3 12 12 12h119q27 116 66.5 202.5t83 138.5t98.5 84t108 43t117 11q125 0 195 -47q4 -3 4 -16l-29 -115q-4 -15 -14 -10q-76 49 -174 49q-25 0 -43.5 -2t-44 -9.5t-45 -21t-43 -38.5t-42.5 -60.5 t-38.5 -88.5t-34.5 -120h502q12 0 12 -14l-205 -959q-3 -14 -14 -14h-135q-16 0 -13 16l180 844h-356q-11 -51 -37.5 -182t-43 -211t-42.5 -204t-44 -207t-38 -172t-34 -146t-23 -84q-2 -11 -14 -14q-60 -6 -140 -17q-13 0 -10 17z" />
<glyph unicode="&#xfb02;" horiz-adv-x="1005" d="M-37 -360q29 85 125 544t139 676l-116 6q-14 0 -11 13l23 98q3 10 12 10h119l16 70q48 220 144.5 314.5t236.5 94.5q17 0 35.5 -1.5t37.5 -5t30 -10t8 -15.5l-27 -111q-4 -13 -12 -10q-27 12 -74 12q-35 0 -62 -9.5t-57 -35t-55 -80.5t-43 -137l-14 -76h178q8 0 6 -10 l-22 -100q-3 -11 -11 -11l-180 -8q-226 -1095 -262 -1204q-2 -11 -14 -14q-60 -6 -140 -17q-13 0 -10 17zM616 205l261 1237q3 9 14 12q19 1 77.5 5.5t65.5 4.5q6 0 7 -2t1 -8l-262 -1255q-11 -53 2.5 -73t44.5 -20q29 0 62 11q4 1 6 -2t2 -9l-23 -92q-8 -32 -122 -32 q-182 0 -136 223z" />
</font>
</defs>
</svg>
