<?xml version="1.0" standalone="no"?>
<!DOCTYPE svg PUBLIC "-//W3C//DTD SVG 1.1//EN" "http://www.w3.org/Graphics/SVG/1.1/DTD/svg11.dtd" >
<svg xmlns="http://www.w3.org/2000/svg">
<metadata></metadata>
<defs>
<font id="AdobeCleanLightItalic" horiz-adv-x="1026" >
<font-face units-per-em="2048" ascent="1464" descent="-584" />
<missing-glyph horiz-adv-x="483" />
<glyph unicode="&#xfb03;" horiz-adv-x="1415" d="M-29 -383q26 65 147 644.5t132 645.5l-127 2q-4 0 -6.5 4t-1.5 9l12 47q3 8 8 8h129l23 96q27 122 64.5 206t85 131t99 67t115.5 20q17 0 35.5 -2t36 -5.5t28 -9.5t7.5 -14l-15 -55q-4 -11 -10 -8q-35 14 -90 14q-33 0 -59.5 -6t-58.5 -27t-57 -57t-50.5 -100.5 t-44.5 -153.5l-21 -96h422l23 102q26 120 63.5 203t85.5 129.5t99.5 66t115.5 19.5q16 0 34.5 -2t36.5 -5.5t28.5 -9.5t7.5 -14l-17 -53q-1 -4 -2 -6.5t-3 -3.5t-5 0q-40 16 -88 16q-34 0 -60.5 -6t-57.5 -27.5t-56 -57.5t-50 -100.5t-44 -152.5l-23 -98h203q7 0 4 -8 l-12 -49q-3 -11 -10 -11l-199 -4q-27 -126 -95 -451t-116 -547t-66 -280q0 -10 -10 -10q-72 -12 -74 -12q-10 0 -6 12q13 35 59 241t93 431t86.5 419t40.5 197h-422q-11 -52 -90.5 -432.5t-124 -583.5t-62.5 -262q0 -10 -10 -10q-8 -1 -24.5 -3.5t-28.5 -4.5t-18 -4 q-13 0 -9 12zM1069 8l201 961q2 8 12 8h70q11 0 8 -12l-203 -957q-3 -8 -10 -8h-72q-4 0 -5 1.5t-1 6.5zM1319 1270q2 17 11 30.5t23.5 21t32.5 7.5q27 0 40 -16.5t10 -42.5q-3 -24 -22 -42t-46 -18q-17 0 -29.5 8.5t-17.5 22.5t-2 29z" />
<glyph unicode="&#xfb04;" horiz-adv-x="1464" d="M-29 -383q26 65 147 644.5t132 645.5l-127 2q-4 0 -6.5 4t-1.5 9l12 47q3 8 8 8h129l23 96q27 122 64.5 206t85 131t99 67t115.5 20q17 0 35.5 -2t36 -5.5t28 -9.5t7.5 -14l-15 -55q-4 -11 -10 -8q-35 14 -90 14q-33 0 -59.5 -6t-58.5 -27t-57 -57t-50.5 -100.5 t-44.5 -153.5l-21 -96h422l23 102q26 120 63.5 203t85.5 129.5t99.5 66t115.5 19.5q16 0 34.5 -2t36.5 -5.5t28.5 -9.5t7.5 -14l-17 -53q-1 -4 -2 -6.5t-3 -3.5t-5 0q-40 16 -88 16q-34 0 -60.5 -6t-57.5 -27.5t-56 -57.5t-50 -100.5t-44 -152.5l-23 -98h203q7 0 4 -8 l-12 -49q-3 -11 -10 -11l-199 -4q-27 -126 -95 -451t-116 -547t-66 -280q0 -10 -10 -10q-72 -12 -74 -12q-10 0 -6 12q13 35 59 241t93 431t86.5 419t40.5 197h-422q-11 -52 -90.5 -432.5t-124 -583.5t-62.5 -262q0 -10 -10 -10q-8 -1 -24.5 -3.5t-28.5 -4.5t-18 -4 q-13 0 -9 12zM1116 96q-4 35 8 84l273 1299q3 7 19.5 10.5t39.5 5.5l23 2q9 0 6 -8l-273 -1315q-28 -123 58 -123q35 0 69 12q3 2 5.5 0t1.5 -6l-11 -49q-7 -28 -102 -28q-21 0 -39 5t-36.5 18t-28 35.5t-13.5 57.5z" />
<glyph horiz-adv-x="0" />
<glyph horiz-adv-x="2048" />
<glyph unicode=" "  horiz-adv-x="483" />
<glyph unicode="&#x09;" horiz-adv-x="483" />
<glyph unicode="&#xa0;" horiz-adv-x="483" />
<glyph unicode="!" horiz-adv-x="520" d="M156 43q3 27 21 44t48 17q28 0 42.5 -18.5t11.5 -44.5q-7 -61 -70 -61q-28 0 -42.5 17.5t-10.5 45.5zM248 385q39 215 162 805l34 164q7 22 50 22q45 0 45 -18l-35 -160q-25 -121 -97 -441.5t-85 -369.5q-3 -8 -13 -8h-53h-4.5t-3 1.5t-0.5 4.5z" />
<glyph unicode="&#x22;" horiz-adv-x="641" d="M250 1001l108 480q3 8 11 8h69q6 0 6 -8l-116 -480q-3 -8 -9 -8h-65q-8 0 -4 8zM518 1001l109 480q3 8 10 8h70q6 0 6 -8l-117 -480q-3 -8 -8 -8h-66q-8 0 -4 8z" />
<glyph unicode="#" d="M61 467l9 57q0 8 8 8h192l123 308h-174q-8 0 -6 8l6 57q4 8 10 8h197l135 342q6 9 14 9h54q9 0 4 -11l-133 -340h268l135 342q3 9 10 9h54q11 0 6 -11l-135 -340h168q9 0 6 -8l-6 -57q-3 -8 -11 -8h-188l-121 -308h162q10 0 10 -8l-8 -59q0 -8 -10 -8h-183l-149 -381 q-8 -8 -12 -8h-56q-11 0 -6 10l152 379h-271l-153 -381q-5 -8 -12 -8h-56q-11 0 -6 10l154 379h-172q-12 0 -9 10zM344 532h270l123 308h-272z" />
<glyph unicode="$" d="M33 156l18 69q5 9 12 2q67 -67 166.5 -104t194.5 -37q155 0 250.5 73t95.5 199q2 80 -55 146.5t-207 146.5q-162 88 -223.5 165.5t-61.5 180.5q0 149 117.5 250.5t302.5 100.5l35 161q0 11 10 11h62q13 0 10 -11l-35 -166q73 -7 141 -35.5t105 -64.5q5 -8 2 -14l-17 -66 q0 -3 -4.5 -5t-7.5 1q-132 115 -309 115q-83 0 -147 -23t-102 -61.5t-57.5 -85t-19.5 -98.5q0 -79 53.5 -141t190.5 -136q174 -95 240.5 -174t66.5 -184q0 -160 -114.5 -255.5t-299.5 -103.5l-38 -172q0 -8 -11 -8h-63q-10 0 -8 10l36 168q-84 6 -172 39.5t-151 89.5 q-9 6 -6 17z" />
<glyph unicode="%" horiz-adv-x="1519" d="M183.5 3.5q-0.5 3.5 2.5 6.5l1139 1338q6 8 18 8h66q12 0 2 -10l-1139 -1340q-6 -6 -16 -6h-68q-4 0 -4.5 3.5zM195 887q0 124 47.5 236t134 182.5t190.5 70.5q106 0 163.5 -72.5t57.5 -191.5q0 -77 -23 -157.5t-66.5 -153t-117.5 -118.5t-165 -46q-105 0 -163 70.5 t-58 179.5zM268 891q0 -89 43 -140t123 -51t145.5 60.5t100.5 154t35 195.5t-42.5 153.5t-115.5 51.5q-75 0 -142.5 -60t-107 -158t-39.5 -206zM801 229q0 124 47.5 236t135 183t192.5 71t163 -72.5t58 -191.5q0 -60 -14 -124t-44 -127t-72.5 -113t-105.5 -80.5t-137 -30.5 q-106 0 -164.5 70.5t-58.5 178.5zM877 236q0 -90 42 -140.5t121 -50.5q80 0 145.5 60.5t100.5 154t35 195.5t-42 153t-114 51q-76 0 -143 -60t-106 -158t-39 -205z" />
<glyph unicode="&#x26;" horiz-adv-x="1320" d="M92 334q0 161 101 264t266 137q-44 53 -75.5 120.5t-31.5 133.5q0 160 102.5 252t258.5 90q131 0 207 -51q7 -3 4 -14l-15 -58q-2 -12 -12 -6q-77 55 -188 55q-120 0 -195.5 -69.5t-75.5 -194.5q5 -123 127 -248h666q9 0 6 -10l-25 -57q-5 -8 -12 -8h-565 q62 -56 133.5 -156.5t130.5 -214.5q74 -143 113.5 -193.5t93.5 -50.5q37 0 74 13q3 1 5.5 -1.5t2.5 -7.5l-12 -55q-8 -24 -86 -24q-39 0 -66 9.5t-59 38.5t-66.5 85.5t-77.5 148.5q-53 112 -126.5 212t-123 148t-61.5 48q-39 0 -82.5 -11.5t-88 -37.5t-79.5 -63t-57.5 -93.5 t-22.5 -122.5q0 -116 81 -200.5t214 -84.5q145 0 236 49q3 1 4.5 -1t1.5 -5l-15 -63q-2 -6 -8 -12q-88 -45 -243 -45q-153 0 -256 101t-103 253z" />
<glyph unicode="'" horiz-adv-x="374" d="M250 1001l108 480q3 8 11 8h69q8 0 8 -8l-116 -480q-3 -8 -8 -8h-68q-8 0 -4 8z" />
<glyph unicode="(" horiz-adv-x="663" d="M111 324q0 193 46.5 377t128.5 336.5t181 277t217 227.5q9 6 14 6h78q12 0 4 -10q-289 -267 -436 -566.5t-147 -647.5q0 -187 46.5 -363t129.5 -295q3 -10 -6 -10h-74q-11 0 -14 6q-67 104 -117.5 282t-50.5 380z" />
<glyph unicode=")" horiz-adv-x="663" d="M-78 -334q291 272 437.5 570.5t146.5 658.5q0 178 -47 352t-127 291q-5 10 6 10h70q9 0 14 -8q69 -99 119.5 -270t50.5 -371q0 -193 -42 -372.5t-120 -333t-178.5 -284t-226.5 -245.5q-5 -8 -19 -8h-80q-14 0 -4 10z" />
<glyph unicode="*" horiz-adv-x="630" d="M145 1180l31 51q6 8 10 4l215 -141l52 274q0 9 8 6l61 -12q6 -3 4 -10l-65 -271l256 39q6 0 8 -4l6 -59q0 -5 -8 -8l-258 -21l147 -262q3 -8 -2 -10l-49 -29q-9 -3 -12 6l-139 268l-217 -192q-5 -5 -13 2l-33 39q-5 7 3 12l223 180l-223 125q-8 4 -5 13z" />
<glyph unicode="+" horiz-adv-x="1142" d="M63 504v57q0 8 11 8h458v475q0 9 9 9h63q8 0 8 -9v-475h459q8 0 8 -8v-57q0 -10 -10 -10h-457v-478q0 -8 -8 -8h-63q-9 0 -9 8v478h-458q-11 0 -11 10z" />
<glyph unicode="," horiz-adv-x="354" d="M-121 -315q94 126 141.5 242.5t61.5 248.5q0 10 8 10h72q8 0 8 -8q-12 -132 -66 -263t-139 -234q-3 -7 -12 -7h-68q-11 0 -6 11z" />
<glyph unicode="-" horiz-adv-x="673" d="M102 471l15 64q0 8 10 8h434q9 0 6 -11l-12 -61q-3 -8 -12 -8h-432q-4 0 -5.5 0.5t-3 2t-0.5 5.5z" />
<glyph unicode="." horiz-adv-x="354" d="M18 45q5 27 23.5 44t46.5 17q29 0 43 -18t12 -45q-3 -30 -21 -46.5t-48 -16.5q-28 0 -43.5 18t-12.5 47z" />
<glyph unicode="/" horiz-adv-x="806" d="M-8 -113l815 1563q3 8 10 8h70q11 0 4 -10l-813 -1563q-6 -6 -10 -6h-74q-7 0 -2 8z" />
<glyph unicode="0" d="M119 401q0 115 22 244t69 259.5t112 235t161 170.5t207 66q80 0 139 -34.5t92 -95t48.5 -133.5t15.5 -159q0 -77 -9 -163t-30 -181t-51.5 -184.5t-76.5 -171t-101.5 -142t-130.5 -96.5t-160 -36q-153 0 -230 114t-77 307zM207 399q0 -165 60 -253.5t171 -88.5 q90 0 168.5 63.5t131 163t90 221.5t54 239.5t15.5 216.5q-3 342 -221 342q-92 0 -179.5 -81t-150 -209t-101 -291t-38.5 -323z" />
<glyph unicode="1" d="M119 12l10 56q7 10 16 10h289l250 1184q-198 -90 -317 -111q-11 -2 -11 8l15 58q2 5 8 8q79 22 187.5 63.5t150.5 65.5q12 4 18 4h53q5 0 5 -8l-269 -1272h281q10 0 10 -10l-12 -56q0 -12 -10 -12h-670q-9 0 -4 12z" />
<glyph unicode="2" d="M10 8l6 39q2 6 11 12q273 232 497 435q201 180 273 293t71 260q0 49 -13.5 91t-42 78t-80.5 57t-122 21q-173 0 -336 -116q-3 -4 -6 -2.5t-2 8.5l15 73q3 8 10 13q146 106 342 106q158 0 241.5 -91.5t83.5 -227.5q0 -111 -37 -204t-106 -176.5t-194 -197.5 q-178 -166 -453 -399h663q9 0 5 -8l-27 -64q-3 -8 -12 -8h-781q-10 0 -6 8z" />
<glyph unicode="3" d="M33 117l16 67q3 11 10 4q74 -66 167.5 -97.5t187.5 -31.5q82 0 147 20t105 51.5t66 75t36 87.5t10 92q0 126 -83 204.5t-255 78.5h-96q-9 0 -6 10l16 59q3 8 8 8h97q188 0 290.5 85t100.5 223q-2 111 -71 178t-195 67q-157 0 -305 -98q-5 -3 -8.5 -0.5t-2.5 8.5l17 68 q3 10 8 12q143 88 315 88q154 0 241 -88.5t87 -220.5q0 -139 -80 -232t-225 -130v-3q102 -29 168.5 -108.5t66.5 -210.5q0 -182 -124.5 -292.5t-327.5 -110.5q-122 0 -218.5 33t-158.5 89q-10 6 -4 15z" />
<glyph unicode="4" d="M66 410l6 36q4 10 8 15q122 151 390.5 471t360.5 420q12 6 17 6h61q9 0 9 -8l-185 -873h213q9 0 4 -10l-20 -57q-4 -7 -12 -7h-199l-86 -395q-3 -8 -10 -8h-70q-8 0 -8 10l82 393h-555q-6 0 -6 7zM186 477h457q126 608 166 752h-2q-28 -35 -179 -215.5t-281.5 -338 t-160.5 -198.5z" />
<glyph unicode="5" d="M45 109l18 75q3 6 11 2q153 -127 344 -127q175 0 265.5 93t90.5 235q0 143 -141.5 234.5t-419.5 142.5l10 41q184 506 203 545q3 6 10 6h484q9 0 6 -10l-29 -62q-2 -4 -10 -4h-410q-69 -179 -168 -453q270 -63 412.5 -165.5t142.5 -268.5q0 -195 -126 -305.5t-326 -110.5 q-214 0 -361 119q-6 4 -6 13z" />
<glyph unicode="6" d="M96 383q0 140 50.5 276.5t135.5 248.5t196.5 208.5t233.5 165.5t246 109q4 1 6.5 -1.5t0.5 -7.5l-17 -71q-3 -9 -10 -11q-243 -92 -416.5 -245.5t-253.5 -323.5q146 107 312 107q102 0 179 -51.5t115.5 -132t38.5 -175.5q0 -99 -31.5 -189t-87.5 -160t-141.5 -111.5 t-187.5 -41.5q-169 0 -269 113t-100 293zM182 387q0 -159 85.5 -245.5t203.5 -86.5q157 0 256.5 115.5t99.5 298.5q0 129 -75.5 211t-200.5 82q-180 0 -326 -135q-43 -108 -43 -240z" />
<glyph unicode="7" d="M139 8q482 733 836 1268h-703q-11 0 -6 8l23 66q3 6 10 6h786q9 0 9 -6l-11 -41q-3 -11 -8 -19q-487 -752 -839 -1284q-6 -6 -11 -6h-82q-9 0 -4 8z" />
<glyph unicode="8" d="M82 307q0 128 83 229.5t220 157.5q-61 42 -96 114.5t-35 152.5q0 81 29.5 155.5t82 132.5t131.5 92.5t171 34.5q145 0 228 -90.5t83 -224.5q0 -127 -68.5 -228t-199.5 -155q72 -40 118.5 -115t47.5 -176q0 -184 -124.5 -295.5t-314.5 -111.5q-166 0 -261 95.5t-95 231.5z M170 313q0 -119 81 -188.5t202 -69.5q146 0 240.5 88t94.5 240q0 165 -129 246q-38 20 -57 20h-133q-29 0 -49 -10q-106 -39 -178 -123t-72 -203zM342 961q0 -139 98 -216q30 -20 72 -20h109q45 0 81 16q193 99 193 316q0 101 -60.5 174.5t-177.5 73.5q-138 0 -226.5 -98.5 t-88.5 -245.5z" />
<glyph unicode="9" d="M172 -27l16 74q2 7 9 10q214 86 378.5 233.5t255.5 340.5q-129 -101 -296 -101q-158 0 -250 101.5t-92 261.5q0 70 19.5 139.5t58.5 131.5t93 109t128 75t157 28q154 0 247 -110t93 -297q0 -152 -52 -296t-135.5 -255t-191 -203.5t-216.5 -153t-214 -92.5q-6 -1 -7 -1 t-1 5zM281 897q0 -140 77 -216.5t201 -76.5q80 0 160.5 30t138.5 91q15 21 30 91.5t15 150.5q0 146 -67.5 241t-198.5 95q-107 0 -190 -60.5t-124.5 -152t-41.5 -193.5z" />
<glyph unicode=":" horiz-adv-x="471" d="M80 45q5 27 23.5 44t46.5 17t42.5 -18.5t12.5 -44.5q-3 -30 -21.5 -46.5t-48.5 -16.5q-28 0 -43 18t-12 47zM250 817q3 27 21.5 44.5t47.5 17.5q28 0 43 -19t13 -45q-10 -61 -70 -61q-28 0 -43 17.5t-12 45.5z" />
<glyph unicode=";" horiz-adv-x="471" d="M-45 -315q90 125 135 241.5t57 249.5q0 10 9 10h69q8 0 11 -8q-11 -133 -62 -264t-133 -233q-3 -7 -12 -7h-68q-11 0 -6 11zM250 817q3 27 21.5 44.5t47.5 17.5q28 0 43 -19t13 -45q-10 -61 -70 -61q-28 0 -43 17.5t-12 45.5z" />
<glyph unicode="&#x3c;" horiz-adv-x="1142" d="M121 500v63q0 4 6 10l885 478q8 4 8 -4v-68q0 -9 -6 -12l-805 -432v-3l805 -434q6 -3 6 -10v-68q0 -9 -6 -6l-885 475q-8 5 -8 11z" />
<glyph unicode="=" horiz-adv-x="1142" d="M70 315v56q0 10 10 10h983q10 0 10 -10v-56q0 -10 -14 -10h-979q-10 0 -10 10zM70 692v58q0 8 10 8h983q7 0 8.5 -1t1.5 -7v-58q0 -6 -2.5 -8t-11.5 -2h-979q-10 0 -10 10z" />
<glyph unicode="&#x3e;" horiz-adv-x="1142" d="M121 20v64q0 9 6 12l805 434v5l-805 432q-6 3 -6 10v67q0 3 2.5 5.5t5.5 1.5l885 -476q6 -6 6 -10v-61q0 -7 -6 -10l-885 -480q-8 -4 -8 6z" />
<glyph unicode="?" horiz-adv-x="864" d="M281 1184l16 73q3 7 8 13q42 34 125 64t180 30q132 0 213.5 -74t81.5 -184q0 -43 -12.5 -80.5t-31.5 -67t-56.5 -64t-72.5 -61t-95 -67.5q-123 -91 -169 -132t-46 -65q0 -50 67 -163q3 -7 -4 -7h-69q-10 0 -13 7q-67 105 -67 169q0 20 12.5 41.5t65.5 69.5t149 115 q64 46 94 68.5t68.5 55.5t54.5 56.5t27.5 54t11.5 64.5q0 76 -58.5 130t-166.5 54q-161 0 -303 -104q-3 -3 -6.5 -1t-3.5 5zM330 43q3 27 21 44t48 17q28 0 43 -18.5t13 -44.5q-10 -61 -70 -61q-29 0 -43.5 17.5t-11.5 45.5z" />
<glyph unicode="@" horiz-adv-x="1601" d="M104 412q0 185 62 344t169 269t255 172.5t317 62.5q96 0 186 -23.5t170 -73.5t139.5 -121t94.5 -174t35 -225q0 -127 -38 -233.5t-100.5 -178.5t-145 -122.5t-171 -73.5t-178.5 -23t-164.5 21t-135.5 64.5t-95.5 121t-34.5 182.5q0 142 68 262.5t189 191.5t267 71 q107 0 178 -29q7 -3 7 -12l-160 -789q46 6 97.5 25t113 61t110 100t81 152t32.5 207q0 132 -43 237t-119 172t-177.5 102.5t-219.5 35.5q-143 0 -271 -55.5t-223 -154t-150.5 -244.5t-55.5 -318q0 -222 108.5 -396t308.5 -272q6 -4 6 -14l-12 -66q0 -9 -10 -6 q-220 89 -355 292t-135 458zM553 408q0 -320 381 -320l151 752q-32 12 -106 12q-100 0 -182.5 -39t-134.5 -102.5t-80.5 -142t-28.5 -160.5z" />
<glyph unicode="A" horiz-adv-x="1200" d="M-27 8q108 193 398.5 703.5t333.5 586.5q10 21 16 52q0 6 8 6h107q6 0 6 -6q175 -1262 186 -1342q0 -8 -8 -8h-70q-8 0 -10 8l-70 508h-518l-286 -510q-3 -6 -11 -6h-78q-5 0 -5 4q0 2 1 4zM391 594h471q-83 575 -90 686h-2q-30 -73 -379 -686z" />
<glyph unicode="B" horiz-adv-x="1044" d="M68 14l278 1329q2 11 10 13q106 4 262 4q94 0 166 -20.5t112 -50.5t65 -72t32.5 -78.5t7.5 -75.5q0 -78 -26 -141t-72 -104.5t-100.5 -68t-118.5 -40.5v-2q116 -34 180 -113t64 -193q0 -112 -43.5 -192.5t-124 -126.5t-181 -67t-227.5 -21q-166 0 -276 8q-9 0 -9 7 q0 2 1 5zM168 76q69 -6 205 -6q105 0 188 17.5t148 55.5t99 103q34 63 34 150v5q-2 115 -90 192t-263 77h-196zM309 745h201q195 -1 301 83q104 82 104 222v5q-3 231 -313 231q-51 0 -113 -1t-67 -1z" />
<glyph unicode="C" horiz-adv-x="1126" d="M141 510q0 129 34.5 255t102.5 236t162 194t222.5 132.5t273.5 48.5q89 0 153 -15.5t93 -35.5q4 -2 4 -7v-3l-15 -62q-2 -7 -12 -4q-104 49 -235 49q-155 0 -288 -66.5t-221 -176t-137 -250.5t-49 -291q0 -98 27 -177.5t70 -129.5t100 -84t113.5 -48t113.5 -14 q101 0 173.5 17t144.5 53q3 2 5 0t1 -6l-14 -68q-3 -9 -9 -12q-109 -65 -317 -65q-69 0 -136.5 17.5t-133.5 58t-115.5 100t-80 151t-30.5 203.5z" />
<glyph unicode="D" horiz-adv-x="1269" d="M68 12l280 1334q2 6 8 8q73 6 265 6q276 0 430.5 -148.5t156.5 -414.5q0 -202 -68.5 -372t-209.5 -278q-204 -153 -553 -153q-199 0 -301 6q-8 0 -8 12zM168 76q50 -4 227 -4q300 0 473 131q127 96 189.5 251.5t62.5 342.5q0 242 -139 365.5t-375 123.5q-157 0 -182 -2z " />
<glyph unicode="E" horiz-adv-x="968" d="M66 10l282 1340q2 6 10 6h633q7 0 10 -8l7 -60q0 -10 -7 -10h-581l-115 -549h524q4 0 5 -0.5t2.5 -2t-0.5 -5.5l-15 -62q-3 -8 -10 -8h-522l-121 -573h649q7 0 4 -10l-24 -60q-5 -8 -13 -8h-710q-6 0 -7 1.5t-1 8.5z" />
<glyph unicode="F" horiz-adv-x="937" d="M66 10l282 1338q3 8 10 8h662q8 0 8 -8l6 -62q0 -8 -8 -8h-606l-117 -567h533q6 0 6 -6l-15 -64q-2 -6 -8 -6h-534l-129 -625q-2 -10 -13 -10h-69q-8 0 -8 10z" />
<glyph unicode="G" horiz-adv-x="1277" d="M141 512q0 126 33 250t100 235t159.5 195.5t221 134t275.5 49.5q221 0 334 -82q3 -3 3 -9q0 -3 -1 -7l-17 -57q-3 -13 -12 -4q-122 81 -317 81q-125 0 -236 -43.5t-193 -119t-141.5 -175t-90 -213.5t-30.5 -233q0 -206 117.5 -330.5t319.5 -124.5q189 0 311 72l96 444 l-364 3q-9 0 -9 8l15 59q2 8 8 8h446q7 0 7 -10l-117 -549q-3 -13 -17 -20q-170 -94 -387 -94q-237 0 -375.5 145.5t-138.5 386.5z" />
<glyph unicode="H" horiz-adv-x="1255" d="M66 10l282 1338q2 8 10 8h72q6 0 6 -8l-131 -619h750l129 619q2 8 10 8h74q4 0 4 -6v-4l-281 -1336q-3 -10 -10 -10h-72q-8 0 -8 10l135 643h-747l-135 -645q-2 -8 -11 -8h-69q-8 0 -8 10z" />
<glyph unicode="I" horiz-adv-x="417" d="M66 8l282 1340q2 8 8 8h72q8 0 8 -8l-284 -1340q-2 -8 -9 -8h-69q-8 0 -8 8z" />
<glyph unicode="J" horiz-adv-x="706" d="M-72 -8l17 57q3 6 8 4q86 -57 180 -57q124 0 188 85.5t105 270.5l209 996q3 8 12 8h68h4t3 -1t2 -2l-1 -7l-207 -981q-48 -237 -138 -342t-253 -105q-61 0 -112.5 18t-80.5 41q-5 5 -5 10q0 3 1 5z" />
<glyph unicode="K" horiz-adv-x="1122" d="M68 10l282 1338q3 8 8 8h72q10 0 8 -10l-131 -619h148q14 0 30 16q103 103 301 304.5t299 302.5q4 6 15 6h82q6 0 6 -4v-1q0 -4 -4 -8q-105 -105 -325.5 -328.5t-321.5 -324.5q-8 -8 -2 -14q73 -108 227 -333t227 -333q5 -10 -4 -10h-78q-8 0 -14 6q-62 88 -135.5 195 t-160.5 234.5t-134 195.5q-11 18 -31 18h-141l-137 -641q0 -8 -9 -8h-69h-4t-3 1t-2 2z" />
<glyph unicode="L" horiz-adv-x="921" d="M66 10l282 1338q3 8 8 8h74q6 0 6 -8l-268 -1270h631q3 0 5 -4q0 -1 1 -2q0 -2 -2 -4l-25 -60q-3 -8 -12 -8h-692q-8 0 -8 10z" />
<glyph unicode="M" horiz-adv-x="1642" d="M33 10l459 1340q3 6 10 6h110q9 0 9 -6q114 -1076 114 -1246v-10h2q87 190 668 1256q3 6 12 6h105q8 0 8 -10l-117 -1338q-4 -8 -10 -8h-72q-6 0 -6 8q69 766 91 989.5t34 294.5h-2q-134 -285 -680 -1284q-5 -8 -12 -8h-78q-12 0 -12 8q-28 275 -68 727.5t-47 558.5h-2 q-45 -160 -428 -1286q-3 -8 -10 -8h-72q-7 0 -7 6q0 2 1 4z" />
<glyph unicode="N" horiz-adv-x="1257" d="M66 10l282 1338q2 8 10 8h103q7 0 10 -6q430 -1155 457 -1260h2q6 57 258 1258q2 8 8 8h74q5 0 5 -4q0 -2 -1 -4l-283 -1338q-3 -10 -10 -10h-100q-9 0 -13 8q-437 1183 -452 1270h-2q-13 -94 -262 -1270q0 -8 -9 -8h-71q-6 0 -6 10z" />
<glyph unicode="O" horiz-adv-x="1347" d="M137 483q0 170 51.5 330.5t142.5 285.5t225.5 201t289.5 76q94 0 173.5 -33.5t139 -97.5t93 -163t34.5 -224q0 -171 -48 -329t-134.5 -280.5t-218.5 -195.5t-289 -73q-96 0 -179 33.5t-145.5 95.5t-98.5 158.5t-36 215.5zM225 487q0 -197 108 -313.5t277 -116.5 q112 0 208.5 47.5t165 127.5t118 183t73 215t23.5 224q-3 220 -106 332t-263 112q-124 0 -236.5 -67t-192.5 -178t-127.5 -259.5t-47.5 -306.5z" />
<glyph unicode="P" horiz-adv-x="1024" d="M66 8l280 1335q3 13 12 13q93 6 228 6q208 0 321 -108t113 -285q0 -157 -75 -268.5t-204 -165.5t-299 -54q-95 0 -188 6l-100 -479q-2 -8 -11 -8h-73q-4 0 -4 8zM270 565q116 -8 189 -8q95 0 176.5 22t150 68t107.5 127.5t39 190.5q0 84 -29 147.5t-79 100.5t-111.5 55 t-132.5 18q-102 0 -156 -4z" />
<glyph unicode="Q" horiz-adv-x="1347" d="M139 485q0 237 92 441.5t255 327t358 122.5q211 0 326.5 -145t115.5 -375q0 -130 -28 -250.5t-73 -211.5t-102.5 -165.5t-116 -122t-114.5 -71.5q255 -209 430 -301q5 -3 3.5 -7.5t-7.5 -5.5l-78 -32q-10 0 -18 4q-64 38 -178.5 120.5t-237.5 186.5q-62 -20 -160 -20 q-214 1 -340.5 141t-126.5 364zM227 487q0 -198 107.5 -314t277.5 -116q112 0 208.5 47.5t165 127.5t118 183.5t73 216t23.5 224.5q-3 218 -106.5 330t-262.5 112q-124 0 -236.5 -66.5t-192.5 -177t-127.5 -259t-47.5 -308.5z" />
<glyph unicode="R" horiz-adv-x="1089" d="M66 10l282 1336q2 10 8 10q114 4 262 4q190 0 294 -87.5t106 -242.5q1 -160 -105 -265t-286 -138q0 -8 81.5 -156.5t168 -302.5t88.5 -158q3 -4 1 -7t-5 -3h-80q-11 0 -15 8q-15 26 -311 572q-12 21 -23 27.5t-34 6.5h-217l-129 -606q0 -8 -11 -8h-69q-6 0 -6 10z M299 688h190q221 0 332 93.5t111 242.5q0 52 -16 95.5t-52.5 82t-105 60.5t-164.5 22q-110 0 -172 -4z" />
<glyph unicode="S" horiz-adv-x="927" d="M2 131l16 64q4 11 13 2q69 -64 164.5 -101t189.5 -37q159 0 244.5 81.5t85.5 203.5q0 78 -52.5 146.5t-201.5 164.5q-142 90 -202 169.5t-60 185.5q0 156 108.5 260t298.5 104q100 0 177.5 -26.5t123.5 -63.5q4 -2 4 -6q0 -3 -2 -8l-16 -62q-3 -9 -8 -4q-49 40 -123.5 68 t-165.5 28q-84 0 -147.5 -26.5t-97.5 -70t-50 -90t-16 -95.5q0 -84 49.5 -147t173.5 -140q170 -107 231.5 -189.5t61.5 -189.5q0 -164 -112 -268t-310 -104q-115 0 -214 37t-161 96q-3 3 -3 9q0 4 1 9z" />
<glyph unicode="T" horiz-adv-x="1028" d="M184 1290l23 60q3 6 10 6h946q11 0 11 -6l2 -64q0 -8 -9 -8h-460l-269 -1270q-2 -6 -3 -7t-9 -1h-68q-6 0 -6 10l266 1268h-428q-7 0 -7 6q0 3 1 6z" />
<glyph unicode="U" horiz-adv-x="1245" d="M150 249q-8 40 -8 86q0 63 14 138l184 875q2 8 10 8h72q9 0 6 -8l-184 -871q-14 -69 -14 -127q0 -116 57 -186q85 -104 258 -105q61 0 108.5 7.5t103 34t97 71.5t79.5 126.5t62 193.5l185 856q3 8 8 8h69q11 0 9 -10l-187 -869q-56 -270 -189.5 -383.5t-350.5 -113.5 q-97 0 -176 28t-137 88t-76 153z" />
<glyph unicode="V" horiz-adv-x="1241" d="M238 1348q0 8 6 8h71q9 0 11 -8q185 -1104 211 -1266q79 158 733 1266q3 8 10 8h78q5 0 5 -3q0 -2 -3 -7l-785 -1338q-5 -8 -12 -8h-90q-10 0 -10 6z" />
<glyph unicode="W" horiz-adv-x="1740" d="M248 1348q0 8 10 8h72q8 0 8 -8q55 -1214 55 -1270h2q53 140 596 1249q3 8 13 8h98q6 0 6 -8q57 -988 57 -1249h2q8 20 16.5 39t22.5 50.5t28.5 62t42 89t54 115.5t74 157t93.5 196.5t119.5 252.5t145.5 308q3 8 11 8h77q5 0 5 -5q0 -2 -1 -5l-643 -1338q-3 -8 -10 -8 h-98q-12 0 -14 10q-55 1111 -58 1247h-2q-55 -147 -596 -1249q-3 -8 -10 -8h-98q-11 0 -11 8z" />
<glyph unicode="X" horiz-adv-x="1112" d="M-51 10l588 684l-289 654q-3 8 6 8h78q8 0 10 -6q12 -28 260 -602h2q210 248 514 604q4 4 10 4h84q5 0 5 -3q0 -2 -3 -7l-567 -656l309 -680q3 -10 -4 -10h-80q-9 0 -12 8q-113 247 -280 619h-5q-191 -227 -522 -619q-8 -8 -14 -8h-86q-7 0 -7 4q0 2 3 6z" />
<glyph unicode="Y" horiz-adv-x="1064" d="M213 1348q-1 2 -1 4q0 4 7 4h76q6 0 8 -6q232 -687 244 -750q114 165 563 750q6 6 14 6h78q7 0 7 -4q0 -2 -3 -6l-604 -785q-20 -22 -37 -78l-98 -473q-3 -10 -10 -10h-68q-13 0 -10 12l102 480q0 1 2 14t2 19t-1.5 17.5t-6.5 20.5z" />
<glyph unicode="Z" horiz-adv-x="1054" d="M-47 8l8 41q2 3 4 7t4 7q129 153 485.5 573t542.5 642h-749q-9 0 -6 10l24 62q3 6 10 6h850q7 0 7 -8l-9 -39q-2 -7 -14 -19q-335 -401 -1024 -1214h834q8 0 4 -8l-23 -60q-3 -8 -12 -8h-930q-6 0 -6 8z" />
<glyph unicode="[" horiz-adv-x="651" d="M10 -332l398 1868q3 12 14 12h352q11 0 8 -8l-12 -51q0 -8 -8 -8h-283l-373 -1755h285q9 0 6 -9l-10 -53q-3 -8 -12 -8h-357q-10 0 -8 12z" />
<glyph unicode="\" horiz-adv-x="696" d="M279 1448q0 10 8 10h61q9 0 12 -8l134 -1561q-2 -10 -11 -10h-63q-10 0 -10 8z" />
<glyph unicode="]" horiz-adv-x="675" d="M-66 -336l13 51q0 9 10 9h283l370 1755h-284q-7 0 -7 8l13 53q2 8 10 8h358q12 0 7 -12l-396 -1866q-3 -14 -16 -14h-352q-9 0 -9 8z" />
<glyph unicode="^" horiz-adv-x="974" d="M88 518l344 756q3 6 10 6h84q8 0 11 -6l362 -754q6 -12 -4 -12h-70q-7 0 -12 10l-328 692h-2l-309 -692q-5 -10 -14 -10h-64q-11 0 -8 10z" />
<glyph unicode="_" horiz-adv-x="1069" d="M10 -152h1045v-100h-1045v100z" />
<glyph unicode="`" horiz-adv-x="800" d="M356 1427q-1 4 1 7.5t5 3.5h80q9 0 9 -6l108 -316q0 -6 -10 -6h-62q-9 0 -12 6z" />
<glyph unicode="a" horiz-adv-x="1005" d="M98 360q-1 115 48 229t133.5 204.5t209.5 147t265 56.5q123 -4 192 -28q4 -2 4 -11l-192 -905q-3 -9 -13 -14q-127 -59 -270 -59q-183 0 -280 101.5t-97 278.5zM186 367q0 -153 81.5 -231.5t226.5 -78.5q111 0 184 37l174 817q-43 13 -117 13q-113 0 -216 -47.5 t-175 -125t-115 -179t-43 -205.5z" />
<glyph unicode="b" horiz-adv-x="1036" d="M68 76l297 1403q3 7 10 10q8 1 26 3l31.5 3.5t16.5 1.5q4 0 4 -8l-125 -592q144 100 307 100q94 0 162.5 -51.5t99.5 -131t31 -180.5q0 -178 -76 -328q-78 -152 -211.5 -239t-292.5 -87q-78 0 -155.5 21.5t-118.5 55.5q-7 7 -7 14q0 3 1 5zM164 102q73 -47 203 -47 q126 0 235 78t173.5 212t64.5 290q0 55 -13 104.5t-39.5 90.5t-72 65.5t-105.5 24.5q-146 0 -299 -105z" />
<glyph unicode="c" horiz-adv-x="821" d="M96 375q0 166 74.5 309.5t202.5 228t278 84.5q25 0 52.5 -2.5t53.5 -7.5t41.5 -14.5t12.5 -20.5l-14 -55q-3 -9 -11 -6q-59 29 -141 29q-128 0 -234 -74t-165.5 -197.5t-59.5 -267.5q0 -155 80.5 -240.5t210.5 -85.5q121 0 203 49q4 2 7 -1t1 -7l-14 -59q-3 -13 -12 -17 q-74 -40 -197 -40q-94 0 -166.5 33t-116 89t-65 125t-21.5 148z" />
<glyph unicode="d" horiz-adv-x="1024" d="M96 369q0 168 82.5 313t222.5 230t301 85q117 0 179 -30l106 512q3 9 35 13.5t49 4.5q6 0 6 -8l-299 -1423q-3 -14 -14 -19q-134 -67 -289 -67q-177 0 -278 103.5t-101 285.5zM212 224q26 -64 71.5 -99t98.5 -51.5t114 -16.5q123 0 200 43l168 789q-71 33 -180 33 q-129 0 -244.5 -74t-185.5 -201q-69 -125 -68 -268q0 -91 26 -155z" />
<glyph unicode="e" horiz-adv-x="925" d="M96 362q0 118 41.5 233.5t110.5 204t167 143t203 54.5q131 0 196 -66t65 -161q0 -173 -175 -255q-151 -71 -427 -71q-44 0 -91 2q-6 -50 -6 -86q0 -139 68 -221t213 -82q154 0 264 76q6 3 6 -6l-14 -68q-2 -9 -12 -14q-90 -65 -261 -65q-176 0 -262 102.5t-86 279.5z M199 518q57 -3 108 -3q56 -1 105 3q95 6 159 24t109.5 41t70 54t35.5 61.5t11 65.5q0 18 -3 36t-15 42t-31 41.5t-55.5 30t-84.5 12.5q-137 0 -253 -117t-156 -291z" />
<glyph unicode="f" horiz-adv-x="444" d="M-29 -383q26 65 146 642t131 644l-127 4q-11 0 -8 11l14 51q3 8 8 8h129l25 100q26 120 63 203.5t84.5 130t99 66.5t115.5 20q17 0 35.5 -2t36 -5.5t27.5 -9.5q9 -5 9 -11q0 -1 -1 -3l-15 -55q-3 -10 -10 -8q-44 14 -90 14q-43 0 -75 -11t-69 -43.5t-68.5 -104.5 t-55.5 -181l-23 -100h203q9 0 6 -8l-14 -51q-3 -11 -10 -11l-201 -6q-17 -80 -91.5 -438.5t-120 -567.5t-63.5 -268q0 -10 -10 -10q-8 -1 -24.5 -3.5t-28.5 -4.5t-18 -4q-10 0 -10 7q0 2 1 5z" />
<glyph unicode="g" horiz-adv-x="1013" d="M-43 -414l23 68q3 9 8 6q122 -72 264 -72q95 0 161.5 27t115.5 90t81.5 147t65.5 216q-114 -64 -250 -64q-150 0 -240 91.5t-90 260.5q0 172 79.5 318.5t222.5 234.5t317 88q74 0 161.5 -16.5t81.5 -34.5q-10 -25 -18 -53l-174 -827q-32 -140 -74.5 -241.5t-89 -162.5 t-107 -97t-118.5 -48.5t-133 -12.5t-151 19t-130 51q-8 5 -6 12zM186 365q0 -147 73.5 -216t197.5 -69q121 0 237 67l160 758q-38 19 -156 19q-102 0 -195.5 -42.5t-163.5 -115.5t-111.5 -177.5t-41.5 -223.5z" />
<glyph unicode="h" horiz-adv-x="1028" d="M53 8l309 1469q3 10 11 10q7 2 21.5 4t31 3.5t20.5 2.5q10 0 7 -10l-148 -701q208 211 408 211q26 0 50.5 -5t54 -19.5t48.5 -39.5t35 -65q15 -37 14 -87q1 -5 1 -10q-2 -57 -15 -134l-133 -627q-2 -10 -12 -10h-72q-9 0 -6 10l135 633q13 63 13 111q0 161 -148 161 q-93 0 -194 -62t-199 -173l-142 -672q-2 -8 -10 -8h-70q-10 0 -10 8z" />
<glyph unicode="i" horiz-adv-x="399" d="M53 8l203 961q2 8 10 8h72q9 0 6 -12l-201 -957q-3 -8 -12 -8h-70q-8 0 -8 8zM303 1270q5 27 23 43t45 16t41 -17q10 -12 9 -29q0 -6 -1 -13q-2 -24 -20.5 -42t-45.5 -18q-26 0 -40 18q-11 15 -12 33q0 5 1 9z" />
<glyph unicode="j" horiz-adv-x="399" d="M-246 -475l13 55q2 8 10 8q36 2 61 6.5t51 17t44 34t36 55.5t33 83.5t29 117.5l225 1065q2 10 12 10h68q11 0 8 -10l-219 -1047q-36 -169 -69 -238.5t-81 -113.5q-68 -57 -178 -57q-23 0 -37 2q-7 0 -7 7q0 2 1 5zM301 1270q3 26 21.5 42.5t46.5 16.5q27 0 39 -17 q11 -13 11 -32q0 -5 -1 -10q-3 -24 -22 -42t-46 -18q-26 0 -40 18q-10 13 -10 30q0 6 1 12z" />
<glyph unicode="k" horiz-adv-x="915" d="M53 10l307 1467q3 10 11 10q40 10 73 10q7 0 7 -8l-199 -950h115q25 0 61 32q51 51 206.5 212.5t178.5 185.5q6 8 16 8h78q7 0 7 -6q0 -3 -3 -6q-41 -46 -214 -222t-238 -239q-6 -6 0 -12q160 -225 342 -482q3 -10 -6 -10h-82q-11 0 -15 6q-167 234 -305 432 q-20 27 -43 27h-112l-95 -457q-2 -8 -12 -8h-70q-9 0 -9 6q0 2 1 4z" />
<glyph unicode="l" horiz-adv-x="430" d="M83 80q-1 9 -1 19q0 34 8 81l270 1299q3 6 19.5 10t39 6t23.5 2q9 0 9 -8l-275 -1315q-7 -30 -7 -52q0 -71 67 -71q32 0 67 12q8 3 8 -6l-10 -49q-14 -28 -104 -28q-27 0 -48.5 8t-42 31t-23.5 61z" />
<glyph unicode="m" horiz-adv-x="1593" d="M51 10l160 756q32 154 35 199q0 12 10 12h66q8 0 8 -10q-8 -87 -29 -183q201 213 381 213q83 0 140.5 -56t60.5 -165q207 221 401 221q26 0 50 -5.5t52.5 -20.5t47.5 -41q18 -25 34 -65q14 -35 15 -83q0 -6 -1 -13q-2 -56 -16 -132l-129 -623q-3 -14 -12 -14h-63 q-18 0 -15 14l135 639q12 58 12 104q0 161 -147 161q-77 0 -171 -56t-197 -176q-1 -6 -7.5 -40t-7.5 -40l-125 -596q-3 -10 -12 -10h-68q-11 0 -8 10l129 621q15 68 15 120q0 57 -18 95q-34 72 -128 72q-165 0 -368 -240l-142 -668q-3 -10 -14 -10h-64q-10 0 -10 10z" />
<glyph unicode="n" d="M53 8l158 740q13 64 25.5 138.5t13.5 80.5q2 10 8 10h66q8 0 8 -6q0 -45 -27 -187q86 95 188 154t209 59q27 0 52.5 -5.5t56 -20.5t51 -40.5t36.5 -66.5q16 -39 16 -92v-6q-1 -57 -15 -135l-131 -623q-3 -8 -10 -8h-70q-11 0 -8 10l131 623q13 64 13 114q0 171 -150 171 q-92 0 -194 -63t-195 -179l-142 -670q-2 -6 -12 -6h-70q-8 0 -8 8z" />
<glyph unicode="o" horiz-adv-x="1044" d="M96 362q0 168 64 312.5t182.5 233.5t265.5 89q159 0 248.5 -110.5t89.5 -276.5q0 -173 -62.5 -316t-178 -228.5t-261.5 -85.5q-163 0 -255.5 108.5t-92.5 273.5zM184 365q0 -141 72.5 -226.5t200.5 -85.5q76 0 148 39.5t128.5 109.5t90.5 177t34 233q0 55 -13 106 t-41 100t-82 78.5t-128 29.5q-111 0 -205.5 -75.5t-149.5 -205t-55 -280.5z" />
<glyph unicode="p" d="M-47 -465l293 1372q3 13 10 15q3 1 28 10t34.5 12.5t36.5 12t43.5 12.5t44.5 10.5t51 9.5t52.5 5.5t57.5 2.5q154 0 241 -104.5t87 -259.5q0 -140 -48.5 -263.5t-129 -208t-186.5 -133t-220 -48.5q-110 0 -203 49l-100 -486q-1 -6 -2.5 -7.5t-7.5 -2.5q-7 -1 -24 -3 t-30.5 -3.5t-19.5 -1.5q-8 0 -8 10zM164 109q82 -54 198 -54q94 0 181.5 43t154 117.5t106.5 182.5t40 229q0 60 -15 111t-46 93t-85 66.5t-127 24.5q-120 0 -249 -58z" />
<glyph unicode="q" horiz-adv-x="1024" d="M98 340q0 101 28.5 198t83.5 179.5t128.5 145.5t170.5 98.5t204 35.5q25 0 60 -4.5t69.5 -11.5t64.5 -15.5t47 -17.5q13 -8 13 -14q0 -1 -9 -30q-7 -18 -10 -27l-278 -1334q-3 -8 -8 -10q-7 -1 -24 -3t-30.5 -3.5t-19.5 -1.5q-8 0 -8 8l108 512q-117 -65 -262 -65 q-146 0 -237 99.5t-91 260.5zM186 348q0 -142 74.5 -216.5t194.5 -74.5q138 0 247 70l162 766q-69 31 -172 31q-106 0 -200.5 -47.5t-161 -126t-105.5 -184t-39 -218.5z" />
<glyph unicode="r" horiz-adv-x="608" d="M53 6l152 711q40 189 43 252q0 8 6 8h65q9 0 9 -8q0 -59 -23 -176q67 87 170.5 145.5t186.5 58.5q7 0 7 -7q0 -2 -1 -5l-15 -70q-3 -10 -8 -10q-227 -23 -362 -229l-142 -668q0 -8 -10 -8h-70q-8 0 -8 6z" />
<glyph unicode="s" horiz-adv-x="722" d="M-10 92l12 62q4 10 10 4q132 -103 277 -103q119 0 175 53t56 136q0 65 -35.5 109t-142.5 110q-121 74 -165 131.5t-44 136.5q0 123 90.5 193.5t233.5 70.5q145 0 219 -57q5 -5 5 -9q0 -2 -1 -3l-16 -58q-3 -8 -11 -4q-97 62 -211 62q-110 0 -167.5 -51t-57.5 -134 q0 -59 30.5 -98.5t135.5 -105.5q119 -69 171 -131.5t52 -151.5q0 -71 -27.5 -125.5t-74.5 -86t-103.5 -47t-119.5 -15.5q-173 0 -287 96q-4 4 -4 11v5z" />
<glyph unicode="t" horiz-adv-x="526" d="M109 918l12 51q2 8 10 8h137l58 260q2 6 8 6q42 6 76 21q2 1 3 1q5 0 5 -8q-19 -85 -62 -280h211q9 0 9 -6q0 -2 -1 -4l-10 -49q-3 -11 -12 -11l-215 -4l-141 -688q-7 -34 -7 -61q0 -97 91 -97q61 0 118 29q9 6 9 -4l-13 -53q-3 -13 -10 -15q-48 -34 -135 -34 q-84 0 -126 60q-25 35 -24 96q0 44 13 102l139 665l-135 4q-5 0 -7 3.5t-1 7.5z" />
<glyph unicode="u" horiz-adv-x="999" d="M119 338l133 631q3 8 10 8h72q6 0 6 -10l-135 -641q-11 -50 -12 -91q0 -61 24 -103q39 -72 145 -71q82 0 165.5 44t183.5 169l147 697q2 6 12 6h68q7 0 7 -4q0 -2 -1 -4l-156 -756q-28 -129 -32 -203q0 -10 -11 -10h-63q-10 0 -10 10q0 20 6.5 70.5t15.5 87.5 q-92 -106 -179 -147t-183 -41q-32 0 -60.5 6t-60 21t-52.5 40.5t-37 65.5q-16 39 -17 92q0 56 14 133z" />
<glyph unicode="v" horiz-adv-x="872" d="M106 967q0 10 9 10h71q9 0 9 -8q111 -790 116 -887h4q7 14 15 29.5t21 39.5t26.5 47.5t38 66.5t48 83.5t64 110.5t79 135.5t99.5 171t119 205.5q6 6 13 6h75q8 0 8 -5q0 -2 -1 -5q-45 -80 -297.5 -507t-270.5 -452q-3 -8 -10 -8h-86q-7 0 -10 8q-7 38 -71.5 486.5 t-68.5 472.5z" />
<glyph unicode="w" horiz-adv-x="1411" d="M135 967q0 10 8 10h70q10 0 10 -8q48 -735 53 -889h5q137 282 458 889q3 8 11 8h81q9 0 9 -8q15 -262 29 -484t18.5 -300t5.5 -103h2q89 189 453 887q4 8 12 8h74q7 0 7 -6q0 -2 -1 -4l-504 -959q-5 -8 -12 -8h-93q-8 0 -8 8q-55 735 -55 864v15q-10 -29 -76 -157 t-184.5 -354.5t-190.5 -367.5q-5 -8 -14 -8h-94q-8 0 -8 8z" />
<glyph unicode="x" horiz-adv-x="835" d="M-80 10q70 77 228 251t217 239l-222 467q-3 5 -0.5 7.5t7.5 2.5h77q8 0 11 -6l192 -420h2l365 418q8 8 14 8h82q7 0 7 -4q0 -3 -3 -6q-32 -36 -192 -216.5t-230 -258.5q26 -59 118 -248.5t112 -233.5q3 -4 0.5 -7t-7.5 -3h-73q-11 0 -13 8l-204 430h-2 q-95 -116 -383 -432q-6 -6 -17 -6h-82q-7 0 -7 4q0 2 3 6z" />
<glyph unicode="y" horiz-adv-x="888" d="M-144 -472q-1 2 -1 3q0 2 2 4q109 95 239.5 244t206.5 262q4 8 4 16q-4 18 -33.5 158.5t-62 294t-63.5 302.5t-33 157q0 8 8 8h76q8 0 10 -6q155 -748 164 -808q2 -15 4 -28h4q115 181 212 360.5t245 473.5q5 8 14 8h72q7 0 7 -6q0 -1 -1 -4q-261 -542 -514 -916 q-111 -159 -244.5 -310t-202.5 -210q-9 -6 -16 -6h-92q-4 0 -5 3z" />
<glyph unicode="z" horiz-adv-x="763" d="M-53 6l10 41q3 9 8 14q97 118 263 316t286.5 342.5t151.5 183.5q-39 -2 -220 -2h-309q-9 0 -6 8l19 64q4 4 10 4h628q5 0 5 -8l-11 -41q-2 -8 -8 -17q-163 -209 -389.5 -477.5t-308.5 -359.5q70 2 258 2h317q9 0 6 -8l-24 -62q-3 -6 -8 -6h-672q-6 0 -6 6z" />
<glyph unicode="{" horiz-adv-x="780" d="M94 584l15 65q3 8 8 8q78 -1 133.5 15t90.5 48t54 71.5t31 95.5q8 43 25.5 166.5t25.5 167.5q9 45 23 84.5t45.5 88.5t75 84.5t115.5 61.5t163 31q8 3 8 -4l-14 -62q0 -6 -8 -8q-68 -5 -120.5 -24t-86 -44.5t-58 -62.5t-37 -71t-22.5 -78q-9 -44 -24.5 -163t-24.5 -163 q-25 -118 -84.5 -184.5t-169.5 -92.5l-2 -4q55 -13 89.5 -42.5t47.5 -70.5t12 -86.5t-14 -97.5q-11 -45 -38 -144t-38 -149q-16 -59 -16 -105.5t14 -78.5t42.5 -56t65 -38.5t87.5 -24.5q4 -2 4 -10l-14 -61q0 -6 -9 -6q-77 12 -132.5 39t-86 62.5t-44.5 82t-12.5 92.5 t13.5 98q5 22 38.5 135t43.5 168q15 52 12 99t-20.5 82t-68.5 56t-132 21q-9 0 -6 9z" />
<glyph unicode="|" horiz-adv-x="366" d="M141 -401v2007h84v-2007h-84z" />
<glyph unicode="}" horiz-adv-x="780" d="M-82 -354l12 59q0 10 7 10q60 9 108 25t80.5 38.5t55.5 45.5t38.5 54.5t24 57t16.5 60.5q10 46 28 170t27 174q22 117 82 183.5t172 90.5v4q-71 18 -109 61.5t-41.5 100t13.5 123.5q16 55 46.5 155t41.5 142q36 133 -11 202t-196 93q-2 0 -2 10l15 60q0 8 8 8 q341 -49 266 -367q-10 -48 -43.5 -154t-42.5 -139q-18 -78 -12.5 -133.5t61 -88t166.5 -36.5q4 0 4 -10l-14 -63q0 -9 -8 -9q-79 0 -135 -16t-91 -48t-54 -71.5t-30 -95.5q-7 -42 -26 -172.5t-29 -177.5q-7 -31 -15 -57.5t-24 -61t-37 -63t-54 -58t-73 -51t-97 -38.5 t-124 -23q-4 0 -4 6z" />
<glyph unicode="~" horiz-adv-x="1144" d="M88 416q-9 159 58 246.5t169 87.5q64 0 112 -26.5t153 -111.5q96 -77 147 -105t111 -28q151 0 139 252q0 8 6 8h64q8 0 8 -8q5 -73 -6 -131t-32 -94.5t-52 -60.5t-63 -34t-68 -10q-59 0 -120 24t-153 99q-25 20 -71 58t-64.5 51t-48.5 26t-60 13q-70 0 -113.5 -60.5 t-37.5 -195.5q0 -8 -6 -8h-64q-8 0 -8 8z" />
<glyph unicode="&#xa1;" horiz-adv-x="440" d="M182 -381l35 160q25 121 97 441.5t85 369.5q3 8 13 8h53q10 0 8 -8q-56 -296 -162 -803l-35 -164q-4 -13 -8 -14q-16 -8 -41 -8q-17 0 -41 6q-4 4 -4 12zM442 936q7 61 70 61q28 0 42.5 -17.5t10.5 -45.5q-3 -27 -21 -44.5t-48 -17.5q-28 0 -42.5 19t-11.5 45z" />
<glyph unicode="&#xa2;" d="M209 571q0 224 141 386t359 182l41 194q3 8 10 8h59q11 0 8 -10l-41 -190q118 -6 179 -51q6 -6 4 -13l-15 -65q-4 -8 -8 -4q-86 57 -201 57q-187 0 -317.5 -138t-130.5 -349q0 -141 82 -220t199 -79q137 0 241 59q3 2 4 1t0 -7l-14 -66q-3 -10 -10 -12 q-36 -22 -96.5 -35.5t-116.5 -15.5l-41 -197q-3 -8 -10 -8h-62q-9 0 -6 10l41 195q-149 24 -224 125t-75 243z" />
<glyph unicode="&#xa3;" d="M-18 6l12 53q3 5 6 7q77 30 135 89t93.5 139t55.5 158t33 173h-176q-7 0 -4 10l13 53q3 8 10 8h170q3 26 10 71t10 67q21 149 61.5 256t97.5 168.5t123.5 89.5t147.5 28q119 0 178 -43q6 -8 3 -16l-15 -57q-4 -13 -10 -7q-68 43 -162 43q-69 0 -122 -25.5t-91 -72.5 t-66 -122.5t-46.5 -166t-32.5 -213.5h319q11 0 8 -8l-12 -53q0 -10 -12 -10h-316q-33 -211 -90.5 -337.5t-165.5 -207.5h684q12 0 7 -8l-25 -64q-3 -8 -12 -8h-813q-6 0 -6 6z" />
<glyph unicode="&#xa4;" d="M117 283q-6 6 0 14l131 133q-76 97 -76 240q0 135 82 243l-135 134q-6 8 0 14l39 39q6 8 14 0l135 -131q96 82 228 82q137 0 231 -84l139 135q7 6 15 -2l36 -39q4 -4 -2 -14l-135 -134q38 -45 60 -110.5t22 -136.5q0 -140 -74 -236l131 -135q8 -4 3 -12l-41 -39 q-6 -6 -13 0l-133 133q-40 -36 -102.5 -60t-134.5 -24q-147 0 -236 82l-131 -131q-7 -7 -14 -2zM248 670q0 -78 27 -139t70.5 -95.5t92.5 -52.5t99 -18q54 0 102 15.5t91 48.5t68 93.5t25 141.5q0 58 -18.5 113t-53 101.5t-92 74.5t-129.5 28q-129 0 -205.5 -88.5 t-76.5 -222.5z" />
<glyph unicode="&#xa5;" d="M154 414l10 45q2 10 12 10h264l35 166h-264q-11 0 -8 12l10 43q0 8 10 8h246l-240 650q0 8 7 8h73q8 0 10 -6q46 -132 103 -294t84 -238.5t33 -98.5h2q36 62 481 631q6 6 14 6h82q7 0 0 -10l-514 -648h244q8 0 8 -8l-10 -45q-3 -10 -12 -10h-271l-37 -166h273q8 0 8 -8 l-10 -49q-3 -9 -11 -9h-272l-84 -393q0 -10 -10 -10h-72q-9 0 -6 8l86 395h-266q-11 0 -8 11z" />
<glyph unicode="&#xa6;" horiz-adv-x="366" d="M141 -401v802h84v-802h-84zM141 803v803h84v-803h-84z" />
<glyph unicode="&#xa7;" horiz-adv-x="1136" d="M39 -180l16 67q2 5 6 7.5t7 -0.5q116 -121 284 -121q159 0 180 118q17 86 -10 159t-133 216q-102 141 -154.5 257.5t-52.5 221.5q0 161 73 304t203 232.5t285 94.5q109 3 186 -25.5t107 -62.5q6 -9 4 -14l-12 -66q-4 -13 -14 -6q-98 98 -277 98q-207 0 -207 -176 q0 -59 37.5 -123.5t139.5 -195.5q42 -54 67.5 -90t58.5 -90.5t52 -100t32 -103.5t13 -116q0 -105 -32.5 -201.5t-89.5 -170t-131.5 -128.5t-163 -83.5t-179.5 -28.5q-98 0 -175.5 34t-115.5 76q-6 6 -4 17zM264 766q0 -106 45 -202.5t150 -241.5q54 -74 87 -131.5 t53.5 -119.5t15.5 -120.5t-35 -116.5q121 67 194.5 184.5t73.5 272.5q0 103 -45.5 205t-155.5 241q-133 170 -168.5 263.5t-9.5 201.5q-205 -169 -205 -436z" />
<glyph unicode="&#xa8;" horiz-adv-x="800" d="M291 1270q5 27 22.5 43t44.5 16q44 0 49 -38q6 -37 -23 -64q-19 -17 -42 -17q-27 0 -40.5 18t-10.5 42zM653 1270q3 26 21.5 42.5t46.5 16.5q26 0 39 -17t8 -42q-2 -24 -20.5 -42t-45.5 -18q-26 0 -40 18t-9 42z" />
<glyph unicode="&#xa9;" horiz-adv-x="1570" d="M156 680q0 188 85.5 343t238 244t339.5 89q188 0 340 -89t237 -243.5t85 -343.5q0 -194 -86 -348.5t-237.5 -241t-338.5 -86.5q-190 0 -341.5 88t-236.5 242.5t-85 345.5zM229 680q0 -175 77.5 -315t212.5 -217.5t300 -77.5q259 0 423.5 172t164.5 438q0 174 -78.5 314.5 t-213.5 219t-298 78.5q-171 0 -306.5 -82t-208.5 -221.5t-73 -308.5zM461 678q0 167 115.5 282t300.5 115q123 0 200 -45q6 -2 6 -12v-53q0 -9 -10 -4q-79 49 -196 49q-148 0 -240 -93.5t-92 -234.5q0 -146 92.5 -234t234.5 -88q118 0 209 52q3 2 7 0t4 -6v-50q0 -4 -9 -10 q-88 -55 -217 -55q-99 0 -179 34t-128 90t-73 123.5t-25 139.5z" />
<glyph unicode="&#xaa;" horiz-adv-x="708" d="M147 840q0 171 123.5 288.5t302.5 114.5q102 0 187 -35q4 -2 4 -10l-107 -504q-1 -6 -4 -23t-4 -26q0 -7 -6 -10q-107 -51 -225 -51q-133 0 -202 72t-69 184zM223 844q0 -88 53.5 -143.5t151.5 -55.5q82 0 154 35l102 481q-48 21 -129 21q-103 0 -180.5 -50t-114.5 -126 t-37 -162z" />
<glyph unicode="&#xab;" horiz-adv-x="1249" d="M158 467l10 53q2 7 8 10l518 347q5 3 7 1t1 -8l-16 -73q0 -10 -8 -15l-438 -297l311 -299q4 -4 4 -12l-14 -68q-3 -9 -11 -4l-370 353q-2 2 -2 12zM612 467l11 53q2 7 8 10l518 347q10 7 10 -7l-18 -73q0 -10 -8 -15l-439 -297l312 -299q4 -4 4 -12l-15 -68q-3 -9 -10 -4 l-371 353q-2 2 -2 12z" />
<glyph unicode="&#xac;" horiz-adv-x="1142" d="M66 694v62q0 4 6 4h993q7 0 8.5 -1t1.5 -7v-490q0 -8 -8 -8h-63q-11 0 -11 8v424h-919q-8 0 -8 8z" />
<glyph unicode="&#xad;" horiz-adv-x="673" d="M102 471l15 64q0 8 10 8h434q9 0 6 -11l-12 -61q-3 -8 -12 -8h-432q-4 0 -5.5 0.5t-3 2t-0.5 5.5z" />
<glyph unicode="&#xae;" horiz-adv-x="378" d="M152 1145q0 79 54.5 134.5t135.5 55.5q79 0 133.5 -55.5t54.5 -134.5q0 -78 -55 -133.5t-133 -55.5q-80 0 -135 54t-55 135zM184 1145q0 -67 45.5 -113.5t116.5 -46.5q69 0 110.5 45.5t41.5 112.5q0 69 -44.5 116.5t-113.5 47.5q-66 0 -111 -46t-45 -116zM270 1051v190 q0 4 6 4q16 4 54 4q84 0 84 -59q0 -42 -47 -55q57 -71 65 -84q3 -3 0 -6q0 -1 -2 -1h-24q-6 0 -9 3q-23 32 -57 75q-6 6 -10 6h-29v-77q0 -7 -4 -7h-21q-6 0 -6 7zM301 1151h27q55 0 55 37t-55 37q-15 0 -27 -2v-72z" />
<glyph unicode="&#xaf;" horiz-adv-x="800" d="M276 1233l13 59q0 6 8 6h502q7 0 4 -8l-12 -57q0 -8 -9 -8h-501q-9 0 -5 8z" />
<glyph unicode="&#xb0;" horiz-adv-x="495" d="M35 1061q0 100 66.5 171t164.5 71q99 0 164.5 -68.5t65.5 -173.5t-65.5 -174.5t-164.5 -69.5q-98 0 -164.5 70.5t-66.5 173.5zM104 1061q0 -76 46.5 -127t115.5 -51q70 0 117 50.5t47 127.5q0 75 -48 126.5t-116 51.5q-69 0 -115.5 -51.5t-46.5 -126.5z" />
<glyph unicode="&#xb1;" horiz-adv-x="1142" d="M63 8v60q0 8 11 8h995q10 0 10 -8v-58q0 -6 -2.5 -8t-11.5 -2h-991q-11 0 -11 8zM63 688v57q0 11 11 11h458v471q0 8 9 8h63q8 0 8 -8v-471h457q10 0 10 -11v-57q0 -10 -10 -10h-457v-473q0 -10 -8 -10h-63q-9 0 -9 10v473h-460q-9 0 -9 10z" />
<glyph unicode="&#xb2;" horiz-adv-x="618" d="M147 930l11 41q2 4 6 8q37 27 102.5 72.5t102 72.5t89 67.5t82 72t59.5 70t43 77.5t13 80q0 63 -41.5 104t-115.5 41q-59 0 -105 -13.5t-98 -47.5q-3 -3 -6 -1.5t-2 5.5l14 59q0 7 8 11q97 57 209 57q97 0 154 -61.5t57 -143.5q0 -55 -20.5 -107t-45.5 -89.5t-87.5 -92 t-104 -86t-136.5 -100.5q-32 -23 -48 -35h399q4 0 4 -6l-22 -55q-2 -4 -9 -4h-505q-7 0 -7 4z" />
<glyph unicode="&#xb3;" horiz-adv-x="616" d="M178 987l12 57q0 2 2 4t5 1q90 -72 209 -72q107 0 161 49.5t54 118.5t-51.5 108t-141.5 39h-68q-2 0 -2 6l11 48q0 8 6 8h63q110 3 164.5 48.5t54.5 117.5q0 52 -38.5 86t-106.5 34q-108 0 -199 -57q-3 -2 -5 -0.5t-1 4.5l12 58q2 7 9 10q86 51 200 51q92 0 147.5 -51.5 t55.5 -124.5q0 -146 -168 -205v-2q51 -16 90 -59.5t39 -108.5q0 -119 -85 -180.5t-210 -61.5q-134 0 -215 62q-8 4 -4 12z" />
<glyph unicode="&#xb4;" horiz-adv-x="800" d="M442 1116l238 314q4 8 14 8h84q8 0 4 -11l-250 -313q-6 -6 -14 -6h-72q-9 0 -4 8z" />
<glyph unicode="&#xb5;" horiz-adv-x="1036" d="M-51 -465l303 1432q2 10 12 10h66q12 0 10 -10l-141 -670q-24 -115 18.5 -175.5t134.5 -60.5q147 0 266.5 140t174.5 401l77 363q2 12 13 12h67q11 0 11 -10l-160 -754q-33 -154 59 -154q48 0 78 13q3 0 4.5 0.5t2.5 -2t1 -4v-5.5l-14 -53q-7 -28 -98 -28 q-157 0 -115 219q10 40 10 55q-155 -274 -397 -274q-59 0 -109.5 27.5t-72.5 84.5q-28 -175 -111 -547q-3 -8 -10 -10q-45 -10 -74 -10q-9 0 -6 10z" />
<glyph unicode="&#xb6;" horiz-adv-x="907" d="M102 580q0 173 86.5 301.5t237.5 197.5t350 78q40 125 76 172q4 6 12 6h56q7 0 4 -8q-63 -130 -82 -217q-39 -184 -100 -490t-91 -452q-73 -344 -188 -469q-2 -6 -14 -6h-64q-7 0 -2 10q62 80 106.5 187.5t65.5 205.5l8 37q-89 8 -170 39.5t-147 85.5t-105 137t-39 185z " />
<glyph unicode="&#xb7;" horiz-adv-x="430" d="M154 504q5 27 23 44t46 17t43 -18.5t13 -44.5q-3 -30 -21.5 -47t-48.5 -17q-28 0 -43 18.5t-12 47.5z" />
<glyph unicode="&#xb8;" horiz-adv-x="763" d="M37 -406l14 58q2 7 8 4q53 -29 119 -29q54 0 88.5 27.5t34.5 77.5q0 95 -164 110q-4 3 -2 11t6 14l115 141h84l-96 -114q133 -37 133 -156q0 -87 -59.5 -134.5t-149.5 -47.5q-43 0 -87 10t-44 28z" />
<glyph unicode="&#xb9;" horiz-adv-x="389" d="M246 1565l10 49q3 5 8 8q100 24 182 68q6 6 15 6h47q8 0 4 -8l-160 -756q-3 -6 -8 -6h-61q-7 0 -4 6l145 688q-71 -38 -172 -59q-6 -3 -6 4z" />
<glyph unicode="&#xba;" horiz-adv-x="722" d="M152 848q0 102 43.5 192t126.5 146.5t188 56.5q117 0 183.5 -73.5t66.5 -190.5q0 -165 -101 -280t-249 -115q-130 0 -194 76.5t-64 187.5zM225 852q0 -92 51.5 -148.5t147.5 -56.5q97 0 178.5 89.5t81.5 238.5q0 92 -46.5 149.5t-139.5 57.5q-118 0 -195.5 -98.5 t-77.5 -231.5z" />
<glyph unicode="&#xbb;" horiz-adv-x="1249" d="M106 109l17 73q0 10 8 15l438 297l-311 299q-4 4 -4 12l14 67q3 10 11 5l370 -353q2 -4 2 -12l-10 -53q-2 -7 -8 -10l-518 -347q-5 -3 -7.5 -1t-1.5 8zM561 109l17 73q0 10 8 15l438 297l-311 299q-4 4 -4 12l14 67q3 10 10 5l371 -353q4 -8 2 -12l-10 -53q-2 -7 -9 -10 l-518 -347q-5 -3 -7 -1t-1 8z" />
<glyph unicode="&#xbc;" horiz-adv-x="1404" d="M117 -12l1048 1382q6 6 11 6h71q9 0 2 -10l-1046 -1380q-6 -9 -15 -9h-67q-12 0 -4 11zM203 1235l10 49q3 7 6 8q100 24 182 68q9 6 15 6h47q8 0 4 -8l-158 -756q-3 -6 -10 -6h-59q-5 0 -6.5 1.5t-0.5 4.5l148 688q-76 -39 -172 -59q-6 -3 -6 4zM739 217l9 35q0 6 6 12 q234 258 458 498q6 6 13 6h53q7 0 4 -8l-104 -492h131q7 0 4 -8l-19 -43q-3 -6 -8 -6h-121l-43 -207q-2 -6 -8 -6h-57q-10 0 -6 8l45 205h-353q-4 0 -4 6zM829 268h277q60 281 94 414h-2q-27 -37 -175.5 -202t-193.5 -212z" />
<glyph unicode="&#xbd;" horiz-adv-x="1484" d="M98 -12l1051 1382q4 6 10 6h72q3 0 4 -2.5t-2 -5.5l-1049 -1382q-9 -9 -12 -9h-70q-10 0 -4 11zM203 1235l10 49q3 7 6 8q104 25 184 68q6 6 13 6h49q8 0 4 -8l-160 -756q-3 -6 -8 -6h-61q-7 0 -4 6l145 688q-71 -38 -172 -59q-6 -3 -6 4zM801 4l8 39q3 5 8 8 q36 26 90 64.5t89.5 63.5t81.5 60t75.5 61.5t61.5 61t50 65t30 66.5t12 72q0 62 -41.5 104t-114.5 42q-106 0 -203 -64q-3 -2 -6 -0.5t-2 6.5l14 58q0 9 9 12q91 55 206 55q99 0 155 -60.5t56 -144.5q0 -46 -11 -87t-37.5 -80.5t-55.5 -72.5t-79 -74.5t-94 -74.5t-114 -84 q-34 -24 -51 -37l399 3q7 0 4 -9l-20 -53q-2 -6 -10 -6h-504q-6 0 -6 6z" />
<glyph unicode="&#xbe;" horiz-adv-x="1503" d="M117 657l14 58q0 7 6 4q90 -72 209 -72q107 0 161 49.5t54 118.5t-51.5 108.5t-140.5 39.5h-68q-2 0 -2 6l10 47q0 8 6 8h64q109 3 164 48.5t55 117.5q0 52 -39 86.5t-108 34.5q-104 0 -197 -58q-6 -2 -7 1l1 3l12 58q2 7 8 10q83 51 199 51q93 0 148 -51t55 -125 q0 -146 -166 -205v-2q50 -16 89.5 -60t39.5 -108q0 -119 -85 -180t-210 -61q-136 0 -215 61q-10 5 -6 12zM268 -12l1051 1382q4 6 10 6h72q3 0 4 -2.5t-2 -5.5l-1049 -1382q-9 -9 -12 -9h-70q-10 0 -4 11zM848 217l8 35q0 4 6 10q35 37 224.5 243.5t236.5 256.5q6 6 10 6h53 q8 0 5 -8l-105 -494h133q7 0 4 -6l-18 -43q-3 -6 -8 -6h-121l-43 -207q-3 -8 -10 -8h-58q-7 0 -4 10l43 205h-350q-6 0 -6 6zM938 266h276q57 261 97 416h-2q-48 -64 -371 -416z" />
<glyph unicode="&#xbf;" horiz-adv-x="759" d="M164 -131q0 53 15.5 96t54.5 85.5t80 75t116 85.5q122 89 168.5 131t46.5 66q0 50 -67 163q-4 7 4 7h71q7 0 11 -7q69 -106 69 -170q0 -20 -13 -41.5t-66.5 -69t-149.5 -114.5q-64 -46 -94 -68.5t-68.5 -56t-54.5 -57t-27.5 -54t-11.5 -65.5q2 -77 60 -129.5t167 -52.5 q166 0 301 104q3 2 6.5 0t3.5 -6l-16 -72q-3 -9 -6 -12q-44 -35 -127 -64.5t-178 -29.5q-132 0 -214.5 74t-80.5 182zM612 936q10 61 72 61q28 0 42.5 -17.5t10.5 -45.5q-3 -27 -21 -44.5t-48 -17.5q-28 0 -43 19t-13 45z" />
<glyph unicode="&#xc0;" horiz-adv-x="1200" d="M-27 8q108 193 398.5 703.5t333.5 586.5q10 21 16 52q0 6 8 6h107q6 0 6 -6q175 -1262 186 -1342q0 -8 -8 -8h-70q-8 0 -10 8l-70 508h-518l-286 -510q-3 -6 -11 -6h-78q-7 0 -4 8zM391 594h471q-83 575 -90 686h-2q-30 -73 -379 -686zM566.5 1663.5q1.5 3.5 6.5 3.5h86 q9 0 15 -6l166 -219q4 -4 2 -7t-8 -3h-70q-10 0 -21 8l-174 217q-4 3 -2.5 6.5z" />
<glyph unicode="&#xc1;" horiz-adv-x="1200" d="M-27 8q108 193 398.5 703.5t333.5 586.5q10 21 16 52q0 6 8 6h107q6 0 6 -6q175 -1262 186 -1342q0 -8 -8 -8h-70q-8 0 -10 8l-70 508h-518l-286 -510q-3 -6 -11 -6h-78q-7 0 -4 8zM391 594h471q-83 575 -90 686h-2q-30 -73 -379 -686zM715.5 1431q-1.5 4 1.5 7l256 221 q4 4 14 4h90q6 0 6.5 -3.5t-2.5 -6.5l-262 -219q-11 -7 -16 -7h-82q-4 0 -5.5 4z" />
<glyph unicode="&#xc2;" horiz-adv-x="1200" d="M-27 8q108 193 398.5 703.5t333.5 586.5q10 21 16 52q0 6 8 6h107q6 0 6 -6q175 -1262 186 -1342q0 -8 -8 -8h-70q-8 0 -10 8l-70 508h-518l-286 -510q-3 -6 -11 -6h-78q-7 0 -4 8zM391 594h471q-83 575 -90 686h-2q-30 -73 -379 -686zM517.5 1434.5q-0.5 4.5 2.5 7.5 l275 217q6 4 10 4h86q14 0 14 -6l152 -221q6 -6 -4 -6h-74q-9 0 -12 6l-123 176l-226 -176q-6 -6 -16 -6h-78q-6 0 -6.5 4.5z" />
<glyph unicode="&#xc3;" horiz-adv-x="1200" d="M-27 8q108 193 398.5 703.5t333.5 586.5q10 21 16 52q0 6 8 6h107q6 0 6 -6q175 -1262 186 -1342q0 -8 -8 -8h-70q-8 0 -10 8l-70 508h-518l-286 -510q-3 -6 -11 -6h-78q-7 0 -4 8zM391 594h471q-83 575 -90 686h-2q-30 -73 -379 -686zM504 1466q11 79 60.5 131t119.5 52 q42 0 79.5 -18.5t60 -40t51 -40t55.5 -18.5q72 0 94 104q0 6 8 6h62q6 0 6 -6q-35 -178 -172 -178q-39 0 -75 18.5t-59 41t-53 41t-59 18.5q-36 0 -64 -28.5t-40 -82.5q0 -6 -9 -6h-57q-8 0 -8 6z" />
<glyph unicode="&#xc4;" horiz-adv-x="1200" d="M-27 8q108 193 398.5 703.5t333.5 586.5q10 21 16 52q0 6 8 6h107q6 0 6 -6q175 -1262 186 -1342q0 -8 -8 -8h-70q-8 0 -10 8l-70 508h-518l-286 -510q-3 -6 -11 -6h-78q-7 0 -4 8zM391 594h471q-83 575 -90 686h-2q-30 -73 -379 -686zM553 1534q3 28 22.5 44.5 t47.5 16.5q27 0 42 -17.5t13 -43.5q-3 -29 -22.5 -45t-47.5 -16q-26 0 -42 17.5t-13 43.5zM913 1534q3 27 23 44t47 17q26 0 41.5 -17t13.5 -44q-9 -61 -69 -61q-27 0 -43 17t-13 44z" />
<glyph unicode="&#xc5;" horiz-adv-x="1200" d="M-27 8q108 193 398.5 703.5t333.5 586.5q10 21 16 52q0 6 8 6h107q6 0 6 -6q175 -1262 186 -1342q0 -8 -8 -8h-70q-8 0 -10 8l-70 508h-518l-286 -510q-3 -6 -11 -6h-78q-7 0 -4 8zM391 594h471q-83 575 -90 686h-2q-30 -73 -379 -686zM604 1563q7 74 68.5 120t148.5 46 q89 0 137.5 -49t40.5 -121q-8 -74 -67.5 -120t-147.5 -46q-89 0 -138.5 48.5t-41.5 121.5zM676 1563q-6 -51 27 -82t90 -31t95 28t44 81t-27 83.5t-90 30.5q-58 0 -96.5 -29t-42.5 -81z" />
<glyph unicode="&#xc6;" horiz-adv-x="1607" d="M-27 10l854 1284q1 2 5.5 8.5t11 18.5t14.5 29q2 6 8 6h680q10 0 10 -8l7 -60q1 -4 -0.5 -6t-4.5 -3t-6 -1h-557l-57 -553h504q9 0 6 -8l-12 -62q-3 -8 -11 -8h-493l-60 -569h605q7 0 4 -10l-25 -62q-3 -6 -10 -6h-660q-6 0 -8 6l51 498h-432l-327 -496q-5 -8 -11 -8h-79 q-14 0 -7 10zM446 582h394q62 634 73 712h-2q-117 -190 -465 -712z" />
<glyph unicode="&#xc7;" horiz-adv-x="1126" d="M141 510q0 129 34.5 255t102.5 236t162 194t222.5 132.5t273.5 48.5q89 0 153 -15.5t93 -35.5q6 -3 4 -10l-15 -62q-2 -7 -12 -4q-104 49 -235 49q-155 0 -288 -66.5t-221 -176t-137 -250.5t-49 -291q0 -98 27 -177.5t70 -129.5t100 -84t113.5 -48t113.5 -14 q101 0 173.5 17t144.5 53q3 2 5 0t1 -6l-14 -68q-3 -9 -9 -12q-100 -59 -280 -65l-72 -86q133 -38 133 -156q0 -87 -59.5 -134.5t-149.5 -47.5q-82 0 -129 28q-4 4 -4 10l15 58q2 7 8 4q56 -29 119 -29q54 0 88 27.5t34 77.5q0 95 -161 110q-6 2 2 25l94 115 q-84 7 -160.5 40.5t-143.5 94.5t-107 162.5t-40 230.5z" />
<glyph unicode="&#xc8;" horiz-adv-x="968" d="M66 10l282 1340q2 6 10 6h633q7 0 10 -8l7 -60q0 -10 -7 -10h-581l-115 -549h524q4 0 5 -0.5t2.5 -2t-0.5 -5.5l-15 -62q-3 -8 -10 -8h-522l-121 -573h649q7 0 4 -10l-24 -60q-5 -8 -13 -8h-710q-6 0 -7 1.5t-1 8.5zM491.5 1692q1.5 4 6.5 4h86q8 0 16 -8l164 -218 q4 -4 2.5 -7t-6.5 -3h-72q-10 0 -18 8l-176 215q-4 5 -2.5 9z" />
<glyph unicode="&#xc9;" horiz-adv-x="968" d="M66 10l282 1340q2 6 10 6h633q7 0 10 -8l7 -60q0 -10 -7 -10h-581l-115 -549h524q4 0 5 -0.5t2.5 -2t-0.5 -5.5l-15 -62q-3 -8 -10 -8h-522l-121 -573h649q7 0 4 -10l-24 -60q-5 -8 -13 -8h-710q-6 0 -7 1.5t-1 8.5zM617 1464.5q-2 2.5 1 5.5l256 222q4 6 15 6h90 q6 0 6.5 -4.5t-2.5 -7.5l-262 -218q-4 -6 -14 -6h-82q-6 0 -8 2.5z" />
<glyph unicode="&#xca;" horiz-adv-x="968" d="M66 10l282 1340q2 6 10 6h633q7 0 10 -8l7 -60q0 -10 -7 -10h-581l-115 -549h524q4 0 5 -0.5t2.5 -2t-0.5 -5.5l-15 -62q-3 -8 -10 -8h-522l-121 -573h649q7 0 4 -10l-24 -60q-5 -8 -13 -8h-710q-6 0 -7 1.5t-1 8.5zM423.5 1462.5q-0.5 4.5 2.5 7.5l274 218q9 6 11 6h86 q14 0 14 -8l152 -222q6 -6 -5 -6h-73q-10 0 -13 6l-122 176l-226 -176q-6 -6 -16 -6h-78q-6 0 -6.5 4.5z" />
<glyph unicode="&#xcb;" horiz-adv-x="968" d="M66 10l282 1340q2 6 10 6h633q7 0 10 -8l7 -60q0 -10 -7 -10h-581l-115 -549h524q4 0 5 -0.5t2.5 -2t-0.5 -5.5l-15 -62q-3 -8 -10 -8h-522l-121 -573h649q7 0 4 -10l-24 -60q-5 -8 -13 -8h-710q-6 0 -7 1.5t-1 8.5zM455 1565q3 28 21.5 44.5t47.5 16.5q27 0 42 -18 t12 -43q-3 -29 -22 -45.5t-46 -16.5t-42.5 17.5t-12.5 44.5zM815 1565q3 28 22.5 44.5t47.5 16.5q26 0 41 -17.5t12 -45.5q-3 -29 -21.5 -44.5t-48.5 -15.5q-27 0 -42 17.5t-11 44.5z" />
<glyph unicode="&#xcc;" horiz-adv-x="417" d="M66 8l282 1340q2 8 8 8h72q8 0 8 -8l-284 -1340q-2 -8 -9 -8h-69q-8 0 -8 8zM181.5 1685q1.5 3 6.5 3h86q8 0 15 -7l166 -217q9 -12 -4 -12h-72q-10 0 -21 8l-174 217q-4 5 -2.5 8z" />
<glyph unicode="&#xcd;" horiz-adv-x="417" d="M66 8l282 1340q2 8 8 8h72q8 0 8 -8l-284 -1340q-2 -8 -9 -8h-69q-8 0 -8 8zM340.5 1447.5q-1.5 3.5 1.5 6.5l256 221q4 4 14 4h90q6 0 7 -3.5t-2 -6.5l-263 -219q-6 -6 -14 -6h-82q-6 0 -7.5 3.5z" />
<glyph unicode="&#xce;" horiz-adv-x="417" d="M66 8l282 1340q2 8 8 8h72q8 0 8 -8l-284 -1340q-2 -8 -9 -8h-69q-8 0 -8 8zM136.5 1451q-0.5 5 2.5 7l275 219q4 4 10 4h86q14 0 14 -6l152 -221q3 -8 -6 -8h-74q-6 0 -12 6l-121 178l-225 -178q-12 -6 -17 -6h-80q-4 0 -4.5 5z" />
<glyph unicode="&#xcf;" horiz-adv-x="417" d="M66 8l282 1340q2 8 8 8h72q8 0 8 -8l-284 -1340q-2 -8 -9 -8h-69q-8 0 -8 8zM172 1540q5 27 24 44.5t46 17.5t42.5 -18.5t12.5 -43.5q-3 -28 -22 -44.5t-46 -16.5t-43 17t-14 44zM532 1540q5 27 25 44.5t47 17.5q26 0 41 -18.5t12 -45.5q-6 -59 -69 -59q-27 0 -43 17 t-13 44z" />
<glyph unicode="&#xd0;" horiz-adv-x="1290" d="M74 659l12 60q3 8 10 8h144l129 621q2 6 8 8q98 4 264 4q275 0 431 -149t157 -414q0 -202 -69 -372t-210 -278q-204 -153 -553 -153q-199 0 -301 6q-8 0 -8 14l135 637h-143q-9 0 -6 8zM188 76q54 -4 228 -4q299 0 475 131q127 96 188.5 251t61.5 343q0 242 -139 365.5 t-375 123.5q-138 0 -183 -2l-118 -557h354q9 0 6 -8l-12 -60q0 -8 -10 -8h-355z" />
<glyph unicode="&#xd1;" horiz-adv-x="1257" d="M66 10l282 1338q2 8 10 8h103q7 0 10 -6q430 -1155 457 -1260h2q6 57 258 1258q2 8 8 8h74q8 0 4 -8l-283 -1338q-3 -10 -10 -10h-100q-9 0 -13 8q-437 1183 -452 1270h-2q-13 -94 -262 -1270q0 -8 -9 -8h-71q-6 0 -6 10zM526 1491q11 78 60.5 130t120.5 52 q35 0 65 -12.5t52 -29.5t42 -34.5t42 -30t44 -12.5q36 0 60 28t35 77q0 8 8 8h59q8 0 8 -8q-38 -178 -174 -178q-39 0 -74.5 18.5t-58 40.5t-52.5 40.5t-58 18.5q-37 0 -66 -28t-39 -80q0 -8 -8 -8h-60q-6 0 -6 8z" />
<glyph unicode="&#xd2;" horiz-adv-x="1347" d="M137 483q0 170 51.5 330.5t142.5 285.5t225.5 201t289.5 76q94 0 173.5 -33.5t139 -97.5t93 -163t34.5 -224q0 -171 -48 -329t-134.5 -280.5t-218.5 -195.5t-289 -73q-96 0 -179 33.5t-145.5 95.5t-98.5 158.5t-36 215.5zM225 487q0 -197 108 -313.5t277 -116.5 q112 0 208.5 47.5t165 127.5t118 183t73 215t23.5 224q-3 220 -106 332t-263 112q-124 0 -236.5 -67t-192.5 -178t-127.5 -259.5t-47.5 -306.5zM642.5 1713q1.5 3 6.5 3h86q11 0 17 -6l163 -217q4 -5 2.5 -7.5t-6.5 -2.5h-69q-13 0 -21 6l-176 217q-4 4 -2.5 7z" />
<glyph unicode="&#xd3;" horiz-adv-x="1347" d="M137 483q0 170 51.5 330.5t142.5 285.5t225.5 201t289.5 76q94 0 173.5 -33.5t139 -97.5t93 -163t34.5 -224q0 -171 -48 -329t-134.5 -280.5t-218.5 -195.5t-289 -73q-96 0 -179 33.5t-145.5 95.5t-98.5 158.5t-36 215.5zM225 487q0 -197 108 -313.5t277 -116.5 q112 0 208.5 47.5t165 127.5t118 183t73 215t23.5 224q-3 220 -106 332t-263 112q-124 0 -236.5 -67t-192.5 -178t-127.5 -259.5t-47.5 -306.5zM780.5 1476.5q-1.5 3.5 1.5 6.5l254 221q4 4 15 4h90q6 0 7.5 -3.5t-1.5 -6.5l-264 -219q-6 -6 -15 -6h-82q-4 0 -5.5 3.5z" />
<glyph unicode="&#xd4;" horiz-adv-x="1347" d="M137 483q0 170 51.5 330.5t142.5 285.5t225.5 201t289.5 76q94 0 173.5 -33.5t139 -97.5t93 -163t34.5 -224q0 -171 -48 -329t-134.5 -280.5t-218.5 -195.5t-289 -73q-96 0 -179 33.5t-145.5 95.5t-98.5 158.5t-36 215.5zM225 487q0 -197 108 -313.5t277 -116.5 q112 0 208.5 47.5t165 127.5t118 183t73 215t23.5 224q-3 220 -106 332t-263 112q-124 0 -236.5 -67t-192.5 -178t-127.5 -259.5t-47.5 -306.5zM597 1484.5q-1 5.5 1 8.5l276 217q4 4 11 4h86q11 0 14 -6l152 -221q4 -8 -7 -8h-73q-10 0 -13 8l-122 176l-224 -178 q-12 -6 -18 -6h-78q-4 0 -5 5.5z" />
<glyph unicode="&#xd5;" horiz-adv-x="1347" d="M137 483q0 170 51.5 330.5t142.5 285.5t225.5 201t289.5 76q94 0 173.5 -33.5t139 -97.5t93 -163t34.5 -224q0 -171 -48 -329t-134.5 -280.5t-218.5 -195.5t-289 -73q-96 0 -179 33.5t-145.5 95.5t-98.5 158.5t-36 215.5zM225 487q0 -197 108 -313.5t277 -116.5 q112 0 208.5 47.5t165 127.5t118 183t73 215t23.5 224q-3 220 -106 332t-263 112q-124 0 -236.5 -67t-192.5 -178t-127.5 -259.5t-47.5 -306.5zM571 1518q12 79 62.5 130.5t120.5 51.5q41 0 78.5 -18.5t59.5 -41t51 -41t56 -18.5q70 0 93 105q3 8 10 8h59q6 0 6 -8 q-35 -179 -172 -179q-39 0 -75 18.5t-58.5 41t-52 41t-57.5 18.5q-37 0 -66 -28t-39 -80q-3 -9 -8 -9h-59q-9 0 -9 9z" />
<glyph unicode="&#xd6;" horiz-adv-x="1347" d="M137 483q0 170 51.5 330.5t142.5 285.5t225.5 201t289.5 76q94 0 173.5 -33.5t139 -97.5t93 -163t34.5 -224q0 -171 -48 -329t-134.5 -280.5t-218.5 -195.5t-289 -73q-96 0 -179 33.5t-145.5 95.5t-98.5 158.5t-36 215.5zM225 487q0 -197 108 -313.5t277 -116.5 q112 0 208.5 47.5t165 127.5t118 183t73 215t23.5 224q-3 220 -106 332t-263 112q-124 0 -236.5 -67t-192.5 -178t-127.5 -259.5t-47.5 -306.5zM631 1575q5 27 23.5 44t45.5 17t43 -18t13 -43q-3 -29 -22 -45.5t-46 -16.5t-43 17.5t-14 44.5zM991 1575q5 27 25 44t47 17 q26 0 41 -18t12 -45q-6 -60 -69 -60q-27 0 -43 17.5t-13 44.5z" />
<glyph unicode="&#xd7;" horiz-adv-x="1142" d="M100 954q-6 9 0 17l39 39q6 9 15 0l419 -435l416 433q11 8 19 0l36 -41q9 -9 -2 -17l-417 -424l417 -428q9 -9 0 -18l-34 -35q-11 -8 -19 0l-418 428l-415 -428l-4 -3q-5 -3 -6 -2.5l-7 3.5l-37 39q-8 8 0 16l418 426z" />
<glyph unicode="&#xd8;" horiz-adv-x="1347" d="M98 8l131 156q-92 133 -92 332q0 133 32 262t95 240t147.5 196t197.5 133.5t239 48.5q192 0 305 -131l96 107q4 4 13 4h59q12 0 4 -8l-129 -152q90 -136 90 -336q0 -138 -30.5 -268t-90 -241t-142.5 -194t-194.5 -130t-238.5 -47q-96 0 -179.5 36t-138.5 99l-90 -109 q-4 -6 -12 -6h-68q-8 0 -4 8zM225 500q0 -88 22 -160t48 -107l805 945q-94 122 -269 122q-108 0 -204.5 -45t-168.5 -122.5t-125.5 -179t-80.5 -218t-27 -235.5zM332 176q102 -119 276 -119q120 0 221 52t167.5 135.5t113.5 189.5t67.5 210.5t20.5 203.5q0 162 -61 272z" />
<glyph unicode="&#xd9;" horiz-adv-x="1245" d="M149.5 249q-18.5 93 6.5 224l184 875q2 8 10 8h72q9 0 6 -8l-184 -871q-42 -209 43 -313.5t258 -104.5q61 0 108.5 7.5t103 34t97 71.5t79.5 126.5t62 193.5l185 856q3 8 8 8h69q11 0 9 -10l-187 -869q-56 -270 -189.5 -383.5t-350.5 -113.5q-97 0 -176 28t-137 88 t-76.5 153zM609.5 1680.5q1.5 2.5 6.5 2.5h86q9 0 15 -6l166 -219q4 -4 2 -7t-8 -3h-70q-10 0 -21 8l-174 217q-4 5 -2.5 7.5z" />
<glyph unicode="&#xda;" horiz-adv-x="1245" d="M149.5 249q-18.5 93 6.5 224l184 875q2 8 10 8h72q9 0 6 -8l-184 -871q-42 -209 43 -313.5t258 -104.5q61 0 108.5 7.5t103 34t97 71.5t79.5 126.5t62 193.5l185 856q3 8 8 8h69q11 0 9 -10l-187 -869q-56 -270 -189.5 -383.5t-350.5 -113.5q-97 0 -176 28t-137 88 t-76.5 153zM721.5 1467q-1.5 3 1.5 6l256 221q4 6 14 6h90q6 0 6.5 -4.5t-2.5 -7.5l-262 -220q-4 -4 -14 -4h-82q-6 0 -7.5 3z" />
<glyph unicode="&#xdb;" horiz-adv-x="1245" d="M149.5 249q-18.5 93 6.5 224l184 875q2 8 10 8h72q9 0 6 -8l-184 -871q-42 -209 43 -313.5t258 -104.5q61 0 108.5 7.5t103 34t97 71.5t79.5 126.5t62 193.5l185 856q3 8 8 8h69q11 0 9 -10l-187 -869q-56 -270 -189.5 -383.5t-350.5 -113.5q-97 0 -176 28t-137 88 t-76.5 153zM538.5 1467q-0.5 5 2.5 8l274 217q9 6 12 6h84q15 0 15 -8l151 -222q6 -6 -4 -6h-74q-9 0 -12 6l-123 177l-225 -177q-3 -6 -16 -6h-78q-6 0 -6.5 5z" />
<glyph unicode="&#xdc;" horiz-adv-x="1245" d="M149.5 249q-18.5 93 6.5 224l184 875q2 8 10 8h72q9 0 6 -8l-184 -871q-42 -209 43 -313.5t258 -104.5q61 0 108.5 7.5t103 34t97 71.5t79.5 126.5t62 193.5l185 856q3 8 8 8h69q11 0 9 -10l-187 -869q-56 -270 -189.5 -383.5t-350.5 -113.5q-97 0 -176 28t-137 88 t-76.5 153zM575 1548q3 28 22 45t48 17q27 0 41.5 -18t11.5 -44q-3 -29 -21.5 -45t-45.5 -16q-28 0 -43.5 17.5t-12.5 43.5zM936 1548q3 28 22.5 45t47.5 17q26 0 41 -18t12 -44q-6 -61 -68 -61q-28 0 -43.5 17t-11.5 44z" />
<glyph unicode="&#xdd;" horiz-adv-x="1064" d="M213 1348q-4 8 6 8h76q6 0 8 -6q232 -687 244 -750q114 165 563 750q6 6 14 6h78q11 0 4 -10l-604 -785q-20 -22 -37 -78l-98 -473q-3 -10 -10 -10h-68q-13 0 -10 12l102 480q0 1 2 14t2 19t-1.5 17.5t-6.5 20.5zM614.5 1448.5q-1.5 2.5 1.5 5.5l254 221q4 6 15 6h90 q6 0 7.5 -3.5t-1.5 -8.5l-264 -217q-4 -6 -15 -6h-81q-5 0 -6.5 2.5z" />
<glyph unicode="&#xde;" horiz-adv-x="1021" d="M63 8l285 1340q3 8 8 8h76q8 0 4 -8l-59 -279q34 4 172 4q101 0 179.5 -28.5t124 -76.5t68.5 -105.5t23 -121.5q0 -216 -145 -333t-414 -117q-113 0 -172 6l-61 -287q0 -10 -11 -10h-69q-9 0 -9 8zM229 373q53 -6 177 -6q216 0 333 93.5t117 276.5q0 116 -85 190t-245 74 q-92 0 -166 -4z" />
<glyph unicode="&#xdf;" horiz-adv-x="1067" d="M-29 -387q22 76 50.5 199t64 291t59 281t61.5 300.5t44 218.5l-129 4q-2 -1 -4 0t-2.5 4t0.5 7l12 49q0 10 8 10h129q113 520 488 520q78 0 137 -26t93 -70t50.5 -93t18.5 -102q0 -49 -11 -93.5t-24 -63.5q-21 -21 -55 -50t-79.5 -62t-74.5 -54.5t-75 -53.5l-46 -32 q130 -148 162 -192q91 -122 101 -237q1 -17 1 -34q0 -158 -105 -256t-265 -98q-80 0 -155.5 25.5t-113.5 62.5q-9 6 -6 14l17 68q4 10 10 4q51 -42 118 -67.5t136 -25.5q133 0 204.5 78t71.5 191q0 72 -21.5 124t-80.5 124q-24 31 -50.5 61t-41 45.5t-40 42t-30.5 31.5 q-4 4 -4 16l8 41q2 4 10 12q11 8 62 44.5t79.5 57.5t71 53.5t72 58.5t47.5 46q21 51 21 115q0 99 -62 160t-164 61q-141 0 -238 -107t-151 -347q-22 -102 -84 -412.5t-115 -560t-88 -371.5q-3 -10 -8 -10l-75 -10q-9 0 -9 8z" />
<glyph unicode="&#xe0;" horiz-adv-x="1005" d="M98 360q-1 115 48 229t133.5 204.5t209.5 147t265 56.5q123 -4 192 -28q4 -2 4 -11l-192 -905q-3 -9 -13 -14q-127 -59 -270 -59q-183 0 -280 101.5t-97 278.5zM186 367q0 -153 81.5 -231.5t226.5 -78.5q111 0 184 37l174 817q-43 13 -117 13q-113 0 -216 -47.5 t-175 -125t-115 -179t-43 -205.5zM541 1427q-1 4 1 7.5t7 3.5h78q7 0 10 -6l106 -316q0 -6 -8 -6h-63q-7 0 -10 6z" />
<glyph unicode="&#xe1;" horiz-adv-x="1005" d="M98 360q-1 115 48 229t133.5 204.5t209.5 147t265 56.5q123 -4 192 -28q4 -2 4 -11l-192 -905q-3 -9 -13 -14q-127 -59 -270 -59q-183 0 -280 101.5t-97 278.5zM186 367q0 -153 81.5 -231.5t226.5 -78.5q111 0 184 37l174 817q-43 13 -117 13q-113 0 -216 -47.5 t-175 -125t-115 -179t-43 -205.5zM608 1116l238 314q4 8 14 8h84q8 0 4 -11l-250 -313q-6 -6 -14 -6h-72q-9 0 -4 8z" />
<glyph unicode="&#xe2;" horiz-adv-x="1005" d="M98 360q-1 115 48 229t133.5 204.5t209.5 147t265 56.5q123 -4 192 -28q4 -2 4 -11l-192 -905q-3 -9 -13 -14q-127 -59 -270 -59q-183 0 -280 101.5t-97 278.5zM186 367q0 -153 81.5 -231.5t226.5 -78.5q111 0 184 37l174 817q-43 13 -117 13q-113 0 -216 -47.5 t-175 -125t-115 -179t-43 -205.5zM426 1118l268 312q6 6 13 6h79q8 0 11 -6l114 -314q3 -10 -8 -10h-63q-10 0 -13 8q-63 178 -90 264q-27 -36 -105.5 -129t-117.5 -137q-6 -6 -16 -6h-70q-8 0 -2 12z" />
<glyph unicode="&#xe3;" horiz-adv-x="1005" d="M98 360q-1 115 48 229t133.5 204.5t209.5 147t265 56.5q123 -4 192 -28q4 -2 4 -11l-192 -905q-3 -9 -13 -14q-127 -59 -270 -59q-183 0 -280 101.5t-97 278.5zM186 367q0 -153 81.5 -231.5t226.5 -78.5q111 0 184 37l174 817q-43 13 -117 13q-113 0 -216 -47.5 t-175 -125t-115 -179t-43 -205.5zM367 1188q15 85 63 131.5t123 46.5q41 0 83 -18.5t71.5 -40t64 -40t62.5 -18.5q79 0 96 105q3 8 10 8h57q9 0 9 -8q-31 -180 -172 -180q-39 0 -79.5 19t-69.5 41t-66 41t-70 19q-86 0 -109 -110q-8 -8 -10 -8h-57q-6 0 -6 12z" />
<glyph unicode="&#xe4;" horiz-adv-x="1005" d="M98 360q-1 115 48 229t133.5 204.5t209.5 147t265 56.5q123 -4 192 -28q4 -2 4 -11l-192 -905q-3 -9 -13 -14q-127 -59 -270 -59q-183 0 -280 101.5t-97 278.5zM186 367q0 -153 81.5 -231.5t226.5 -78.5q111 0 184 37l174 817q-43 13 -117 13q-113 0 -216 -47.5 t-175 -125t-115 -179t-43 -205.5zM453 1270q5 27 22.5 43t44.5 16q43 0 49 -38q5 -37 -24 -64q-18 -17 -41 -17q-27 0 -40.5 18t-10.5 42zM815 1270q3 26 21.5 42.5t46.5 16.5q26 0 39 -17t8 -42q-2 -24 -20.5 -42t-45.5 -18q-26 0 -40 18t-9 42z" />
<glyph unicode="&#xe5;" horiz-adv-x="1005" d="M98 360q-1 115 48 229t133.5 204.5t209.5 147t265 56.5q123 -4 192 -28q4 -2 4 -11l-192 -905q-3 -9 -13 -14q-127 -59 -270 -59q-183 0 -280 101.5t-97 278.5zM186 367q0 -153 81.5 -231.5t226.5 -78.5q111 0 184 37l174 817q-43 13 -117 13q-113 0 -216 -47.5 t-175 -125t-115 -179t-43 -205.5zM530 1266q7 80 63.5 127t135.5 47q78 0 126.5 -49t41.5 -127q-9 -78 -66.5 -125t-136.5 -47t-126 46.5t-38 127.5zM594 1266q-7 -54 23 -86.5t81 -32.5q52 0 89.5 31.5t43.5 87.5q6 55 -25.5 87.5t-82.5 32.5q-53 0 -89 -31.5t-40 -88.5z " />
<glyph unicode="&#xe6;" horiz-adv-x="1581" d="M98 262q0 129 66.5 258.5t175 229t258.5 163t307 64.5q132 0 187 -25q88 45 184 45q130 0 194 -65.5t64 -159.5q0 -174 -175 -256t-517 -67q-6 -30 -6 -89q0 -139 71 -221t221 -82q145 0 252 76q6 3 6 -6l-14 -68q-2 -9 -10 -14q-94 -65 -252 -65q-247 0 -332 215 q-191 -215 -420 -215q-113 0 -186.5 67.5t-73.5 214.5zM186 270q0 -113 54.5 -163t138.5 -50q205 0 377 215q0 4 -2 43t-2 82q1 73 26 159.5t85 182.5t143 156q-118 18 -239.5 -7t-224 -85t-183.5 -142.5t-127 -185t-46 -205.5zM854 518q104 -6 186.5 -0.5t145 16t108.5 30 t76 40.5t48.5 49t26 54.5t7.5 56.5q0 18 -3 36t-14.5 42t-30.5 41.5t-55.5 30t-84.5 12.5q-146 0 -257.5 -114.5t-152.5 -293.5z" />
<glyph unicode="&#xe7;" horiz-adv-x="821" d="M96 375q0 166 74.5 309.5t202.5 228t278 84.5q25 0 52.5 -2.5t53.5 -7.5t41.5 -14.5t12.5 -20.5l-14 -55q-3 -9 -11 -6q-59 29 -141 29q-128 0 -234 -74t-165.5 -197.5t-59.5 -267.5q0 -155 80.5 -240.5t210.5 -85.5q121 0 203 49q4 2 7 -1t1 -7l-14 -59q-3 -13 -12 -17 q-64 -37 -177 -40l-71 -86q133 -37 133 -156q0 -87 -59.5 -134.5t-149.5 -47.5q-43 0 -87 10t-44 28l14 58q2 7 8 4q53 -29 119 -29q54 0 88.5 27.5t34.5 77.5q0 95 -164 110q-4 3 -2 11t6 14l95 117q-104 13 -176 72.5t-103 140.5t-31 178z" />
<glyph unicode="&#xe8;" horiz-adv-x="925" d="M96 362q0 118 41.5 233.5t110.5 204t167 143t203 54.5q131 0 196 -66t65 -161q0 -173 -175 -255t-518 -69q-6 -50 -6 -86q0 -139 68 -221t213 -82q154 0 264 76q6 3 6 -6l-14 -68q-2 -9 -12 -14q-90 -65 -261 -65q-176 0 -262 102.5t-86 279.5zM199 518q118 -6 213 0.5 t159 24t109.5 40.5t70 54t35.5 61.5t11 65.5q0 18 -3 36t-15 42t-31 41.5t-55.5 30t-84.5 12.5q-137 0 -253 -117t-156 -291zM463 1427q-1 4 1 7.5t5 3.5h80q8 0 8 -6l109 -316q0 -6 -9 -6h-63q-7 0 -10 6z" />
<glyph unicode="&#xe9;" horiz-adv-x="925" d="M96 362q0 118 41.5 233.5t110.5 204t167 143t203 54.5q131 0 196 -66t65 -161q0 -173 -175 -255t-518 -69q-6 -50 -6 -86q0 -139 68 -221t213 -82q154 0 264 76q6 3 6 -6l-14 -68q-2 -9 -12 -14q-90 -65 -261 -65q-176 0 -262 102.5t-86 279.5zM199 518q118 -6 213 0.5 t159 24t109.5 40.5t70 54t35.5 61.5t11 65.5q0 18 -3 36t-15 42t-31 41.5t-55.5 30t-84.5 12.5q-137 0 -253 -117t-156 -291zM510 1116l238 314q4 8 14 8h84q8 0 4 -11l-250 -313q-6 -6 -14 -6h-72q-9 0 -4 8z" />
<glyph unicode="&#xea;" horiz-adv-x="925" d="M96 362q0 118 41.5 233.5t110.5 204t167 143t203 54.5q131 0 196 -66t65 -161q0 -173 -175 -255t-518 -69q-6 -50 -6 -86q0 -139 68 -221t213 -82q154 0 264 76q6 3 6 -6l-14 -68q-2 -9 -12 -14q-90 -65 -261 -65q-176 0 -262 102.5t-86 279.5zM199 518q118 -6 213 0.5 t159 24t109.5 40.5t70 54t35.5 61.5t11 65.5q0 18 -3 36t-15 42t-31 41.5t-55.5 30t-84.5 12.5q-137 0 -253 -117t-156 -291zM354 1118l269 312q6 6 12 6h80q7 0 10 -6l115 -314q3 -10 -9 -10h-63q-9 0 -14 8q-9 29 -44.5 134t-43.5 130q-74 -97 -224 -266q-6 -6 -16 -6h-70 q-8 0 -2 12z" />
<glyph unicode="&#xeb;" horiz-adv-x="925" d="M96 362q0 118 41.5 233.5t110.5 204t167 143t203 54.5q131 0 196 -66t65 -161q0 -173 -175 -255t-518 -69q-6 -50 -6 -86q0 -139 68 -221t213 -82q154 0 264 76q6 3 6 -6l-14 -68q-2 -9 -12 -14q-90 -65 -261 -65q-176 0 -262 102.5t-86 279.5zM199 518q118 -6 213 0.5 t159 24t109.5 40.5t70 54t35.5 61.5t11 65.5q0 18 -3 36t-15 42t-31 41.5t-55.5 30t-84.5 12.5q-137 0 -253 -117t-156 -291zM371 1270q5 27 22.5 43t44.5 16q43 0 49 -38q5 -37 -24 -64q-18 -17 -41 -17q-27 0 -40.5 18t-10.5 42zM733 1270q3 26 21.5 42.5t46.5 16.5 q26 0 39 -17t8 -42q-2 -24 -20.5 -42t-45.5 -18q-26 0 -40 18t-9 42z" />
<glyph unicode="&#xec;" horiz-adv-x="399" d="M53 8l203 961q2 8 10 8h72q9 0 6 -12l-201 -957q-3 -8 -12 -8h-70q-8 0 -8 8zM162 1427q-1 4 1 7.5t7 3.5h80q5 0 8 -6l107 -316q0 -6 -9 -6h-63q-7 0 -10 6z" />
<glyph unicode="&#xed;" horiz-adv-x="399" d="M53 8l203 961q2 8 10 8h72q9 0 6 -12l-201 -957q-3 -8 -12 -8h-70q-8 0 -8 8zM262 1116l238 314q4 8 14 8h84q8 0 4 -11l-250 -313q-6 -6 -14 -6h-72q-9 0 -4 8z" />
<glyph unicode="&#xee;" horiz-adv-x="399" d="M53 8l203 961q2 8 10 8h72q9 0 6 -12l-201 -957q-3 -8 -12 -8h-70q-8 0 -8 8zM71.5 1113q0.5 3 2.5 5l268 312q6 6 12 6h80q4 0 10 -6l113 -314q3 -10 -6 -10h-64q-9 0 -14 8q-9 29 -44.5 134t-43.5 130q-27 -36 -105.5 -129t-117.5 -137q-6 -6 -17 -6h-69q-3 0 -4 2 t-0.5 5z" />
<glyph unicode="&#xef;" horiz-adv-x="399" d="M53 8l203 961q2 8 10 8h72q9 0 6 -12l-201 -957q-3 -8 -12 -8h-70q-8 0 -8 8zM109 1270q5 27 22.5 43t44.5 16q43 0 49 -38q5 -37 -24 -64q-18 -17 -41 -17q-27 0 -40.5 18t-10.5 42zM471 1270q3 26 21.5 42.5t46.5 16.5q26 0 39 -17t8 -42q-2 -24 -20.5 -42t-45.5 -18 q-26 0 -40 18t-9 42z" />
<glyph unicode="&#xf0;" horiz-adv-x="1038" d="M102 356q0 154 64 288.5t182 217t262 82.5q146 0 244 -94q-12 96 -52 194t-104 158l-311 -158q-3 -2 -6.5 0t-3.5 5l10 55q3 11 12 14l256 129q-116 113 -309 170q-11 4 -6 13l14 59q4 12 11 8q80 -15 185 -70.5t183 -134.5l268 135q3 1 5 1t2.5 -1.5t-0.5 -3.5l-13 -59 q-3 -10 -10 -12l-209 -107q85 -95 130.5 -237.5t43.5 -305.5q-1 -196 -61 -359t-176.5 -263t-268.5 -100q-115 0 -193.5 52t-113.5 135t-35 189zM193 348q0 -125 67 -210t197 -85q111 0 203 83.5t145.5 232.5t54.5 331q0 42 -14 56q-33 48 -97 79t-147 31 q-119 0 -213.5 -70.5t-145 -188.5t-50.5 -259z" />
<glyph unicode="&#xf1;" d="M53 8l158 740q13 64 25.5 138.5t13.5 80.5q2 10 8 10h66q8 0 8 -6q0 -45 -27 -187q86 95 188 154t209 59q27 0 52.5 -5.5t56 -20.5t51 -40.5t37 -66.5t15.5 -98t-15 -135l-131 -623q-3 -8 -10 -8h-70q-11 0 -8 10l131 623q56 285 -137 285q-92 0 -194 -63t-195 -179 l-142 -670q-2 -6 -12 -6h-70q-8 0 -8 8zM309 1188q37 178 189 178q41 0 83 -18.5t71 -40t63.5 -40t62.5 -18.5q42 0 64 27t32 78q3 8 9 8h59q6 0 6 -8q-31 -180 -172 -180q-39 0 -79 19t-68.5 41t-65.5 41t-69 19q-88 0 -111 -110q0 -8 -8 -8h-58q-8 0 -8 12z" />
<glyph unicode="&#xf2;" horiz-adv-x="1044" d="M96 362q0 168 64 312.5t182.5 233.5t265.5 89q159 0 248.5 -110.5t89.5 -276.5q0 -173 -62.5 -316t-178 -228.5t-261.5 -85.5q-163 0 -255.5 108.5t-92.5 273.5zM184 365q0 -141 72.5 -226.5t200.5 -85.5q76 0 148 39.5t128.5 109.5t90.5 177t34 233q0 55 -13 106 t-41 100t-82 78.5t-128 29.5q-111 0 -205.5 -75.5t-149.5 -205t-55 -280.5zM475 1427q-4 11 6 11h80q8 0 8 -6l109 -316q0 -6 -10 -6h-62q-9 0 -12 6z" />
<glyph unicode="&#xf3;" horiz-adv-x="1044" d="M96 362q0 168 64 312.5t182.5 233.5t265.5 89q159 0 248.5 -110.5t89.5 -276.5q0 -173 -62.5 -316t-178 -228.5t-261.5 -85.5q-163 0 -255.5 108.5t-92.5 273.5zM184 365q0 -141 72.5 -226.5t200.5 -85.5q76 0 148 39.5t128.5 109.5t90.5 177t34 233q0 55 -13 106 t-41 100t-82 78.5t-128 29.5q-111 0 -205.5 -75.5t-149.5 -205t-55 -280.5zM545 1116l237 314q4 8 15 8h84q8 0 4 -11l-250 -313q-6 -6 -14 -6h-72q-9 0 -4 8z" />
<glyph unicode="&#xf4;" horiz-adv-x="1044" d="M96 362q0 168 64 312.5t182.5 233.5t265.5 89q159 0 248.5 -110.5t89.5 -276.5q0 -173 -62.5 -316t-178 -228.5t-261.5 -85.5q-163 0 -255.5 108.5t-92.5 273.5zM184 365q0 -141 72.5 -226.5t200.5 -85.5q76 0 148 39.5t128.5 109.5t90.5 177t34 233q0 55 -13 106 t-41 100t-82 78.5t-128 29.5q-111 0 -205.5 -75.5t-149.5 -205t-55 -280.5zM388.5 1113q0.5 3 2.5 5l268 312q6 6 13 6h80q5 0 8 -6l114 -314q3 -10 -6 -10h-63q-9 0 -14 8q-35 108 -91 264q-28 -39 -221 -266q-6 -6 -16 -6h-70q-3 0 -4 2t-0.5 5z" />
<glyph unicode="&#xf5;" horiz-adv-x="1044" d="M96 362q0 168 64 312.5t182.5 233.5t265.5 89q159 0 248.5 -110.5t89.5 -276.5q0 -173 -62.5 -316t-178 -228.5t-261.5 -85.5q-163 0 -255.5 108.5t-92.5 273.5zM184 365q0 -141 72.5 -226.5t200.5 -85.5q76 0 148 39.5t128.5 109.5t90.5 177t34 233q0 55 -13 106 t-41 100t-82 78.5t-128 29.5q-111 0 -205.5 -75.5t-149.5 -205t-55 -280.5zM326 1188q37 178 188 178q41 0 83 -18.5t71.5 -40t64 -40t62.5 -18.5q42 0 64 27t32 78q3 8 8 8h59q7 0 7 -8q-31 -180 -172 -180q-39 0 -79 19t-69 41t-66 41t-69 19q-88 0 -111 -110q0 -8 -8 -8 h-57q-8 0 -8 12z" />
<glyph unicode="&#xf6;" horiz-adv-x="1044" d="M96 362q0 168 64 312.5t182.5 233.5t265.5 89q159 0 248.5 -110.5t89.5 -276.5q0 -173 -62.5 -316t-178 -228.5t-261.5 -85.5q-163 0 -255.5 108.5t-92.5 273.5zM184 365q0 -141 72.5 -226.5t200.5 -85.5q76 0 148 39.5t128.5 109.5t90.5 177t34 233q0 55 -13 106 t-41 100t-82 78.5t-128 29.5q-111 0 -205.5 -75.5t-149.5 -205t-55 -280.5zM410 1270q5 27 22.5 43t44.5 16q43 0 49 -38q5 -37 -24 -64q-18 -17 -41 -17q-27 0 -40.5 18t-10.5 42zM772 1270q3 26 21.5 42.5t46.5 16.5q26 0 39 -17t8 -42q-2 -24 -20.5 -42t-45.5 -18 q-26 0 -40 18t-9 42z" />
<glyph unicode="&#xf7;" horiz-adv-x="1142" d="M63 510v57q0 11 9 11h999q8 0 8 -9v-57q0 -7 -1.5 -8.5t-6.5 -1.5h-999q-9 0 -9 8zM512 186q0 29 16.5 47.5t44.5 18.5q27 0 43.5 -19t16.5 -47q0 -29 -17 -47t-47 -18q-26 0 -42.5 18.5t-14.5 46.5zM512 887q0 27 16.5 45t44.5 18q27 0 43.5 -18t16.5 -45q0 -30 -17 -48 t-47 -18q-26 0 -42 18.5t-15 47.5z" />
<glyph unicode="&#xf8;" horiz-adv-x="1062" d="M57 8l107 115q-68 104 -68 239q0 98 23.5 192t68.5 173.5t106.5 140t143 95t172.5 34.5q136 0 228 -92l63 68q6 6 12 6h60q14 0 2 -12l-98 -103q69 -103 69 -258q0 -171 -62 -313.5t-177.5 -227.5t-262.5 -85q-70 0 -133 26t-106 72l-70 -76q-6 -6 -16 -6h-60 q-10 0 -2 12zM190 334.5q8 -81.5 39 -146.5l553 658q-72 78 -190 78q-78 0 -147.5 -36t-118.5 -95.5t-83.5 -137t-47.5 -158.5t-5 -162.5zM260 137q76 -82 197 -82q86 0 158 39t119.5 102t79 143t40.5 161t-1 158t-40 133z" />
<glyph unicode="&#xf9;" horiz-adv-x="999" d="M105.5 208.5q0.5 55.5 13.5 129.5l133 631q3 8 10 8h72q6 0 6 -10l-135 -641q-27 -122 12 -193.5t145 -71.5q82 0 165.5 44t183.5 169l147 697q2 6 12 6h68q10 0 6 -8l-156 -756q-28 -129 -32 -203q0 -10 -11 -10h-63q-10 0 -10 10q0 20 6.5 70.5t15.5 87.5 q-92 -106 -179 -147t-183 -41q-32 0 -60.5 6t-60 21t-52.5 40.5t-37.5 65.5t-16 95.5zM467 1427q-1 4 1 7.5t7 3.5h80q5 0 8 -6l107 -316q1 -3 -1 -4.5t-7 -1.5h-62q-9 0 -12 6z" />
<glyph unicode="&#xfa;" horiz-adv-x="999" d="M105.5 208.5q0.5 55.5 13.5 129.5l133 631q3 8 10 8h72q6 0 6 -10l-135 -641q-27 -122 12 -193.5t145 -71.5q82 0 165.5 44t183.5 169l147 697q2 6 12 6h68q10 0 6 -8l-156 -756q-28 -129 -32 -203q0 -10 -11 -10h-63q-10 0 -10 10q0 20 6.5 70.5t15.5 87.5 q-92 -106 -179 -147t-183 -41q-32 0 -60.5 6t-60 21t-52.5 40.5t-37.5 65.5t-16 95.5zM535 1116l237 314q4 8 14 8h84q8 0 4 -11l-249 -313q-6 -6 -15 -6h-71q-9 0 -4 8z" />
<glyph unicode="&#xfb;" horiz-adv-x="999" d="M105.5 208.5q0.5 55.5 13.5 129.5l133 631q3 8 10 8h72q6 0 6 -10l-135 -641q-27 -122 12 -193.5t145 -71.5q82 0 165.5 44t183.5 169l147 697q2 6 12 6h68q10 0 6 -8l-156 -756q-28 -129 -32 -203q0 -10 -11 -10h-63q-10 0 -10 10q0 20 6.5 70.5t15.5 87.5 q-92 -106 -179 -147t-183 -41q-32 0 -60.5 6t-60 21t-52.5 40.5t-37.5 65.5t-16 95.5zM386 1108q-1 2 0 5t3 5l268 312q6 6 13 6h80q5 0 8 -6l114 -314q3 -10 -6 -10h-65q-10 0 -13 8q-48 145 -90 264q-28 -39 -221 -266q-12 -6 -16 -6h-70q-4 0 -5 2z" />
<glyph unicode="&#xfc;" horiz-adv-x="999" d="M105.5 208.5q0.5 55.5 13.5 129.5l133 631q3 8 10 8h72q6 0 6 -10l-135 -641q-27 -122 12 -193.5t145 -71.5q82 0 165.5 44t183.5 169l147 697q2 6 12 6h68q10 0 6 -8l-156 -756q-28 -129 -32 -203q0 -10 -11 -10h-63q-10 0 -10 10q0 20 6.5 70.5t15.5 87.5 q-92 -106 -179 -147t-183 -41q-32 0 -60.5 6t-60 21t-52.5 40.5t-37.5 65.5t-16 95.5zM403 1270q5 27 23 43t45 16q43 0 49 -38q5 -37 -24 -64q-18 -17 -41 -17q-27 0 -41 18t-11 42zM766 1270q3 26 21.5 42.5t46.5 16.5q26 0 39 -17t8 -42q-2 -24 -20.5 -42t-45.5 -18 q-26 0 -40 18t-9 42z" />
<glyph unicode="&#xfd;" horiz-adv-x="888" d="M-144.5 -471.5q-1.5 3.5 1.5 6.5q109 95 239.5 244t206.5 262q4 8 4 16q-4 18 -33.5 158.5t-62 294t-63.5 302.5t-33 157q0 8 8 8h76q8 0 10 -6q155 -748 164 -808q2 -15 4 -28h4q115 181 212 360.5t245 473.5q5 8 14 8h72q9 0 6 -10q-261 -542 -514 -916 q-111 -159 -244.5 -310t-202.5 -210q-9 -6 -16 -6h-92q-4 0 -5.5 3.5zM469 1116l238 314q4 8 14 8h84q8 0 4 -11l-250 -313q-6 -6 -14 -6h-72q-9 0 -4 8z" />
<glyph unicode="&#xfe;" d="M-47 -465l409 1942q3 10 11 10q9 2 39 6t32 4q12 0 9 -10l-119 -549q134 59 274 59q151 0 237.5 -104t86.5 -258q0 -141 -48.5 -264.5t-129 -208t-186.5 -133.5t-220 -49q-111 0 -201 49l-102 -486q-1 -6 -2.5 -7.5t-7.5 -2.5q-7 -1 -24 -3t-30.5 -3.5t-19.5 -1.5 q-8 0 -8 10zM164 109q82 -54 198 -54q93 0 180.5 43.5t154 118.5t107 183t40.5 229q0 59 -15 109.5t-46 92.5t-85 66.5t-125 24.5q-117 0 -254 -62z" />
<glyph unicode="&#xff;" horiz-adv-x="888" d="M-144.5 -471.5q-1.5 3.5 1.5 6.5q109 95 239.5 244t206.5 262q4 8 4 16q-4 18 -33.5 158.5t-62 294t-63.5 302.5t-33 157q0 8 8 8h76q8 0 10 -6q155 -748 164 -808q2 -15 4 -28h4q115 181 212 360.5t245 473.5q5 8 14 8h72q9 0 6 -10q-261 -542 -514 -916 q-111 -159 -244.5 -310t-202.5 -210q-9 -6 -16 -6h-92q-4 0 -5.5 3.5zM315 1270q5 27 23 43t45 16q43 0 49 -38q5 -37 -23 -64q-18 -17 -42 -17q-26 0 -40.5 18t-11.5 42zM678 1270q5 27 22.5 43t44.5 16t40 -16.5t8 -42.5q-2 -24 -20 -42t-44 -18q-27 0 -40.5 18t-10.5 42z " />
<glyph unicode="&#x152;" horiz-adv-x="1802" d="M150 530q1 179 64.5 335.5t172 267.5t259.5 175t323 64q148 0 239 -16h621q5 0 8 -6l4 -62q1 -4 -2 -7t-8 -3h-576l-116 -549h526q7 0 4 -10l-12 -60q-2 -8 -10 -8h-525l-123 -573h654q7 0 2 -10l-25 -60q-3 -8 -10 -8h-670q-168 -16 -282 -16q-162 0 -281 71t-178.5 194 t-58.5 281zM240 532q-1 -220 122 -345.5t336 -125.5q136 0 213 15l256 1198q-76 20 -215 20q-154 0 -287.5 -60.5t-226 -163.5t-145 -242.5t-53.5 -295.5z" />
<glyph unicode="&#x153;" horiz-adv-x="1667" d="M96 362q0 168 64 312.5t182.5 233.5t265.5 89q35 0 70 -7t76.5 -27t75.5 -51.5t61.5 -86.5t38.5 -125q69 140 186 218.5t246 78.5q130 0 194 -66t64 -161q0 -173 -175 -255t-517 -69q-6 -24 -6 -86q0 -139 71 -221t219 -82q141 0 254 76q3 3 5 1t2 -7l-15 -68 q-2 -9 -10 -14q-94 -65 -252 -65q-284 0 -340 268q-43 -82 -98.5 -139t-113.5 -83t-105 -36t-95 -10q-163 0 -255.5 108.5t-92.5 273.5zM184 365q0 -141 72.5 -226.5t200.5 -85.5q76 0 148 39.5t128.5 110t90.5 177.5t34 232q0 55 -13 106.5t-41 100t-82 78t-128 29.5 q-110 0 -204.5 -75.5t-150 -205t-55.5 -280.5zM940 518q141 -7 249 4.5t172.5 34.5t105.5 58.5t56 71t15 77.5q0 18 -3 35.5t-14 41.5t-30 42t-55.5 30.5t-85.5 12.5q-145 0 -256 -115.5t-154 -292.5z" />
<glyph unicode="&#x178;" horiz-adv-x="1064" d="M213 1348q-4 8 6 8h76q6 0 8 -6q232 -687 244 -750q114 165 563 750q6 6 14 6h78q11 0 4 -10l-604 -785q-20 -22 -37 -78l-98 -473q-3 -10 -10 -10h-68q-13 0 -10 12l102 480q0 1 2 14t2 19t-1.5 17.5t-6.5 20.5zM483 1522q5 27 24 44t46 17t42.5 -18t12.5 -43 q-3 -29 -21.5 -45.5t-45.5 -16.5t-43.5 17.5t-14.5 44.5zM844 1522q5 27 24.5 44t46.5 17q26 0 41.5 -18.5t12.5 -44.5q-3 -29 -21.5 -44.5t-48.5 -15.5q-27 0 -42.5 17.5t-12.5 44.5z" />
<glyph unicode="&#x2c6;" horiz-adv-x="800" d="M289 1118l270 312q6 6 10 6h80q7 0 10 -6l115 -314q3 -10 -8 -10h-64q-9 0 -12 8q-63 178 -90 264q-27 -36 -105.5 -129t-117.5 -137q-6 -6 -17 -6h-69q-8 0 -2 12z" />
<glyph unicode="&#x2dc;" horiz-adv-x="800" d="M205 1188q37 178 188 178q41 0 83 -18.5t71.5 -40t64 -40t62.5 -18.5q42 0 64 27t32 78q3 8 8 8h60q6 0 6 -8q-31 -180 -172 -180q-39 0 -79 19t-69 41t-66 41t-69 19q-87 0 -110 -110q0 -8 -9 -8h-57q-8 0 -8 12z" />
<glyph unicode="&#x2000;" horiz-adv-x="864" />
<glyph unicode="&#x2001;" horiz-adv-x="1729" />
<glyph unicode="&#x2002;" horiz-adv-x="864" />
<glyph unicode="&#x2003;" horiz-adv-x="1729" />
<glyph unicode="&#x2004;" horiz-adv-x="576" />
<glyph unicode="&#x2005;" horiz-adv-x="432" />
<glyph unicode="&#x2006;" horiz-adv-x="288" />
<glyph unicode="&#x2007;" horiz-adv-x="288" />
<glyph unicode="&#x2008;" horiz-adv-x="216" />
<glyph unicode="&#x2009;" horiz-adv-x="345" />
<glyph unicode="&#x200a;" horiz-adv-x="96" />
<glyph unicode="&#x2010;" horiz-adv-x="673" d="M102 471l15 64q0 8 10 8h434q9 0 6 -11l-12 -61q-3 -8 -12 -8h-432q-4 0 -5.5 0.5t-3 2t-0.5 5.5z" />
<glyph unicode="&#x2011;" horiz-adv-x="673" d="M102 471l15 64q0 8 10 8h434q9 0 6 -11l-12 -61q-3 -8 -12 -8h-432q-4 0 -5.5 0.5t-3 2t-0.5 5.5z" />
<glyph unicode="&#x2012;" horiz-adv-x="673" d="M102 471l15 64q0 8 10 8h434q9 0 6 -11l-12 -61q-3 -8 -12 -8h-432q-4 0 -5.5 0.5t-3 2t-0.5 5.5z" />
<glyph unicode="&#x2013;" horiz-adv-x="1024" d="M152 473l14 59q3 9 8 9h698q3 0 4.5 -3t0.5 -6l-13 -59q0 -8 -8 -8h-698q-6 0 -6 8z" />
<glyph unicode="&#x2014;" horiz-adv-x="2048" d="M-18 471l14 59q4 11 10 11h2046q9 0 6 -11l-10 -57q-2 -8 -12 -8h-2044q-10 0 -10 6z" />
<glyph unicode="&#x2018;" horiz-adv-x="389" d="M244 997q3 109 53.5 249t124.5 233q6 6 10 6h72q7 0 4 -10q-153 -213 -182 -478q0 -6 -9 -6h-67q-6 0 -6 6z" />
<glyph unicode="&#x2019;" horiz-adv-x="389" d="M195 993.5q-1 2.5 2 5.5q155 214 180 478q0 8 10 8h66q8 0 8 -8q-5 -110 -55 -248.5t-123 -231.5q-4 -6 -13 -6h-69q-5 0 -6 2.5z" />
<glyph unicode="&#x201a;" horiz-adv-x="389" d="M-76 -297q153 213 182 477q0 6 9 6h67q8 0 8 -6q-5 -110 -56 -249t-124 -232q-6 -6 -10 -6h-72q-7 0 -4 10z" />
<glyph unicode="&#x201c;" horiz-adv-x="649" d="M244 997q3 109 53.5 249t124.5 233q6 6 10 6h72q7 0 4 -10q-153 -213 -182 -478q0 -6 -9 -6h-67q-6 0 -6 6zM504 997q5 111 55 250t123 232q6 6 12 6h70q7 0 4 -10q-155 -214 -180 -478q-2 -6 -10 -6h-66q-8 0 -8 6z" />
<glyph unicode="&#x201d;" horiz-adv-x="649" d="M207 999q153 213 182 478q0 8 8 8h68q6 0 6 -8q-3 -109 -53.5 -247.5t-124.5 -232.5q-4 -6 -10 -6h-72q-8 0 -4 8zM467 993.5q-1 2.5 2 5.5q155 214 180 478q0 8 10 8h66q8 0 8 -8q-5 -110 -55 -248.5t-123 -231.5q-4 -6 -12 -6h-70q-5 0 -6 2.5z" />
<glyph unicode="&#x201e;" horiz-adv-x="649" d="M-63 -297q157 218 182 477q0 6 8 6h68q8 0 8 -6q-5 -111 -55.5 -250t-124.5 -231q-3 -6 -11 -6h-69q-9 0 -6 10zM199 -297q153 213 182 477q0 6 8 6h66q8 0 8 -6q-5 -111 -55 -249.5t-123 -231.5q-6 -6 -13 -6h-69q-7 0 -4 10z" />
<glyph unicode="&#x2022;" horiz-adv-x="559" d="M156 508q6 55 45.5 92t101.5 37q59 0 89 -37t24 -92q-5 -56 -42 -92.5t-98 -36.5t-93 37t-27 92z" />
<glyph unicode="&#x2026;" horiz-adv-x="1554" d="M74 45q5 27 23 44t46 17q29 0 43.5 -18t12.5 -45q-3 -30 -21.5 -46.5t-48.5 -16.5q-28 0 -43 18t-12 47zM610 45q3 27 21.5 44t48.5 17q28 0 42 -18.5t11 -44.5q-3 -30 -21 -46.5t-48 -16.5q-28 0 -43 18t-11 47zM1149 45q3 27 21.5 44t48.5 17q28 0 42 -18.5t11 -44.5 q-3 -30 -21.5 -46.5t-48.5 -16.5q-28 0 -42.5 18t-10.5 47z" />
<glyph unicode="&#x202f;" horiz-adv-x="345" />
<glyph unicode="&#x2039;" horiz-adv-x="862" d="M143 469l11 51q0 7 10 10l581 347q6 3 9 0.5t2 -9.5l-19 -71q0 -10 -8 -15l-498 -295l373 -301q4 -8 4 -14l-14 -61q-4 -15 -12 -9l-437 353q-4 4 -2 14z" />
<glyph unicode="&#x203a;" horiz-adv-x="862" d="M111 111l16 73q0 8 10 15l500 295l-375 299q-3 10 -2 16l12 59q4 15 15 9l432 -353q6 -4 6 -14l-12 -51q-2 -7 -11 -13l-581 -344q-6 -3 -8.5 -0.5t-1.5 9.5z" />
<glyph unicode="&#x205f;" horiz-adv-x="432" />
<glyph unicode="&#x20ac;" d="M70 561l10 47q3 8 8 8h96q14 90 29 142h-94q-9 0 -6 10l10 43q3 10 10 10h96q36 115 95 214t137 176t179.5 121t213.5 44q76 0 140 -17.5t96 -41.5q4 -2 4 -12l-17 -68q-2 -7 -10 -4q-35 26 -94.5 45.5t-126.5 19.5q-184 0 -321.5 -132.5t-205.5 -344.5h531q10 0 8 -10 l-10 -43q-2 -10 -10 -10h-537q-10 -28 -29 -142h535q10 0 8 -8l-12 -47q0 -8 -10 -8h-529q-6 -69 -6 -98q0 -184 81.5 -289t238.5 -105q147 0 258 64q8 4 6 -8l-13 -64q-3 -13 -12 -16q-96 -57 -264 -57q-98 0 -174 38.5t-121 105t-67 148t-21 174.5q0 52 6 107h-98 q-5 0 -6.5 1t-1.5 7z" />
<glyph unicode="&#x2122;" horiz-adv-x="604" d="M137 1260l4 22q4 4 6 4h215q1 0 5 -4l4 -22q0 -5 -4 -5h-95v-241q0 -2 -4 -2h-32q-3 0 -3 2v241h-92q-4 0 -4 5zM399 1016l25 264q0 6 4 6h45q3 0 6 -6q13 -35 33 -86t33.5 -85.5t15.5 -39.5h2q1 5 16 39t38 86t38 88q2 4 7 4h45q4 0 4 -6l12 -266q0 -2 -4 -2h-33 q-2 0 -2 2q-6 188 -6 248h-2q-6 -27 -96 -228q-3 -4 -5 -4h-30q-2 0 -6 4q-18 48 -39.5 104t-32.5 85t-14 37h-2q1 -5 -0.5 -27t-5.5 -84.5t-7 -132.5q0 -4 -6 -4h-29q-4 0 -4 4z" />
<glyph unicode="&#xe000;" horiz-adv-x="972" d="M0 0v973h973v-973h-973z" />
<glyph unicode="&#xfb01;" horiz-adv-x="921" d="M-29 -383q26 65 147 647.5t130 640.5h-129q-9 0 -6 10l12 52q0 10 10 10h129q22 99 49.5 178t56 133t63.5 93t66.5 61t70.5 35t70 16.5t69 3.5q100 0 165 -45q5 -3 5 -14l-17 -62q-4 -13 -12 -8q-73 49 -156 49q-21 0 -33 -0.5t-35.5 -4.5t-39.5 -11.5t-40 -22.5 t-41.5 -36.5t-40 -55t-40.5 -76.5t-37 -102.5t-35 -130.5h506q8 0 8 -10l-202 -957q-2 -10 -13 -10h-65q-8 0 -10 2.5t-1 9.5l191 893h-430q-20 -93 -92 -443t-118.5 -563t-64.5 -272q0 -10 -10 -10q-8 -1 -24.5 -3.5t-28.5 -4.5t-18 -4q-13 0 -9 12z" />
<glyph unicode="&#xfb02;" horiz-adv-x="940" d="M-29 -383q26 65 146 642t131 644l-127 4q-11 0 -8 11l14 51q3 8 8 8h129l25 100q26 120 63 203.5t84.5 130t99 66.5t115.5 20q17 0 35.5 -2t36 -5.5t28 -9.5t7.5 -14l-15 -55q-3 -10 -10 -8q-44 14 -90 14q-43 0 -75 -11t-69 -44t-68.5 -105t-55.5 -182l-23 -98h203 q9 0 6 -8l-14 -51q-3 -11 -10 -11l-201 -6q-17 -80 -91.5 -438.5t-120 -567.5t-63.5 -268q0 -10 -10 -10q-8 -1 -24.5 -3.5t-28.5 -4.5t-18 -4q-13 0 -9 12zM591.5 96q-3.5 35 8.5 84l272 1299q3 5 14.5 8.5t23.5 5t27 3t17 1.5q7 0 7 -8l-273 -1315q-28 -123 57 -123 q35 0 70 12q6 3 6 -6l-10 -49q-7 -28 -102 -28q-22 0 -40 5t-36.5 18t-28 35.5t-13 57.5z" />
</font>
</defs>
</svg>
